<svg xmlns="http://www.w3.org/2000/svg" viewBox="0 0 180 36" fill="none">
  <g transform="translate(2, 2) scale(0.889)">
    <path fill="#CCD6DD" d="M18 36C3.042 36 1 22 1 18h34c0 2-1.958 18-17 18z"/>
    <path fill="#99AAB5" d="M35 17.056c0 5.216-7.611 9.444-17 9.444S1 22.271 1 17.056c0-5.216 7.611-8.444 17-8.444 9.389-.001 17 3.228 17 8.444z"/>
    <path fill="#EA596E" d="M19.5 33H17c-.276 0-.5-.224-.5-.5s.224-.5.5-.5h2v-3h-4v1h3c.276 0 .5.224.5.5s-.224.5-.5.5h-3.5c-.276 0-.5-.224-.5-.5v-2c0-.276.224-.5.5-.5h5c.276 0 .5.224.5.5v4c0 .276-.224.5-.5.5zm5.5-1c-.198 0-.386-.119-.464-.315-.103-.256.021-.547.278-.649l2.176-.871-.065-2.249-3.925.975v.949c.734-.206 1.958-.553 2.858-.819.262-.076.543.072.621.338.078.265-.073.543-.338.621-1.378.407-3.507 1.002-3.507 1.002-.154.042-.312.011-.438-.083-.123-.095-.196-.243-.196-.399v-2c0-.229.156-.43.38-.485l4.906-1.219c.144-.036.303-.004.422.087.121.092.193.232.198.384L28 30.485c.006.21-.119.401-.315.479l-2.5 1c-.06.024-.123.036-.185.036z"/>
    <ellipse fill="#FFAC33" cx="18" cy="18" rx="15" ry="7"/>
    <path fill="#FFD983" d="M22 24c-1.18 0-2.122-.196-2.801-.584-.767-.438-1.208-1.143-1.208-1.933C17.992 19.628 20.332 18 23 18c.553 0 1 .448 1 1 0 .553-.447 1-1 1-1.872 0-3.008 1.03-3.008 1.483 0 .076.152.169.199.196.21.12.724.321 1.809.321 2.404 0 5-1.529 5-4 0-.721-.94-1.183-1.343-1.348-2.02-.826-5.291-.579-6.944 1.104-1.441 1.467-3.792 1.956-6.29 1.301-1.538-.402-3.319-1.338-3.705-2.761-.196-.725.008-1.436.575-2.004C11.586 12 15.871 12 19 12c.553 0 1 .448 1 1s-.447 1-1 1c-2.779 0-6.586 0-8.293 1.707-.052.053-.064.081-.064.082.023.157.571.764 1.807 1.189 1.571.541 3.676.559 4.837-.623 2.319-2.361 6.461-2.644 9.128-1.554C28.058 15.473 29 16.639 29 18c0 3.706-3.634 6-7 6zm-7 0c-7.605 0-10-5.456-10-7 0-.552.448-1 1-1 .551 0 .998.445 1 .995.036.663 1.701 5.005 8 5.005.552 0 1 .447 1 1s-.448 1-1 1z"/>
    <path fill="#AA695B" d="M35.092 3.053l-23.005.886c-.55.049-1.036-.356-1.085-.907-.049-.55.356-1.036.906-1.085L34.824.066c.551-.05 1.036.356 1.086.906.048.549-.267 2.031-.818 2.081zM35 8L12 7c-.552 0-1-.448-1-1s.448-1 1-1h23c.553 0 1 .448 1 1s-.447 2-1 2z"/>
    <path fill="#FFD983" d="M14 15c-.552 0-1-.448-1-1V2c0-.552.448-1 1-1s1 .448 1 1v12c0 .552-.448 1-1 1zm4 2c-.552 0-1-.448-1-1V1c0-.552.448-1 1-1s1 .448 1 1v15c0 .552-.448 1-1 1z"/>
  </g>
  <text x="40" y="25" font-size="17" font-family="system-ui, -apple-system, sans-serif" font-weight="600" fill="#f9fafb">Logo Soup</text>
</svg>
