<svg width="422" height="48" viewBox="0 0 422 48" fill="none" xmlns="http://www.w3.org/2000/svg">
<g clip-path="url(#clip0_69_2)">
<path d="M59.4426 31.192C59.4426 33.8805 60.3149 36.3368 61.9074 38.1208C63.5 39.9051 65.8125 41.0171 68.6928 41.0171C71.4616 41.0171 73.7746 39.9608 75.3954 38.2045C77.0165 36.4483 77.945 33.992 77.945 31.192C77.945 28.3907 77.0165 25.9339 75.3954 24.1774C73.7746 22.4208 71.4616 21.3646 68.6928 21.3646C65.8125 21.3646 63.5 22.4766 61.9074 24.261C60.3149 26.0454 59.4426 28.5021 59.4426 31.192ZM84.2181 46.5235H80.8733H77.5285V44.6827V42.8421C76.4722 44.2024 75.1517 45.3229 73.5512 46.1032C71.9506 46.8832 70.0698 47.3235 67.8928 47.3235C63.604 47.3235 59.7712 45.6349 57.0104 42.7741C54.2498 39.9133 52.561 35.8805 52.561 31.192C52.561 26.5022 54.2498 22.4687 57.0104 19.6077C59.7712 16.7467 63.604 15.0581 67.8928 15.0581C70.0698 15.0581 71.9506 15.5066 73.5512 16.2952C75.1517 17.0838 76.4722 18.2125 77.5285 19.5729V17.7155V15.8581H80.8733H84.2181V31.1907V46.5235Z" fill="#0B0B0B"/>
<path d="M111.758 21.9402H105.885H100.012V28.6144V35.2885C100.012 37.353 100.555 38.7856 101.435 39.7016C102.315 40.6178 103.531 41.0178 104.876 41.0178C105.916 41.0178 107.004 40.7861 108.06 40.4098C109.116 40.0338 110.141 39.5136 111.053 38.9365L112.382 41.6093L113.71 44.2824C112.477 45.1146 111.085 45.8752 109.521 46.4274C107.956 46.98 106.22 47.3242 104.299 47.3242C100.826 47.3242 98.0734 46.3877 96.1889 44.4309C94.3046 42.4741 93.2883 39.497 93.2883 35.4154V28.6778V21.9402H90.2321H87.1758V18.8996V15.8589H90.2321H93.2883V10.1936V4.52814H96.6499H100.012V10.1935V15.8589H105.885H111.758V18.8996V21.9402Z" fill="#0B0B0B"/>
<path d="M123.101 19.5077C124.333 17.7473 125.894 16.6348 127.534 15.9624C129.175 15.2899 130.895 15.0576 132.447 15.0576C136.096 15.0576 139.209 16.3144 141.41 18.4674C143.611 20.6203 144.899 23.6693 144.899 27.2538V36.8882V46.5229H141.538H138.176V37.9925V29.4621C138.176 26.8861 137.512 24.8777 136.288 23.5134C135.064 22.149 133.279 21.4287 131.039 21.4287C128.878 21.4287 126.894 22.1407 125.449 23.5089C124.005 24.8772 123.101 26.9016 123.101 29.5266V38.0248V46.5229H119.741H116.38V25.515V4.50714H119.741H123.101V12.0074V19.5077Z" fill="#0B0B0B"/>
<path d="M156.415 28.5674H164.369H172.323C171.956 26.1819 171.075 24.2933 169.755 23.0011C168.435 21.7089 166.674 21.0131 164.546 21.0131C162.161 21.0131 160.305 21.7813 158.956 23.1097C157.607 24.4381 156.767 26.3267 156.415 28.5674ZM179.173 31.1589C179.173 31.5914 179.157 32.0232 179.133 32.4429C179.109 32.8626 179.077 33.2704 179.046 33.6549H167.715H156.383C156.831 36.408 158.023 38.3608 159.648 39.625C161.272 40.8893 163.329 41.4656 165.507 41.4656C167.042 41.4656 168.626 41.1613 170.143 40.605C171.66 40.0488 173.109 39.2405 174.373 38.232L176.037 40.6176L177.7 43.0032C175.828 44.6032 173.836 45.6834 171.732 46.3634C169.627 47.0437 167.411 47.324 165.09 47.324C160.496 47.324 156.575 45.7234 153.803 42.9064C151.03 40.0896 149.406 36.056 149.406 31.1901C149.406 26.3891 150.966 22.3562 153.654 19.5236C156.343 16.691 160.159 15.0587 164.673 15.0587C168.962 15.0587 172.579 16.691 175.128 19.5197C177.677 22.3484 179.158 26.3735 179.173 31.1589Z" fill="#0B0B0B"/>
<path d="M212.442 27.2541V36.8885V46.5232H209.082H205.721V37.9928V29.4624C205.721 26.8853 205.058 24.8763 203.833 23.5117C202.608 22.1471 200.823 21.4267 198.582 21.4267C196.421 21.4267 194.437 22.1393 192.992 23.5081C191.548 24.8769 190.644 26.9021 190.644 29.5272V38.025V46.5232H187.284H183.923V31.1917V15.8602H187.252H190.582V17.7321V19.6039C191.813 17.7955 193.38 16.659 195.033 15.9746C196.685 15.2902 198.421 15.0579 199.99 15.0579C203.639 15.0579 206.752 16.3147 208.953 18.4677C211.154 20.6206 212.442 23.6697 212.442 27.2541Z" fill="#0B0B0B"/>
<path d="M223.709 31.192C223.709 33.8805 224.581 36.3368 226.174 38.1208C227.766 39.9051 230.079 41.0171 232.959 41.0171C235.728 41.0171 238.041 39.9608 239.662 38.2045C241.283 36.4483 242.211 33.992 242.211 31.192C242.211 28.3907 241.283 25.9339 239.662 24.1774C238.041 22.4208 235.728 21.3646 232.959 21.3646C230.079 21.3646 227.766 22.4766 226.174 24.261C224.581 26.0454 223.709 28.5021 223.709 31.192ZM248.484 46.5235H245.139H241.795V44.6827V42.8421C240.738 44.2024 239.418 45.3229 237.818 46.1032C236.217 46.8832 234.336 47.3235 232.159 47.3235C227.87 47.3235 224.038 45.6349 221.277 42.7741C218.516 39.9133 216.827 35.8805 216.827 31.192C216.827 26.5022 218.516 22.4687 221.277 19.6077C224.038 16.7467 227.87 15.0581 232.159 15.0581C234.336 15.0581 236.217 15.5066 237.818 16.2952C239.418 17.0838 240.738 18.2125 241.795 19.5729V17.7155V15.8581H245.139H248.484V31.1907V46.5235Z" fill="#0B0B0B"/>
<path d="M259.019 21.6203C260.203 19.6359 261.852 18.2114 263.72 17.283C265.589 16.3546 267.677 15.9223 269.741 15.9223C273.52 15.9223 276.688 17.0905 278.915 19.1911C281.139 21.2916 282.419 24.3245 282.419 28.0538V37.2882V46.5229H280.595H278.771V37.8488V29.1746C278.771 26.134 277.888 23.6855 276.24 21.9972C274.592 20.3089 272.176 19.3808 269.101 19.3808C266.269 19.3808 263.748 20.3969 261.936 22.1532C260.123 23.9094 259.019 26.4058 259.019 29.3664V37.9445V46.5229H257.195H255.371V25.515V4.50714H257.195H259.019V13.0637V21.6203Z" fill="#0B0B0B"/>
<path d="M291.317 29.6557H302.088H312.859C312.587 26.5337 311.387 23.9087 309.547 22.0641C307.707 20.2195 305.224 19.1555 302.392 19.1555C299.336 19.1555 296.741 20.2519 294.827 22.1126C292.909 23.9733 291.669 26.5984 291.317 29.6557ZM316.573 31.2869C316.573 31.5589 316.565 31.8229 316.552 32.0749C316.541 32.3272 316.525 32.5672 316.507 32.7912H303.88H291.253C291.525 36.2965 292.893 39.0576 294.965 40.9421C297.037 42.8269 299.816 43.8352 302.904 43.8352C305 43.8352 306.883 43.4189 308.571 42.6746C310.259 41.9304 311.755 40.8581 313.083 39.5456L314.059 40.7946L315.037 42.0437C313.131 43.9789 311.131 45.2192 309.061 45.9754C306.995 46.7317 304.859 47.004 302.68 47.004C298.28 47.004 294.493 45.4192 291.811 42.6858C289.125 39.9528 287.541 36.0714 287.541 31.4786C287.541 26.9338 289.149 23.0446 291.819 20.2917C294.485 17.5387 298.216 15.922 302.459 15.922C306.475 15.922 309.979 17.5148 312.491 20.2318C315.003 22.9488 316.525 26.7901 316.573 31.2869Z" fill="#0B0B0B"/>
<path d="M323.573 31.4792C323.573 34.872 324.797 37.8965 326.877 40.0728C328.96 42.2493 331.896 43.5773 335.323 43.5773C338.731 43.5773 341.659 42.281 343.736 40.1205C345.811 37.96 347.037 34.9357 347.037 31.4792C347.037 28.0229 345.811 24.9901 343.736 22.8213C341.659 20.6525 338.731 19.3478 335.323 19.3478C331.864 19.3478 328.928 20.6765 326.853 22.8573C324.781 25.038 323.573 28.0709 323.573 31.4792ZM350.461 46.5234H348.653H346.845V43.6264V40.7296C345.627 42.6181 344.011 44.1869 342.013 45.2834C340.019 46.3802 337.64 47.0048 334.904 47.0048C330.68 47.0048 326.917 45.364 324.213 42.6029C321.509 39.8421 319.861 35.9608 319.861 31.4792C319.861 26.9978 321.509 23.1088 324.213 20.34C326.917 17.5711 330.68 15.9227 334.904 15.9227C337.64 15.9227 340.019 16.5544 342.013 17.6547C344.011 18.755 345.627 20.3238 346.845 22.1979V19.2998V16.4018H348.653H350.461V31.4626V46.5234Z" fill="#0B0B0B"/>
<path d="M361.573 46.5234H359.746H357.922V25.5154V4.50745H359.746H361.573V25.5154V46.5234Z" fill="#0B0B0B"/>
<path d="M389.562 19.7317H382.616H375.669V27.9424V36.153C375.669 38.6968 376.341 40.553 377.514 41.7733C378.688 42.9936 380.36 43.5781 382.362 43.5781C383.658 43.5781 384.898 43.3541 386.034 42.9541C387.17 42.5541 388.202 41.9781 389.082 41.2738L389.946 42.6344L390.81 43.9946C389.738 44.8906 388.458 45.6426 386.994 46.1709C385.528 46.6989 383.88 47.0032 382.072 47.0032C378.936 47.0032 376.421 46.1306 374.693 44.3461C372.965 42.5613 372.021 39.8645 372.021 36.2154V27.9736V19.7317H368.565H365.106V18.067V16.4024H368.565H372.021V10.4653V4.52814H373.845H375.669V10.4653V16.4024H382.616H389.562V18.067V19.7317Z" fill="#0B0B0B"/>
<path d="M397.936 21.6203C399.12 19.6359 400.768 18.2114 402.637 17.283C404.504 16.3546 406.594 15.9223 408.658 15.9223C412.434 15.9223 415.605 17.0905 417.829 19.1911C420.053 21.2916 421.333 24.3245 421.333 28.0538V37.2882V46.5229H419.509H417.682V37.8488V29.1746C417.682 26.134 416.802 23.6855 415.154 21.9972C413.509 20.3089 411.091 19.3808 408.019 19.3808C405.187 19.3808 402.664 20.3969 400.853 22.1532C399.04 23.9094 397.936 26.4058 397.936 29.3664V37.9445V46.5229H396.109H394.285V25.515V4.50714H396.109H397.936V13.0637V21.6203Z" fill="#0B0B0B"/>
<path d="M25.5781 14.829C25.5781 15.6505 25.9112 16.394 26.4495 16.9321C26.9877 17.4702 27.7312 17.8029 28.552 17.8029C29.3725 17.8029 30.1165 17.4702 30.6552 16.9321C31.1941 16.394 31.5275 15.6505 31.5275 14.829C31.5275 14.0083 31.1941 13.2644 30.6552 12.7257C30.1165 12.1869 29.3725 11.8533 28.552 11.8533C27.7312 11.8533 26.9877 12.1869 26.4495 12.7257C25.9112 13.2644 25.5781 14.0083 25.5781 14.829Z" fill="#0B0B0B"/>
<path d="M13.946 11.8533C13.946 14.0292 14.3814 16.103 15.1694 17.9932C15.9573 19.8833 17.0979 21.5898 18.5084 23.031C19.919 21.5898 21.0596 19.8833 21.8475 17.9932C22.6355 16.103 23.0708 14.0292 23.0708 11.8533C23.0708 9.67739 22.6355 7.60358 21.8475 5.71345C21.0596 3.82329 19.919 2.11683 18.5084 0.675598C17.0979 2.11683 15.9573 3.82329 15.1694 5.71345C14.3814 7.60358 13.946 9.67739 13.946 11.8533Z" fill="#0B0B0B"/>
<path d="M24.8346 26.7386C22.6175 29.7581 21.1088 33.0797 20.2768 36.5058C19.4448 39.9317 19.2894 43.4621 19.779 46.8997C23.2055 46.3368 26.5275 45.1309 29.5472 43.3109C32.5669 41.4909 35.2843 39.0565 37.5013 36.0368C39.7184 33.0173 41.2269 29.6957 42.0592 26.2696C42.8912 22.8436 43.0464 19.3132 42.5568 15.8758C39.1304 16.4385 35.8083 17.6444 32.7885 19.4645C29.7688 21.2846 27.0515 23.719 24.8346 26.7386Z" fill="#0B0B0B"/>
<path d="M13.5187 21.6913C11.8533 19.3787 9.81224 17.5014 7.54419 16.0841C5.27611 14.6667 2.78104 13.7093 0.207584 13.2363C-0.159694 15.827 -0.0425872 18.497 0.582696 21.0974C1.20798 23.6978 2.34143 26.2286 4.00683 28.5413C5.49915 30.6136 7.29336 32.3349 9.28224 33.6891C11.2711 35.0435 13.4547 36.0304 15.7258 36.6336V41.3344V46.0352C15.7258 46.2736 15.8227 46.4896 15.9795 46.6461C16.1363 46.8029 16.3529 46.8997 16.5921 46.8997C16.8305 46.8997 17.0466 46.8029 17.2032 46.6461C17.3597 46.4896 17.4567 46.2736 17.4567 46.0352V41.0091V35.9827C17.4576 35.9427 17.4576 35.8987 17.4574 35.852C17.4571 35.8051 17.4567 35.7555 17.4567 35.7043C17.6461 33.3075 17.4244 30.8651 16.7748 28.4915C16.1253 26.1176 15.0464 23.8126 13.5187 21.6913Z" fill="#0B0B0B"/>
</g>
<defs>
<clipPath id="clip0_69_2">
<rect width="421.333" height="48" fill="white"/>
</clipPath>
</defs>
</svg>
