<svg width="360" height="65" viewBox="0 0 360 65" fill="none" xmlns="http://www.w3.org/2000/svg">
<g clip-path="url(#clip0_63_419)">
<path fill-rule="evenodd" clip-rule="evenodd" d="M90.063 53.1707L86.4175 64.196H84.0168L81.2605 54.9489L78.5041 64.196H76.1924L72.5469 53.1707H74.5919L77.3482 62.4177L80.1046 53.1707H82.4164L85.1727 62.4177L88.018 53.1707H90.063Z" fill="#0B0B0B"/>
<path fill-rule="evenodd" clip-rule="evenodd" d="M105.801 58.6834C105.801 60.4617 105.09 61.9733 103.578 63.0402C102.244 64.0183 100.644 64.4629 98.6878 64.4629C96.7317 64.4629 95.1313 63.9294 93.7976 62.9513C92.286 61.7955 91.5747 60.3728 91.5747 58.5945C91.5747 56.8163 92.286 55.3936 93.7976 54.2377C95.1313 53.2597 96.7317 52.7262 98.6878 52.7262C100.644 52.7262 102.244 53.2597 103.489 54.2377C105.001 55.3936 105.801 56.9052 105.801 58.6834ZM103.845 58.6834C103.845 57.3497 103.311 56.3717 102.155 55.5715C101.177 54.8601 100.022 54.5045 98.5989 54.5045C97.0874 54.5045 95.8426 54.8601 94.8645 55.6604C93.8865 56.4606 93.4419 57.4387 93.4419 58.6834C93.4419 59.9282 93.8865 60.9063 94.8645 61.7065C95.8426 62.5068 97.0874 62.8624 98.6878 62.8624C100.288 62.8624 101.533 62.5068 102.422 61.7065C103.4 60.9063 103.845 59.9282 103.845 58.6834Z" fill="#0B0B0B"/>
<path fill-rule="evenodd" clip-rule="evenodd" d="M121.45 64.196H119.316L116.293 60.0171H110.691V64.196H108.824V53.1707H117.537C118.693 53.1707 119.582 53.5263 120.294 54.1487C120.916 54.7711 121.272 55.5713 121.272 56.6383C121.272 57.6164 121.005 58.3277 120.471 58.8612C119.938 59.3946 119.316 59.7503 118.426 59.8392L121.45 64.196ZM117.36 58.3277C118.782 58.3277 119.493 57.7942 119.493 56.6383C119.493 55.3935 118.693 54.86 117.182 54.86H110.78V58.3277H117.36Z" fill="#0B0B0B"/>
<path fill-rule="evenodd" clip-rule="evenodd" d="M137.099 64.196H134.698L129.363 58.4166L126.073 60.8173V64.196H124.295V53.1707H126.073V58.8612L133.809 53.1707H136.476L130.786 57.3496L137.099 64.196Z" fill="#0B0B0B"/>
<path d="M145.368 53.1707H143.5V64.196H145.368V53.1707Z" fill="#0B0B0B"/>
<path fill-rule="evenodd" clip-rule="evenodd" d="M161.372 64.196H159.15L150.703 55.1268V64.196H148.835V53.1707H151.147L159.594 62.2399V53.1707H161.372V64.196Z" fill="#0B0B0B"/>
<path fill-rule="evenodd" clip-rule="evenodd" d="M178.444 53.1707C179.6 53.1707 180.489 53.5263 181.111 54.1487C181.733 54.7711 182.089 55.5713 182.089 56.6383C182.089 57.7053 181.733 58.5944 181.022 59.1279C180.311 59.7503 179.333 60.0171 177.999 60.0171H171.419V64.196H169.552V53.1707H178.444ZM178.088 58.3277C179.511 58.3277 180.222 57.7942 180.222 56.6383C180.222 55.3935 179.511 54.86 177.999 54.86H171.508V58.3277H178.088Z" fill="#0B0B0B"/>
<path fill-rule="evenodd" clip-rule="evenodd" d="M196.671 64.196H194.537L191.514 60.0171H185.913V64.196H184.045V53.1707H192.759C193.915 53.1707 194.804 53.5263 195.515 54.1487C196.138 54.7711 196.493 55.5713 196.493 56.6383C196.493 57.6164 196.227 58.3277 195.693 58.8612C195.16 59.3946 194.537 59.7503 193.648 59.8392L196.671 64.196ZM192.581 58.3277C194.004 58.3277 194.715 57.7942 194.715 56.6383C194.715 55.3935 193.915 54.86 192.403 54.86H186.002V58.3277H192.581Z" fill="#0B0B0B"/>
<path fill-rule="evenodd" clip-rule="evenodd" d="M213.12 58.6834C213.12 60.4617 212.409 61.9733 210.897 63.0402C209.564 64.0183 207.963 64.4629 206.007 64.4629C204.051 64.4629 202.451 63.9294 201.117 62.9513C199.605 61.7955 198.894 60.3728 198.894 58.5945C198.894 56.8163 199.605 55.3936 201.117 54.2377C202.451 53.2597 204.051 52.7262 206.007 52.7262C207.963 52.7262 209.564 53.2597 210.809 54.2377C212.409 55.3936 213.12 56.9052 213.12 58.6834ZM211.253 58.6834C211.253 57.3497 210.72 56.3717 209.564 55.5715C208.586 54.8601 207.43 54.5045 206.007 54.5045C204.496 54.5045 203.251 54.8601 202.273 55.6604C201.295 56.4606 200.85 57.4387 200.85 58.6834C200.85 59.9282 201.295 60.9063 202.273 61.7065C203.251 62.5068 204.496 62.8624 206.007 62.8624C207.608 62.8624 208.852 62.5068 209.742 61.7065C210.72 60.9063 211.253 59.9282 211.253 58.6834Z" fill="#0B0B0B"/>
<path fill-rule="evenodd" clip-rule="evenodd" d="M229.747 58.5056C229.747 60.2839 229.125 61.7954 227.791 62.8624C226.546 63.9293 224.768 64.5517 222.723 64.5517C220.767 64.5517 219.166 64.0183 217.833 63.0402C216.321 61.8843 215.61 60.4617 215.61 58.6834C215.61 56.9051 216.321 55.4825 217.833 54.3266C219.166 53.3485 220.767 52.8151 222.812 52.8151C225.213 52.8151 227.258 53.7042 228.769 55.4825L227.08 56.3716C225.924 55.1268 224.501 54.5044 222.634 54.5044C221.211 54.5044 220.056 54.8601 219.078 55.5714C218.011 56.3716 217.388 57.4386 217.388 58.6834C217.388 59.9282 217.833 60.9063 218.811 61.7065C219.789 62.5067 221.034 62.8624 222.545 62.8624C224.946 62.8624 226.546 61.8843 227.258 60.0171H222.101V58.3277H229.48V58.5056H229.747Z" fill="#0B0B0B"/>
<path fill-rule="evenodd" clip-rule="evenodd" d="M245.396 64.196H243.262L240.239 60.0171H234.638V64.196H232.771V53.1707H241.484C242.64 53.1707 243.529 53.5263 244.24 54.1487C244.863 54.7711 245.219 55.5713 245.219 56.6383C245.219 57.6164 244.952 58.3277 244.418 58.8612C243.885 59.3946 243.262 59.7503 242.373 59.8392L245.396 64.196ZM241.306 58.3277C242.729 58.3277 243.44 57.7942 243.44 56.6383C243.44 55.3935 242.64 54.86 241.128 54.86H234.727V58.3277H241.306Z" fill="#0B0B0B"/>
<path fill-rule="evenodd" clip-rule="evenodd" d="M259.8 64.196H248.241V53.1707H259.355V54.86H250.108V57.6164H256.51V59.3057H250.108V62.5067H259.8V64.196Z" fill="#0B0B0B"/>
<path fill-rule="evenodd" clip-rule="evenodd" d="M271.715 55.7493C270.114 54.949 268.425 54.5045 266.735 54.5045C265.58 54.5045 264.779 54.6823 264.157 54.8601C263.535 55.1269 263.268 55.4825 263.268 55.9271C263.268 56.3717 263.623 56.7273 264.246 56.9941C264.69 57.1719 265.491 57.2608 266.469 57.3497C267.98 57.4386 268.958 57.5275 269.492 57.6165C270.914 57.7943 271.893 58.1499 272.515 58.6834C273.137 59.2169 273.493 59.9282 273.493 60.8174C273.493 61.9733 272.959 62.8624 271.981 63.5737C270.914 64.1961 269.492 64.5518 267.536 64.5518C264.69 64.5518 262.557 63.9294 260.956 62.6846L261.934 61.3509C263.623 62.4178 265.491 62.9513 267.536 62.9513C268.869 62.9513 269.847 62.7735 270.559 62.4178C271.27 62.0622 271.537 61.6176 271.537 60.9952C271.537 60.2839 271.092 59.8393 270.203 59.5726C269.759 59.4837 268.514 59.3058 266.38 59.2169C264.602 59.128 263.268 58.8613 262.557 58.5056C261.667 58.061 261.312 57.3497 261.312 56.3717C261.312 55.3047 261.756 54.5045 262.734 53.8821C263.712 53.2597 265.046 52.9929 266.824 52.9929C269.225 52.9929 271.181 53.5264 272.782 54.5934L271.715 55.7493Z" fill="#0B0B0B"/>
<path fill-rule="evenodd" clip-rule="evenodd" d="M285.674 55.7493C284.074 54.949 282.384 54.5045 280.695 54.5045C279.539 54.5045 278.739 54.6823 278.116 54.8601C277.494 55.1269 277.227 55.4825 277.227 55.9271C277.227 56.3717 277.583 56.7273 278.205 56.9941C278.65 57.1719 279.45 57.2608 280.428 57.3497C281.94 57.4386 282.918 57.5275 283.451 57.6165C284.874 57.7943 285.852 58.1499 286.474 58.6834C287.097 59.2169 287.452 59.9282 287.452 60.8174C287.452 61.9733 286.919 62.8624 285.941 63.5737C284.874 64.1961 283.451 64.5518 281.495 64.5518C278.65 64.5518 276.516 63.9294 274.916 62.6846L275.894 61.3509C277.583 62.4178 279.45 62.9513 281.495 62.9513C282.829 62.9513 283.807 62.7735 284.518 62.4178C285.23 62.0622 285.496 61.6176 285.496 60.9952C285.496 60.2839 285.052 59.8393 284.163 59.5726C283.718 59.4837 282.473 59.3058 280.339 59.2169C278.561 59.128 277.227 58.8613 276.516 58.5056C275.627 58.061 275.271 57.3497 275.271 56.3717C275.271 55.3047 275.716 54.5045 276.694 53.8821C277.672 53.2597 279.006 52.9929 280.784 52.9929C283.185 52.9929 285.141 53.5264 286.741 54.5934L285.674 55.7493Z" fill="#0B0B0B"/>
<path fill-rule="evenodd" clip-rule="evenodd" d="M325.064 34.5876H325.953C326.397 34.5876 326.664 34.7655 326.664 35.1211C326.664 35.5657 326.308 35.7435 325.686 35.7435H324.975V34.5876H325.064ZM324.352 38.0553H324.975V36.277H325.419L326.575 38.0553H327.375L326.219 36.277C326.753 36.1881 327.286 35.9213 327.286 35.1211C327.286 34.3209 326.842 33.9652 325.864 33.9652H324.352V38.0553ZM328.442 36.0103C328.442 37.6107 327.197 38.8555 325.686 38.8555C324.174 38.8555 322.93 37.6107 322.93 36.0103C322.93 34.4098 324.174 33.165 325.686 33.165C327.197 33.165 328.442 34.4987 328.442 36.0103ZM322.218 36.0103C322.218 37.8775 323.73 39.4779 325.686 39.4779C327.553 39.4779 329.154 37.9664 329.154 36.0103C329.154 34.0541 327.642 32.5426 325.686 32.5426C323.819 32.5426 322.218 34.1431 322.218 36.0103Z" fill="#0B0B0B"/>
<path d="M60.6324 39.4779H41.2491C41.2491 39.7446 29.957 38.4998 29.957 22.6731C29.957 6.75746 41.2491 7.29094 41.2491 7.29094L60.5435 7.20203C60.5435 7.20203 62.8553 7.37985 62.8553 10.4029C62.8553 13.9595 60.5435 13.9595 60.5435 13.9595H42.7607C42.7607 13.9595 37.4258 13.6928 37.5147 21.784C37.5147 26.7632 37.5147 24.3625 37.5147 24.3625C37.5147 24.3625 38.1371 32.2758 43.2052 32.6315H60.6324C60.6324 32.6315 62.8553 32.7204 62.8553 36.0991C62.8553 39.4779 60.6324 39.4779 60.6324 39.4779Z" fill="#0B0B0B"/>
<path d="M73.2583 13.8706H98.0654C99.8437 13.8706 99.3991 15.471 99.3991 15.471C99.3991 15.471 99.3991 27.2077 99.3991 30.4086C99.3991 32.6315 96.6428 32.6315 96.6428 32.6315C96.6428 32.6315 83.7502 32.6315 78.2375 32.6315C74.1475 32.6315 74.1475 28.8971 74.1475 28.8971C74.1475 24.807 78.2375 25.1627 78.2375 25.1627H95.2201C95.2201 25.1627 97.3541 25.1627 97.3541 21.8729C97.3541 18.4052 95.2201 18.3163 95.2201 18.3163C95.2201 18.3163 81.7052 18.3163 74.5031 18.3163C64.9004 18.4052 64.9004 28.8082 64.9004 28.8082C64.9004 39.389 74.4142 39.5668 74.4142 39.5668C74.4142 39.5668 99.488 39.5668 103.756 39.5668C107.846 39.5668 107.579 35.4767 107.579 35.4767C107.579 35.4767 107.579 19.0276 107.579 12.9814C107.579 6.93527 102.333 7.29093 102.333 7.29093H73.0805C73.0805 7.29093 70.502 7.37984 70.502 10.5808C70.5909 13.9595 73.2583 13.8706 73.2583 13.8706Z" fill="#0B0B0B"/>
<path d="M113.537 9.95837C113.537 9.95837 113.803 7.20203 117.627 7.20203C121.45 7.20203 121.717 9.86945 121.717 9.86945V36.1881C121.717 36.1881 121.717 39.389 117.805 39.389C113.714 39.389 113.626 36.1881 113.626 36.1881V9.95837H113.537Z" fill="#0B0B0B"/>
<path d="M123.583 8.89144C123.583 8.71362 123.761 8.6247 123.761 8.6247C123.761 8.6247 127.229 7.11316 133.008 7.11316C138.788 7.11316 145.634 8.98036 145.812 17.7829C145.812 17.7829 145.634 22.4064 144.301 24.0069C144.301 24.0069 144.212 24.1847 144.123 24.1847C143.589 24.0958 139.321 22.7621 137.721 21.9618C137.543 21.8729 137.632 21.6951 137.632 21.6951C137.632 21.6951 139.321 17.605 137.01 14.6709C134.787 11.8256 126.784 12.5369 125.184 13.4261C125.184 13.4261 125.006 13.515 124.917 13.2482C124.562 12.8926 123.583 9.51384 123.583 8.89144Z" fill="#0B0B0B"/>
<path d="M150.969 2.75634C150.969 2.75634 150.969 0 155.148 0C159.149 0 159.238 2.75634 159.238 2.75634V36.6327C159.238 36.6327 159.149 39.4779 155.148 39.4779C150.969 39.4779 150.969 36.6327 150.969 36.6327V2.75634Z" fill="#0B0B0B"/>
<path d="M160.572 9.42496C160.572 9.42496 160.483 9.33604 161.106 8.98039C161.106 8.98039 162.884 7.64667 170.708 7.29102C178.622 7.29102 186.268 9.95844 186.268 22.3175C186.268 22.3175 185.646 31.3868 182.801 38.2332C182.801 38.2332 182.623 39.2112 181.467 39.2112C180.311 39.2112 174.798 39.2112 174.798 39.2112C174.798 39.2112 173.198 39.5669 173.82 38.1443C174.443 36.7216 178.088 28.1859 178.088 23.3845C178.088 18.7609 176.755 13.4261 167.596 13.4261C167.596 13.4261 164.484 13.4261 162.262 14.4931C162.262 14.4931 161.284 15.0266 161.106 14.1374C160.839 13.4261 160.394 10.5808 160.572 9.42496Z" fill="#0B0B0B"/>
<path d="M279.806 3.112C279.806 3.112 279.806 0 283.451 0C287.008 0 287.097 3.112 287.097 3.112V7.29097H296.433C296.433 7.29097 298.567 7.37988 298.567 10.5808C298.567 13.7817 296.522 13.8706 296.522 13.8706H287.097V36.1881C287.097 36.1881 287.008 39.4779 283.451 39.4779C279.895 39.4779 279.806 36.1881 279.806 36.1881V13.9595H275.805C275.805 13.9595 273.76 13.9595 273.76 10.5808C273.76 7.29097 275.716 7.20205 275.716 7.20205L279.806 7.29097V3.112Z" fill="#0B0B0B"/>
<path d="M309.681 3.112C309.681 3.112 309.681 0 313.326 0C316.883 0 316.972 3.112 316.972 3.112V7.20205H327.197C327.197 7.20205 330.042 7.11314 330.042 10.5808C330.042 13.8706 327.286 13.9595 327.286 13.9595H316.972V36.277C316.972 36.277 316.883 39.5668 313.326 39.5668C309.77 39.5668 309.681 36.277 309.681 36.277V14.0484H305.68C305.68 14.0484 303.635 13.9595 303.635 10.6697C303.635 7.37988 305.591 7.29097 305.591 7.29097L309.681 7.37988V3.112Z" fill="#0B0B0B"/>
<path d="M237.661 9.95837C237.661 9.95837 237.927 7.20203 241.751 7.20203C245.574 7.20203 245.841 9.86945 245.841 9.86945V36.1881C245.841 36.1881 245.841 39.389 241.929 39.389C237.838 39.389 237.75 36.1881 237.75 36.1881V9.95837H237.661Z" fill="#0B0B0B"/>
<path d="M247.708 8.89144C247.708 8.71362 247.886 8.6247 247.886 8.6247C247.886 8.6247 251.353 7.11316 257.133 7.11316C262.912 7.11316 269.759 8.98036 269.937 17.7829C269.937 17.7829 269.759 22.4064 268.425 24.0069C268.425 24.0069 268.336 24.1847 268.247 24.1847C267.714 24.0958 263.446 22.7621 261.845 21.9618C261.668 21.8729 261.756 21.6951 261.756 21.6951C261.756 21.6951 263.446 17.605 261.134 14.6709C258.911 11.8256 250.909 12.5369 249.308 13.4261C249.308 13.4261 249.131 13.515 249.042 13.2482C248.686 12.8926 247.708 9.51384 247.708 8.89144Z" fill="#0B0B0B"/>
<path d="M197.293 13.8706H222.101C223.879 13.8706 223.434 15.4711 223.434 15.4711C223.434 15.4711 223.434 27.2078 223.434 30.4087C223.434 32.6315 220.678 32.6315 220.678 32.6315C220.678 32.6315 207.785 32.6315 202.273 32.6315C198.183 32.6315 198.183 28.8971 198.183 28.8971C198.183 24.8071 202.273 25.1627 202.273 25.1627H219.344C219.344 25.1627 221.478 25.1627 221.478 21.8729C221.478 18.4053 219.344 18.3163 219.344 18.3163C219.344 18.3163 205.829 18.3163 198.627 18.3163C189.024 18.4053 189.024 28.8082 189.024 28.8082C189.024 39.2112 198.538 39.4779 198.538 39.4779C198.538 39.4779 223.523 39.4779 227.88 39.4779C231.97 39.4779 231.792 35.3879 231.792 35.3879C231.792 35.3879 231.792 18.9387 231.792 12.8926C231.792 6.8464 226.546 7.20206 226.546 7.20206H197.293C197.293 7.20206 194.715 7.29098 194.715 10.4919C194.626 13.9595 197.293 13.8706 197.293 13.8706Z" fill="#0B0B0B"/>
</g>
<defs>
<clipPath id="clip0_63_419">
<rect width="360" height="64.5517" fill="white"/>
</clipPath>
</defs>
</svg>
