<svg width="355" height="78" viewBox="0 0 355 78" fill="none" xmlns="http://www.w3.org/2000/svg">
<path d="M44.0471 15.924V0L1.6707 15.9482L1.63379 78L44.1031 62.0488V46.1405L16.3786 56.727V26.5878L44.0471 15.924Z" fill="#0B0B0B"/>
<path d="M107.136 43.4754C106.322 47.1219 103.73 49.0004 100.101 49.0004C95.8065 49.0004 92.5114 45.3907 92.5114 38.908C92.5114 32.4622 95.8806 28.9999 100.138 28.9999C103.619 28.9999 106.247 30.9152 107.062 34.5249H111.579C110.505 28.5579 106.247 25.1692 100.287 25.1692C92.5113 25.1692 87.6611 30.51 87.6611 38.908C87.6611 47.2692 92.2152 52.831 100.064 52.831C106.247 52.831 110.542 49.4424 111.653 43.4754H107.136Z" fill="#0B0B0B"/>
<path d="M119.665 38.9817C119.665 32.499 123.182 28.9999 127.625 28.9999C132.068 28.9999 135.585 32.499 135.585 38.9817C135.585 45.4644 132.068 49.0004 127.625 49.0004C123.182 49.0004 119.665 45.4644 119.665 38.9817ZM140.435 38.9817C140.435 30.7679 135.511 25.1692 127.625 25.1692C119.739 25.1692 114.814 30.7679 114.814 38.9817C114.814 47.1955 119.739 52.831 127.625 52.831C135.511 52.831 140.435 47.1955 140.435 38.9817Z" fill="#0B0B0B"/>
<path d="M160.957 52.3521L167.77 30.731V52.3521H172.361V25.6479H165.067L158.587 46.9376L152.071 25.6479H144.777V52.3521H149.368V30.731L156.181 52.3521H160.957Z" fill="#0B0B0B"/>
<path d="M193.933 52.3521L200.745 30.731V52.3521H205.336V25.6479H198.042L191.563 46.9376L185.047 25.6479H177.753V52.3521H182.344V30.731L189.156 52.3521H193.933Z" fill="#0B0B0B"/>
<path d="M210.728 52.3521H229.722V48.411H215.43V40.5655H228.944V36.698H215.43V29.5523H229.722V25.6479H210.728V52.3521Z" fill="#0B0B0B"/>
<path d="M249.835 52.3521H255.129L248.983 40.234C252.315 39.0921 254.018 36.7716 254.018 33.3461C254.018 27.416 249.983 25.6479 242.059 25.6479H233.507V52.3521H238.209V41.118H242.763C243.244 41.118 243.726 41.118 244.17 41.0811L249.835 52.3521ZM242.726 29.4049C246.428 29.4049 249.205 29.8838 249.205 33.383C249.205 36.5875 246.91 37.3978 242.874 37.3978H238.209V29.4049H242.726Z" fill="#0B0B0B"/>
<path d="M276.314 43.4754C275.499 47.1219 272.908 49.0004 269.279 49.0004C264.984 49.0004 261.689 45.3907 261.689 38.908C261.689 32.4622 265.058 28.9999 269.316 28.9999C272.796 28.9999 275.425 30.9152 276.24 34.5249H280.757C279.683 28.5579 275.425 25.1692 269.464 25.1692C261.689 25.1692 256.839 30.51 256.839 38.908C256.839 47.2692 261.393 52.831 269.242 52.831C275.425 52.831 279.72 49.4424 280.831 43.4754H276.314Z" fill="#0B0B0B"/>
<path d="M284.777 52.3521H303.771V48.411H289.479V40.5655H302.993V36.698H289.479V29.5523H303.771V25.6479H284.777V52.3521Z" fill="#0B0B0B"/>
<path d="M318.701 44.396V40.4548H306.631V44.396H318.701Z" fill="#0B0B0B"/>
<path d="M322.77 25.6479V41.2284C322.77 49.8475 326.065 52.8309 333.766 52.8309C341.578 52.8309 344.725 49.516 344.725 41.0811V25.6479H340.023V41.2653C340.023 46.1641 338.69 49.0003 333.766 49.0003C328.767 49.0003 327.472 46.3115 327.472 41.4126V25.6479H322.77Z" fill="#0B0B0B"/>
<path d="M354.416 25.6479H349.714V52.3521H354.416V25.6479Z" fill="#0B0B0B"/>
</svg>
