<svg width="360" height="50" viewBox="0 0 360 50" fill="none" xmlns="http://www.w3.org/2000/svg">
<g clip-path="url(#clip0_63_310)">
<path d="M15.4629 7.73145C15.4629 11.9946 11.9946 15.4629 7.73145 15.4629C3.46831 15.4629 0 11.9946 0 7.73145C0 3.46831 3.46831 0 7.73145 0C11.9946 0 15.4629 3.46831 15.4629 7.73145Z" fill="#0B0B0B"/>
<path d="M32.8042 7.73145C32.8042 11.9946 29.3359 15.4629 25.0728 15.4629C20.8096 15.4629 17.3413 11.9946 17.3413 7.73145C17.3413 3.46831 20.8096 0 25.0728 0C29.3359 0 32.8042 3.46831 32.8042 7.73145Z" fill="#0B0B0B"/>
<path d="M15.4629 24.7659C15.4629 29.0471 11.9946 32.4973 7.73145 32.4973C3.46831 32.4973 0 29.029 0 24.7659C0 20.5027 3.46831 17.0344 7.73145 17.0344C11.9946 17.0344 15.4629 20.5027 15.4629 24.7659Z" fill="#0B0B0B"/>
<path d="M32.8042 24.7659C32.8042 29.0471 29.3359 32.4973 25.0728 32.4973C20.8096 32.4973 17.3413 29.029 17.3413 24.7659C17.3413 20.5027 20.8096 17.0344 25.0728 17.0344C29.3359 17.0344 32.8042 20.5027 32.8042 24.7659Z" fill="#0B0B0B"/>
<path d="M50.29 25.2175C50.29 29.4987 46.8217 32.949 42.5586 32.949C38.2955 32.949 34.8271 29.4807 34.8271 25.2175C34.8271 20.9544 38.2955 17.4861 42.5586 17.4861C46.8217 17.4861 50.29 20.9544 50.29 25.2175Z" fill="#0B0B0B"/>
<path d="M32.8042 41.7822C32.8042 46.0454 29.3359 49.5137 25.0728 49.5137C20.8096 49.5137 17.3413 46.0454 17.3413 41.7822C17.3413 37.5191 20.8096 34.0508 25.0728 34.0508C29.3359 34.0508 32.8042 37.5191 32.8042 41.7822Z" fill="#0B0B0B"/>
<path d="M50.29 41.7822C50.29 46.0454 46.8217 49.5137 42.5586 49.5137C38.2955 49.5137 34.8271 46.0454 34.8271 41.7822C34.8271 37.5191 38.2955 34.0508 42.5586 34.0508C46.8217 34.0508 50.29 37.5191 50.29 41.7822Z" fill="#0B0B0B"/>
<path d="M88.1711 21.3519C87.9543 21.6409 87.7375 21.8577 87.5388 22.0203C87.3401 22.1828 87.0511 22.2551 86.6718 22.2551C86.2924 22.2551 85.895 22.1286 85.4976 21.8577C85.0821 21.5867 84.5944 21.2977 84.0344 20.9725C83.4744 20.6474 82.788 20.3584 81.9931 20.0874C81.1983 19.8164 80.1867 19.69 78.9945 19.69C77.441 19.69 76.0862 19.9609 74.912 20.5209C73.7378 21.0809 72.7624 21.8757 71.9856 22.9054C71.1908 23.935 70.6127 25.1995 70.2153 26.6627C69.8179 28.1259 69.6373 29.8059 69.6373 31.6484C69.6373 33.491 69.854 35.2613 70.2695 36.7425C70.685 38.2238 71.2992 39.4883 72.094 40.4999C72.8888 41.5295 73.8462 42.3063 74.9662 42.8301C76.0862 43.3721 77.3507 43.625 78.7416 43.625C80.1325 43.625 81.2345 43.4624 82.1015 43.1192C82.9686 42.794 83.6912 42.4147 84.2692 42.0172C84.8473 41.6198 85.335 41.2405 85.7505 40.9153C86.166 40.5902 86.5995 40.4095 87.0692 40.4095C87.6472 40.4095 88.0988 40.6263 88.4059 41.0779L90.4472 43.7153C89.6343 44.7088 88.713 45.5578 87.7195 46.2443C86.726 46.9307 85.6602 47.4907 84.5583 47.9242C83.4383 48.3578 82.3002 48.6648 81.0899 48.8636C79.8977 49.0442 78.6874 49.1526 77.459 49.1526C75.3455 49.1526 73.3766 48.7552 71.5521 47.9784C69.7276 47.1836 68.1199 46.0455 66.747 44.5462C65.3741 43.0469 64.3083 41.2224 63.5135 39.0547C62.7187 36.887 62.3394 34.4122 62.3394 31.6304C62.3394 29.1195 62.7006 26.7892 63.4051 24.6576C64.1096 22.508 65.1574 20.6654 66.5122 19.1119C67.885 17.5584 69.565 16.3481 71.5882 15.463C73.6114 14.5778 75.9417 14.1443 78.579 14.1443C81.0538 14.1443 83.2215 14.5417 85.1002 15.3365C86.9788 16.1313 88.6588 17.2694 90.122 18.7326L88.2253 21.3338L88.1711 21.3519Z" fill="#0B0B0B"/>
<path d="M110.227 14.1624C112.738 14.1624 115.014 14.5778 117.038 15.3907C119.061 16.2217 120.795 17.3778 122.24 18.8952C123.667 20.4125 124.787 22.237 125.564 24.3867C126.341 26.5363 126.72 28.9569 126.72 31.6484C126.72 34.34 126.341 36.7606 125.564 38.9102C124.787 41.0599 123.685 42.9024 122.24 44.4198C120.813 45.9372 119.079 47.1113 117.038 47.9423C114.996 48.7732 112.738 49.1707 110.227 49.1707C107.716 49.1707 105.404 48.7552 103.381 47.9423C101.358 47.1294 99.6057 45.9552 98.1606 44.4198C96.7154 42.9024 95.6135 41.0599 94.8187 38.9102C94.0419 36.7606 93.6445 34.34 93.6445 31.6484C93.6445 28.9569 94.0419 26.5363 94.8187 24.3867C95.5955 22.237 96.6974 20.3945 98.1606 18.8952C99.6057 17.3778 101.34 16.2217 103.381 15.3907C105.404 14.5778 107.698 14.1624 110.227 14.1624ZM110.227 43.5888C113.298 43.5888 115.574 42.5592 117.074 40.4999C118.573 38.4405 119.332 35.5142 119.332 31.6846C119.332 27.855 118.573 24.9105 117.074 22.8331C115.574 20.7558 113.298 19.708 110.227 19.708C107.157 19.708 104.808 20.7558 103.291 22.8331C101.773 24.9105 101.033 27.855 101.033 31.6846C101.033 35.5142 101.791 38.4405 103.291 40.4999C104.808 42.5592 107.12 43.5888 110.227 43.5888Z" fill="#0B0B0B"/>
<path d="M140.286 19.1842C141.027 18.4255 141.786 17.7391 142.562 17.1429C143.357 16.5288 144.188 16.0049 145.073 15.5533C145.958 15.1017 146.898 14.7585 147.909 14.5236C148.903 14.2707 150.005 14.1624 151.179 14.1624C153.04 14.1624 154.683 14.4694 156.092 15.1017C157.501 15.7159 158.694 16.601 159.651 17.7391C160.626 18.8771 161.349 20.2319 161.837 21.8215C162.325 23.4112 162.577 25.1634 162.577 27.0602V48.6829H155.442V27.0421C155.442 24.7479 154.918 22.9777 153.852 21.7132C152.787 20.4487 151.197 19.8164 149.029 19.8164C147.422 19.8164 145.94 20.1777 144.586 20.9183C143.213 21.659 141.93 22.6525 140.738 23.917V48.6829H133.566V14.6862H137.902C138.877 14.6862 139.51 15.1378 139.762 16.0591L140.268 19.1842H140.286Z" fill="#0B0B0B"/>
<path d="M199.843 0.722656V48.6829H195.508C194.551 48.6829 193.936 48.2313 193.683 47.3101L193.051 43.6069C191.624 45.2688 190.016 46.6236 188.21 47.6352C186.404 48.6649 184.29 49.1707 181.888 49.1707C179.973 49.1707 178.239 48.7913 176.685 48.0146C175.132 47.2559 173.795 46.1359 172.693 44.6727C171.591 43.2095 170.724 41.385 170.11 39.2173C169.496 37.0496 169.188 34.5748 169.188 31.7749C169.188 29.2459 169.532 26.8976 170.2 24.748C170.868 22.5983 171.844 20.7197 173.108 19.13C174.373 17.5404 175.908 16.2939 177.733 15.3907C179.539 14.4875 181.562 14.0359 183.82 14.0359C185.826 14.0359 187.524 14.343 188.915 14.9933C190.305 15.6256 191.57 16.5107 192.69 17.6487V0.722656H199.861H199.843ZM192.672 23.0499C191.678 21.7674 190.576 20.8642 189.366 20.3584C188.156 19.8526 186.873 19.5997 185.464 19.5997C182.664 19.5997 180.479 20.6293 178.907 22.6886C177.335 24.748 176.541 27.7827 176.541 31.793C176.541 33.8884 176.721 35.6587 177.064 37.1399C177.426 38.6212 177.932 39.8315 178.6 40.7528C179.268 41.6921 180.081 42.3605 181.039 42.794C181.996 43.2095 183.062 43.4263 184.272 43.4263C186.097 43.4263 187.668 43.0289 188.987 42.2521C190.305 41.4573 191.534 40.3554 192.672 38.9102V23.0499Z" fill="#0B0B0B"/>
<path d="M237.236 14.6863V48.683H232.901C231.943 48.683 231.329 48.2314 231.076 47.3101L230.552 44.1489C229.848 44.9076 229.089 45.594 228.294 46.2082C227.5 46.8405 226.669 47.3643 225.783 47.8159C224.898 48.2675 223.941 48.6107 222.929 48.8456C221.918 49.0985 220.834 49.2069 219.678 49.2069C217.817 49.2069 216.173 48.8998 214.746 48.2675C213.319 47.6533 212.127 46.7682 211.17 45.6302C210.212 44.4921 209.472 43.1373 208.984 41.5477C208.496 39.958 208.243 38.2058 208.243 36.291V14.6863H215.415V36.3091C215.415 38.6032 215.938 40.3735 217.004 41.638C218.052 42.9025 219.66 43.5347 221.827 43.5347C223.399 43.5347 224.88 43.1734 226.235 42.4509C227.608 41.7283 228.89 40.7348 230.083 39.4703V14.6863H237.254H237.236Z" fill="#0B0B0B"/>
<path d="M269.987 21.3519C269.77 21.6409 269.553 21.8577 269.354 22.0203C269.156 22.1828 268.867 22.2551 268.487 22.2551C268.108 22.2551 267.71 22.1286 267.313 21.8577C266.898 21.5867 266.41 21.2977 265.85 20.9725C265.29 20.6474 264.603 20.3584 263.809 20.0874C263.014 19.8164 262.002 19.69 260.81 19.69C259.256 19.69 257.884 19.9609 256.727 20.5209C255.553 21.0809 254.578 21.8757 253.801 22.9054C253.006 23.935 252.428 25.1995 252.031 26.6627C251.633 28.1259 251.453 29.8059 251.453 31.6484C251.453 33.491 251.669 35.2613 252.085 36.7425C252.5 38.2238 253.115 39.4883 253.909 40.4999C254.704 41.5295 255.644 42.3063 256.782 42.8301C257.902 43.3721 259.166 43.625 260.557 43.625C261.948 43.625 263.05 43.4624 263.917 43.1192C264.784 42.794 265.507 42.4147 266.085 42.0172C266.663 41.6198 267.15 41.2405 267.566 40.9153C267.981 40.5902 268.415 40.4095 268.885 40.4095C269.463 40.4095 269.914 40.6263 270.221 41.0779L272.245 43.7153C271.414 44.7088 270.51 45.5578 269.517 46.2443C268.523 46.9307 267.458 47.4907 266.356 47.9242C265.254 48.3578 264.098 48.6648 262.887 48.8636C261.677 49.0442 260.467 49.1526 259.256 49.1526C257.143 49.1526 255.174 48.7552 253.349 47.9784C251.525 47.1836 249.917 46.0455 248.544 44.5462C247.171 43.0469 246.106 41.2224 245.311 39.0547C244.516 36.887 244.137 34.4122 244.137 31.6304C244.137 29.1195 244.498 26.7892 245.203 24.6576C245.907 22.508 246.955 20.6654 248.328 19.1119C249.7 17.5584 251.38 16.3481 253.404 15.463C255.427 14.5778 257.757 14.1443 260.394 14.1443C262.869 14.1443 265.037 14.5417 266.916 15.3365C268.794 16.1313 270.456 17.2694 271.937 18.7326L270.041 21.3338L269.987 21.3519Z" fill="#0B0B0B"/>
<path d="M295.312 42.6858C295.059 42.2342 294.752 42.0174 294.337 42.0174C294.138 42.0174 293.94 42.0897 293.723 42.2342C293.506 42.3787 293.253 42.5413 292.982 42.7038C292.693 42.8664 292.35 43.029 291.952 43.1735C291.555 43.318 291.067 43.3903 290.525 43.3903C289.532 43.3903 288.719 43.0651 288.123 42.4329C287.527 41.7826 287.22 40.8613 287.22 39.6329V20.3224H296.649V15.156H287.22V3.99237V3.52271H280.428V15.1379H274.828V20.3043H276.201H276.327H280.066V40.1026C280.066 42.9929 280.825 45.2328 282.342 46.8225C283.86 48.4121 286.027 49.2069 288.863 49.2069C290.471 49.2069 292.025 48.954 293.524 48.4302C295.041 47.9063 296.342 47.1657 297.462 46.1902L295.33 42.6858H295.312Z" fill="#0B0B0B"/>
<path d="M316.772 14.1624C319.283 14.1624 321.559 14.5778 323.583 15.3907C325.624 16.2217 327.358 17.3778 328.785 18.8952C330.212 20.4125 331.314 22.237 332.109 24.3867C332.886 26.5363 333.283 28.9569 333.283 31.6484C333.283 34.34 332.886 36.7606 332.109 38.9102C331.332 41.0599 330.23 42.9024 328.785 44.4198C327.358 45.9372 325.624 47.1113 323.583 47.9423C321.559 48.7732 319.283 49.1707 316.772 49.1707C314.261 49.1707 311.949 48.7552 309.926 47.9423C307.903 47.1294 306.151 45.9552 304.705 44.4198C303.26 42.9024 302.158 41.0599 301.364 38.9102C300.587 36.7606 300.189 34.34 300.189 31.6484C300.189 28.9569 300.587 26.5363 301.364 24.3867C302.14 22.237 303.26 20.3945 304.705 18.8952C306.151 17.3778 307.885 16.2217 309.926 15.3907C311.949 14.5778 314.243 14.1624 316.772 14.1624ZM316.772 43.5888C319.843 43.5888 322.119 42.5592 323.619 40.4999C325.118 38.4405 325.877 35.5142 325.877 31.6846C325.877 27.855 325.118 24.9105 323.619 22.8331C322.119 20.7558 319.843 19.708 316.772 19.708C313.701 19.708 311.353 20.7558 309.836 22.8331C308.318 24.9105 307.56 27.855 307.56 31.6846C307.56 35.5142 308.318 38.4405 309.836 40.4999C311.353 42.5592 313.665 43.5888 316.772 43.5888Z" fill="#0B0B0B"/>
<path d="M346.903 20.9906C347.969 18.841 349.252 17.1429 350.769 15.9146C352.287 14.6862 354.093 14.072 356.206 14.072C356.947 14.072 357.634 14.1623 358.266 14.3249C358.916 14.4875 359.494 14.7404 360 15.0655L359.494 20.4667C359.404 20.8461 359.259 21.099 359.079 21.2435C358.898 21.388 358.645 21.4603 358.338 21.4603C358.013 21.4603 357.525 21.4061 356.911 21.2796C356.297 21.1532 355.628 21.099 354.942 21.099C353.948 21.099 353.063 21.2435 352.287 21.5325C351.528 21.8215 350.823 22.237 350.227 22.797C349.613 23.357 349.071 24.0254 348.62 24.8383C348.15 25.6331 347.716 26.5543 347.319 27.5659V48.701H340.147V14.6862H344.32C345.079 14.6862 345.603 14.8307 345.892 15.1017C346.181 15.3726 346.38 15.8604 346.488 16.5468L346.922 20.9725L346.903 20.9906Z" fill="#0B0B0B"/>
</g>
<defs>
<clipPath id="clip0_63_310">
<rect width="360" height="50" fill="white"/>
</clipPath>
</defs>
</svg>
