<svg width="400" height="54" viewBox="0 0 400 54" fill="none" xmlns="http://www.w3.org/2000/svg">
<g clip-path="url(#clip0_69_58)">
<path d="M87.8756 18.0119C91.4796 18.0119 94.578 20.1364 95.4632 23.6364H103.493C102.608 16.1993 95.906 11.2617 87.939 11.2617C78.7074 11.2617 71.0566 18.0741 71.0566 28.0114C71.0566 38.3858 78.4544 45.0734 87.8126 45.0734C95.4634 45.0734 102.292 40.4486 103.493 32.6366H95.4634C94.4518 36.3236 91.4166 38.3236 87.8756 38.3236C83.007 38.3236 79.403 34.0114 79.403 28.0114C79.403 22.1366 82.8804 18.0119 87.8756 18.0119Z" fill="#0B0B0B"/>
<path d="M127.836 29.8862C127.836 35.5738 124.611 38.1988 121.133 38.1988C117.276 38.1988 114.747 35.636 114.747 31.0114V12.0117H106.59V32.3234C106.59 40.761 111.522 45.0732 118.477 45.0732C122.588 45.0732 125.938 43.5734 128.025 40.5734V44.3858H135.929V12.0117H127.836V29.8862Z" fill="#0B0B0B"/>
<path d="M156.459 24.8852L152.158 23.9612C150.911 23.7146 149.892 23.345 149.103 22.852C148.313 22.359 147.919 21.661 147.919 20.7566C147.919 19.2336 149.538 17.5714 152.719 17.5714C154.66 17.5714 158.174 18.3238 158.631 21.7018H166.427C166.082 19.8781 164.489 11.2061 152.844 11.2061C148.979 11.2061 145.924 12.1611 143.68 14.0716C141.435 15.9814 140.313 18.3953 140.313 21.3114C140.313 23.2832 140.812 24.8956 141.81 26.1484C142.807 27.402 144.095 28.3878 145.675 29.1058C147.254 29.825 148.957 30.369 150.787 30.7388L155.337 31.663C156.667 31.9512 157.734 32.3074 158.361 32.9266C160.046 34.5922 159.181 38.5174 153.676 38.5174C147.832 38.5174 146.991 34.3294 146.903 33.123H139.049C139.049 35.5618 140.96 45.0958 154.028 45.0958C156.771 45.0958 159.109 44.6336 161.041 43.7092C162.974 42.785 164.448 41.5326 165.467 39.9508C166.485 38.3696 166.995 36.6138 166.995 34.6824C166.995 29.131 163.494 26.2948 156.459 24.8852Z" fill="#0B0B0B"/>
<path d="M181.301 33.766V18.4784H188.889V12.012H181.293V2.11816H173.266V8.07028L177.254 12.012H167.77V18.4784H173.271V34.6694C173.271 36.9904 173.969 47.4788 188.989 44.6804V37.957C184.733 39.214 181.301 37.9354 181.301 33.766Z" fill="#0B0B0B"/>
<path d="M206.783 11.2617C197.298 11.2617 189.521 17.8244 189.521 28.0114C189.521 38.5112 197.171 45.0734 206.783 45.0734C216.267 45.0734 223.981 38.3858 223.981 28.0114C223.981 17.699 216.331 11.2617 206.783 11.2617ZM206.783 38.3236C201.471 38.3236 197.867 34.1362 197.867 28.0114C197.867 22.074 201.407 18.0119 206.783 18.0119C212.031 18.0119 215.635 22.1366 215.635 28.0114C215.635 34.199 212.031 38.3236 206.783 38.3236Z" fill="#0B0B0B"/>
<path d="M265.837 11.2617C261.285 11.2617 257.365 13.1371 255.151 16.637C253.065 12.8869 249.207 11.2617 245.351 11.2617C241.051 11.2617 237.701 12.8868 235.741 15.8242V12.0119H227.837V44.386H235.929V26.3868C235.929 20.8866 239.155 18.1368 242.633 18.1368C246.109 18.1368 248.765 20.4494 248.765 25.1366V44.386H256.859V26.3868C256.859 20.9492 260.083 18.1368 263.561 18.1368C267.039 18.1368 269.695 20.4494 269.695 25.1366V44.386H277.851V23.824C277.851 14.6995 272.225 11.2617 265.837 11.2617Z" fill="#0B0B0B"/>
<path d="M298.019 11.2617C289.293 11.2617 281.263 17.699 281.263 27.9492C281.263 38.6988 289.041 45.0734 298.335 45.0734C305.101 45.0734 312.119 42.0112 314.143 34.8864H306.175C304.659 37.761 301.623 38.761 298.587 38.761C293.909 38.761 290.115 35.5738 289.483 30.4488H314.459V28.6988C314.459 17.1991 306.871 11.2617 298.019 11.2617ZM289.419 24.7616C289.989 20.1992 293.593 17.512 297.893 17.512C302.445 17.512 305.733 20.3866 306.113 24.7616H289.419Z" fill="#0B0B0B"/>
<path d="M337.724 19.5113V11.9493C337.156 11.8239 336.334 11.7617 335.448 11.7617C332.602 11.7617 330.771 12.3865 328.809 13.8863C327.735 14.7613 326.912 15.8238 326.216 16.949V12.0114H318.312V44.3856H326.406V26.9484C326.406 20.6364 330.958 19.3864 334.5 19.3864C335.386 19.3864 336.144 19.3864 337.724 19.5113Z" fill="#0B0B0B"/>
<path d="M342.869 35.9463H333.973V44.3859H342.869V35.9463Z" fill="#0B0B0B"/>
<path d="M358.561 12.0117H350.467V44.3858H358.561V12.0117Z" fill="#0B0B0B"/>
<path d="M358.559 -0.0996094H350.469V7.89188H358.559V-0.0996094Z" fill="#0B0B0B"/>
<path d="M379.741 11.2617C370.257 11.2617 362.479 17.8244 362.479 28.0114C362.479 38.5112 370.129 45.0734 379.741 45.0734C389.225 45.0734 396.939 38.3858 396.939 28.0114C396.939 17.699 389.289 11.2617 379.741 11.2617ZM379.741 38.3236C374.429 38.3236 370.825 34.1362 370.825 28.0114C370.825 22.074 374.365 18.0119 379.741 18.0119C384.989 18.0119 388.593 22.1366 388.593 28.0114C388.593 34.199 384.989 38.3236 379.741 38.3236Z" fill="#0B0B0B"/>
<path d="M6.5424 34.6004L0 41.1168V54.1H13.1352L19.7279 47.5836L26.2702 41.1168L13.1352 28.084L6.5424 34.6004Z" fill="#0B0B0B"/>
<path d="M19.7279 8.58482L13.1352 2.11816H0V15.1013L6.5424 21.6174L13.1352 28.0842L26.2702 15.1013L19.7279 8.58482Z" fill="#0B0B0B"/>
<path d="M39.4559 2.11816H26.2705V15.1013L39.4559 28.0842L26.2705 41.117V54.1002H39.4559L52.5911 41.117V15.1013L39.4559 2.11816Z" fill="#0B0B0B"/>
</g>
<defs>
<clipPath id="clip0_69_58">
<rect width="400" height="54" fill="white"/>
</clipPath>
</defs>
</svg>
