<svg width="248" height="90" viewBox="0 0 248 90" fill="none" xmlns="http://www.w3.org/2000/svg">
<g clip-path="url(#clip0_69_1091)">
<path d="M154.123 13.915V75.3526H141.672V69.0868C140.37 71.2839 138.499 73.0741 136.22 74.2134C133.779 75.434 131.012 76.085 128.246 76.085C124.828 76.1664 121.41 75.1899 118.562 73.2369C115.633 71.2839 113.354 68.5985 111.889 65.4249C110.262 61.7631 109.448 57.8571 109.529 53.8698C109.448 49.8824 110.262 45.9765 111.889 42.396C113.354 39.3038 115.633 36.6184 118.481 34.7468C121.41 32.8752 124.828 31.9801 128.246 32.0615C130.931 32.0615 133.616 32.6311 135.976 33.8517C138.255 34.9909 140.126 36.6998 141.428 38.8155V18.0651L154.123 13.915ZM139.15 63.2278C140.777 61.1121 141.672 58.0199 141.672 54.0325C141.672 50.0452 140.859 47.0343 139.15 44.9186C137.441 42.8029 134.755 41.5823 131.989 41.6636C129.222 41.5009 126.537 42.7215 124.746 44.8372C123.038 46.953 122.142 49.9638 122.142 53.8698C122.142 57.8571 123.038 60.9494 124.746 63.1465C126.455 65.3436 129.222 66.5642 131.989 66.4828C135.081 66.4828 137.522 65.3436 139.15 63.2278Z" fill="#0B0B0B"/>
<path d="M198.635 34.6655C201.564 36.5371 203.843 39.2224 205.226 42.3146C206.853 45.8951 207.667 49.8011 207.586 53.7884C207.667 57.7758 206.853 61.7631 205.226 65.3436C203.761 68.5172 201.483 71.2025 198.553 73.1555C195.705 75.0271 192.287 76.0036 188.87 75.9222C186.103 76.0036 183.336 75.3526 180.895 74.0506C178.617 72.9114 176.745 71.1212 175.524 68.924V75.2713H162.993V18.0651L175.606 13.915V38.9783C176.826 36.7812 178.698 34.991 180.976 33.8517C183.418 32.5497 186.103 31.8987 188.87 31.9801C192.287 31.8987 195.705 32.8752 198.635 34.6655ZM192.45 63.1465C194.159 60.9494 194.973 57.8571 194.973 53.7884C194.973 49.8825 194.159 46.8716 192.45 44.7559C190.741 42.6401 188.381 41.5823 185.289 41.5823C182.523 41.4195 179.837 42.6401 178.047 44.8372C176.338 47.0344 175.524 50.0452 175.524 53.9512C175.524 57.9385 176.338 61.0307 178.047 63.1465C179.756 65.3436 182.441 66.5642 185.289 66.4014C188.056 66.5642 190.741 65.3436 192.45 63.1465Z" fill="#0B0B0B"/>
<path d="M225 42.4773V58.9149C225 61.2748 225.651 62.9837 226.791 64.0415C228.093 65.1808 229.801 65.7504 231.592 65.669C232.975 65.669 234.44 65.4249 235.742 65.0994V74.8643C233.382 75.6781 230.941 76.0849 228.499 76.0036C223.292 76.0036 219.304 74.5388 216.537 71.6093C213.771 68.6799 212.387 64.5298 212.387 59.1591V23.1102L225 19.0415V33.0379H235.742V42.4773H225Z" fill="#0B0B0B"/>
<path d="M86.1754 3.74322C88.2911 5.77758 89.6745 8.46293 90 11.3924C90 12.613 89.6745 13.4268 88.9421 14.9729C88.2098 16.519 79.1772 32.1429 76.4919 36.4557C74.9458 38.9783 74.132 41.9892 74.132 44.9186C74.132 47.9295 74.9458 50.859 76.4919 53.3816C79.1772 57.6944 88.2098 73.3996 88.9421 74.9457C89.6745 76.4919 90 77.2242 90 78.4448C89.6745 81.3743 88.3725 84.0597 86.2568 86.0127C84.2224 88.1284 81.5371 89.5118 78.689 89.7559C77.4684 89.7559 76.6546 89.4304 75.1899 88.698C73.7251 87.9656 57.7758 79.1772 53.4629 76.4919C53.1374 76.3291 52.8119 76.085 52.4051 75.9222L31.085 63.3092C31.5732 67.3779 33.3635 71.2839 36.2929 74.132C36.8626 74.7016 37.4322 75.1899 38.0832 75.6781C37.5949 75.9222 37.0253 76.1664 36.5371 76.4919C32.2242 79.1772 16.519 88.2098 14.9729 88.9421C13.4268 89.6745 12.6944 90 11.3924 90C8.46293 89.6745 5.77758 88.3725 3.82459 86.2568C1.70886 84.2224 0.325497 81.5371 0 78.6076C0.0813743 77.387 0.406872 76.1664 1.05787 75.1085C1.79024 73.5624 10.8228 57.8571 13.5081 53.5443C15.0542 51.0217 15.868 48.0922 15.868 45.0814C15.868 42.0705 15.0542 39.141 13.5081 36.6184C10.8228 32.1429 1.70886 16.4376 1.05787 14.8915C0.406872 13.8336 0.0813743 12.613 0 11.3924C0.325497 8.46293 1.62749 5.77758 3.74322 3.74322C5.77758 1.62749 8.46293 0.325497 11.3924 0C12.613 0.0813743 13.8336 0.406872 14.9729 1.05787C16.2749 1.62749 27.7486 8.30018 33.8517 11.8807L35.2351 12.6944C35.7233 13.0199 36.1302 13.264 36.4557 13.4268L37.1067 13.8336L58.8336 26.6908C58.3454 21.8083 55.8228 17.3327 51.9168 14.3219C52.4051 14.0778 52.9747 13.8336 53.4629 13.5081C57.7758 10.8228 73.481 1.70886 75.0271 1.05787C76.085 0.406872 77.3056 0.0813743 78.6076 0C81.4557 0.325497 84.1411 1.62749 86.1754 3.74322ZM46.1392 50.7776L50.7776 46.1392C51.4286 45.4882 51.4286 44.5118 50.7776 43.8608L46.1392 39.2224C45.4882 38.5714 44.5118 38.5714 43.8608 39.2224L39.2224 43.8608C38.5714 44.5118 38.5714 45.4882 39.2224 46.1392L43.8608 50.7776C44.4304 51.3472 45.4882 51.3472 46.1392 50.7776Z" fill="#0B0B0B"/>
<path d="M247.079 71.4637L245.646 75.4964H245.114L243.681 71.4739V75.4964H242.759V70H243.906L245.38 74.0839L246.854 70H248V75.4964H247.079V71.4637ZM241.951 70.8291H240.446V75.4964H239.515V70.8291H238V70H241.951V70.8291Z" fill="#0B0B0B"/>
</g>
<defs>
<clipPath id="clip0_69_1091">
<rect width="248" height="90" fill="white"/>
</clipPath>
</defs>
</svg>
