<svg width="369" height="89" viewBox="0 0 369 89" fill="none" xmlns="http://www.w3.org/2000/svg">
<path fill-rule="evenodd" clip-rule="evenodd" d="M88.9521 88.9521H0V0H88.9521V88.9521ZM41.4053 49.7631V42.731H20.7959V33.9694H38.3812V27.1548H20.7959V18.9317H40.6907V11.8997H12.0757V49.7631H41.4053Z" fill="#0B0B0B"/>
<path d="M132.802 39.6758V46.3972H104.767V10.1908H132.128V16.9122H113.093V24.7728H129.902V31.287H113.093V39.6654H132.802V39.6758Z" fill="#0B0B0B"/>
<path d="M139.471 10.1908H147.85V39.5722H166.005V46.3972H139.471V10.1908Z" fill="#0B0B0B"/>
<path d="M198.742 39.6758V46.3972H170.707V10.1908H198.068V16.9122H179.033V24.7728H195.842V31.287H179.033V39.6654H198.742V39.6758Z" fill="#0B0B0B"/>
<path d="M238.355 46.3972L238.303 24.6692L227.647 42.5653H223.866L213.272 25.1352V46.3972H205.411V10.1908H212.34L225.886 32.6851L239.225 10.1908H246.102L246.205 46.3972H238.355Z" fill="#0B0B0B"/>
<path d="M282.836 39.6758V46.3972H254.801V10.1908H282.163V16.9122H263.128V24.7728H279.937V31.287H263.128V39.6654H282.836V39.6758Z" fill="#0B0B0B"/>
<path d="M322.709 10.1908V46.3972H315.832L297.781 24.4103V46.3868H289.506V10.1908H296.434L314.434 32.1673V10.1908H322.709Z" fill="#0B0B0B"/>
<path d="M338.668 44.5848C335.655 42.9691 333.293 40.7321 331.584 37.8841C329.876 35.0361 329.026 31.8463 329.026 28.294C329.026 24.7417 329.876 21.5415 331.584 18.7038C333.293 15.8558 335.655 13.6291 338.668 12.0032C341.682 10.3876 345.069 9.5694 348.828 9.5694C352.587 9.5694 355.964 10.3772 358.967 12.0032C361.97 13.6291 364.332 15.8558 366.051 18.7038C367.77 21.5519 368.64 24.752 368.64 28.294C368.64 31.8463 367.78 35.0464 366.051 37.8841C364.321 40.7321 361.96 42.9588 358.967 44.5848C355.964 46.2107 352.587 47.0185 348.828 47.0185C345.069 47.0185 341.682 46.2107 338.668 44.5848ZM354.617 38.4019C356.337 37.4181 357.693 36.051 358.677 34.2904C359.661 32.5298 360.148 30.531 360.148 28.294C360.148 26.057 359.661 24.0582 358.677 22.2975C357.693 20.5369 356.337 19.1699 354.617 18.186C352.888 17.2021 350.961 16.7154 348.828 16.7154C346.695 16.7154 344.758 17.2125 343.039 18.186C341.309 19.1699 339.963 20.5369 338.979 22.2975C337.995 24.0582 337.508 26.057 337.508 28.294C337.508 30.5413 338.005 32.5298 338.979 34.2904C339.963 36.051 341.309 37.4181 343.039 38.4019C344.758 39.3858 346.695 39.8725 348.828 39.8725C350.961 39.8829 352.898 39.3858 354.617 38.4019Z" fill="#0B0B0B"/>
<path d="M124.806 55.0863V79.2688H123.046V67.7627H106.879V79.2688H105.119V55.0863H106.879V66.2092H123.046V55.0863H124.806Z" fill="#0B0B0B"/>
<path d="M174.787 77.6739V79.2584H158.103V55.0863H174.269V56.6709H159.863V66.2092H172.747V67.7627H159.863V77.6739H174.787Z" fill="#0B0B0B"/>
<path d="M221.039 72.4542H207.017L203.941 79.2584H202.045L213.168 55.0759H214.929L226.052 79.2584H224.157L221.039 72.4542ZM220.376 70.9732L214.018 57.023L207.7 70.9732H220.376Z" fill="#0B0B0B"/>
<path d="M255.319 55.0863H257.08V77.6739H270.999V79.2584H255.319V55.0863Z" fill="#0B0B0B"/>
<path d="M302.773 56.6709H294.063V55.0863H313.233V56.6709H304.523V79.2584H302.762V56.6709H302.773Z" fill="#0B0B0B"/>
<path d="M362.157 55.0863V79.2688H360.396V67.7627H344.23V79.2688H342.469V55.0863H344.23V66.2092H360.396V55.0863H362.157Z" fill="#0B0B0B"/>
</svg>
