<svg width="325" height="44" viewBox="0 0 325 44" fill="none" xmlns="http://www.w3.org/2000/svg">
<path d="M68.4384 20.8726C73.7137 20.8726 77.1426 18.6746 77.1426 15.0698C77.1426 13.9268 76.7909 13.0476 76.07 12.2739C75.1028 11.3243 73.362 10.8671 70.8298 10.8671H64.4643L61.7035 20.8726H68.4384ZM55.3908 0.773712H71.3925C78.4614 0.773712 83.1564 2.32113 85.9875 5.1698C87.0715 6.30147 87.9167 7.63978 88.4725 9.10498C89.0284 10.5702 89.2836 12.1323 89.223 13.6982C89.223 20.6968 85.1435 26.2007 76.492 28.5218L83.0334 42.6245H70.0561L64.4115 29.9461H59.189L55.76 42.6245H44.0488L55.3908 0.773712Z" fill="#0B0B0B"/>
<path d="M124.849 19.6945C124.849 14.3488 121.613 10.4275 115.599 10.4275C108.214 10.4275 103.343 17.5492 103.343 23.7916C103.343 29.1197 106.579 33.0234 112.592 33.0234C120.048 33.0234 124.849 25.9193 124.849 19.6769V19.6945ZM91.333 24.6181C91.333 11.8519 101.848 0 116.567 0C128.629 0 136.806 8.12397 136.806 18.7977C136.806 31.5463 126.291 43.4158 111.52 43.4158C99.5625 43.4158 91.333 35.2742 91.333 24.6005V24.6181Z" fill="#0B0B0B"/>
<path d="M147.269 0.773712H158.259L169.197 24.0202L175.562 0.773712H187.273L175.861 42.6245H165.592L154.109 18.5515L147.568 42.642H135.839L147.269 0.773712Z" fill="#0B0B0B"/>
<path d="M202.361 10.9726H189.63L192.39 0.826462H229.511L226.838 10.9726H214.089L205.508 42.6245H193.656L202.361 10.9726Z" fill="#0B0B0B"/>
<path d="M234.681 0.773712H246.462L235.032 42.6245H223.251L234.681 0.773712Z" fill="#0B0B0B"/>
<path d="M251.632 0.773712H285.64L282.932 10.6209H260.635L258.894 16.9513H279.151L276.69 26.0952H256.433L254.639 32.7245H277.288L274.65 42.5717H240.325L251.632 0.773712Z" fill="#0B0B0B"/>
<path d="M303.769 20.8726C309.062 20.8726 312.491 18.6746 312.491 15.0698C312.491 13.9268 312.14 13.0476 311.401 12.2739C310.451 11.3243 308.711 10.8671 306.178 10.8671H299.813L297.052 20.8726H303.769ZM290.739 0.773712H306.724C313.81 0.773712 318.505 2.32113 321.318 5.1698C322.406 6.30002 323.254 7.63768 323.813 9.10294C324.372 10.5682 324.63 12.131 324.572 13.6982C324.572 20.6968 320.475 26.2007 311.823 28.5218L318.435 42.6245H305.457L299.813 29.9461H294.59L291.109 42.6245H279.38L290.739 0.773712Z" fill="#0B0B0B"/>
<path d="M50.045 0.773712H16.5819C12.6782 0.773712 10.7615 2.54973 9.4251 7.70194L7.80737 13.751C7.75462 13.9268 7.93043 14.0499 8.10627 13.9268C8.10627 13.9268 10.0406 12.6256 13.3464 12.6256H41.6924C45.2444 12.6256 47.8821 9.5483 48.6031 6.87548L50.2208 0.949556C50.2208 0.896803 50.168 0.773712 50.045 0.773712Z" fill="#0B0B0B"/>
<path d="M44.4533 15.7732H12.5025C8.65155 15.7732 6.9635 17.2502 5.34574 22.7014L3.72795 28.6977C3.65761 28.8735 3.85107 28.9966 4.02691 28.8735C4.02691 28.8735 6.06665 27.5723 9.37251 27.5723H35.3974C39.477 27.5723 42.2904 24.4247 43.5565 19.8L44.6468 15.8963C44.6995 15.8259 44.5764 15.7732 44.4709 15.7732H44.4533Z" fill="#0B0B0B"/>
<path d="M23.0179 30.7726H8.42291C4.6247 30.7726 2.708 32.4255 1.38918 37.2788L0 42.4486C0 42.5717 0.0527638 42.6245 0.175854 42.6245H14.1202C17.6723 42.6245 20.6089 40.444 21.9277 35.6259L23.1938 30.9485C23.1938 30.8957 23.1234 30.7726 23.0179 30.7726Z" fill="#0B0B0B"/>
</svg>
