<svg width="350" height="148" viewBox="0 0 350 148" fill="none" xmlns="http://www.w3.org/2000/svg">
<g clip-path="url(#clip0_427_2)">
<path d="M41.9139 148C40.6631 146.006 39.0933 144.13 38.2203 141.985C35.7775 135.929 31.5383 131.479 26.1154 128.148C20.659 124.8 17.2005 120.468 16.5709 113.839C16.3694 111.761 14.1197 109.961 13.3642 107.833C12.2897 104.838 11.551 101.692 10.9969 98.5544C9.77134 91.5893 6.019 85.9365 2.00643 80.3593C1.38524 79.5013 1.05786 78.2984 0.973911 77.2217C0.56258 71.5352 0.226801 65.8403 0.000149427 60.1454C-0.0502175 58.9425 0.377902 57.6891 0.764048 56.5198C2.25827 51.9606 3.94556 47.4686 5.34744 42.8841C8.21836 33.5047 10.5688 23.9403 13.893 14.7208C16.042 8.75674 21.4565 5.25737 26.8709 2.26271C27.8027 1.74958 29.2969 2.24589 30.5225 2.23747C32.6967 2.22065 34.8793 2.07765 37.0534 2.16177C40.6127 2.30477 44.1636 2.7506 47.7145 2.73378C49.578 2.73378 51.4416 2.05241 53.2884 1.63181C55.6892 1.08504 58.0565 0.0756011 60.4657 -0.000106564C66.09 -0.176758 68.3313 3.13755 66.4594 8.40344C65.3429 11.5327 64.2936 14.704 62.8581 17.6818C62.4972 18.4305 60.4657 19.1455 59.6766 18.8006C53.7249 16.2266 47.7648 17.7912 42.0062 18.9941C40.0503 19.3979 38.6064 22.5103 37.0534 24.4787C35.8446 26.0097 34.9716 27.8267 33.6705 29.2651C31.1689 32.0326 28.5582 34.7329 25.83 37.2733C20.7681 41.9924 16.8563 46.9975 20.1469 54.4337C16.6212 63.098 19.7524 71.3165 21.9517 79.5602C23.0011 83.5054 23.2697 87.8544 27.9034 90.0079C28.8772 90.4621 29.2801 92.9184 29.2969 94.4494C29.3305 97.402 30.1364 99.4293 33.0661 100.733C34.745 101.482 36.7764 102.971 37.2717 104.552C38.7491 109.271 43.1814 110.626 46.3881 113.292C47.6389 114.335 49.8718 114.192 51.5423 114.562C52.7931 108.901 47.513 103.938 52.3482 98.3609C50.3671 96.157 48.4364 93.6671 46.1531 91.5557C43.0219 88.6619 42.2916 85.743 44.088 81.924C44.6589 80.7042 45.3052 79.2658 45.1709 78.004C44.4826 71.5773 43.4165 65.1926 40.5036 59.321C37.5487 53.3569 38.8583 51.0437 45.4144 50.8922C52.6756 50.724 54.0859 53.2392 56.5035 59.8846C58.5769 65.5627 63.5213 70.2145 67.2149 75.2953C68.7175 77.3647 70.5391 79.2574 71.7479 81.4865C72.9987 83.7914 73.4939 86.5001 74.6608 88.8638C78.2116 96.0729 75.156 102.592 72.8392 109.229C72.3691 110.584 71.7479 112.114 71.9661 113.435C72.5286 116.884 71.9158 119.593 69.1792 122.074C67.5003 123.597 66.7448 126.087 65.2757 127.895C63.1939 130.453 61.0785 133.128 58.4678 135.045C57.3681 135.861 54.9421 134.886 52.2391 134.65L46.9338 147.983H41.8971L41.9139 148Z" fill="#0B0B0B"/>
<path d="M350 112.855V108.674C346.046 104.039 342.848 99.4041 344.535 92.5567C345.123 90.1845 343.603 86.5506 341.849 84.5149C337.769 79.779 338.558 74.3617 339.65 69.4659C340.43 65.9665 339.901 64.3683 337.24 62.6522C331.473 58.9341 333.11 52.0363 330.785 46.8125C330.348 45.8283 332.481 43.4561 333.765 42.0177C335.075 40.554 336.821 39.4773 338.315 38.165C339.406 37.206 341.404 35.9527 341.261 35.1283C340.581 31.2588 339.557 27.4061 338.147 23.7385C337.24 21.3747 334.932 19.5157 334.176 17.1435C333.06 13.6105 331.045 12.6515 327.62 12.9207C324.875 13.1394 321.895 13.4086 319.36 12.5926C316.632 11.7094 314.6 11.6 312.46 13.5516C311.771 14.1741 310.798 14.6199 309.883 14.8386C302.454 16.6051 299.297 20.6513 298.676 28.0622C298.449 30.7709 297.467 34.1609 295.57 35.8517C290.743 40.1502 290.861 45.1637 291.49 50.7409C291.725 52.7682 291.364 55.2749 290.298 56.9489C288.804 59.3042 289.299 61.1549 289.769 63.5859C290.475 67.2367 290.29 71.0642 290.357 74.8243C290.374 75.8926 289.677 76.9946 289.786 78.0293C290.34 83.3036 289.442 84.1784 284.649 86.6179C282.03 87.9554 280.158 90.765 278 92.9521C277.169 93.8017 276.64 95.0046 275.7 95.6691C273.064 97.545 270.294 99.2274 267.004 101.356C264.871 99.7742 263.478 96.6786 264.913 93.053C267.91 85.4991 263.772 79.0051 262.227 72.1241C262.068 71.4175 261.262 70.694 260.573 70.2987C257.048 68.2546 256.502 65.6132 257.854 61.811C259.088 58.3453 255.167 51.0858 252.481 51.2456C247.503 51.54 242.341 51.4895 237.665 52.928C235.507 53.5925 233.677 57.2097 232.88 59.8426C232.133 62.3326 234.811 62.5765 236.842 62.812C237.724 62.913 238.949 63.3925 239.319 64.0822C240.578 66.4123 242.383 68.9023 242.416 71.3502C242.483 76.6833 239.957 82.5465 241.459 87.2488C243.969 95.0551 241.635 102.659 242.769 110.272C243.096 112.468 242.114 113.915 238.613 113.452C230.949 112.443 225.812 106.916 220.481 102.937C214.076 98.1507 207.655 91.766 206.085 82.7568C205.934 81.8988 205.145 81.0407 204.448 80.393C201.921 78.0461 202.081 75.3458 202.895 72.3091C204.003 68.162 204.91 63.9561 205.673 59.7248C206.362 55.9226 209.627 51.0101 212.305 51.0521C216.41 51.1194 218.97 48.8734 221.673 46.3078C224.057 44.045 226.97 42.3457 229.505 40.2259C230.471 39.4184 230.899 37.9968 231.797 37.0799C234.03 34.7918 236.162 32.2682 238.807 30.5606C240.427 29.5175 242.206 30.0727 241.745 33.1431C241.51 34.6993 242.584 37.4332 243.843 38.0304C247.159 39.6119 252.464 34.8675 252.582 31.0653C252.657 28.6847 253.044 26.0518 254.168 24.0077C256.989 18.8764 255.94 13.6021 250.903 10.2878C247.495 8.04177 244.364 8.7652 241.745 11.8272C240.544 13.2235 238.664 14.2834 236.884 14.8807C233.14 16.1341 228.935 16.3612 225.51 18.1361C220.313 20.828 215.058 21.8121 209.359 21.3495C205.976 21.0719 203.038 21.7701 201.157 25.0171C200.628 25.9256 199.688 26.7752 198.74 27.2295C196.003 28.5249 193.216 29.753 190.353 30.7372C183.546 33.0674 183.495 40.84 178.735 44.8441C175.52 47.5527 177.585 51.8681 176.242 54.9216C174.202 59.5734 176.251 65.4113 171.734 69.2808C171.214 69.7267 171.734 71.6782 172.129 72.8138C173.925 78.0713 176.217 83.1942 175.453 88.9985C175.344 89.8481 175.806 90.9332 176.335 91.6735C178.92 95.2822 181.674 98.7647 184.242 102.382C184.931 103.358 185.392 104.594 185.611 105.772C186.249 109.12 188.406 110.466 191.52 111.366C194.761 112.3 197.741 114.108 200.939 115.219C206.261 117.069 208.62 125.397 216.444 122.066C217.669 121.544 219.785 123.143 221.505 123.74C223.99 124.606 226.433 125.927 228.985 126.213C234.517 126.827 238.597 129.578 242.089 133.607C242.878 134.516 243.952 135.18 244.884 135.962C246.471 137.292 248.418 138.36 249.56 140C252.095 143.617 254.932 143.886 258.156 140.808C262.177 136.972 263.537 132.581 262.361 127.18C262.017 125.59 262.496 123.816 262.605 122.125C263.125 122.125 263.646 122.125 264.166 122.125C264.519 123.378 264.787 124.674 265.258 125.885C265.593 126.743 266.307 128.215 266.676 128.173C271.453 127.534 275.406 129.233 279.058 132.051C279.234 132.194 279.621 132.16 279.881 132.093C283.625 131.109 287.327 129.948 291.197 131.824C291.759 132.101 293.069 131.353 293.765 130.772C296.964 128.08 299.616 125.229 298.172 120.392C297.593 118.466 297.543 116.102 298.122 114.192C298.6 112.628 301.043 110.104 301.446 110.306C304.947 112.081 307.087 110.827 309.11 106.319C309.706 109.263 310.009 110.794 310.336 112.325C310.697 114.075 310.63 116.119 311.562 117.49C312.712 119.172 314.701 120.291 316.321 121.654C317.522 119.929 318.907 118.306 319.889 116.464C320.972 114.428 321.45 112.056 322.651 110.104C323.238 109.145 324.858 108.825 326.017 108.211C326.495 109.288 327.427 110.382 327.385 111.433C327.184 116.354 327.41 121.098 330.264 125.405C330.709 126.078 330.684 127.466 330.29 128.232C326.856 134.852 331.692 138.377 335.612 141.994C337.534 143.76 340.187 143.92 341.337 140.774C343.696 134.322 345.929 127.811 348.044 121.275C348.447 120.039 348.523 118.314 347.952 117.229C346.558 114.596 348.027 113.704 350 112.863V112.855ZM322.81 79.8547C318.705 80.2332 313.82 80.679 309.404 81.0912C311.049 74.4626 312.863 67.1442 314.886 58.9678C316.892 58.8836 319.058 59.809 319.889 63.1485C320.309 64.8645 321.232 66.4544 321.912 68.1032C322.223 68.8518 322.735 69.6089 322.768 70.3744C322.869 73.2092 322.81 76.0525 322.81 79.8547Z" fill="#0B0B0B"/>
<path fill-rule="evenodd" clip-rule="evenodd" d="M129.149 7.23404C130.299 7.22563 131.474 7.30136 132.675 7.44434C133.665 7.57052 135.311 9.04311 135.286 9.84224C134.992 19.2214 141.019 25.7747 145.334 33.1099C145.82 33.9425 146.24 34.8591 146.559 35.801C146.878 36.7431 147.114 37.719 147.248 38.6778C147.29 38.9554 147.323 39.2252 147.357 39.4944C147.424 40.041 147.491 40.5708 147.567 41.0922C147.894 43.4475 148.372 45.6267 149.959 47.5194C150.664 48.3606 151.588 49.1424 152.822 49.8574C153.166 50.0593 153.485 50.3204 153.779 50.6148C154.366 51.2119 154.845 51.9774 155.273 52.8352C156.347 54.9803 157.095 57.7062 158.287 59.7924C158.707 60.5241 159.244 61.1884 159.798 61.8444C160.167 62.2734 160.544 62.7115 160.905 63.1489C161.442 63.8134 161.93 64.4944 162.265 65.2429C162.324 65.3775 162.392 65.5126 162.459 65.6388C162.593 65.8911 162.744 66.1432 162.904 66.3954C163.063 66.6393 163.231 66.8835 163.415 67.1273C163.592 67.3712 163.785 67.6066 163.978 67.842C164.07 67.9598 164.171 68.0783 164.272 68.1961C164.667 68.667 165.078 69.1299 165.48 69.6008C166.874 71.2495 168.124 72.9652 168.108 75.2025C168.108 76.1615 167.864 77.2218 167.302 78.4079C167.235 78.5592 167.193 78.7274 167.177 78.9123C167.143 79.2824 167.21 79.7205 167.344 80.1831C167.68 81.3355 168.435 82.6479 169.124 83.5142C170.164 84.8264 171.272 86.1048 172.171 87.4253C172.523 87.9552 172.859 88.4854 173.136 89.0321C173.279 89.3013 173.405 89.5793 173.522 89.8569L173.531 89.8232C173.866 90.6559 174.085 91.522 174.118 92.4388C174.135 92.75 174.127 93.0616 174.093 93.3728C173.967 94.6346 173.498 95.9891 172.532 97.4696C172.154 98.05 172.457 99.0762 172.49 99.8921C172.692 105.234 172.935 110.567 173.128 115.9C173.153 116.716 173.153 117.524 173.128 118.323C173.078 119.929 172.918 121.519 172.7 123.101C172.482 124.682 172.188 126.255 171.869 127.82C171.55 129.393 171.198 130.949 170.845 132.514C170.669 133.288 170.492 134.07 170.325 134.852C170.199 135.399 170.005 135.996 169.737 136.56C169.56 136.938 169.35 137.3 169.124 137.619C168.779 138.099 168.377 138.495 167.941 138.722C167.126 139.142 165.162 138.032 164.096 137.149C163.718 136.829 163.349 136.501 162.979 136.165C162.434 135.668 161.887 135.155 161.325 134.692C159.277 132.985 157.053 131.832 153.67 133.523C153.124 133.8 150.857 132.059 150.438 130.882C150.37 130.688 150.312 130.478 150.27 130.268C150.186 129.847 150.144 129.409 150.144 128.955C150.127 127.828 150.295 126.642 150.295 125.507C150.287 124.321 150.304 123.109 150.253 121.932C150.211 121.048 150.135 120.173 149.984 119.341C149.875 118.785 149.741 118.238 149.556 117.717C149.372 117.195 149.145 116.691 148.851 116.22C148.121 115.034 147.029 114.016 145.375 113.25C144.796 112.981 144.183 112.746 143.554 112.544C142.924 112.342 142.278 112.173 141.623 112.038C140.314 111.778 138.971 111.644 137.687 111.661C136.763 111.669 135.831 111.719 134.908 111.804C133.985 111.888 133.053 111.997 132.13 112.123C131.198 112.249 130.274 112.392 129.351 112.544C128.427 112.687 127.504 112.847 126.581 112.99C125.506 113.158 124.448 113.469 123.399 113.764C122.341 114.058 121.292 114.335 120.217 114.436C119.999 114.453 119.772 114.479 119.529 114.496C118.572 114.571 117.481 114.621 116.583 114.487C115.911 114.386 115.341 114.184 115.022 113.814C114.392 113.082 113.72 112.67 113.04 112.443C112.705 112.333 112.352 112.266 112.007 112.232C111.655 112.199 111.311 112.19 110.958 112.207C110.429 112.224 109.909 112.283 109.389 112.325C109.045 112.35 108.7 112.367 108.364 112.367C107.869 112.359 107.374 112.308 106.903 112.149C105.057 111.535 103.957 111.921 103.126 112.661C102.765 112.981 102.455 113.36 102.161 113.764C101.968 114.033 101.775 114.302 101.573 114.571C101.372 114.84 101.17 115.092 100.944 115.328C100.717 115.563 100.474 115.774 100.205 115.942C92.818 120.586 91.6008 128.955 87.3281 135.433C87.0594 135.836 86.631 136.248 86.1525 136.602C85.3467 137.182 84.3731 137.594 83.6596 137.502C83.265 137.451 82.8281 137.19 82.4168 136.812C81.737 136.189 81.124 135.256 80.8805 134.482C80.612 133.616 80.3604 132.825 80.0247 132.161C79.8904 131.9 79.7474 131.647 79.5796 131.429C78.8324 130.428 77.691 129.922 75.5504 130.259C74.2325 130.469 73.1918 129.94 72.5287 128.981C72.1509 128.434 71.8904 127.752 71.7728 126.995C71.6218 126.053 71.6891 124.976 72.0081 123.908C72.4278 122.47 72.7466 121.006 73.032 119.525C73.3174 118.045 73.5695 116.556 73.8633 115.084C73.9471 114.672 73.8301 114.226 73.9223 113.831C74.2665 112.418 74.7106 111.038 75.2143 109.683C75.7179 108.329 76.2807 106.991 76.8431 105.654C77.691 103.652 78.556 101.65 79.2779 99.5725C79.5213 98.8744 79.7396 98.1761 79.9411 97.4696C81.3094 92.6411 85.4474 88.5611 88.5282 84.2626C90.0727 82.1092 90.5766 80.4015 88.8979 77.9117C88.1508 76.8098 88.4948 74.2861 89.2922 72.9738C91.139 69.9371 93.5734 67.2617 95.7308 64.4017C96.2092 63.7624 96.5867 63.0138 96.8637 62.2568C97.2246 61.2558 97.561 60.2466 97.8884 59.2288C98.3837 57.7063 98.8622 56.1751 99.3911 54.6778C99.9199 53.1805 100.507 51.7084 101.221 50.2952C103.815 45.1723 105.644 40.049 105.602 34.6485C105.586 32.1923 105.183 29.6769 104.285 27.0777C104.201 26.8423 104.142 26.6067 104.092 26.3713C104.041 26.1358 104.016 25.9004 103.999 25.6566C103.982 25.421 103.982 25.1768 103.999 24.9328C104.007 24.6889 104.041 24.4448 104.083 24.2009C104.596 21.2821 107.088 18.4302 110.085 17.16C112.267 16.2347 114.568 14.9397 116.062 13.1733C116.347 12.8453 116.633 12.5339 116.919 12.2311C117.783 11.3395 118.698 10.5742 119.647 9.94329C120.276 9.51435 120.931 9.15226 121.594 8.83265C122.593 8.36161 123.634 7.99983 124.7 7.74747C125.061 7.66337 125.422 7.59624 125.783 7.52896C126.874 7.3355 127.999 7.23407 129.149 7.23404ZM131.013 50.7832C129.301 50.4635 127.705 50.6739 126.412 51.2711C126.161 51.3888 125.918 51.5151 125.691 51.6581C125.38 51.8515 125.095 52.0787 124.834 52.3226C124.188 52.9367 123.71 53.694 123.466 54.5603C122.467 58.0932 121.393 61.6343 119.999 65.0326C118.723 68.1366 117.263 70.8706 119.781 74.2102C121.435 76.4056 120.36 78.3236 117.733 79.4339C116.767 79.8461 115.466 80.9486 115.416 81.7982C115.257 84.6581 115.592 87.5519 115.769 90.9166C121.368 91.2447 126.489 91.3035 131.534 91.9344C134.329 92.2793 137.183 93.2636 139.701 94.559C143.344 96.4349 144.444 95.8206 145.124 91.8252H145.132C146.844 81.7645 140.952 74.3783 136.494 66.5383C135.789 65.3019 135.042 64.082 134.329 62.854C133.616 61.626 132.944 60.3897 132.381 59.1196C131.256 56.5708 130.593 53.8703 131.013 50.7832Z" fill="#0B0B0B"/>
<path d="M73.0238 119.534C72.7384 121.014 72.428 122.478 71.9999 123.916C72.4196 122.478 72.7384 121.014 73.0238 119.534Z" fill="#0B0B0B"/>
<path d="M76.8268 105.663C76.2644 107 75.7015 108.337 75.1979 109.692C75.7015 108.337 76.256 107 76.8268 105.663Z" fill="#0B0B0B"/>
<path d="M79.2607 99.5807C78.5387 101.658 77.6746 103.661 76.8268 105.663C77.6746 103.661 78.5387 101.65 79.2607 99.5807Z" fill="#0B0B0B"/>
<path d="M172.171 87.4171C172.532 87.947 172.859 88.4772 173.136 89.0239C172.859 88.4772 172.524 87.947 172.171 87.4171Z" fill="#0B0B0B"/>
<path d="M165.48 69.5918C166.882 71.2321 168.125 72.9484 168.108 75.1943C168.125 72.9568 166.874 71.2405 165.48 69.5918Z" fill="#0B0B0B"/>
<path d="M99.3738 54.6942C98.845 56.1999 98.3664 57.7227 97.8712 59.2452C98.3664 57.7227 98.8366 56.1915 99.3738 54.6942Z" fill="#0B0B0B"/>
<path d="M152.822 49.8492C153.174 50.051 153.494 50.3037 153.779 50.6066C153.485 50.3121 153.166 50.051 152.822 49.8492Z" fill="#0B0B0B"/>
<path d="M147.773 42.3893C148.113 44.246 148.67 45.9726 149.959 47.5104C148.67 45.9795 148.113 44.2478 147.773 42.3893Z" fill="#0B0B0B"/>
<path d="M147.357 39.4854C147.424 40.0237 147.491 40.554 147.567 41.084C147.491 40.5624 147.424 40.0321 147.357 39.4854Z" fill="#0B0B0B"/>
<path d="M104.066 24.2009C104.024 24.4448 103.999 24.689 103.983 24.9328C103.991 24.689 104.024 24.4448 104.066 24.2009Z" fill="#0B0B0B"/>
<path d="M118.934 10.4411C118.353 10.8765 117.787 11.3635 117.239 11.9001C117.79 11.3598 118.355 10.8746 118.934 10.4403L118.934 10.4411Z" fill="#0B0B0B"/>
<path d="M129.149 7.22583C128.143 7.2332 127.156 7.30431 126.194 7.45174C127.156 7.30281 128.143 7.22584 129.149 7.22583Z" fill="#0B0B0B"/>
</g>
<defs>
<clipPath id="clip0_427_2">
<rect width="350" height="148" fill="white"/>
</clipPath>
</defs>
</svg>
