<svg width="360" height="100" viewBox="0 0 360 100" fill="none" xmlns="http://www.w3.org/2000/svg">
<g clip-path="url(#clip0_69_166)">
<path d="M61.0352 20.1708H80.0777V61.8331H93.9689V38.5941H120.223V26.4658H93.9689V14.3217H122.339V2.18811H93.9689L61.0352 20.1708Z" fill="#0B0B0B"/>
<path d="M47.6853 47.6181C46.0053 48.4416 44.2428 49.1041 42.4234 49.5959C39.8875 50.2828 37.2569 50.6063 34.6194 50.5559C31.8603 50.5994 29.1206 50.1122 26.566 49.1237C24.2234 48.2128 22.1069 46.8497 20.3515 45.1213C18.6255 43.3653 17.2817 41.3047 16.3968 39.0569C14.5569 34.0834 14.5569 28.6654 16.3968 23.6919C17.2655 21.4211 18.6108 19.3404 20.3515 17.5753C22.1149 15.8544 24.2292 14.4909 26.566 13.5675C29.1213 12.5815 31.8606 12.0944 34.6194 12.1354C38.1866 12.1354 41.1441 12.6128 43.5259 13.5675C44.9434 14.1548 46.2791 14.9054 47.5028 15.8022L59.6881 7.66594C56.5234 4.86869 52.6959 2.83215 48.5272 1.72768C43.9984 0.544078 39.3175 -0.0367856 34.6194 0.00180345C29.9764 -0.0368172 25.363 0.705622 20.994 2.19456C16.9861 3.57584 13.3182 5.71797 10.2155 8.48953C7.15588 11.2826 4.74991 14.6532 3.15356 18.3832C-0.237385 26.7409 -0.237385 35.9922 3.15356 44.35C4.74812 48.0763 7.15447 51.4422 10.2155 54.2278C13.3248 56.9912 16.9908 59.1322 20.994 60.5228C25.3612 62.0187 29.9756 62.7631 34.6194 62.7209C39.1863 62.7272 43.7406 62.2734 48.2059 61.3675C52.6725 60.4656 56.9894 58.9956 61.0394 56.9975V20.1772L47.6853 27.3903V47.6181Z" fill="#0B0B0B"/>
<path d="M130.176 61.8331H144.056V2.18811L130.176 9.79456V61.8331Z" fill="#0B0B0B"/>
<path d="M221.362 61.8331H235.248V2.18811L221.362 9.79456V61.8331Z" fill="#0B0B0B"/>
<path d="M198.414 43.6459H198.225L171.44 2.18811H152.563V61.8331H166.444V19.3787H166.643L194.154 61.8331H212.288V2.18811H198.414V43.6459Z" fill="#0B0B0B"/>
<path d="M243.628 13.8233H261.596V61.8331H275.482V13.8233H293.472V2.18811H243.628V13.8233Z" fill="#0B0B0B"/>
<path d="M340.472 2.18811L326.338 24.5143L312.984 2.18811H295.752L319.397 36.4066V61.8331H333.281V36.4066L356.95 2.18811H340.472Z" fill="#0B0B0B"/>
<path d="M8.68593 70.8269H5.44434V100.001H8.68593V70.8269Z" fill="#0B0B0B"/>
<path d="M16.4657 70.8269H12.8999V100.001H16.4657V70.8269Z" fill="#0B0B0B"/>
<path d="M24.5701 70.8269H20.6802V100.001H24.5701V70.8269Z" fill="#0B0B0B"/>
<path d="M33.3215 70.8269H29.1074V100.001H33.3215V70.8269Z" fill="#0B0B0B"/>
<path d="M42.3981 70.8269H37.8599V100.001H42.3981V70.8269Z" fill="#0B0B0B"/>
<path d="M51.7984 70.8269H46.936V100.001H51.7984V70.8269Z" fill="#0B0B0B"/>
<path d="M61.5234 70.8269H56.3369V100.001H61.5234V70.8269Z" fill="#0B0B0B"/>
<path d="M71.5717 70.8269H66.061V100.001H71.5717V70.8269Z" fill="#0B0B0B"/>
<path d="M81.9457 70.8269H76.1108V100.001H81.9457V70.8269Z" fill="#0B0B0B"/>
<path d="M92.6429 70.8269H86.4839V100.001H92.6429V70.8269Z" fill="#0B0B0B"/>
<path d="M103.663 70.8269H97.1802V100.001H103.663V70.8269Z" fill="#0B0B0B"/>
<path d="M115.009 70.8269H108.202V100.001H115.009V70.8269Z" fill="#0B0B0B"/>
<path d="M126.68 70.8269H119.548V100.001H126.68V70.8269Z" fill="#0B0B0B"/>
<path d="M138.673 70.8269H131.218V100.001H138.673V70.8269Z" fill="#0B0B0B"/>
<path d="M150.991 70.8269H143.211V100.001H150.991V70.8269Z" fill="#0B0B0B"/>
<path d="M163.634 70.8269H155.53V100.001H163.634V70.8269Z" fill="#0B0B0B"/>
<path d="M229.347 85.7456H232.734C234.007 85.7456 234.951 85.4684 235.567 84.914C236.204 84.3597 236.522 83.59 236.522 82.6047C236.522 81.5984 236.204 80.8184 235.567 80.264C234.951 79.71 234.007 79.4328 232.734 79.4328H229.347V85.7456Z" fill="#0B0B0B"/>
<path d="M258.365 91.5659C259.186 91.5659 259.946 91.4222 260.644 91.1347C261.363 90.8472 261.979 90.4366 262.492 89.9028C263.026 89.3484 263.436 88.6916 263.724 87.9319C264.031 87.1725 264.186 86.3306 264.186 85.4069C264.186 84.4625 264.031 83.6206 263.724 82.8816C263.436 82.1222 263.026 81.4753 262.492 80.9416C261.979 80.3872 261.363 79.9665 260.644 79.679C259.946 79.3915 259.186 79.2478 258.365 79.2478C257.544 79.2478 256.774 79.3915 256.056 79.679C255.358 79.9665 254.742 80.3872 254.208 80.9416C253.695 81.4753 253.284 82.1222 252.976 82.8816C252.689 83.6206 252.545 84.4625 252.545 85.4069C252.545 86.3306 252.689 87.1725 252.976 87.9319C253.284 88.6916 253.695 89.3484 254.208 89.9028C254.742 90.4366 255.358 90.8472 256.056 91.1347C256.774 91.4222 257.544 91.5659 258.365 91.5659Z" fill="#0B0B0B"/>
<path d="M281.175 85.7456H284.563C285.836 85.7456 286.78 85.4684 287.396 84.914C288.032 84.3597 288.351 83.59 288.351 82.6047C288.351 81.5984 288.032 80.8184 287.396 80.264C286.78 79.71 285.836 79.4328 284.563 79.4328H281.175V85.7456Z" fill="#0B0B0B"/>
<path fill-rule="evenodd" clip-rule="evenodd" d="M347.484 70.8269H169.36V100.001H347.484V70.8269ZM209.347 96.6162C207.581 96.6162 205.877 96.4006 204.235 95.9694C202.613 95.5178 201.289 94.9428 200.262 94.245L202.264 89.7487C203.229 90.3647 204.338 90.8781 205.59 91.2887C206.863 91.6787 208.125 91.8737 209.378 91.8737C210.219 91.8737 210.897 91.8019 211.41 91.6581C211.923 91.4941 212.293 91.2887 212.519 91.0422C212.765 90.7753 212.888 90.4675 212.888 90.1184C212.888 89.6256 212.663 89.2356 212.211 88.9481C211.759 88.6609 211.174 88.4247 210.455 88.24C209.737 88.0553 208.936 87.8703 208.053 87.6856C207.191 87.5009 206.319 87.2647 205.436 86.9775C204.573 86.69 203.783 86.3203 203.065 85.8687C202.346 85.3966 201.761 84.7909 201.309 84.0519C200.858 83.2922 200.632 82.3378 200.632 81.1881C200.632 79.8947 200.981 78.7244 201.679 77.6775C202.398 76.6303 203.465 75.7887 204.882 75.1522C206.298 74.5159 208.064 74.1975 210.178 74.1975C211.595 74.1975 212.981 74.3619 214.336 74.6903C215.711 74.9981 216.933 75.4603 218 76.0759L216.122 80.6028C215.095 80.0484 214.079 79.6381 213.073 79.3712C212.067 79.0837 211.092 78.94 210.148 78.94C209.306 78.94 208.628 79.0325 208.115 79.2172C207.602 79.3812 207.232 79.6072 207.006 79.8947C206.781 80.1822 206.668 80.5106 206.668 80.88C206.668 81.3522 206.883 81.7322 207.314 82.0194C207.766 82.2862 208.351 82.5122 209.07 82.6969C209.809 82.8612 210.609 83.0356 211.472 83.2203C212.354 83.4053 213.227 83.6412 214.089 83.9287C214.972 84.1956 215.773 84.565 216.491 85.0372C217.21 85.4891 217.785 86.0947 218.216 86.8541C218.668 87.5931 218.893 88.5275 218.893 89.6566C218.893 90.9087 218.534 92.0687 217.815 93.1362C217.118 94.1834 216.06 95.025 214.643 95.6616C213.248 96.2978 211.482 96.6162 209.347 96.6162ZM185.577 91.4734V87.5316H195.154V82.9741H185.577V79.3403H196.448V74.6288H179.541V96.185H196.848V91.4734H185.577ZM223.25 74.6288V96.185H229.347V90.5497H233.104C235.075 90.5497 236.769 90.2312 238.185 89.595C239.622 88.9381 240.731 88.0141 241.511 86.8234C242.291 85.6328 242.681 84.2262 242.681 82.6047C242.681 80.9622 242.291 79.5456 241.511 78.355C240.731 77.1438 239.622 76.2197 238.185 75.5834C236.769 74.9469 235.075 74.6288 233.104 74.6288H223.25ZM258.365 96.6162C256.641 96.6162 255.05 96.3391 253.592 95.7847C252.134 95.2303 250.862 94.4503 249.773 93.4444C248.706 92.4178 247.874 91.2272 247.279 89.8722C246.684 88.5172 246.386 87.0287 246.386 85.4069C246.386 83.785 246.684 82.2966 247.279 80.9416C247.874 79.5866 248.706 78.4062 249.773 77.4003C250.862 76.3737 252.134 75.5834 253.592 75.0291C255.05 74.4747 256.641 74.1975 258.365 74.1975C260.11 74.1975 261.702 74.4747 263.139 75.0291C264.596 75.5834 265.859 76.3737 266.927 77.4003C267.994 78.4062 268.825 79.5866 269.421 80.9416C270.037 82.2966 270.345 83.785 270.345 85.4069C270.345 87.0287 270.037 88.5275 269.421 89.9028C268.825 91.2578 267.994 92.4384 266.927 93.4444C265.859 94.4503 264.596 95.2303 263.139 95.7847C261.702 96.3391 260.11 96.6162 258.365 96.6162ZM284.933 74.6288H275.078V96.185H281.175V90.4572H284.504L288.412 96.185H294.941L290.289 89.4062C291.593 88.7787 292.61 87.9178 293.339 86.8234C294.12 85.6328 294.51 84.2262 294.51 82.6047C294.51 80.9622 294.12 79.5456 293.339 78.355C292.559 77.1438 291.451 76.2197 290.014 75.5834C288.597 74.9469 286.903 74.6288 284.933 74.6288ZM303.701 96.185V79.4634H297.08V74.6288H316.388V79.4634H309.798V96.185H303.701ZM322.603 95.9694C324.247 96.4006 325.95 96.6162 327.716 96.6162C329.85 96.6162 331.616 96.2978 333.013 95.6616C334.428 95.025 335.488 94.1834 336.184 93.1362C336.903 92.0687 337.263 90.9087 337.263 89.6566C337.263 88.5275 337.038 87.5931 336.584 86.8541C336.153 86.0947 335.578 85.4891 334.859 85.0372C334.141 84.565 333.341 84.1956 332.459 83.9287C331.597 83.6412 330.722 83.4053 329.841 83.2203C328.978 83.0356 328.178 82.8612 327.438 82.6969C326.719 82.5122 326.134 82.2862 325.684 82.0194C325.253 81.7322 325.038 81.3522 325.038 80.88C325.038 80.5106 325.15 80.1822 325.375 79.8947C325.6 79.6072 325.972 79.3812 326.484 79.2172C326.997 79.0325 327.675 78.94 328.516 78.94C329.459 78.94 330.434 79.0837 331.441 79.3712C332.447 79.6381 333.463 80.0484 334.491 80.6028L336.369 76.0759C335.3 75.4603 334.081 74.9981 332.703 74.6903C331.35 74.3619 329.963 74.1975 328.547 74.1975C326.431 74.1975 324.666 74.5159 323.25 75.1522C321.834 75.7887 320.766 76.6303 320.047 77.6775C319.35 78.7244 319 79.8947 319 81.1881C319 82.3378 319.225 83.2922 319.678 84.0519C320.128 84.7909 320.716 85.3966 321.434 85.8687C322.153 86.3203 322.944 86.69 323.803 86.9775C324.688 87.2647 325.559 87.5009 326.422 87.6856C327.306 87.8703 328.106 88.0553 328.825 88.24C329.544 88.4247 330.128 88.6609 330.578 88.9481C331.031 89.2356 331.256 89.6256 331.256 90.1184C331.256 90.4675 331.134 90.7753 330.888 91.0422C330.663 91.2887 330.291 91.4941 329.778 91.6581C329.266 91.8019 328.588 91.8737 327.747 91.8737C326.494 91.8737 325.231 91.6787 323.959 91.2887C322.706 90.8781 321.597 90.3647 320.631 89.7487L318.631 94.245C319.656 94.9428 320.981 95.5178 322.603 95.9694Z" fill="#0B0B0B"/>
</g>
<defs>
<clipPath id="clip0_69_166">
<rect width="359.375" height="100" fill="white"/>
</clipPath>
</defs>
</svg>
