<svg width="360" height="23" viewBox="0 0 360 23" fill="none" xmlns="http://www.w3.org/2000/svg">
<g clip-path="url(#clip0_64_450)">
<path d="M270.567 0.415771H266.371V21.6788H270.567V0.415771Z" fill="#0B0B0B"/>
<path d="M255.498 6.93245C255.498 3.33276 252.581 0.415771 248.981 0.415771H237.822V21.6788H242.017V13.4491H245.331L251.594 21.6788H256.813L250.414 13.2878C253.325 12.6361 255.504 10.0418 255.504 6.93245H255.498ZM242.017 4.09614H248.664C250.228 4.09614 251.501 5.36224 251.501 6.93245C251.501 8.49645 250.235 9.76876 248.664 9.76876H242.017V4.09614Z" fill="#0B0B0B"/>
<path d="M292.195 3.87898C294.61 3.89139 296.738 5.09542 298.029 6.93871L298.067 6.91389C298.067 6.91389 298.079 6.93251 298.085 6.93871L301.263 4.71063C299.264 1.86191 295.956 0 292.214 0C292.202 0 292.195 0 292.183 0C292.177 0 292.164 0 292.158 0C286.057 0 281.111 4.94647 281.111 11.0473C281.111 17.1482 286.057 22.0946 292.158 22.0946C292.164 22.0946 292.177 22.0946 292.183 22.0946C292.195 22.0946 292.202 22.0946 292.214 22.0946C295.956 22.0946 299.264 20.2327 301.263 17.384L298.085 15.1559C298.085 15.1559 298.073 15.1746 298.067 15.1808L298.029 15.1559C296.738 16.993 294.61 18.2033 292.195 18.2157C288.248 18.2033 285.046 15.0008 285.046 11.0473C285.046 7.09387 288.242 3.89139 292.195 3.87898Z" fill="#0B0B0B"/>
<path d="M149.282 0.415771L140.028 21.6788H144.397L146.631 16.5709H155.904L158.138 21.6788H162.507L153.254 0.415771H149.282ZM148.245 12.8906L151.268 5.98908L154.29 12.8906H148.245Z" fill="#0B0B0B"/>
<path d="M209.614 21.6788H224.534V17.9984H213.809V12.8906H224.31V9.20398H213.809V4.09614H224.534V0.415771H209.614V21.6788Z" fill="#0B0B0B"/>
<path d="M184.198 16.664L177.123 0.415771H172.065V21.6788H176.26V8.54611L182.014 21.6788H186.377L192.13 8.54611V21.6788H196.326V0.415771H191.267L184.198 16.664Z" fill="#0B0B0B"/>
<path d="M355.804 0.415771V15.3421L345.359 0.415771H340.692V21.6788H344.887V6.58489L355.457 21.6788H360V0.415771H355.804Z" fill="#0B0B0B"/>
<path d="M318.002 0.415771L308.748 21.6788H313.117L315.352 16.5709H324.624L326.858 21.6788H331.227L321.974 0.415771H318.002ZM316.965 12.8906L319.988 5.98908L323.01 12.8906H316.965Z" fill="#0B0B0B"/>
<path d="M41.955 0C35.8542 0 30.9077 4.94647 30.9077 11.0473C30.9077 17.1482 35.8542 22.0946 41.955 22.0946C48.0559 22.0946 53.0024 17.1482 53.0024 11.0473C53.0024 4.94647 48.0621 0 41.955 0ZM41.955 18.2157C37.9954 18.2157 34.7867 15.007 34.7867 11.0473C34.7867 7.08766 37.9954 3.87898 41.955 3.87898C45.9147 3.87898 49.1234 7.08766 49.1234 11.0473C49.1234 15.007 45.9147 18.2157 41.955 18.2157Z" fill="#0B0B0B"/>
<path d="M72.9868 0C66.8859 0 61.9395 4.94647 61.9395 11.0473C61.9395 17.1482 66.8859 22.0946 72.9868 22.0946C79.0876 22.0946 84.0341 17.1482 84.0341 11.0473C84.0341 4.94647 79.0876 0 72.9868 0ZM72.9868 18.2157C69.0271 18.2157 65.8184 15.007 65.8184 11.0473C65.8184 7.08766 69.0271 3.87898 72.9868 3.87898C76.9464 3.87898 80.1551 7.08766 80.1551 11.0473C80.1551 15.007 76.9464 18.2157 72.9868 18.2157Z" fill="#0B0B0B"/>
<path d="M102.821 0.415771H94.4917V21.6788H102.821C108.692 21.6788 113.452 16.9185 113.452 11.0473C113.452 5.17605 108.692 0.415771 102.821 0.415771ZM102.306 17.9984H98.6872V4.09614H102.306C106.141 4.09614 109.257 7.20553 109.257 11.0473C109.257 14.889 106.147 17.9984 102.306 17.9984Z" fill="#0B0B0B"/>
<path d="M11.9721 9.20403V12.8844H17.9736C17.1606 15.9503 14.3739 18.2095 11.0535 18.2095C7.09387 18.2095 3.88518 15.0008 3.88518 11.0411C3.88518 7.08146 7.09387 3.87277 11.0535 3.87277C13.0334 3.87277 14.827 4.67339 16.1241 5.97052L16.2172 5.87742L18.8673 3.22731C16.8627 1.24127 14.1009 0 11.0473 0C4.94647 0 0 4.94647 0 11.0473C0 17.1482 4.94647 22.0946 11.0473 22.0946C17.1482 22.0946 22.0946 17.1482 22.0946 11.0473C22.0946 10.4205 22.0388 9.80605 21.9395 9.20403H11.9659H11.9721Z" fill="#0B0B0B"/>
</g>
<defs>
<clipPath id="clip0_64_450">
<rect width="360" height="22.0946" fill="white"/>
</clipPath>
</defs>
</svg>
