<svg width="249" height="76" viewBox="0 0 249 76" fill="none" xmlns="http://www.w3.org/2000/svg">
<path d="M248.501 23.9865C248.501 42.6 229.311 48.1649 220.292 47.973H213.576V75.2216H181.722V0H213.576H220.292C231.23 0 248.501 6.33243 248.501 23.9865ZM213.576 32.8135C217.03 29.5514 224.514 26.2892 224.514 26.2892C229.887 23.027 227.776 17.8459 227.776 17.8459C223.363 9.21081 213.576 16.8865 213.576 16.8865C213.576 16.8865 203.982 9.21081 199.376 17.8459C199.376 17.8459 197.074 23.027 202.638 26.2892C202.638 26.2892 210.122 29.5514 213.576 32.8135Z" fill="#0B0B0B"/>
<path d="M193.235 23.9865C193.235 42.6 174.046 48.1649 165.027 47.973H158.502V75.2216H126.648V0H158.502H165.219C175.965 0 193.235 6.33243 193.235 23.9865ZM158.502 32.8135C161.957 29.5514 169.44 26.2892 169.44 26.2892C174.813 23.027 172.702 17.8459 172.702 17.8459C168.289 9.21081 158.502 16.8865 158.502 16.8865C158.502 16.8865 148.908 9.21081 144.302 17.8459C144.302 17.8459 142 23.027 147.565 26.2892C147.565 26.2892 154.857 29.5514 158.502 32.8135Z" fill="#0B0B0B"/>
<path fill-rule="evenodd" clip-rule="evenodd" d="M85.7759 34.9244H117.63V75.2217H85.7759V34.9244ZM101.895 32.8136C105.733 29.3595 113.792 25.7136 113.792 25.7136C119.549 22.2595 117.246 16.5028 117.246 16.5028C112.449 7.10005 101.895 15.3514 101.895 15.3514C101.895 15.3514 91.5326 7.10005 86.5434 16.5028C86.5434 16.5028 84.2408 22.0676 89.9975 25.7136C89.9975 25.7136 98.057 29.3595 101.895 32.8136Z" fill="#0B0B0B"/>
<path d="M45.0946 0V25.3297H31.6622V0H0V75.2216H31.6622V47.5892H45.0946V75.2216H76.9486V0H45.0946Z" fill="#0B0B0B"/>
</svg>
