<svg width="400" height="80" viewBox="0 0 400 80" fill="none" xmlns="http://www.w3.org/2000/svg">
<g clip-path="url(#clip0_69_424)">
<path d="M55.3962 62.088C55.3962 62.648 55.0922 63.168 54.6122 63.456L28.5042 79.092C28.4922 79.104 28.4642 79.104 28.4482 79.12C28.3522 79.16 28.2562 79.2 28.1602 79.244C28.1322 79.244 28.0922 79.256 28.0642 79.272C27.9402 79.3 27.8162 79.328 27.6802 79.324V33.712L52.9642 18.58C53.4602 18.28 54.0762 18.268 54.5802 18.556C55.0882 18.832 55.3882 19.368 55.4002 19.944L55.3962 62.088Z" fill="#0B0B0B"/>
<path d="M27.6801 79.324C27.5441 79.324 27.4201 79.296 27.2961 79.268C27.2561 79.256 27.2281 79.256 27.2001 79.24C27.0921 79.212 26.9961 79.172 26.9121 79.116C26.8841 79.104 26.8721 79.104 26.8561 79.088L0.752114 63.448C0.272114 63.16 -0.0278863 62.636 -0.0238863 62.076V19.944C-0.0238863 19.368 0.280114 18.836 0.788114 18.548C1.28411 18.26 1.90011 18.264 2.39211 18.568L27.6801 33.712V79.324Z" fill="#0B0B0B"/>
<path d="M27.7922 25.984C27.8482 25.984 27.9002 25.976 27.9482 25.964C27.9602 25.96 27.9762 25.956 27.9762 25.956C28.0322 25.94 28.0682 25.924 28.1082 25.9C28.1162 25.896 28.1242 25.896 28.1242 25.896L38.7962 19.5C38.9922 19.384 39.1162 19.168 39.1162 18.94L39.1042 0.996002C39.1042 0.760002 38.9762 0.544002 38.7722 0.428002C38.5682 0.312002 38.3162 0.316002 38.1122 0.436002L27.7842 6.624L27.7922 25.984Z" fill="#0B0B0B"/>
<path d="M149.072 24.192H131.804V37.308H151.992V43.22H124.5V0.596008H151.792V6.56801H131.808V18.336H149.076V24.192H149.072Z" fill="#0B0B0B"/>
<path d="M176.312 20.796L185.988 0.596008H194.072L179.98 27.528V43.22H172.644V27.528L158.524 0.596008H166.636L176.312 20.796Z" fill="#0B0B0B"/>
<path d="M224.292 32.244C224.292 30.368 223.64 28.924 222.344 27.912C221.044 26.896 218.7 25.872 215.312 24.84C211.924 23.804 209.228 22.652 207.228 21.384C203.396 18.944 201.48 15.764 201.48 11.84C201.48 8.40402 202.86 5.57602 205.624 3.35202C208.384 1.12402 211.972 0.0120239 216.384 0.0120239C219.308 0.0120239 221.916 0.560024 224.212 1.65202C226.5 2.74802 228.304 4.30402 229.612 6.32402C230.924 8.34402 231.576 10.584 231.576 13.044H224.296C224.296 10.82 223.608 9.07602 222.232 7.82002C220.852 6.56002 218.884 5.93202 216.328 5.93202C213.94 5.93202 212.088 6.44802 210.768 7.48402C209.448 8.52002 208.788 9.96402 208.788 11.816C208.788 13.376 209.5 14.68 210.924 15.724C212.348 16.768 214.696 17.784 217.968 18.768C221.244 19.756 223.868 20.876 225.852 22.136C227.836 23.396 229.288 24.84 230.212 26.468C231.136 28.096 231.596 30.004 231.596 32.192C231.596 35.744 230.252 38.568 227.568 40.668C224.88 42.764 221.24 43.816 216.636 43.816C213.592 43.816 210.8 43.248 208.248 42.104C205.696 40.96 203.712 39.388 202.3 37.376C200.884 35.368 200.176 33.024 200.176 30.352H207.484C207.484 32.772 208.272 34.644 209.852 35.972C211.432 37.3 213.692 37.964 216.64 37.964C219.18 37.964 221.092 37.44 222.372 36.396C223.652 35.34 224.292 33.96 224.292 32.244Z" fill="#0B0B0B"/>
<path d="M272.528 6.56801H259.416V43.22H252.168V6.56801H239.176V0.596008H272.532V6.56801H272.528Z" fill="#0B0B0B"/>
<path d="M314.932 23.02C314.932 27.196 314.22 30.86 312.796 34.012C311.372 37.164 309.336 39.584 306.688 41.272C304.04 42.96 300.992 43.804 297.548 43.804C294.14 43.804 291.104 42.96 288.436 41.272C285.768 39.584 283.712 37.176 282.256 34.056C280.804 30.932 280.068 27.332 280.048 23.252V20.852C280.048 16.696 280.776 13.024 282.228 9.844C283.68 6.664 285.732 4.228 288.376 2.54C291.024 0.851996 294.06 0.00799561 297.488 0.00799561C300.916 0.00799561 303.952 0.843996 306.6 2.512C309.248 4.18 311.292 6.584 312.736 9.716C314.18 12.848 314.912 16.492 314.932 20.648V23.02ZM307.624 20.796C307.624 16.072 306.744 12.452 304.984 9.936C303.22 7.416 300.724 6.16 297.488 6.16C294.332 6.16 291.86 7.412 290.08 9.92C288.3 12.428 287.388 15.976 287.352 20.56V23.02C287.352 27.704 288.252 31.324 290.052 33.88C291.848 36.436 294.348 37.716 297.544 37.716C300.776 37.716 303.268 36.468 305.008 33.968C306.752 31.468 307.62 27.82 307.62 23.02V20.796H307.624Z" fill="#0B0B0B"/>
<path d="M359.704 43.22H352.4L333.656 12.98V43.22H326.348V0.596008H333.656L352.456 30.956V0.596008H359.704V43.22Z" fill="#0B0B0B"/>
<path d="M397.056 24.192H379.788V37.308H399.976V43.22H372.48V0.596008H399.772V6.56801H379.788V18.336H397.056V24.192Z" fill="#0B0B0B"/>
<path d="M95.7402 24.808L90.9042 29.932V43.224H83.4922V0.596008H90.9042V20.592L95.0082 15.528L107.492 0.596008H116.46L100.604 19.48L117.364 43.22H108.572L95.7402 24.808Z" fill="#0B0B0B"/>
<path d="M92.7922 71.824H85.6602V77.656H93.9442V79.432H83.4922V62.976H93.8322V64.752H85.6602V70.052H92.7922V71.824Z" fill="#0B0B0B"/>
<path d="M104.748 79.432V62.976H109.392C110.824 62.976 112.088 63.292 113.188 63.924C114.288 64.556 115.136 65.456 115.736 66.624C116.336 67.792 116.64 69.132 116.644 70.648V71.7C116.644 73.252 116.344 74.612 115.744 75.78C115.144 76.948 114.288 77.844 113.18 78.468C112.068 79.092 110.776 79.412 109.296 79.428H104.748V79.432ZM106.916 64.752V77.66H109.2C110.872 77.66 112.176 77.14 113.104 76.1C114.036 75.06 114.5 73.576 114.5 71.656V70.696C114.5 68.828 114.06 67.372 113.184 66.336C112.308 65.3 111.06 64.772 109.448 64.76H106.916V64.752Z" fill="#0B0B0B"/>
<path d="M139.612 62.976V74.164C139.604 75.716 139.116 76.984 138.148 77.972C137.18 78.96 135.868 79.512 134.208 79.632L133.632 79.656C131.832 79.656 130.396 79.172 129.324 78.2C128.256 77.228 127.712 75.892 127.696 74.188V62.976H129.844V74.12C129.844 75.312 130.172 76.236 130.828 76.896C131.484 77.556 132.416 77.884 133.632 77.884C134.86 77.884 135.8 77.556 136.452 76.9C137.104 76.244 137.428 75.32 137.428 74.132V62.976H139.612Z" fill="#0B0B0B"/>
<path d="M163.24 74.208C163.036 75.948 162.396 77.292 161.312 78.236C160.232 79.18 158.792 79.656 157 79.656C155.056 79.656 153.5 78.96 152.328 77.564C151.156 76.172 150.572 74.304 150.572 71.968V70.384C150.572 68.856 150.844 67.508 151.392 66.348C151.94 65.188 152.712 64.296 153.716 63.676C154.72 63.056 155.88 62.744 157.196 62.744C158.944 62.744 160.344 63.232 161.4 64.208C162.456 65.184 163.068 66.536 163.244 68.26H161.064C160.876 66.944 160.468 65.992 159.836 65.404C159.208 64.816 158.328 64.52 157.196 64.52C155.808 64.52 154.724 65.032 153.936 66.06C153.148 67.084 152.756 68.544 152.756 70.436V72.032C152.756 73.82 153.128 75.24 153.876 76.296C154.62 77.352 155.664 77.88 157.008 77.88C158.212 77.88 159.14 77.608 159.784 77.06C160.428 76.516 160.856 75.564 161.068 74.208H163.24Z" fill="#0B0B0B"/>
<path d="M183.388 75.124H176.492L174.944 79.432H172.708L178.992 62.976H180.892L187.188 79.432H184.96L183.388 75.124ZM177.152 73.352H182.748L179.944 65.656L177.152 73.352Z" fill="#0B0B0B"/>
<path d="M207.416 64.752H202.128V79.432H199.968V64.752H194.692V62.976H207.416V64.752Z" fill="#0B0B0B"/>
<path d="M220.284 79.432H218.116V62.976H220.284V79.432Z" fill="#0B0B0B"/>
<path d="M245.012 71.736C245.012 73.348 244.74 74.756 244.2 75.956C243.656 77.156 242.888 78.076 241.896 78.708C240.9 79.34 239.74 79.656 238.416 79.656C237.12 79.656 235.972 79.336 234.968 78.7C233.964 78.064 233.188 77.156 232.636 75.976C232.084 74.796 231.796 73.432 231.784 71.88V70.692C231.784 69.108 232.06 67.712 232.608 66.5C233.156 65.288 233.936 64.36 234.94 63.716C235.944 63.072 237.096 62.748 238.392 62.748C239.712 62.748 240.872 63.068 241.88 63.704C242.884 64.34 243.66 65.264 244.204 66.472C244.748 67.68 245.016 69.088 245.016 70.692V71.736H245.012ZM242.852 70.672C242.852 68.72 242.46 67.224 241.676 66.18C240.892 65.136 239.796 64.616 238.388 64.616C237.016 64.616 235.936 65.136 235.148 66.18C234.36 67.224 233.956 68.672 233.932 70.524V71.732C233.932 73.624 234.328 75.108 235.124 76.192C235.92 77.272 237.012 77.812 238.408 77.812C239.808 77.812 240.896 77.3 241.664 76.28C242.432 75.26 242.828 73.796 242.852 71.888V70.672Z" fill="#0B0B0B"/>
<path d="M269.012 79.432H266.832L258.548 66.752V79.432H256.368V62.976H258.548L266.856 75.712V62.976H269.016V79.432H269.012Z" fill="#0B0B0B"/>
<path d="M306.948 77.272C306.392 78.072 305.612 78.668 304.616 79.064C303.616 79.46 302.456 79.656 301.128 79.656C299.788 79.656 298.596 79.34 297.556 78.712C296.516 78.084 295.712 77.188 295.144 76.028C294.576 74.868 294.284 73.524 294.268 71.992V70.556C294.268 68.076 294.848 66.156 296.004 64.792C297.16 63.428 298.788 62.748 300.88 62.748C302.596 62.748 303.98 63.188 305.028 64.064C306.076 64.94 306.716 66.188 306.948 67.8H304.78C304.372 65.616 303.076 64.524 300.892 64.524C299.436 64.524 298.336 65.036 297.588 66.056C296.84 67.076 296.46 68.556 296.452 70.496V71.84C296.452 73.688 296.872 75.156 297.716 76.244C298.56 77.332 299.7 77.88 301.14 77.88C301.952 77.88 302.664 77.792 303.276 77.608C303.888 77.428 304.392 77.124 304.792 76.696V73.008H300.984V71.232H306.952V77.272H306.948Z" fill="#0B0B0B"/>
<path d="M324.7 72.776H320.836V79.432H318.656V62.976H324.104C325.956 62.976 327.384 63.4 328.38 64.24C329.38 65.084 329.876 66.312 329.876 67.924C329.876 68.948 329.6 69.84 329.044 70.604C328.492 71.364 327.72 71.932 326.732 72.312L330.596 79.296V79.432H328.268L324.7 72.776ZM320.836 71H324.172C325.248 71 326.108 70.72 326.744 70.164C327.38 69.604 327.7 68.86 327.7 67.92C327.7 66.9 327.396 66.12 326.792 65.576C326.184 65.032 325.308 64.756 324.164 64.748H320.84V71H320.836Z" fill="#0B0B0B"/>
<path d="M353.676 71.736C353.676 73.348 353.404 74.756 352.864 75.956C352.32 77.156 351.552 78.076 350.56 78.708C349.564 79.34 348.404 79.656 347.08 79.656C345.784 79.656 344.636 79.336 343.632 78.7C342.628 78.064 341.852 77.156 341.3 75.976C340.748 74.796 340.46 73.432 340.448 71.88V70.692C340.448 69.108 340.724 67.712 341.272 66.5C341.82 65.288 342.6 64.36 343.604 63.716C344.608 63.072 345.76 62.748 347.056 62.748C348.376 62.748 349.536 63.068 350.544 63.704C351.548 64.34 352.324 65.264 352.868 66.472C353.412 67.68 353.68 69.088 353.68 70.692V71.736H353.676ZM351.516 70.672C351.516 68.72 351.124 67.224 350.34 66.18C349.556 65.136 348.46 64.616 347.052 64.616C345.68 64.616 344.6 65.136 343.812 66.18C343.024 67.224 342.62 68.672 342.596 70.524V71.732C342.596 73.624 342.992 75.108 343.788 76.192C344.584 77.272 345.676 77.812 347.072 77.812C348.472 77.812 349.56 77.3 350.328 76.28C351.096 75.26 351.492 73.796 351.516 71.888V70.672Z" fill="#0B0B0B"/>
<path d="M376.616 62.976V74.164C376.608 75.716 376.12 76.984 375.152 77.972C374.184 78.96 372.872 79.512 371.212 79.632L370.636 79.656C368.836 79.656 367.4 79.172 366.328 78.2C365.26 77.228 364.716 75.892 364.7 74.188V62.976H366.848V74.12C366.848 75.312 367.176 76.236 367.832 76.896C368.488 77.556 369.42 77.884 370.636 77.884C371.864 77.884 372.804 77.556 373.456 76.9C374.108 76.244 374.432 75.32 374.432 74.132V62.976H376.616Z" fill="#0B0B0B"/>
<path d="M390.312 72.988V79.428H388.144V62.972H394.212C396.012 62.972 397.424 63.432 398.444 64.352C399.464 65.272 399.976 66.488 399.976 68.004C399.976 69.6 399.476 70.832 398.48 71.696C397.48 72.56 396.052 72.992 394.192 72.992H390.312V72.988ZM390.312 71.216H394.212C395.372 71.216 396.26 70.944 396.88 70.396C397.496 69.848 397.808 69.06 397.808 68.024C397.808 67.044 397.5 66.256 396.88 65.668C396.264 65.08 395.416 64.772 394.336 64.752H390.312V71.216Z" fill="#0B0B0B"/>
</g>
<defs>
<clipPath id="clip0_69_424">
<rect width="400" height="80" fill="white"/>
</clipPath>
</defs>
</svg>
