<svg width="311" height="74" viewBox="0 0 311 74" fill="none" xmlns="http://www.w3.org/2000/svg">
<path d="M108.395 3.02922C112.206 3.02922 114.958 5.19296 114.958 9.0877C114.958 11.2514 114.111 14.0643 112.629 17.5263L96.3277 58.6374L77.909 16.0117C76.427 12.7661 75.7919 10.3859 75.7919 8.00582C75.7919 5.40933 77.909 3.02922 82.5666 3.02922V1.08185H55.4679V3.02922C60.9723 3.02922 62.666 4.97659 65.8416 12.5497L91.8818 73.7836H93.3637L117.71 13.1988C120.674 6.05846 124.485 2.81284 127.449 2.81284V1.08185H108.607V3.02922H108.395ZM2.75244 1.08185V3.02922C10.374 3.02922 12.0676 4.97659 12.0676 11.4678V59.0701C12.0676 69.2397 10.5857 70.3216 2.75244 70.3216V72.269H56.103L62.0309 53.0117L60.5489 52.5789C54.8328 67.076 50.8103 69.2397 38.7429 69.2397H31.3331C22.0179 69.2397 21.5945 69.0234 21.5945 57.3392V14.0643C21.5945 5.19296 23.2882 3.24559 32.6034 3.24559V1.08185H2.75244ZM223.565 3.02922V1.08185H206.204L180.799 57.3392L154.336 1.08185H136.552V3.02922C143.962 3.02922 145.656 5.40933 145.656 12.3333V58.8538C145.656 69.0234 143.75 70.1052 136.552 70.1052V72.0526H158.147V70.1052C150.737 70.1052 149.043 69.0234 149.043 58.8538V12.3333L175.93 72.0526H177.624L204.299 12.3333V58.8538C204.299 69.0234 202.817 70.1052 194.56 70.1052V72.0526H223.565V70.1052C215.52 70.1052 214.249 68.807 214.249 58.8538V11.2514C214.249 4.97658 216.155 3.02922 223.565 3.02922ZM252.145 14.2807C252.145 4.32746 253.627 3.02922 261.46 3.02922V1.08185H233.091V3.02922C241.136 3.02922 242.407 4.32746 242.407 14.2807V58.8538C242.407 68.807 240.925 70.1052 233.091 70.1052V72.0526H261.46V70.1052C253.415 70.1052 252.145 68.807 252.145 58.8538V40.0292C252.145 38.0818 252.992 37.4327 255.109 37.4327H285.807C288.136 37.4327 288.771 38.2982 288.771 40.6783V58.8538C288.771 68.807 287.289 70.1052 279.456 70.1052V72.0526H307.825V70.1052C299.78 70.1052 298.509 68.807 298.509 58.8538V14.2807C298.509 4.32746 299.991 3.02922 307.825 3.02922V1.08185H279.456V3.02922C287.501 3.02922 288.771 4.32746 288.771 14.2807V30.9415C288.771 33.538 288.136 34.1871 285.807 34.1871H254.897C252.78 34.1871 251.934 33.538 251.934 31.807V14.2807H252.145Z" fill="#0B0B0B"/>
</svg>
