<svg width="260" height="32" viewBox="0 0 260 32" fill="none" xmlns="http://www.w3.org/2000/svg">
<path fill-rule="evenodd" clip-rule="evenodd" d="M0 31.1557L4.28331 0.695068H4.77493L16.936 25.6395L28.9484 0.698008H29.4415L33.7248 31.1087H30.8192L27.8651 9.34058L17.2804 31.1528H16.5415L5.8097 9.24357L2.85554 31.1557H0ZM86.5508 31.1542L90.8341 0.743573H91.3272L103.488 25.688L115.499 0.745042H115.992L120.276 31.1557H117.372L114.417 9.38908L103.834 31.1528H103.095L92.4106 9.24063L89.4564 31.1557H86.5508V31.1542Z" fill="#0B0B0B"/>
<path d="M46.5748 14.0132V31.1072H43.572V0.695068H49.5274C52.8275 0.695068 55.0913 0.842051 56.2733 1.09192C57.9851 1.4572 59.5165 2.40549 60.6052 3.77435C61.7386 5.1163 62.2788 6.8066 62.2788 8.7938C62.2788 10.4327 61.8857 11.9245 61.1468 13.1665C60.3594 14.4085 59.2775 15.3522 57.8497 15.9989C56.422 16.6456 54.451 16.9925 51.9399 16.9925L62.6732 31.1043H58.9802L46.5762 14.0117L46.5748 14.0132ZM46.5748 3.67734V14.0132L51.7442 14.0617C53.7622 14.0617 55.19 13.8632 56.1747 13.4664C57.1108 13.0695 57.8968 12.4728 58.44 11.6276C58.9802 10.7825 59.2274 9.83885 59.2274 8.79527C59.2274 7.7517 58.9331 6.85658 58.3899 6.0129C57.8482 5.16775 57.1594 4.57247 56.2733 4.22412C55.3872 3.87577 53.9094 3.67734 51.8914 3.67734H46.5748ZM169.017 14.0132V31.1072H166.014V0.695068H171.971C175.27 0.695068 177.535 0.842051 178.716 1.09192C180.428 1.45654 181.96 2.40492 183.049 3.77435C184.181 5.1163 184.723 6.8066 184.723 8.7938C184.723 10.4327 184.328 11.9245 183.591 13.1665C182.803 14.4085 181.72 15.3522 180.292 15.9989C178.864 16.6456 176.895 16.9925 174.384 16.9925L185.117 31.1043H181.424L169.017 14.0102V14.0132ZM169.017 3.67734V14.0132L174.186 14.0617C176.206 14.0617 177.634 13.8632 178.618 13.4664C179.553 13.0695 180.341 12.4728 180.882 11.6276C181.424 10.7825 181.67 9.83885 181.67 8.79527C181.673 7.80561 181.382 6.83723 180.834 6.0129C180.292 5.16775 179.602 4.57247 178.716 4.22412C177.83 3.87577 176.353 3.67734 174.335 3.67734H169.017Z" fill="#0B0B0B"/>
<path fill-rule="evenodd" clip-rule="evenodd" d="M242.572 25.5397L245.132 23.9993C246.904 27.3285 248.972 29.0188 251.335 29.0188C252.319 29.0188 253.256 28.7689 254.142 28.3235C255.028 27.8267 255.668 27.23 256.16 26.3848C256.604 25.6136 256.842 24.7407 256.849 23.8508C256.849 22.8073 256.504 21.8137 255.815 20.87C254.881 19.5281 253.157 17.8878 250.694 16.0005C248.185 14.0618 246.658 12.7199 246.067 11.8262C245.033 10.3858 244.492 8.84394 244.492 7.15511C244.492 5.81316 244.788 4.62113 245.428 3.52758C246.047 2.44635 246.948 1.55327 248.036 0.943628C249.169 0.296905 250.4 0 251.729 0C253.157 0 254.437 0.346879 255.668 1.04358C256.899 1.7388 258.179 3.08075 259.557 4.96801L257.096 6.85673C255.962 5.31636 255.028 4.32276 254.24 3.87593C253.453 3.37913 252.565 3.17923 251.631 3.17923C250.449 3.17923 249.464 3.52758 248.676 4.27278C248.311 4.62732 248.022 5.05274 247.827 5.52289C247.633 5.99303 247.536 6.49797 247.544 7.00666C247.544 7.65191 247.692 8.29716 247.937 8.94389C248.185 9.54063 248.726 10.2359 249.415 10.9811C249.808 11.3779 251.089 12.373 253.256 14.0118C255.815 15.9505 257.637 17.6893 258.572 19.2297C259.557 20.7201 260 22.2605 260 23.8009C260 25.988 259.164 27.9252 257.539 29.5655C255.914 31.2044 253.896 31.9996 251.532 31.9996C249.777 32.0173 248.058 31.4971 246.608 30.5092C245.181 29.4656 243.851 27.8238 242.572 25.5397Z" fill="#0B0B0B"/>
<path d="M142.973 0.695068L156.906 31.1057H153.706L149.028 21.0683H136.13L131.452 31.1072H128.106L142.237 0.696538H142.974L142.973 0.695068ZM142.578 7.15495L137.459 18.186H147.65L142.578 7.15495Z" fill="#0B0B0B"/>
<path fill-rule="evenodd" clip-rule="evenodd" d="M192.254 0.695068H195.504L205.4 24.1976L215.443 0.695068H218.693L205.696 31.1557H205.056L192.254 0.695068ZM232.528 31.1557H229.475V0.695068H232.528V31.1557Z" fill="#0B0B0B"/>
</svg>
