<svg width="337" height="102" viewBox="0 0 337 102" fill="none" xmlns="http://www.w3.org/2000/svg">
<g clip-path="url(#clip0_69_240)">
<path fill-rule="evenodd" clip-rule="evenodd" d="M319.763 48.3347C319.436 49.575 319.021 51.0208 318.538 52.6867C317.982 54.5876 317.364 56.6131 316.696 58.7635C316.021 60.9211 315.375 62.9687 314.759 64.9355C314.144 66.873 313.623 68.5903 313.171 70.0214C312.978 70.6893 312.8 71.2396 312.644 71.6874C312.243 70.6159 311.805 69.4416 311.307 68.1427C310.647 66.3446 309.963 64.4804 309.258 62.5577C308.56 60.6275 307.87 58.7047 307.172 56.7966C306.474 54.8957 305.835 53.1417 305.286 51.5419C304.856 50.3162 304.493 49.2374 304.18 48.3127L304.099 48.0191H319.859L319.763 48.3347ZM278.644 71.4745C278.644 72.2892 278.362 72.9497 277.768 73.4855C276.877 74.3734 275.896 74.9826 274.857 75.2835C273.78 75.5991 272.526 75.7605 271.123 75.7605C269.617 75.7605 268.444 75.2321 267.515 74.1753C266.573 73.0819 266.112 71.9076 266.112 70.5572C266.112 69.2288 266.58 68.0619 267.552 66.9977C268.562 65.897 269.772 64.8842 271.153 63.9668C272.57 63.0347 274.041 62.1687 275.511 61.3761C276.705 60.7376 277.753 60.1211 278.644 59.5414V71.4745ZM239.863 48.4814C239.93 49.2521 239.953 50.03 239.953 50.7786C239.953 57.8975 238.475 63.9668 235.542 68.8105C232.625 73.6322 228.156 76.92 222.269 78.5934C220.999 78.9824 219.642 79.2245 218.208 79.3639C215.179 79.6502 212.402 79.6943 209.182 79.1292C207.592 78.8283 206.234 78.1531 205.187 77.133C204.906 76.8467 204.639 76.377 204.423 75.7459C204.171 75.0927 204 74.3515 203.888 73.5222C203.777 72.6781 203.68 71.8049 203.606 70.8875C203.524 69.9848 203.48 69.1554 203.48 68.3849C203.42 66.5941 203.39 64.2162 203.39 61.3761V48.0191H239.833L239.863 48.4814ZM136.148 45.8541L141.137 32.9668C142.043 35.5649 142.844 37.9059 143.519 39.9242C144.254 42.1113 144.93 44.0561 145.538 45.8541H136.148ZM17.3785 45.8541C17.3414 44.4964 17.3117 43.0579 17.3117 41.5388V8.72609C20.6895 12.469 23.9261 16.1238 26.9401 19.5952C30.2733 23.4335 33.6807 27.3672 37.1549 31.3889C40.6217 35.4181 44.2667 39.6453 48.0973 44.078C48.6021 44.6579 49.1069 45.2449 49.6414 45.8541H17.3785ZM82.2233 29.378C82.6985 28.2184 83.3815 27.0442 84.2426 25.8994C85.1185 24.7472 86.1504 23.7344 87.3308 22.883C88.4666 22.0684 89.7509 21.6501 91.1466 21.6501C93.3365 21.6501 95.0959 22.3179 96.3801 23.6316C97.6868 24.9819 98.3252 26.5379 98.3252 28.4093C98.3252 29.2533 98.1916 29.6789 98.0876 29.8697C97.9318 30.1853 97.7016 30.5229 97.3897 30.8825C96.9221 31.0514 96.3875 31.1541 95.7863 31.2055C95.0958 31.2568 94.3387 31.2789 93.5296 31.2789C92.2898 31.2789 91.1316 31.3008 90.0775 31.3229L87.071 31.4035C86.1654 31.433 85.1853 31.4476 84.1758 31.4476H81.4958C81.6443 30.8972 81.8893 30.2073 82.2233 29.378ZM158.226 45.8541C158.404 45.4431 158.582 45.0467 158.76 44.6358C159.711 42.4489 160.668 40.2397 161.626 38.0233C162.546 35.8803 163.489 33.7447 164.418 31.6677C165.33 29.5909 166.103 27.8515 166.748 26.3544C167.209 25.2828 167.744 24.4535 168.322 23.8812C168.908 23.3161 169.495 22.883 170.088 22.6188C170.676 22.34 171.298 22.1859 171.915 22.1344C172.598 22.0758 173.273 22.0317 173.926 21.9729L174.417 21.929V20.0135H158.337V21.9143L158.819 21.9729C159.317 22.0317 159.859 22.0758 160.467 22.1344C161.025 22.1859 161.537 22.2886 162.012 22.4647C162.45 22.6262 162.807 22.8684 163.104 23.206C163.371 23.5141 163.505 23.9839 163.505 24.6003C163.505 24.9012 163.408 25.5544 162.947 27.0442C162.569 28.2772 162.094 29.7084 161.53 31.2715C160.965 32.8494 160.312 34.5593 159.57 36.3575C158.835 38.1701 158.123 39.9242 157.439 41.6341C156.816 43.1827 156.229 44.5991 155.68 45.8541H153.794C153.682 45.5385 153.564 45.2156 153.437 44.8854C152.806 43.1827 152.168 41.4433 151.508 39.66C150.847 37.8399 150.201 36.0418 149.592 34.3172C148.977 32.5852 148.412 30.9413 147.907 29.4587C147.403 27.9616 147.016 26.7654 146.727 25.7893C146.34 24.5049 146.303 24.1307 146.303 24.0352C146.303 23.617 146.43 23.338 146.741 23.1398C147.165 22.8756 147.661 22.6776 148.233 22.5234C148.835 22.3693 149.459 22.2519 150.09 22.1711L152.206 21.9069V20.0135H132.429V21.9436L132.941 21.9729C133.877 22.0317 134.619 22.1197 135.124 22.2445C135.614 22.3619 135.992 22.5013 136.237 22.6555C136.542 22.8463 136.683 23.0004 136.749 23.0812C136.876 23.272 137.032 23.4555 137.21 23.6242C137.729 24.5564 138.197 25.5251 138.62 26.4718C139.021 27.4112 139.415 28.3873 139.778 29.3854C139.088 31.2715 138.375 33.187 137.67 35.1172C136.935 37.0987 136.208 39.0289 135.502 40.8636C134.79 42.691 134.144 44.3496 133.543 45.8541H131.33C130.751 44.489 130.165 43.0653 129.534 41.5829C128.301 38.6913 127.114 35.851 126 33.1576C124.924 30.5449 124.003 28.2551 123.261 26.3177C122.667 24.7839 122.281 23.7343 122.103 23.1619C122.288 23.0371 122.511 22.9271 122.771 22.8317C123.216 22.6848 123.699 22.5308 124.204 22.3986C124.701 22.2738 125.191 22.1859 125.681 22.1344C126.215 22.0758 126.668 22.0317 127.054 21.9657L127.522 21.8995V20.0135H107.998V21.9583L108.503 21.9729C110.619 22.0317 111.517 22.3326 111.888 22.5747C112.445 22.9418 112.883 23.2499 113.202 23.4995C113.61 24.1673 114.011 24.9233 114.39 25.7526C114.806 26.6479 115.177 27.4699 115.496 28.2111C117.812 33.7154 119.987 38.9187 121.969 43.6892C122.266 44.4083 122.57 45.1275 122.875 45.8541H83.322C82.7877 44.8707 82.3496 43.8359 81.9932 42.7277C81.3474 40.7021 81.0282 38.5591 81.0282 36.3575C81.0282 35.7776 81.0579 35.2052 81.1099 34.6695C81.147 34.2952 81.1768 33.9649 81.1842 33.642H107.56L107.516 33.0769C107.345 30.7505 106.803 28.6808 105.897 26.9415C104.992 25.2242 103.804 23.7564 102.356 22.6114C100.908 21.4592 99.1937 20.5932 97.2413 20.0429C95.3185 19.4851 93.2325 19.2062 91.0723 19.2062C88.3701 19.2062 85.8832 19.786 83.6488 20.9308C81.4365 22.061 79.5361 23.5655 77.992 25.4003C76.4553 27.2204 75.2453 29.2972 74.4139 31.5944C73.5749 33.8841 73.1517 36.2253 73.1517 38.5444C73.1517 41.0984 73.5081 43.5422 74.2134 45.8541H63.9986C63.9912 44.3863 63.9762 42.9259 63.9762 41.458V36.2767C63.9762 32.6879 64.0209 29.2679 64.1025 26.1195C64.1841 22.883 64.2807 20.197 64.3846 17.8999C64.496 15.4119 64.6073 13.0781 64.7187 10.8911C64.8226 8.77745 65.0527 7.33166 65.4165 6.5684C66.0177 5.11529 66.8938 4.02178 68.0221 3.32456C69.1877 2.62003 70.7541 2.12832 72.699 1.85677L73.1593 1.8054V0H51.7423V1.8054L52.2026 1.85677C54.7413 2.22371 56.6864 2.86954 58.0078 3.75757C59.3069 4.63825 60.2125 5.79047 60.7173 7.2069C61.1331 8.27105 61.3707 9.78289 61.43 11.691C61.4745 13.6799 61.5042 15.7642 61.5042 17.8778V43.9973L23.5847 0.176136L23.414 0H5.9834V1.81274L6.4585 1.86411C7.31222 1.96686 8.21046 2.14299 9.13842 2.37783C10.0292 2.60535 10.8607 2.99431 11.6327 3.51539C12.3825 4.02911 13.0432 4.77036 13.6 5.70241C14.1642 6.62712 14.528 7.85274 14.6764 9.30586C14.7357 10.8984 14.7654 12.1974 14.7654 13.2542V23.1398C14.7654 26.692 14.7357 30.1193 14.6764 33.3044C14.6244 36.4528 14.5428 39.2123 14.4314 41.5241C14.372 43.0726 14.3127 44.5111 14.2235 45.8541H0V48.0191H193.391V55.9892C193.391 57.6479 193.377 59.2624 193.361 60.8257L193.273 65.163C193.243 66.4914 193.22 67.5556 193.22 68.3261C193.22 69.1774 193.206 70.0875 193.139 71.0416C193.094 71.9589 193.006 72.8396 192.886 73.6542C192.79 74.4689 192.664 75.2028 192.531 75.8486C192.374 76.5679 192.167 76.8981 191.996 77.067C191.372 77.7861 190.429 78.4173 189.182 78.9456C187.921 79.474 186.591 79.8263 185.241 79.9805L184.862 80.0245V81.6758H215.855C218.431 81.6758 221.126 81.4923 223.865 81.1253C226.619 80.7584 229.322 80.1272 231.904 79.2466C234.504 78.3439 236.991 77.1476 239.298 75.6358C241.608 74.1386 243.678 72.2011 245.423 69.904C247.175 67.6069 248.571 64.8475 249.595 61.6696C250.62 58.4919 251.118 54.771 251.118 50.6097C251.118 49.8611 251.088 49.1419 251.051 48.4154L251.028 48.0191H261.481L261.391 48.0778C260.768 48.4374 260.241 48.8043 259.787 49.2154C259.253 49.6851 258.793 50.2135 258.443 50.8005C258.072 51.4097 257.872 52.107 257.872 52.8482C257.872 53.7949 258.251 54.6243 258.971 55.3434C259.683 56.0554 260.559 56.4297 261.577 56.4297C262.624 56.4297 263.597 56.0921 264.487 55.4241C265.392 54.7343 265.867 53.9196 265.867 53.0097V49.2814C265.867 49.2154 265.904 49.0392 266.135 48.6796L266.566 48.0191H278.287L278.547 48.6063C278.644 48.8484 278.644 48.8778 278.644 48.8778V57.1415C278.146 57.457 277.523 57.78 276.832 58.1396C276.016 58.5579 275.073 59.057 274.019 59.6293C272.943 60.2092 271.703 60.9211 270.277 61.7504C268.866 62.5577 267.211 63.5705 265.363 64.73C263.493 65.9189 261.91 67.24 260.626 68.7078C259.298 70.2196 258.63 71.8195 258.63 73.4562C258.63 74.9459 258.881 76.2376 259.379 77.2797C259.891 78.3292 260.538 79.1879 261.339 79.863C262.14 80.5456 263.032 81.0226 264.012 81.2722C266.558 81.9693 269.082 81.7125 271.153 80.9346C272.452 80.4575 273.626 79.8116 274.695 79.0191C275.748 78.2265 276.677 77.3605 277.448 76.4652C277.908 75.922 278.325 75.401 278.681 74.9019C278.844 77.243 279.639 78.9824 281.041 80.0098C282.585 81.1621 284.382 81.7418 286.379 81.7418C287.603 81.7418 288.746 81.5217 289.772 81.096C290.795 80.6557 291.717 80.0098 292.466 79.1585C293.224 78.3292 293.833 77.3972 294.301 76.3623C294.775 75.3349 295.034 74.2486 295.101 73.1553L295.124 72.7002H293.824L293.743 73.0157C293.543 73.7716 293.179 74.3734 292.623 74.8285C292.088 75.2835 291.219 75.5184 290.062 75.5184C289.044 75.5184 288.168 75.1661 287.388 74.4322C286.609 73.713 286.208 72.1644 286.208 69.8087C286.208 67.9445 286.231 66.2125 286.259 64.6493C286.282 63.0788 286.305 61.5302 286.305 60.0551C286.305 58.5653 286.319 57.0315 286.342 55.4241C286.379 53.8243 286.379 52.0189 286.379 50.03C286.379 49.6484 286.379 49.2521 286.356 48.8631L286.319 48.0191H295.495L300.239 60.8036C301.278 63.5925 302.295 66.2932 303.29 68.9427C304.307 71.592 305.198 73.9844 305.978 76.0981C306.764 78.2265 307.402 79.9657 307.893 81.3089C308.449 82.7546 308.672 83.3197 308.783 83.5765C308.716 83.8701 308.582 84.3692 308.398 85.0665C308.174 85.8884 307.87 86.8864 307.522 88.0681C307.165 89.2496 306.734 90.578 306.275 92.0311C305.837 93.3228 305.369 94.6438 304.834 95.9575C304.166 95.341 303.52 94.7539 302.866 94.1741C302.036 93.4402 300.996 93.0659 299.778 93.0659C298.531 93.0659 297.521 93.4696 296.765 94.2989C296.037 95.0915 295.651 96.1262 295.651 97.3372C295.651 98.6068 296.186 99.6343 297.254 100.405C298.263 101.168 299.407 101.528 300.61 101.528C301.976 101.528 303.341 101.036 304.648 100.031C305.932 99.0545 306.934 97.4473 307.633 95.2749C308.583 92.3467 309.578 89.2643 310.617 86.0058C311.641 82.74 312.673 79.4594 313.713 76.1495C314.744 72.8396 315.762 69.6031 316.771 66.4621L322.658 48.0191H336.689V45.8541H158.226Z" fill="#0B0B0B"/>
</g>
<defs>
<clipPath id="clip0_69_240">
<rect width="337" height="102" fill="white"/>
</clipPath>
</defs>
</svg>
