<svg width="434" height="90" viewBox="0 0 434 90" fill="none" xmlns="http://www.w3.org/2000/svg">
<path d="M97.8169 21.5728H120.275C136.509 21.5728 140.659 31.279 140.659 39.1679C140.659 47.0568 136.468 56.7631 120.275 56.7631H106.402V84.5189H97.8169V21.5728ZM106.442 49.3285H117.793C124.629 49.3285 131.423 47.759 131.423 39.2092C131.423 30.6595 124.588 29.0899 117.793 29.0899H106.442V49.3285Z" fill="#0B0B0B"/>
<path d="M151.929 21.2837C155.183 21.2837 157.828 23.8858 157.869 27.0661C157.909 30.2878 155.346 32.9312 152.091 33.0138C148.837 33.0964 146.151 30.5769 146.029 27.3553C145.989 25.7444 146.599 24.2162 147.697 23.0597C148.755 21.9445 150.301 21.2837 151.929 21.2837ZM147.941 42.3896H155.916V84.5602H147.941V42.3896Z" fill="#0B0B0B"/>
<path d="M165.192 42.3895H173.288V48.9154H173.492C176.299 43.959 181.751 40.9852 187.487 41.3569C195.747 41.3569 202.867 46.272 202.867 57.4652V84.6014H194.892V59.7368C194.892 51.8066 190.295 48.8741 185.168 48.8741C178.455 48.8741 173.329 53.1283 173.329 62.9172V84.6014H165.192V42.3895Z" fill="#0B0B0B"/>
<path d="M217.635 66.4279C217.635 73.7799 224.552 78.6123 231.997 78.6123C236.676 78.4884 241.029 76.1341 243.674 72.3343L249.817 76.9602C245.342 82.784 238.263 86.0469 230.898 85.6752C217.391 85.6752 209.01 76.0928 209.01 63.5367C208.766 57.6716 211.003 51.9718 215.153 47.8001C219.303 43.6285 224.999 41.3155 230.939 41.3981C245.952 41.3981 251.689 52.7565 251.689 63.6193V66.4692H217.635V66.4279ZM243.185 60.0259C242.982 53.0043 239.036 47.8414 230.898 47.8414C223.941 47.8001 218.123 53.1283 217.676 60.0259H243.185Z" fill="#0B0B0B"/>
<path d="M288.306 53.624C285.661 50.5262 281.796 48.7915 277.687 48.9154C268.899 48.9154 264.383 55.9369 264.383 63.8672C264.179 67.6257 265.522 71.2604 268.126 73.9864C270.73 76.7125 274.351 78.2407 278.135 78.1994C282.122 78.3233 285.946 76.5885 288.469 73.4908L294.205 79.108C290.015 83.4862 284.115 85.8405 278.053 85.5926C272.072 85.8818 266.254 83.6927 262.023 79.4798C257.792 75.3081 255.513 69.5257 255.798 63.6193C255.513 57.6717 257.792 51.8892 262.023 47.6763C266.254 43.4634 272.072 41.1917 278.094 41.3982C284.237 41.233 290.177 43.6699 294.449 48.048L288.306 53.624Z" fill="#0B0B0B"/>
<path d="M318.128 41.3157C330.415 41.5222 340.261 51.5175 340.139 63.702C340.017 75.8865 329.968 85.6753 317.64 85.5927C305.353 85.5101 295.385 75.6386 295.385 63.4542C295.385 57.5065 297.786 51.848 302.058 47.6764C306.37 43.5047 312.148 41.233 318.128 41.3157ZM318.128 78.1581C326.713 78.1581 332.124 72.0866 332.124 63.4542C332.124 54.8631 326.713 48.7915 318.128 48.7915C309.544 48.7915 304.092 54.8631 304.092 63.4542C304.092 72.0453 309.503 78.1581 318.128 78.1581Z" fill="#0B0B0B"/>
<path d="M347.34 42.3894H355.437V48.9153C358.244 43.9176 363.737 40.9851 369.473 41.3568C377.732 41.3568 384.852 46.2719 384.852 57.465V84.6013H376.756V59.7367C376.756 51.8065 372.158 48.874 367.073 48.874C360.319 48.874 355.233 53.1282 355.233 62.9171V84.6013H347.381V42.3894H347.34Z" fill="#0B0B0B"/>
<path d="M399.865 66.428C399.865 73.78 406.781 78.6125 414.227 78.6125C418.906 78.4473 423.259 76.1343 425.904 72.3344L432.047 76.9603C427.572 82.7428 420.533 85.9644 413.169 85.5514C399.702 85.5514 391.28 75.9691 391.28 63.4129C391.036 57.5478 393.274 51.8067 397.424 47.635C401.574 43.4221 407.31 41.1504 413.25 41.2743C428.263 41.2743 434 52.6327 434 63.4955V66.3454L399.865 66.428ZM425.375 59.9847C425.171 52.9632 421.265 47.8003 413.088 47.8003C406.13 47.759 400.312 53.0871 399.865 59.9847H425.375Z" fill="#0B0B0B"/>
<path fill-rule="evenodd" clip-rule="evenodd" d="M49.2386 2.9862C48.3842 1.95362 46.9602 1.7058 45.821 2.36666L44.7632 2.9449L33.2492 9.59472L35.9344 14.3859L43.4205 10.0491L41.5897 20.2096L46.9195 21.2009L48.791 10.999L54.3242 17.6902L58.4741 14.1381L50.0929 3.97748H50.0523L49.2386 2.9862ZM33.0865 88.6904C35.8531 88.6904 38.0908 86.46 38.0908 83.734C38.0908 81.008 35.8531 78.7776 33.0865 78.7776C30.3199 78.7776 28.0822 81.008 28.0822 83.734C28.0415 86.46 30.3199 88.6904 33.0865 88.6904ZM39.7996 61.4716L38.0094 71.6735L32.6389 70.6822L34.4291 60.5216L26.943 64.8997L24.2171 60.1086L35.6496 53.4587L36.7075 52.8392C37.8467 52.1783 39.2706 52.4262 40.125 53.4587L40.9387 54.45L49.442 64.5693L45.2921 68.1627L39.7996 61.4716ZM44.1529 37.1027L42.3627 47.3046L36.9923 46.3133L38.7824 36.194L31.337 40.5308L28.6518 35.7397L40.0437 29.1311V29.0485H40.125L41.1829 28.429C42.322 27.7681 43.746 28.016 44.6004 29.0485L45.4141 29.9985L53.8767 40.1591L49.7268 43.7525L44.1529 37.1027ZM9.04142 77.4146H9.00074L7.90223 77.0842C6.72236 76.7538 5.94933 75.5973 6.03071 74.3582L7.00715 60.5629L12.1742 60.9346L11.5639 69.3192L19.5789 63.7846L22.4676 68.1214L14.6153 73.5321L22.6303 75.8864L21.2063 80.9254L9.04142 77.4146ZM62.2172 83.1145L61.851 84.3123C61.4849 85.4688 60.427 86.2535 59.2065 86.1709L58.0673 86.0883L57.9859 86.1296L57.9452 86.0883L45.3328 85.2209L45.6582 79.9754L54.0394 80.5537L48.5469 72.7474L52.7375 69.6909L58.3521 77.7037L60.7932 69.6083L65.7161 71.1365L62.2172 83.1145ZM77.0267 54.6978L77.6369 55.813C78.2472 56.9282 78.0031 58.3325 77.0267 59.1586L76.1316 59.9434V59.9847H76.0909L66.2857 68.4105L62.8682 64.3215L69.2964 58.7869L59.654 57.0521L60.5898 51.7653L70.3136 53.5L66.245 46.0655L70.8425 43.4634L77.0267 54.6978ZM67.0587 31.6506L58.3521 36.4005L55.8296 31.6919L64.4142 27.0247L56.5619 23.7617L58.5555 18.8053L70.517 23.7204L70.5577 23.6791L70.5984 23.7617L71.6969 24.2161C72.8768 24.7117 73.5277 25.9508 73.3243 27.1899L73.1209 28.429L70.8832 41.0265L65.6754 40.0765L67.0587 31.6506ZM8.63457 42.7199L18.3177 44.372L17.4226 49.6589L7.65812 47.9654L11.808 55.4L7.21058 58.0434L0.945036 46.8502L0.334756 45.7763C-0.275525 44.6612 -0.0314127 43.2569 0.904351 42.4308L1.79943 41.646V41.6047H1.84011L11.5232 33.1376L14.9815 37.2266L8.63457 42.7199ZM23.2406 19.8379L29.6689 27.1073L25.7224 30.7007L19.1314 23.2661L17.626 31.7332L12.4183 30.7833L14.6967 18.2271L14.9408 16.9467C15.1442 15.7076 16.202 14.7989 17.4226 14.7576L18.5618 14.7163L18.6025 14.675L18.6432 14.7163L31.5811 14.1794L31.7845 19.5488L23.2406 19.8379Z" fill="#0B0B0B"/>
</svg>
