<svg width="249" height="86" viewBox="0 0 249 86" fill="none" xmlns="http://www.w3.org/2000/svg">
<g clip-path="url(#clip0_69_256)">
<path d="M78.18 35.35C78.1 10.63 71.25 0.119991 39.1 -9.20193e-06C7.1 -0.110009 0 10.51 0 35.35C0 36.98 0 38.55 0.1 40.07V85.14H17.2V68.36C22.7 70.23 29.83 71.14 39.04 71.14C71.25 71.14 78.3 60.85 78.18 35.35ZM39.1 55.39C21.21 55.39 17.35 49.28 17.35 35.45C17.35 21.62 21.24 15.69 39.1 15.75C56.96 15.81 60.83 21.67 60.89 35.45C60.94 49.66 57.01 55.39 39.1 55.39Z" fill="#0B0B0B"/>
<path d="M163.49 35.39C163.6 60.89 156.55 71.18 124.34 71.18C92.1298 71.18 85.3398 60.18 85.3398 35.39C85.3398 10.6 92.3498 -0.0700241 124.37 -2.4149e-05C156.55 0.159976 163.38 10.67 163.49 35.39ZM124.39 15.79C106.55 15.73 102.62 21.65 102.62 35.49C102.62 49.33 106.49 55.44 124.37 55.44C142.25 55.44 146.25 49.7 146.18 35.49C146.1 21.72 142.32 15.86 124.39 15.79Z" fill="#0B0B0B"/>
<path d="M248.1 44.73C246.28 63.44 237.27 71.19 209.33 71.19C177.23 71.19 170.33 60.19 170.33 35.4C170.33 10.61 177.33 -0.0599643 209.4 0.0500357C237.71 0.150036 246.4 8.30004 248.15 27.05H230.36C228.53 19.25 223.09 15.8 209.36 15.76C191.52 15.7 187.59 21.62 187.59 35.46C187.59 49.3 191.46 55.46 209.34 55.46C222.72 55.46 228.34 52.27 230.26 44.76L248.1 44.73Z" fill="#0B0B0B"/>
</g>
<defs>
<clipPath id="clip0_69_256">
<rect width="248.1" height="85.14" fill="white"/>
</clipPath>
</defs>
</svg>
