<svg width="326" height="50" viewBox="0 0 326 50" fill="none" xmlns="http://www.w3.org/2000/svg">
<g clip-path="url(#clip0_69_260)">
<path d="M29.6789 22.1101V9.6789C29.6789 3.53211 26.7661 0.275229 21.5596 0.275229H0V49.7248H12.3853V31.6284H21.5596C26.7661 31.6284 29.6789 28.2569 29.6789 22.1101ZM12.3853 11.1468H16.1927L17.3165 12.4312V19.4954L16.1927 20.7569H12.3853V11.1468ZM31.5596 39.3349C31.5596 45.8945 36.7661 50 42.8899 50H50.0459C56.1697 50 61.3762 45.8945 61.3762 39.3349V10.6651C61.3762 4.1055 56.1927 0 50.0459 0H42.8899C36.7661 0 31.5596 4.1055 31.5596 10.6651V39.3349ZM44.0826 37.156V12.844L45 11.445H47.9817L48.8532 12.844V37.156L47.9358 38.555H44.9541L44.0367 37.156H44.0826ZM89.1284 0.275229H79.9541L76.8349 20.2752H76.4908L74.3119 0.275229H61.5826L68.578 49.7248H81.2385L84.4495 30H84.7706L87.5688 49.7248H100.459L107.431 0.275229H95.0459L92.7523 20.2752H92.4083L89.1284 0.275229ZM108.945 49.7248H136.239V38.7615H121.33V29.8165H134.817V18.8991H121.33V11.2385H136.239V0.275229H108.945V49.7248ZM156.284 49.7248H169.495L164.908 30.2752C167.064 28.7156 168.165 25.9633 168.165 22.156V9.6789C168.165 3.53211 165.252 0.275229 160.046 0.275229H138.486V49.7248H150.872V31.7202H152.385L156.284 49.7248ZM150.872 11.1468H154.679L155.803 12.4312V19.0826L154.679 20.344H150.872V11.1697V11.1468ZM200.138 0.275229H187.752V17.9358H183.119V0.275229H170.734V49.7248H183.119V30.2294H187.775V49.7248H200.161V0.275229H200.138ZM202.844 39.3349C202.844 45.8945 208.05 50 214.174 50H221.33C227.454 50 232.661 45.8945 232.661 39.3349V10.6651C232.661 4.1055 227.454 0 221.33 0H214.174C208.05 0 202.844 4.1055 202.844 10.6651V39.3349ZM215.367 37.156V12.844L216.261 11.445H219.243L220.161 12.844V37.156L219.243 38.555H216.261L215.344 37.156H215.367ZM247.477 37.2248V0.206422H235.092V39.6101C235.092 45.4817 239.748 50 246.422 50H253.165C259.839 50 264.495 45.4817 264.495 39.6101V0.229358H252.11V37.2477L251.216 38.578H248.395L247.477 37.2477V37.2248ZM278.211 38.2798V31.789H266.376V38.6927C266.376 46.9495 271.239 50 277.087 50H285.138C291.261 50 296.261 46.3303 296.261 39.2661V33.8991C296.261 28.7385 294.541 25.344 290.138 22.4541L282.018 17.2936C279.45 15.6881 279.106 14.9083 279.106 13.0734V11.6514L280.138 10.2294H283.349L284.381 11.6514V17.4541H295.917V11.1468C295.917 3.60092 291.674 0 285.619 0H277.569C271.376 0 266.72 4.1055 266.72 10.3211V15.9633C266.72 20.8945 268.188 24.2202 272.638 27.0413L280.688 32.2706C282.569 33.4633 283.83 34.4725 283.83 36.7202V38.2798L282.775 39.6789H279.243L278.188 38.2798H278.211ZM298.44 49.7248H325.688V38.7615H310.803V29.8165H324.289V18.8991H310.803V11.2385H325.688V0.275229H298.44V49.7248Z" fill="#0B0B0B"/>
</g>
<defs>
<clipPath id="clip0_69_260">
<rect width="325.688" height="50" fill="white"/>
</clipPath>
</defs>
</svg>
