<svg width="427" height="33" viewBox="0 0 427 33" fill="none" xmlns="http://www.w3.org/2000/svg">
<g clip-path="url(#clip0_73_1586)">
<path d="M18.5279 17.3737L26.1995 30.7887H19.1398L11.774 18.0736H6.15587V30.7887H0V0.0185547H13.4196C20.5953 0.0185547 24.1847 2.97288 24.1878 8.88153C24.1878 13.3254 22.3011 16.1561 18.5279 17.3737ZM6.15587 12.321H14.7732C17.2454 12.2809 18.5171 11.1513 18.5882 8.93253C18.5171 6.91146 17.2655 5.85921 14.8335 5.77577H6.15587V12.321Z" fill="#0B0B0B"/>
<path d="M29.166 30.7887L41.4778 0.0185547H47.629L59.9177 30.7702H53.3771L51.523 26.056H37.5795L35.7254 30.7702L29.166 30.7887ZM44.7182 8.22328L40.0408 19.9185H49.2701L44.7182 8.22328Z" fill="#0B0B0B"/>
<path d="M63.1206 30.7887V0H74.9783C84.5582 0 89.348 5.13455 89.348 15.4036C89.348 25.6727 84.5582 30.8009 74.9783 30.7887H63.1206ZM74.9783 24.656C80.4388 24.656 83.1752 21.5657 83.1877 15.3851C83.1998 9.20446 80.4634 6.13424 74.9783 6.17443H69.2766V24.656H74.9783Z" fill="#0B0B0B"/>
<path d="M110.305 30.7887V0.0185547H123.72C130.902 0.0185547 134.493 2.97288 134.493 8.88153C134.493 15.0096 130.91 18.0736 123.743 18.0736H116.461V30.7887H110.305ZM116.461 12.321H125.078C127.551 12.2809 128.822 11.1513 128.893 8.93253C128.822 6.91146 127.571 5.85921 125.139 5.77577H116.461V12.321Z" fill="#0B0B0B"/>
<path d="M141.877 26.371C138.938 23.423 137.469 19.7671 137.469 15.4037C137.469 11.0401 138.938 7.38585 141.877 4.4408C144.816 1.49574 148.475 0.0247467 152.854 0.0278369C157.233 0.0309272 160.89 1.50192 163.826 4.4408C166.771 7.37968 168.242 11.037 168.239 15.4129C168.236 19.7888 166.765 23.4477 163.826 26.3895C160.887 29.3286 157.23 30.7981 152.854 30.7981C148.478 30.7981 144.819 29.3255 141.877 26.3804V26.371ZM152.872 25.0546C154.115 25.0961 155.352 24.8691 156.499 24.3891C157.646 23.9092 158.677 23.1875 159.52 22.2734C161.173 20.3655 162.082 17.9257 162.082 15.4013C162.082 12.877 161.173 10.4372 159.52 8.52928C157.811 6.67508 155.581 5.74799 152.83 5.74799C151.588 5.70562 150.35 5.9322 149.203 6.41223C148.056 6.89225 147.026 7.61439 146.183 8.52928C144.53 10.4372 143.62 12.877 143.62 15.4013C143.62 17.9257 144.53 20.3655 146.183 22.2734C147.895 24.1275 150.125 25.0546 152.872 25.0546Z" fill="#0B0B0B"/>
<path d="M191.523 8.22768L185.367 30.7931H179.211L170.988 0.0229492H177.551L182.906 20.9474L188.445 0.0229492H194.805L200.135 20.9474L205.471 0.0229492H212.035L203.83 30.7931H197.674L191.523 8.22768Z" fill="#0B0B0B"/>
<path d="M216.508 30.7931V0.0414807L239.115 0.0229492V5.76626H222.664V12.3301H234.989V18.0549H222.664V25.0498H239.073V30.7931H216.508Z" fill="#0B0B0B"/>
<path d="M263.835 17.3737L271.506 30.7887H264.452L257.106 18.0736H251.464V30.7887H245.312V0.0185547H258.728C265.909 0.0185547 269.498 2.97288 269.496 8.88153C269.496 13.3254 267.61 16.1561 263.835 17.3737ZM251.464 12.321H260.081C262.553 12.2809 263.825 11.1513 263.896 8.93253C263.825 6.91146 262.574 5.85921 260.142 5.77577H251.464V12.321Z" fill="#0B0B0B"/>
<path d="M310.913 14.5644C313.604 16.366 315.033 18.7116 315.201 21.601C314.927 27.3984 311.827 30.4686 305.908 30.8116H288.593V0.0415039H304.925C310.106 0.350535 312.843 3.36512 313.13 9.08526C313.031 11.8202 312.292 13.6466 310.913 14.5644ZM294.769 12.3672H303.387C305.857 12.3239 307.129 11.0461 307.2 8.53365C307.129 7.02868 305.877 6.23447 303.445 6.15103H294.769V12.3672ZM294.769 25.9908H304.824C307.705 25.9507 309.182 24.4657 309.253 21.5361C309.185 19.5707 307.73 18.5416 304.882 18.4628H294.769V25.9908Z" fill="#0B0B0B"/>
<path d="M321.334 0H327.467V30.7933H321.334V0Z" fill="#0B0B0B"/>
<path d="M333.706 0.0229492H339.857V12.3301L350.115 0.0229492H357.032L344.989 14.3836L359.553 30.7931H351.551L339.857 17.4986V30.7931H333.706V0.0229492Z" fill="#0B0B0B"/>
<path d="M363.183 30.7931V0.0414807L385.79 0.0229492V5.76626H369.338V12.3301H381.67V18.0549H369.338V25.0498H385.75V30.7931H363.183Z" fill="#0B0B0B"/>
<path d="M408.641 1.04276C410.294 1.78116 411.791 2.82553 413.055 4.1207L408.953 8.22306C407.583 6.58212 405.669 5.76164 403.204 5.76164C400.741 5.76164 399.168 6.34262 398.485 7.50457C397.799 8.66653 397.799 9.65853 398.485 10.4806C399.173 11.3026 400.744 11.9206 403.201 12.3347C405.737 12.5843 408.169 13.4656 410.278 14.8981C412.401 16.3289 413.462 18.6188 413.459 21.7679C413.459 24.2401 412.327 26.3602 410.065 28.1277C407.816 29.9011 405.021 30.8426 402.158 30.7931C399.3 30.7931 396.911 30.3836 394.994 29.5647C393.159 28.7966 391.489 27.6824 390.072 26.2827L394.174 22.1804C395.54 23.8214 397.858 24.7778 401.127 25.0498C403.864 25.0498 405.562 24.4688 406.227 23.3069C406.56 22.786 406.735 22.1814 406.735 21.5639C406.735 20.9464 406.56 20.3418 406.227 19.821C405.549 18.659 403.851 17.9405 401.127 17.6655C398.734 17.4156 396.424 16.6451 394.36 15.408C392.309 14.1719 391.283 12.0519 391.283 9.04819C391.283 6.32873 392.448 4.14388 394.779 2.49365C396.855 0.932771 399.373 0.0680706 401.973 0.0229492C404.826 0.0229492 407.042 0.364438 408.613 1.04739" fill="#0B0B0B"/>
<path d="M414.46 0.00927734H419.273V1.11252H417.494V5.74797H416.194V1.11252H414.442L414.46 0.00927734Z" fill="#0B0B0B"/>
<path d="M419.973 0.00927734H421.427L423.105 3.5322L424.776 0.00927734H426.225V5.7665H425.057V1.88663L423.519 5.18243H422.674L421.146 1.88663V5.7665H419.968L419.973 0.00927734Z" fill="#0B0B0B"/>
</g>
<defs>
<clipPath id="clip0_73_1586">
<rect width="426.462" height="33" fill="white"/>
</clipPath>
</defs>
</svg>
