<svg width="420" height="100" viewBox="0 0 420 100" fill="none" xmlns="http://www.w3.org/2000/svg">
<g clip-path="url(#clip0_69_469)">
<path d="M385.556 53.2312H409.386C408.714 46.6376 404.886 42.2418 397.711 42.2418C391.011 42.2418 386.8 46.542 385.556 53.2312ZM397.711 81.6131C383.164 81.6131 375.7 70.9101 375.7 57.8181C375.7 44.7262 384.311 34.0234 397.9 34.0234C411.489 34.0234 419.05 44.5351 419.05 56.5759C419.05 58.0093 418.956 60.0162 418.764 60.8762H385.27C385.747 68.2345 389.864 73.3948 397.231 73.3948C403.261 73.3948 406.897 70.6234 408.428 65.272H418.189C415.989 74.9237 409.481 81.6131 397.711 81.6131ZM323.833 57.4359C323.833 43.6751 332.253 34.0234 344.695 34.0234C353.211 34.0234 358.761 38.9926 360.867 45.6818C360.961 45.9687 361.25 45.9687 361.25 45.6818V34.7879H370.245V75.1148C370.245 89.449 362.303 99.1009 346.511 99.1009C334.264 99.1009 326.511 92.8893 325.364 83.7154H335.125C335.889 87.5379 338.761 90.8826 346.703 90.8826C356.753 90.8826 361.058 84.5754 361.25 75.4015L361.345 69.5723C361.345 69.2856 361.058 69.2856 360.961 69.5723C358.761 76.5481 352.542 80.8484 344.695 80.8484C332.253 80.8484 323.833 71.1968 323.833 57.4359ZM360.1 57.4359C360.1 48.6443 354.839 42.2418 346.703 42.2418C337.611 42.2418 333.403 48.6443 333.403 57.4359C333.403 66.2276 337.611 72.6304 346.703 72.6304C354.839 72.6304 360.1 66.132 360.1 57.4359ZM297.133 34.7879H305.65L305.553 45.6818C305.553 45.9687 305.842 45.9687 305.936 45.6818C308.331 38.8015 311.392 34.0234 322.108 34.0234V43.1018C309.956 42.7195 306.32 49.5042 306.32 59.0604V80.944H297.133V34.7879ZM255.983 57.8181C255.983 66.6098 260.29 73.3948 268.807 73.3948C277.324 73.3948 281.631 66.6098 281.631 57.8181C281.631 49.0265 277.324 42.2418 268.807 42.2418C260.29 42.2418 255.983 49.0265 255.983 57.8181ZM291.392 57.8181C291.392 71.0056 282.875 81.6131 268.807 81.6131C254.74 81.6131 246.222 71.0056 246.222 57.8181C246.222 44.6306 254.74 34.0234 268.807 34.0234C282.875 34.0234 291.392 44.6306 291.392 57.8181ZM222.681 80.944V42.7195H215.6V34.7879H222.873V33.6412C222.873 22.556 228.997 15.9623 244.691 16.7267V25.4228C234.93 24.4672 231.868 27.9073 231.868 34.7879H244.691V42.7195H231.868V80.944H222.681ZM179.528 53.2312H203.356C202.686 46.6376 198.859 42.2418 191.681 42.2418C184.983 42.2418 180.772 46.542 179.528 53.2312ZM191.681 81.6131C177.135 81.6131 169.671 70.9101 169.671 57.8181C169.671 44.7262 178.284 34.0234 191.873 34.0234C205.462 34.0234 213.022 44.5351 213.022 56.5759C213.022 58.0093 212.926 60.0162 212.735 60.8762H179.241C179.719 68.2345 183.834 73.3948 191.203 73.3948C197.232 73.3948 200.868 70.6234 202.399 65.272H212.16C209.96 74.9237 203.452 81.6131 191.681 81.6131ZM127.278 49.122H140.484C149.862 49.122 155.125 45.1084 155.125 37.3681C155.125 30.392 151.297 26.3784 141.154 26.3784H127.278V49.122ZM117.421 80.944V17.969H140.866C157.805 17.969 164.982 25.2317 164.982 36.4123C164.982 44.7262 159.719 52.6579 146.704 53.2312C146.417 53.2312 146.417 53.6134 146.704 53.6134C160.197 55.1426 167.279 66.7054 167.279 80.944H156.943C156.943 68.3301 151.393 57.5315 137.9 57.5315H127.278V80.944H117.421Z" fill="#0B0B0B"/>
<path d="M13.2172 17.2659C12.9751 17.1644 13.0348 16.8089 13.2972 16.7944C19.6739 16.4243 26.0957 16.8969 29.8972 17.724C36.6466 19.1943 42.7238 21.8259 46.9116 28.2554C48.7097 31.0162 50.0172 34.0604 50.4305 37.1881C50.4574 37.3901 50.3008 37.5695 50.0961 37.5695H27.2859C27.1069 37.5695 26.9616 37.4323 26.9492 37.2562C26.4639 29.9429 22.5002 21.1404 13.2172 17.2659Z" fill="#0B0B0B"/>
<path d="M72.858 80.3297C73.0999 80.4311 73.0402 80.7867 72.778 80.8011C66.4013 81.1711 59.9793 80.6986 56.178 79.8714C49.4285 78.4011 43.3513 75.7695 39.1635 69.3403C37.3655 66.5792 36.058 63.535 35.6446 60.4072C35.6177 60.2056 35.7743 60.0261 35.9791 60.0261H58.7905C58.9693 60.0261 59.1146 60.1631 59.1271 60.3392C59.6124 67.6525 63.576 76.455 72.858 80.3297Z" fill="#0B0B0B"/>
<path d="M25.4625 39.723C25.6067 39.5222 25.3984 39.2602 25.1686 39.353C19.6759 41.5822 -4.23431 52.9061 0.654924 68.2905C4.95411 81.6899 27.7992 81.128 33.0689 80.8138C33.3311 80.7983 33.3897 80.4438 33.1478 80.3433C23.7183 76.4163 19.7716 67.4099 19.3842 60.0799C19.1038 54.7708 20.4877 46.6483 25.4625 39.723Z" fill="#0B0B0B"/>
<path d="M60.6643 57.8704C60.5201 58.0709 60.7285 58.3329 60.9582 58.2404C66.451 56.012 90.3621 44.6873 85.4729 29.3026C81.1737 15.9033 58.3276 16.4651 53.0579 16.7783C52.7965 16.7939 52.7371 17.1473 52.979 17.2487C62.4096 21.1756 66.3562 30.182 66.7437 37.5131C67.024 42.8223 65.639 50.9448 60.6643 57.8704Z" fill="#0B0B0B"/>
</g>
<defs>
<clipPath id="clip0_69_469">
<rect width="419.444" height="100" fill="white"/>
</clipPath>
</defs>
</svg>
