<svg width="347" height="66" viewBox="0 0 347 66" fill="none" xmlns="http://www.w3.org/2000/svg">
<g clip-path="url(#clip0_69_496)">
<path d="M120.441 10.8711C131.566 10.8711 138.798 17.1569 138.798 27.2526C138.798 34.6442 134.545 40.1367 127.877 42.4803L140.949 64.8112H131.253L119.059 43.6221H105.591V64.8112H97.2417V10.8711H120.441ZM105.579 18.3828V36.1946H120.044C126.676 36.1946 130.1 32.4929 130.1 27.2526C130.1 21.8923 126.688 18.3828 120.044 18.3828H105.579Z" fill="#0B0B0B"/>
<path d="M162.189 25.8586C173.314 25.8586 180.547 34.1274 180.547 44.3436C180.547 45.5331 180.463 46.7711 180.235 47.9971H150.632C150.992 53.7181 155.882 58.213 162.478 58.213C167.247 58.213 171.056 56.1818 173.915 51.6988L179.718 55.9175C176.186 62.2755 169.23 65.6166 162.478 65.6166C150.956 65.6166 142.486 57.1073 142.486 45.7858C142.486 34.404 150.632 25.8586 162.189 25.8586ZM172.558 42.1081C172.077 36.7476 167.596 32.9617 162.105 32.9617C156.267 32.9617 151.809 36.7357 150.824 42.1081H172.558Z" fill="#0B0B0B"/>
<path d="M187.852 64.8114V26.6519H195.757V31.4594C197.03 29.5123 200.646 25.8586 207.482 25.8586C217.971 25.8586 223.497 32.3727 223.497 41.6391V64.8114H215.628V43.3099C215.628 36.988 212.168 33.3341 206.245 33.3341C200.442 33.3341 195.721 36.988 195.721 43.3099V64.8114H187.852Z" fill="#0B0B0B"/>
<path d="M249.135 25.8586C255.611 25.8586 259.9 28.2383 262.723 31.856V8.84009H270.592V64.8114H262.723V59.6072C259.9 63.2249 255.611 65.6047 249.135 65.6047C238.287 65.6047 229.985 57.2516 229.985 45.5331C229.985 33.803 238.287 25.8586 249.135 25.8586ZM237.842 45.5331C237.842 52.5643 242.732 58.5254 250.084 58.5254C257.437 58.5254 262.675 52.5643 262.675 45.5331C262.675 38.5022 257.389 32.9375 250.084 32.9375C242.732 32.9256 237.842 38.4903 237.842 45.5331Z" fill="#0B0B0B"/>
<path d="M296.963 25.8586C308.088 25.8586 315.32 34.1274 315.32 44.3436C315.32 45.5331 315.236 46.7711 315.008 47.9971H285.405C285.766 53.7181 290.656 58.213 297.251 58.213C302.021 58.213 305.829 56.1818 308.689 51.6988L314.491 55.9175C310.959 62.2755 304.003 65.6166 297.251 65.6166C285.73 65.6166 277.26 57.1073 277.26 45.7858C277.248 34.404 285.393 25.8586 296.963 25.8586ZM307.331 42.1081C306.85 36.7476 302.369 32.9617 296.879 32.9617C291.04 32.9617 286.583 36.7357 285.598 42.1081H307.331Z" fill="#0B0B0B"/>
<path d="M322.924 64.8114V26.6519H330.83V31.8561C332.981 27.6855 336.596 25.8586 340.766 25.8586C343.744 25.8586 346.016 26.8081 346.016 26.8081L345.186 34.0435C344.754 33.8873 343.038 33.166 340.539 33.166C336.322 33.166 330.842 35.3896 330.842 44.0189V64.8114H322.924Z" fill="#0B0B0B"/>
<path d="M49.3658 0.0183105C40.9078 -0.378309 33.7956 5.71519 32.582 13.7437C32.5341 14.1163 32.4618 14.4768 32.4019 14.8374C30.5157 24.837 21.7334 32.4088 11.1851 32.4088C7.42466 32.4088 3.89255 31.4474 0.816955 29.7647C0.44452 29.5604 0 29.8248 0 30.2454V32.3969V64.8114H32.3899V40.5095C32.3899 36.0385 36.018 32.4088 40.4873 32.4088H48.5847C57.7515 32.4088 65.1281 24.8009 64.7676 15.5465C64.4433 7.21754 57.6916 0.41493 49.3658 0.0183105Z" fill="#0B0B0B"/>
</g>
<defs>
<clipPath id="clip0_69_496">
<rect width="347" height="66" fill="white"/>
</clipPath>
</defs>
</svg>
