<svg width="288" height="66" viewBox="0 0 288 66" fill="none" xmlns="http://www.w3.org/2000/svg">
<path d="M27.5169 21.3432H4.12951C1.82652 21.3432 0 19.5325 0 17.3365V4.00666C0 1.77218 1.86623 0 4.12951 0H23.3874C25.6903 0 27.5169 1.8107 27.5169 4.00666V21.3432Z" fill="#0B0B0B"/>
<path d="M52.6003 44.5925H27.5422V21.3091H52.6003C55.0251 21.3091 57.0247 23.2808 57.0247 25.6721V40.2297C57.0247 42.6628 55.0251 44.5925 52.6003 44.5925Z" fill="#0B0B0B"/>
<path d="M23.3874 65.9999H4.12951C1.86623 65.9999 0 64.1925 0 62.0003V48.6561C0 46.4641 1.86623 44.6565 4.12951 44.6565H27.5169V62.0003C27.5169 64.1925 25.6506 65.9999 23.3874 65.9999Z" fill="#0B0B0B"/>
<path d="M103.719 19.6292L101.815 21.3841H99.9123L99.3201 19.1612C99.193 18.6152 98.6433 18.2642 98.0089 18.2642H85.8278C85.0664 18.2642 84.4744 18.8102 84.4744 19.4342V23.295C84.4744 23.958 85.0664 24.465 85.8278 24.465H93.018V42.5602H84.6436C83.8822 42.5602 83.29 43.1062 83.29 43.7301V47.5911C83.29 48.2539 83.8822 48.7609 84.6436 48.7609H110.994C111.755 48.7609 112.347 48.2151 112.347 47.5911V43.7301C112.347 43.0671 111.755 42.5602 110.994 42.5602H101.308V29.7689C101.308 26.181 103.592 24.309 108.075 24.309H115.35C116.111 24.309 116.703 23.763 116.703 23.139V18.8882C116.703 18.2252 116.111 17.7182 115.35 17.7182H111.036C107.864 17.6793 105.368 18.2252 103.719 19.6292Z" fill="#0B0B0B"/>
<path d="M134.985 17.7163C124.353 17.7163 118.657 23.1529 118.657 34.1886C118.657 45.2646 124.311 50.7013 134.774 50.7013C142.875 50.7013 148.107 47.4556 149.499 41.8971C149.71 41.1262 149.035 40.3961 148.191 40.3961H143.128C142.579 40.3961 142.073 40.7205 141.862 41.2074C140.976 43.6012 138.445 44.7371 135.027 44.7371C129.711 44.7371 127.18 41.9377 126.842 35.4058H149.921C151.186 23.1935 145.913 17.7163 134.985 17.7163ZM127.095 30.4558C127.897 25.6685 130.386 23.4369 134.943 23.4369C139.795 23.4369 142.073 25.9119 142.2 30.4558H127.095Z" fill="#0B0B0B"/>
<path d="M174.702 17.7163C171.956 17.7163 169.977 18.2989 168.442 19.6972L166.544 21.4451H164.808L164.161 19.1923C164 18.6873 163.515 18.2989 162.909 18.2989H159.275C158.548 18.2989 157.982 18.8427 157.982 19.4641V59.2376C157.982 59.8978 158.548 60.4027 159.275 60.4027H164.606C165.333 60.4027 165.898 59.859 165.898 59.2376V50.6147L165.211 45.9927L166.988 45.6043L168.887 47.352C170.381 48.6728 172.198 49.333 174.904 49.333C182.739 49.333 187.465 44.1282 187.465 33.5248C187.424 22.921 182.739 17.7163 174.702 17.7163ZM172.077 42.963C168.079 42.963 165.858 40.9822 165.858 37.2147V29.7572C165.858 25.9896 168.039 24.0086 172.077 24.0086C176.964 24.0086 179.185 26.9605 179.185 33.4471C179.145 40.011 176.964 42.963 172.077 42.963Z" fill="#0B0B0B"/>
<path d="M285.734 22.2796V18.2618C285.734 17.5719 285.158 17.0443 284.418 17.0443H270.139V9.25219C270.139 8.56226 269.563 8.03467 268.822 8.03467H263.391C262.651 8.03467 262.075 8.60285 262.075 9.25219V17.0443H253.638C252.897 17.0443 252.321 17.6124 252.321 18.2618V22.2796C252.321 22.9695 252.897 23.4971 253.638 23.4971H262.075V35.4288C262.075 44.5602 266.436 48.7809 275.816 48.7809H283.472C284.212 48.7809 284.788 48.2125 284.788 47.5632V43.5456C284.788 42.8556 284.212 42.3279 283.472 42.3279H277.053C271.949 42.3279 270.139 40.3395 270.139 35.3882V23.5377H284.418C285.158 23.4971 285.734 22.9289 285.734 22.2796Z" fill="#0B0B0B"/>
<path d="M219.599 42.5207H211.349V7.27681C211.349 6.60737 210.782 6.09546 210.055 6.09546H193.878C193.15 6.09546 192.583 6.64674 192.583 7.27681V11.1753C192.583 11.8447 193.15 12.3567 193.878 12.3567H203.422V42.5207H192.705C191.977 42.5207 191.411 43.0718 191.411 43.7021V47.6004C191.411 48.2698 191.977 48.7818 192.705 48.7818H219.599C220.327 48.7818 220.893 48.2305 220.893 47.6004V43.7021C220.893 43.0325 220.327 42.5207 219.599 42.5207Z" fill="#0B0B0B"/>
<path d="M242.922 5.59741H235.602C234.871 5.59741 234.301 6.1594 234.301 6.80166V11.8997C234.301 12.5821 234.871 13.104 235.602 13.104H242.922C243.654 13.104 244.223 12.542 244.223 11.8997V6.80166C244.182 6.11924 243.613 5.59741 242.922 5.59741Z" fill="#0B0B0B"/>
<path d="M243.909 42.7246V18.9206C243.909 18.2381 243.34 17.7163 242.608 17.7163H226.221C225.489 17.7163 224.92 18.2783 224.92 18.9206V22.8946C224.92 23.577 225.489 24.0989 226.221 24.0989H235.939V42.7246H226.221C225.489 42.7246 224.92 43.2867 224.92 43.9291V47.9031C224.92 48.5854 225.489 49.1074 226.221 49.1074H253.872C254.604 49.1074 255.173 48.5453 255.173 47.9031V43.9291C255.173 43.2466 254.604 42.7246 253.872 42.7246H243.909Z" fill="#0B0B0B"/>
</svg>
