<svg width="146" height="168" viewBox="0 0 146 168" fill="none" xmlns="http://www.w3.org/2000/svg">
<path d="M29.1584 122.123H21.4216L21.0992 121.8V114.046L21.4216 113.723H29.1584C32.382 113.723 33.9938 115.015 33.9938 117.923C33.9938 120.831 32.382 122.123 29.1584 122.123ZM20.7769 100.477L21.0992 100.154H28.836C30.1255 100.154 31.0926 100.477 31.7373 101.123C32.382 101.769 32.7044 102.738 32.7044 104.031C32.7044 105 32.382 105.969 31.7373 106.938C31.0926 107.585 30.1255 107.908 28.836 107.908H21.4216L21.0992 107.585V100.477H20.7769ZM34.9609 110.492V110.169C36.5728 109.846 37.8622 108.877 38.5069 107.585C39.1517 106.292 39.7964 104.677 39.7964 103.061C39.7964 100.154 38.8293 97.8922 36.8951 96.5999C34.9609 95.3076 32.7044 94.3384 30.1255 94.3384H14.652L14.3296 94.6615V127.615L14.652 127.938H31.0926C33.6715 127.938 35.928 127.292 37.8622 125.677C39.7964 124.061 40.7635 121.8 40.7635 118.569C40.7635 114.369 38.8293 111.461 34.9609 110.492Z" fill="#0B0B0B"/>
<path d="M137.795 94.0154H132.96L132.637 94.6615L127.802 116.954H127.157L121.032 94.6615L120.387 94.0154H114.262L113.618 94.6615L107.493 116.954H106.848L102.013 94.6615L101.69 94.0154H96.8547L96.21 94.6615V99.5077L103.624 127.615L103.947 127.938H110.394L110.716 127.615L117.164 104.354H117.486L123.933 127.615L124.256 127.938H130.703L131.025 127.615L138.44 99.5077V94.6615L137.795 94.0154Z" fill="#0B0B0B"/>
<path d="M76.5461 26.8153C75.579 27.4615 74.6119 27.7846 73.0001 27.7846H63.9739L63.3291 27.1384V19.3846L63.6515 19.0615H73.0001C74.6119 19.0615 75.9013 19.3846 76.5461 20.0307C77.5132 20.6769 77.8355 21.6461 77.8355 23.2615C77.8355 24.8769 77.5132 26.1692 76.5461 26.8153ZM77.5132 32.9538C79.4474 32.3076 81.3815 31.3384 82.671 29.723C83.9605 28.1076 84.6052 25.8461 84.6052 23.2615C84.6052 20.0307 83.6381 17.4461 81.3815 15.8307C79.125 14.2153 76.5461 13.2461 73.0001 13.2461H57.2042L56.8818 13.5692V46.523L57.2042 46.8461H63.0068L63.6515 46.523V33.923L63.9739 33.2769H68.8093L69.7764 33.923L79.4474 46.523L80.4145 47.1692H83.3157L83.6381 46.8461V41.9999L77.5132 33.923V32.9538Z" fill="#0B0B0B"/>
<path d="M139.085 43.6154L138.118 43.9384L69.7763 81.7384L1.75733 43.9384L0.79024 43.6154H0.145508V49.4307L66.875 86.5846V162.508H70.0986H72.9999V86.5846L139.729 49.4307V43.6154H139.085Z" fill="#0B0B0B"/>
</svg>
