<svg width="335" height="91" viewBox="0 0 335 91" fill="none" xmlns="http://www.w3.org/2000/svg">
<g clip-path="url(#clip0_190_226)">
<path d="M62.66 85.94C59 79 53.45 68.46 50 61.85C48.32 58.76 46.55 55.67 45 52.64C44.7819 52.1932 44.7465 51.679 44.9015 51.2065C45.0565 50.7341 45.3896 50.3407 45.83 50.11C53.83 45.83 56.43 38.44 56.43 28.51C56.43 13.01 49.51 3.31 27.43 3.31H1.91003C1.65883 3.30868 1.40987 3.35718 1.17754 3.45269C0.945205 3.54821 0.734122 3.68885 0.556497 3.86647C0.378873 4.0441 0.238234 4.25518 0.142717 4.48751C0.0471995 4.71984 -0.00129914 4.96881 2.64577e-05 5.22V86.82C-0.00129914 87.0712 0.0471995 87.3202 0.142717 87.5525C0.238234 87.7848 0.378873 87.9959 0.556497 88.1735C0.734122 88.3512 0.945205 88.4918 1.17754 88.5873C1.40987 88.6828 1.65883 88.7313 1.91003 88.73H13.48C13.7312 88.7313 13.9802 88.6828 14.2125 88.5873C14.4448 88.4918 14.6559 88.3512 14.8336 88.1735C15.0112 87.9959 15.1518 87.7848 15.2473 87.5525C15.3429 87.3202 15.3914 87.0712 15.39 86.82V55.82C15.3887 55.5688 15.4372 55.3198 15.5327 55.0875C15.6282 54.8552 15.7689 54.6441 15.9465 54.4665C16.1241 54.2888 16.3352 54.1482 16.5675 54.0527C16.7999 53.9572 17.0488 53.9087 17.3 53.91H27.13C27.4889 53.9116 27.84 54.0149 28.1426 54.2078C28.4452 54.4007 28.687 54.6754 28.84 55L45 87.67C45.1573 87.989 45.4009 88.2575 45.7032 88.4449C46.0055 88.6323 46.3544 88.7311 46.71 88.73H61C61.3251 88.724 61.6432 88.6352 61.9243 88.4719C62.2054 88.3087 62.4402 88.0763 62.6064 87.7969C62.7727 87.5176 62.8648 87.2004 62.8742 86.8754C62.8836 86.5505 62.8099 86.2285 62.66 85.94ZM28.87 39.11H17.3C16.7935 39.11 16.3076 38.9088 15.9495 38.5506C15.5913 38.1924 15.39 37.7066 15.39 37.2V20.05C15.3887 19.7988 15.4372 19.5498 15.5327 19.3175C15.6282 19.0852 15.7689 18.8741 15.9465 18.6965C16.1241 18.5188 16.3352 18.3782 16.5675 18.2827C16.7999 18.1872 17.0488 18.1387 17.3 18.14H28.87C38.69 18.14 40.13 22.71 40.13 28.51C40.13 34.31 38.69 39.11 28.87 39.11ZM83.13 2.35112e-06C81.8876 -0.0258579 80.653 0.203027 79.5024 0.672548C78.3519 1.14207 77.3096 1.84228 76.44 2.73C75.5497 3.60029 74.8473 4.64382 74.376 5.79618C73.9047 6.94854 73.6747 8.18526 73.7 9.43C73.6735 10.6749 73.903 11.912 74.3743 13.0645C74.8457 14.217 75.5488 15.2604 76.44 16.13C78.2269 17.8804 80.6286 18.8608 83.13 18.8608C85.6314 18.8608 88.0332 17.8804 89.82 16.13C90.7113 15.2604 91.4144 14.217 91.8857 13.0645C92.357 11.912 92.5866 10.6749 92.56 9.43C92.5854 8.18526 92.3553 6.94854 91.884 5.79618C91.4128 4.64382 90.7103 3.60029 89.82 2.73C88.9504 1.84228 87.9082 1.14207 86.7576 0.672548C85.607 0.203027 84.3724 -0.0258579 83.13 2.35112e-06ZM89 28.76H70.86C70.3639 28.773 69.8923 28.9786 69.5451 29.3332C69.198 29.6879 69.0024 30.1637 69 30.66V42.5C69.0026 43.0058 69.2047 43.49 69.5624 43.8477C69.92 44.2053 70.4043 44.4074 70.91 44.41H75.38V86.82C75.3787 87.0712 75.4272 87.3202 75.5227 87.5525C75.6182 87.7848 75.7589 87.9959 75.9365 88.1735C76.1141 88.3512 76.3252 88.4918 76.5575 88.5873C76.7899 88.6828 77.0388 88.7313 77.29 88.73H89C89.2512 88.7313 89.5002 88.6828 89.7325 88.5873C89.9648 88.4918 90.1759 88.3512 90.3536 88.1735C90.5312 87.9959 90.6718 87.7848 90.7673 87.5525C90.8629 87.3202 90.9114 87.0712 90.91 86.82V30.66C90.91 30.4096 90.8605 30.1618 90.7644 29.9306C90.6683 29.6994 90.5275 29.4895 90.35 29.313C90.1725 29.1364 89.9619 28.9966 89.7302 28.9018C89.4985 28.8069 89.2504 28.7587 89 28.76ZM332.31 3.42H321C320.453 3.41944 319.921 3.59112 319.477 3.91066C319.034 4.2302 318.702 4.68135 318.53 5.2L298.35 66.2C298.222 66.5789 297.979 66.9081 297.654 67.1414C297.33 67.3746 296.94 67.5001 296.54 67.5001C296.14 67.5001 295.751 67.3746 295.426 67.1414C295.101 66.9081 294.858 66.5789 294.73 66.2L274.52 5.2C274.348 4.68135 274.016 4.2302 273.573 3.91066C273.129 3.59112 272.597 3.41944 272.05 3.42H204C203.496 3.42 203.013 3.62018 202.657 3.9765C202.3 4.33282 202.1 4.81609 202.1 5.32V14.82C202.1 15.3239 202.3 15.8072 202.657 16.1635C203.013 16.5198 203.496 16.72 204 16.72H225.14C225.645 16.7226 226.128 16.925 226.484 17.283C226.84 17.6409 227.04 18.1252 227.04 18.63V86.8C227.04 87.0551 227.091 87.3076 227.19 87.5427C227.289 87.7777 227.434 87.9905 227.617 88.1686C227.8 88.3466 228.016 88.4862 228.254 88.5792C228.491 88.6722 228.745 88.7167 229 88.71H241.5C242.007 88.71 242.492 88.5088 242.851 88.1506C243.209 87.7924 243.41 87.3066 243.41 86.8V18.63C243.413 18.1294 243.61 17.6495 243.962 17.2927C244.313 16.9359 244.79 16.7304 245.29 16.72H260.16C260.562 16.7138 260.956 16.834 261.286 17.0636C261.616 17.2933 261.866 17.6208 262 18L285.85 87C286.027 87.5114 286.359 87.9549 286.8 88.2686C287.241 88.5823 287.769 88.7506 288.31 88.75H305.16C305.559 88.7485 305.948 88.6225 306.273 88.3895C306.597 88.1564 306.841 87.828 306.97 87.45L334.12 5.93C334.215 5.64328 334.24 5.33815 334.195 5.03965C334.149 4.74116 334.033 4.4578 333.856 4.21284C333.679 3.96788 333.447 3.7683 333.178 3.63048C332.91 3.49266 332.612 3.42053 332.31 3.42ZM138.58 51.55C138.364 51.1915 138.272 50.7717 138.319 50.3558C138.366 49.9399 138.549 49.5512 138.84 49.25L155.36 32C155.626 31.7331 155.806 31.3933 155.878 31.0238C155.95 30.6543 155.911 30.2717 155.765 29.9246C155.619 29.5774 155.374 29.2814 155.059 29.0741C154.745 28.8667 154.376 28.7574 154 28.76H140.7C140.427 28.7599 140.156 28.8189 139.908 28.9328C139.659 29.0467 139.438 29.2129 139.26 29.42L126.16 44.56C125.908 44.8578 125.57 45.0708 125.193 45.1699C124.815 45.2691 124.416 45.2496 124.05 45.1141C123.684 44.9786 123.369 44.7338 123.147 44.4128C122.925 44.0918 122.808 43.7102 122.81 43.32V5.32C122.807 4.81517 122.605 4.33192 122.247 3.97589C121.889 3.61985 121.405 3.42 120.9 3.42H109.11C108.605 3.42 108.121 3.61985 107.763 3.97589C107.405 4.33192 107.203 4.81517 107.2 5.32V86.82C107.2 87.3266 107.401 87.8124 107.759 88.1706C108.118 88.5288 108.603 88.73 109.11 88.73H120.9C121.151 88.73 121.399 88.6806 121.631 88.5846C121.863 88.4886 122.073 88.3479 122.251 88.1706C122.428 87.9932 122.569 87.7827 122.665 87.5509C122.761 87.3192 122.81 87.0708 122.81 86.82V65.82C122.808 65.3326 122.994 64.8633 123.33 64.51L124.91 62.83C125.121 62.6096 125.381 62.4425 125.67 62.3428C125.958 62.2431 126.266 62.2135 126.568 62.2565C126.87 62.2995 127.158 62.4139 127.407 62.5901C127.656 62.7664 127.859 62.9994 128 63.27L140.56 87.67C140.724 87.9748 140.968 88.229 141.266 88.4053C141.564 88.5815 141.904 88.673 142.25 88.67H157.41C157.746 88.6691 158.076 88.5793 158.367 88.4099C158.657 88.2405 158.898 87.9974 159.064 87.7051C159.231 87.4129 159.317 87.0819 159.315 86.7456C159.312 86.4093 159.221 86.0797 159.05 85.79L138.58 51.55ZM191.48 52L190.22 51.51C183.29 48.77 180.22 47.23 180.34 43.95C180.46 40.67 182.94 38.53 186.98 38.53C189.98 38.53 193.42 39.87 198.42 43.02C198.965 43.3643 199.614 43.5067 200.253 43.4227C200.893 43.3387 201.482 43.0335 201.92 42.56L206.3 36.45C206.564 36.1628 206.763 35.8222 206.884 35.4512C207.005 35.0802 207.044 34.6876 207 34.3C206.975 33.9296 206.874 33.5685 206.701 33.2396C206.529 32.9107 206.29 32.6214 206 32.39C200.432 28.2187 193.657 25.9754 186.7 26C174.95 26.18 166.1 34.11 166.1 44.44C166.1 56.67 175.98 61.2 185.25 64.5C192.96 67.09 195.53 68.61 195.53 72.5C195.53 76.11 192.53 78.27 187.41 78.27C183.02 78.27 178 76.11 173.98 72.51C173.449 72.0377 172.755 71.7895 172.045 71.8175C171.334 71.8454 170.663 72.1474 170.17 72.66L165.76 78.66C165.506 78.9262 165.307 79.2399 165.175 79.5831C165.043 79.9264 164.98 80.2923 164.99 80.66C165.003 81.0178 165.088 81.3695 165.239 81.6941C165.39 82.0187 165.605 82.3097 165.87 82.55C171.719 87.8691 179.334 90.827 187.24 90.85C198.13 90.85 209.86 84.67 209.86 71.11C209.86 59.11 201.75 56 191.48 52Z" fill="#0B0B0B"/>
</g>
<defs>
<clipPath id="clip0_190_226">
<rect width="334.22" height="90.83" fill="white"/>
</clipPath>
</defs>
</svg>
