<svg width="409" height="36" viewBox="0 0 409 36" fill="none" xmlns="http://www.w3.org/2000/svg">
<path d="M19.24 9.22C17.56 7.35 15.12 6.13 12.54 6.13C9.08 6.13 7.86 7.96 7.86 9.69C7.86 11.42 9.03 12.69 11.7 13.39L15.77 14.56C22 16.39 25.46 19.99 25.46 25.09C25.46 30.47 20.97 35.53 12.59 35.53C8.05 35.53 3.13 33.61 0 29.82L4.54 25.37C6.93 28.04 9.88 29.25 12.5 29.25C16.43 29.25 18.12 27.19 18.12 25.13C18.12 22.88 16.72 21.71 13.25 20.64L9.6 19.52C3.75 17.69 0.66 14.65 0.66 9.69C0.66 4.73 4.97 0 12.41 0C16.58 0 20.51 1.54 23.65 4.96L19.24 9.22Z" fill="#0B0B0B"/>
<path d="M38.0303 0.51001H45.2903V21.43C45.2903 25.36 48.1903 28.36 52.1203 28.36C56.1003 28.36 59.0003 25.32 59.0003 21.43V0.51001H66.3003V21.43C66.3003 29.11 60.6403 35.52 52.1203 35.52C43.5503 35.52 38.0303 29.11 38.0303 21.43V0.51001Z" fill="#0B0B0B"/>
<path d="M183.1 0.560059H206.88V7.02006H190.35V14.3201H201.53V20.0801H190.35V28.5101H206.88V34.9701H183.1V0.560059Z" fill="#0B0B0B"/>
<path d="M278.77 9.22C277.09 7.35 274.65 6.13 272.08 6.13C268.62 6.13 267.4 7.96 267.4 9.69C267.4 11.42 268.57 12.69 271.24 13.39L275.31 14.56C281.54 16.39 285 19.99 285 25.09C285 30.47 280.51 35.53 272.13 35.53C267.59 35.53 262.67 33.61 259.54 29.82L264.08 25.37C266.47 28.04 269.42 29.25 272.04 29.25C275.97 29.25 277.66 27.19 277.66 25.13C277.66 22.88 276.26 21.71 272.79 20.64L269.14 19.52C263.29 17.69 260.2 14.65 260.2 9.69C260.2 4.73 264.51 0 271.95 0C276.12 0 280.05 1.54 283.19 4.96L278.77 9.22Z" fill="#0B0B0B"/>
<path d="M304.24 8.24006H316.65L319.69 0.560059H327.56L313.75 34.9701H307.15L293.33 0.560059H301.29L304.24 8.24006ZM314.72 13.7201H306.06L310.37 25.6101L314.72 13.7201Z" fill="#0B0B0B"/>
<path d="M338.46 0.560059H345.72V28.1801H361.68V34.9701H338.46V0.560059Z" fill="#0B0B0B"/>
<path d="M365.68 0.560059H393.77V7.35006H383.38V34.9701H376.08V7.35006H365.69V0.560059H365.68Z" fill="#0B0B0B"/>
<path d="M117.01 34.9701H109.71V14.7501L100.38 30.8101H97.3802L88.0002 14.6601V34.9801H80.7402V0.560059H86.8702L98.8702 21.0201L110.87 0.560059H117V34.9701H117.01Z" fill="#0B0B0B"/>
<path d="M168.18 34.9701H160.88V14.7501L151.55 30.8101H148.55L139.17 14.6601V34.9801H131.91V0.560059H138.04L150.04 21.0201L162.04 0.560059H168.17V34.9701H168.18Z" fill="#0B0B0B"/>
<path d="M241.52 19.6401C245.2 18.4801 247.9 15.2201 247.9 10.6701C247.9 4.96006 243.6 0.560059 238.46 0.560059H220.35V34.9701H227.61V20.0901H233.53L240.41 34.9701H248.6L241.52 19.6401ZM227.6 14.3301V7.03006H227.63H237.03C238.95 7.03006 240.45 8.72006 240.45 10.6801C240.45 12.6201 238.97 14.3301 237.03 14.3301H227.6Z" fill="#0B0B0B"/>
<path d="M402.04 23.24C398.66 23.24 395.9 26.01 395.9 29.39C395.9 32.79 398.65 35.53 402.04 35.53C405.44 35.53 408.19 32.8 408.19 29.39C408.19 26.01 405.44 23.24 402.04 23.24ZM402.04 34.94C399.04 34.94 396.55 32.43 396.55 29.4C396.55 26.37 399.04 23.84 402.04 23.84C405.05 23.84 407.54 26.36 407.54 29.4C407.54 32.43 405.07 34.94 402.04 34.94Z" fill="#0B0B0B"/>
<path d="M402.29 29.79L403.6 32.61H404.92L403.57 29.68L403.7 29.64C404.41 29.42 404.85 28.79 404.85 28.01C404.85 26.99 404.08 26.17 403.14 26.17H399.74V32.62H400.9V29.73H402.26L402.29 29.79ZM400.9 27.17H402.86C403.29 27.17 403.65 27.54 403.65 28C403.65 28.46 403.3 28.83 402.86 28.83H400.9V27.17Z" fill="#0B0B0B"/>
</svg>
