<svg width="250" height="200" viewBox="0 0 250 200" fill="none" xmlns="http://www.w3.org/2000/svg">
<mask id="mask0_69_354" style="mask-type:luminance" maskUnits="userSpaceOnUse" x="0" y="2" width="250" height="196">
<path d="M250 2.34375H0V197.656H250V2.34375Z" fill="white"/>
</mask>
<g mask="url(#mask0_69_354)">
<path fill-rule="evenodd" clip-rule="evenodd" d="M193.193 27.2952C199.047 32.1547 202.579 39.4437 203.322 48.415C204.809 65.5166 196.539 86.5431 181.02 104.673C169.59 118.036 155.651 128.129 141.898 132.988C136.044 135.137 130.375 136.166 125.171 136.166C124.939 136.166 124.73 136.142 124.521 136.119C124.312 136.095 124.103 136.072 123.87 136.072C123.499 136.166 123.034 136.166 122.569 136.166C117.458 136.166 111.79 135.044 105.843 132.988C91.9968 128.129 78.1508 118.129 66.7208 104.673C51.2952 86.5431 43.0246 65.5166 44.5114 48.415C45.2549 39.4437 48.7861 32.1547 54.6405 27.2952C63.3755 20.0994 76.1064 18.8846 90.5099 24.0244C91.8108 24.4916 93.2046 25.0523 94.5058 25.613C95.0633 24.5851 95.6208 23.5571 96.1783 22.6226C103.891 9.53947 114.392 2.34375 125.729 2.34375C137.066 2.34375 147.566 9.53947 155.279 22.6226C155.465 22.903 155.628 23.2067 155.79 23.5104C155.953 23.8141 156.115 24.1178 156.301 24.3982C156.405 24.3634 156.522 24.3157 156.647 24.2646C156.857 24.1785 157.09 24.083 157.324 24.0244C171.82 18.978 184.551 20.0994 193.193 27.2952ZM59.1936 32.9022C54.9192 36.5469 52.3174 42.0603 51.6667 49.0694C50.3658 64.0212 58.2646 83.5525 72.1105 100.187C80.5667 109.999 90.3239 117.942 100.267 122.989C100.731 123.176 101.103 123.363 101.475 123.549C103.069 124.351 104.732 125.015 106.346 125.66C106.613 125.767 106.879 125.873 107.144 125.979C107.33 126.026 107.492 126.096 107.655 126.166C107.817 126.236 107.98 126.307 108.166 126.353C108.491 126.447 108.84 126.563 109.188 126.68C109.536 126.797 109.885 126.914 110.21 127.007C115.135 128.503 119.689 129.157 123.87 128.97H124.521C129.446 128.596 133.72 127.101 137.066 124.297C141.34 120.653 143.942 115.139 144.593 108.13C145.894 93.1781 137.995 73.6469 124.056 57.1994C124.056 57.1059 123.963 57.0125 123.87 56.9191C123.578 56.5928 123.298 56.2669 123.021 55.9447C122.504 55.3438 121.999 54.7566 121.454 54.2091C120.618 53.2747 119.781 52.4334 118.945 51.5925C112.347 44.8641 105.192 39.3503 97.8511 35.3319C97.2118 34.9228 96.5361 34.5869 95.8699 34.2553C95.4705 34.0569 95.0746 33.86 94.6914 33.6497C93.5764 33.0891 92.5542 32.6219 91.4392 32.1547C90.3239 31.6875 89.2089 31.2201 88.0936 30.8463C82.8899 29.0707 78.0577 28.1362 73.6902 28.1362C67.9289 28.1362 63.0036 29.7249 59.1936 32.9022ZM125.729 9.63294C116.994 9.63294 108.723 15.5203 102.311 26.3607C102.141 26.6691 101.971 26.965 101.805 27.2529C101.519 27.7501 101.246 28.2235 101.01 28.6969C109.002 32.9956 116.808 38.9766 123.963 46.1722C124.381 46.5928 124.8 47.0366 125.218 47.4806C125.636 47.9244 126.054 48.3684 126.472 48.7887C126.744 49.0928 127.016 49.3869 127.285 49.6772C127.843 50.2803 128.387 50.8684 128.888 51.4991C129.074 51.8728 129.353 52.1531 129.632 52.4334C144.5 69.9088 152.677 90.0941 151.934 106.822C156.952 96.1684 159.647 83.0853 159.647 69.2547C159.647 56.265 157.231 44.0228 152.863 33.7431C152.399 32.6219 151.934 31.5003 151.376 30.4725C150.819 29.3515 150.262 28.3238 149.704 27.2963C149.611 27.1561 149.518 26.9915 149.425 26.828C149.332 26.6644 149.239 26.5008 149.146 26.3607C142.734 15.6138 134.464 9.63294 125.729 9.63294ZM155.279 115.887C154.443 117.288 153.514 118.69 152.585 119.998C160.762 115.046 168.754 108.13 175.63 100.093C189.569 83.6459 197.468 64.1147 196.167 49.1628C195.609 42.1537 193.007 36.6403 188.64 32.9956C184.923 29.8183 179.905 28.2297 174.143 28.2297C169.776 28.2297 164.944 29.0707 159.74 30.9397C159.693 30.9397 159.647 30.9631 159.601 30.9865C159.554 31.0098 159.507 31.0332 159.461 31.0332C164.2 42.1538 166.802 55.4238 166.802 69.3481C166.802 86.8234 162.713 103.364 155.279 115.887Z" fill="#0B0B0B"/>
<path d="M17.8418 111.027L20.7225 115.793L26.2052 112.336L17.0055 97.1965L11.5228 100.561L14.4035 105.327L0 114.111L3.43828 119.812L17.8418 111.027Z" fill="#0B0B0B"/>
<path fill-rule="evenodd" clip-rule="evenodd" d="M34.1039 122.054C29.9222 116.541 22.3952 115.513 16.9126 119.718C11.4299 123.923 10.6865 131.493 14.8682 137.007C19.0498 142.52 26.5769 143.548 32.0595 139.343C37.4492 135.137 38.2854 127.568 34.1039 122.054ZM28.9929 125.979C30.9444 128.596 30.4797 132.054 27.9707 134.016C25.3688 136.072 21.9306 135.605 19.9791 132.988C18.0276 130.372 18.4923 126.914 21.0013 124.952C23.6032 122.989 27.0415 123.363 28.9929 125.979Z" fill="#0B0B0B"/>
<path fill-rule="evenodd" clip-rule="evenodd" d="M33.8248 141.773C38.471 136.633 46.091 136.353 51.202 141.025C56.3129 145.698 56.7776 153.361 52.1313 158.5C47.4848 163.64 39.8651 163.92 34.7542 159.248C29.6431 154.575 29.1785 146.913 33.8248 141.773ZM47.206 153.921C49.3435 151.492 49.2504 148.127 46.7417 145.884C44.3254 143.642 40.8873 143.828 38.7498 146.258C36.6126 148.688 36.7054 152.052 39.2145 154.295C41.6307 156.538 44.976 156.351 47.206 153.921Z" fill="#0B0B0B"/>
<path d="M65.9774 181.302C72.2036 184.667 78.5224 182.517 81.6821 176.723L82.983 174.2L72.5752 168.5L69.8802 173.546L74.248 175.976C72.9467 176.91 71.2742 177.097 69.0439 175.882C65.2339 173.733 65.4199 170.182 66.7208 167.752C68.3005 164.855 71.3671 163.827 74.3408 165.416C76.1064 166.444 77.1286 167.939 77.2214 169.434L83.7264 169.341C83.4477 165.509 81.2174 161.771 77.3146 159.622C71.2742 156.257 64.2117 158.5 60.8664 164.575C57.6139 170.649 59.4727 177.751 65.9774 181.302Z" fill="#0B0B0B"/>
<path fill-rule="evenodd" clip-rule="evenodd" d="M84.7483 177.471C86.7926 170.836 93.6692 167.472 100.174 169.527C106.772 171.583 110.396 178.405 108.259 184.947C106.214 191.582 99.3376 194.946 92.833 192.89C86.328 190.834 82.7039 184.012 84.7483 177.471ZM102.033 182.891C103.055 179.807 101.475 176.723 98.3155 175.695C95.1561 174.667 92.1823 176.256 91.1601 179.433C90.138 182.517 91.7176 185.601 94.8773 186.629C98.0367 187.657 101.01 186.068 102.033 182.891Z" fill="#0B0B0B"/>
<path fill-rule="evenodd" clip-rule="evenodd" d="M124.149 173.079C117.272 173.079 111.79 178.405 111.79 185.321C111.79 192.236 117.179 197.563 124.149 197.656C131.025 197.656 136.508 192.329 136.508 185.414C136.508 178.405 131.025 173.079 124.149 173.079ZM124.149 179.714C127.401 179.714 129.817 182.143 129.817 185.414C129.817 188.592 127.401 191.115 124.149 191.115C120.896 191.115 118.48 188.685 118.48 185.414C118.48 182.143 120.896 179.714 124.149 179.714Z" fill="#0B0B0B"/>
<path fill-rule="evenodd" clip-rule="evenodd" d="M160.762 178.405C162.807 184.76 159.647 191.021 153.514 192.984L144.314 195.974L137.252 173.639L146.452 170.649C152.585 168.687 158.718 172.051 160.762 178.405ZM154.35 180.368C153.421 177.377 150.912 175.976 148.31 176.817L145.801 177.658L148.961 187.657L151.47 186.816C154.072 185.975 155.373 183.358 154.35 180.368Z" fill="#0B0B0B"/>
<path d="M177.768 163.173L182.507 160.369L179.254 154.762L164.015 163.733L167.267 169.341L172.006 166.537L180.462 181.209L186.224 177.845L177.768 163.173Z" fill="#0B0B0B"/>
<path fill-rule="evenodd" clip-rule="evenodd" d="M186.409 164.294C182.135 158.874 183.064 151.305 188.361 146.913C193.751 142.614 201.277 143.268 205.645 148.688C210.012 154.108 208.99 161.678 203.601 166.07C198.211 170.462 190.684 169.714 186.409 164.294ZM200.441 152.987C198.397 150.463 195.052 150.09 192.449 152.146C189.847 154.202 189.569 157.659 191.52 160.183C193.565 162.706 196.91 163.079 199.512 161.023C202.114 158.874 202.486 155.51 200.441 152.987Z" fill="#0B0B0B"/>
<path d="M229.992 139.343C234.545 133.829 233.709 127.101 228.691 122.896L226.739 121.213L219.119 130.372L223.487 134.016L226.646 130.185C227.297 131.68 227.111 133.362 225.531 135.324C222.743 138.689 219.305 137.754 217.168 135.979C214.566 133.829 214.194 130.558 216.331 127.942C217.632 126.353 219.305 125.699 220.792 125.886L221.907 119.438C218.097 118.877 214.008 120.372 211.128 123.83C206.667 129.157 207.411 136.539 212.707 141.025C218.004 145.511 225.252 145.043 229.992 139.343Z" fill="#0B0B0B"/>
<path fill-rule="evenodd" clip-rule="evenodd" d="M229.899 120.372C224.323 116.354 223.115 108.784 227.111 103.177C231.107 97.5703 238.634 96.1684 244.209 100.187C249.785 104.205 250.993 111.775 246.997 117.382C243.001 122.989 235.567 124.391 229.899 120.372ZM240.4 105.607C237.797 103.738 234.359 104.299 232.501 107.009C230.549 109.719 231.2 113.083 233.802 114.952C236.404 116.821 239.842 116.26 241.701 113.55C243.652 110.84 243.001 107.476 240.4 105.607Z" fill="#0B0B0B"/>
</g>
</svg>
