<svg width="226" height="96" viewBox="0 0 226 96" fill="none" xmlns="http://www.w3.org/2000/svg">
<g clip-path="url(#clip0_433_47)">
<path d="M124.133 96.0001C121.877 95.7258 119.86 94.9813 118.242 93.3552C113.769 88.8687 114.528 80.4246 119.72 77.0548C123.454 74.6254 128.547 75.2915 131.682 78.7005C131.023 79.5429 130.344 80.3854 129.705 81.2278C129.046 80.738 128.467 80.2287 127.828 79.8172C125.152 78.0931 121.877 78.7397 120.039 81.3062C118.282 83.7552 118.282 87.7715 120.039 90.2009C122.036 92.9633 125.531 93.5119 128.287 91.4548C128.786 91.0825 129.266 90.6515 129.805 90.1813C130.484 90.9258 131.143 91.6703 131.822 92.4148C130.204 94.2956 128.347 95.5691 125.871 95.8238C125.551 95.8629 125.232 95.9217 124.932 95.9805H124.173L124.133 96.0001ZM188.696 33.5805C191.772 26.116 194.807 18.7495 197.922 11.1478C201.018 18.7299 204.033 26.116 207.089 33.5805H188.676M170.583 58.3838C173.02 58.3838 175.276 58.3642 177.513 58.3838C178.272 58.3838 178.691 58.227 178.991 57.4433C181.128 52.0752 183.344 46.7266 185.501 41.3584C185.741 40.7707 186.02 40.5748 186.679 40.5748C194.148 40.5944 201.617 40.5944 209.085 40.5748C209.764 40.5748 210.084 40.7707 210.344 41.4172C212.54 46.805 214.777 52.1731 216.974 57.5413C217.233 58.1487 217.533 58.4033 218.212 58.3838C220.329 58.3446 222.445 58.3838 224.562 58.3642C224.862 58.3642 225.161 58.325 225.541 58.2858C225.381 57.8744 225.261 57.5805 225.141 57.2866C221.527 48.6466 217.932 40.0066 214.318 31.3666C210.024 21.1005 205.751 10.8344 201.437 0.587831C201.317 0.313545 200.858 0.0196676 200.538 0.0196676C198.881 -0.0391079 197.203 -0.0391079 195.546 0.0196676C195.226 0.0196676 194.787 0.333137 194.667 0.607423C193.11 4.2711 191.572 7.97395 190.034 11.6572C184.602 24.6858 179.171 37.6948 173.739 50.7233C172.7 53.2115 171.682 55.6997 170.563 58.3642M100.189 1.33232C100.189 12.147 100.269 22.9421 100.149 33.7568C100.109 36.676 99.75 39.654 99.091 42.5144C97.9327 47.4907 94.8973 51.076 89.5853 52.134C87.1689 52.6042 84.6128 52.7217 82.1365 52.5846C75.3467 52.1731 71.2728 48.7054 69.6153 42.2205C68.8165 39.0662 68.6368 35.8335 68.6368 32.6009C68.6168 22.178 68.6368 11.7356 68.6368 1.31273V0.0784431H61.2679V0.979668C61.2679 12.4409 61.208 23.9021 61.3078 35.3829C61.3278 38.1454 61.6873 40.9666 62.2664 43.6899C63.824 51.1348 68.2374 56.3266 75.7461 58.5797C81.158 60.2058 86.7096 60.2058 92.1614 58.8344C98.5119 57.2474 103.045 53.427 105.481 47.3927C107.079 43.4548 107.558 39.3013 107.578 35.1087C107.618 23.765 107.578 12.4213 107.578 1.09722V0.0784431H100.169V1.33232H100.189ZM29.1762 6.77885H50.9634V0.0980349H0.0399895V6.85722H21.8272V58.3446H29.1762V6.77885ZM129.266 51.3895V0.0784431H121.917C121.917 0.431096 121.877 0.744566 121.877 1.05803C121.877 19.8074 121.877 38.5764 121.857 57.3258C121.857 58.2074 122.096 58.4229 122.975 58.4229C135.316 58.4033 147.658 58.4229 159.999 58.4033C160.339 58.4033 160.678 58.3642 161.038 58.3446V51.4091H129.266V51.3895ZM95.4964 89.045C95.4964 89.045 95.3766 89.0842 95.2967 89.1038C95.0371 88.7511 94.7775 88.3984 94.5179 88.0458C91.782 84.2058 89.0661 80.3854 86.3102 76.565C86.1305 76.3103 85.811 76.036 85.5314 76.0164C84.7126 75.938 83.8739 75.9968 83.0152 75.9968V95.5299H86.0905V81.8352C86.3502 82.1487 86.47 82.2662 86.5698 82.4033C89.5453 86.5764 92.5009 90.7495 95.4764 94.9029C95.6761 95.1772 96.0156 95.5299 96.3152 95.5495C97.054 95.6474 97.8329 95.5887 98.6117 95.5887V76.0752H95.4764V89.045M184.343 79.1315C186.46 79.2099 188.556 78.8572 190.613 79.4646C191.911 79.8564 192.61 81.0515 192.57 82.5013C192.53 83.9707 191.672 85.2637 190.234 85.4597C188.317 85.7144 186.36 85.6752 184.343 85.7535V79.1315ZM184.323 88.8099C185.461 88.8099 186.48 88.7511 187.498 88.8491C187.897 88.8882 188.397 89.1625 188.596 89.476C189.854 91.298 191.013 93.1789 192.231 95.0009C192.391 95.236 192.65 95.5495 192.89 95.5691C193.988 95.6278 195.107 95.5887 196.405 95.5887C194.747 93.0221 193.189 90.6319 191.592 88.2025C193.03 87.6344 194.228 86.8703 194.967 85.5772C197.543 81.0907 194.667 76.0752 189.435 75.9772C186.839 75.938 184.243 75.9772 181.647 75.9772C181.467 75.9772 181.287 76.0164 181.128 76.036V95.4907H184.283V88.7903M226 95.5299C226 94.7266 225.96 93.9821 226 93.2376C226.04 92.6303 225.84 92.4148 225.181 92.4148C223.604 92.4539 222.046 92.4148 220.468 92.4148H215.755V87.2425H224.702V84.0491H215.775V78.9748H225.84V75.9968H212.6V95.4907H226V95.5299ZM33.7093 95.5887C33.7093 93.8646 33.7093 92.2384 33.7093 90.6123C33.7093 90.3184 33.7093 89.9266 33.8891 89.7307C34.6879 88.7707 35.5466 87.8499 36.4253 86.8311C36.7248 87.2229 36.9445 87.5168 37.1641 87.8107C38.8416 90.2205 40.5191 92.6303 42.2165 95.0401C42.3763 95.2556 42.596 95.5691 42.8156 95.5887C44.0138 95.6474 45.1921 95.6082 46.53 95.6082C43.8341 91.7682 41.258 88.1046 38.6819 84.4213C41.1581 81.6393 43.5945 78.8768 46.1706 75.9968C44.8326 75.9968 43.7343 75.9576 42.6559 75.9968C42.3563 75.9968 41.9769 76.2123 41.7772 76.4278C40.6389 77.7013 39.5406 79.014 38.4222 80.307C36.9245 82.0507 35.4268 83.7748 33.909 85.4989C33.8292 85.4989 33.7692 85.4597 33.6894 85.4401V76.036H30.5341V95.5691H33.7093M152.73 87.6931C153.729 85.1658 154.687 82.6972 155.726 80.0523C156.784 82.6972 157.743 85.1266 158.761 87.6931H152.73ZM165.152 95.5887C165.032 95.2556 164.972 95.0205 164.892 94.7854C162.615 89.1429 160.339 83.4809 158.082 77.8384C157.263 75.8205 157.283 75.8597 155.306 75.8009C154.508 75.7813 154.228 76.0556 153.948 76.7413C151.772 82.2662 149.535 87.7519 147.318 93.2572C147.019 94.0017 146.739 94.7462 146.42 95.5691C147.378 95.5691 148.177 95.5299 148.976 95.5691C149.515 95.5886 149.775 95.4123 149.954 94.9225C150.354 93.8058 150.853 92.7087 151.233 91.5723C151.412 91.0629 151.632 90.8278 152.231 90.8278C154.607 90.867 156.964 90.8474 159.34 90.8278C159.84 90.8278 160.079 90.9846 160.239 91.4352C160.638 92.5911 161.078 93.7274 161.557 94.8637C161.677 95.138 161.976 95.4907 162.216 95.5103C163.155 95.5886 164.113 95.5495 165.152 95.5495M13.4199 78.1911C11.1233 76.1731 8.50725 75.3895 5.51176 75.8205C2.93563 76.1927 1.11837 78.0344 0.738938 80.6401C0.339539 83.285 1.41792 85.2833 3.89419 86.3609C4.79284 86.7527 5.7514 87.0074 6.68999 87.3209C7.52872 87.5952 8.4074 87.8107 9.22617 88.1633C10.3844 88.6727 10.8238 89.4368 10.7239 90.534C10.6041 91.5919 9.96506 92.3168 8.8068 92.6107C7.22917 93.0221 5.73143 92.7086 4.3535 91.9642C3.49479 91.5135 2.71596 90.8866 1.83729 90.2989C1.23819 91.0825 0.619118 91.8662 0.0200195 92.6499C2.05696 95.0401 6.13083 96.3723 9.2062 95.7062C11.9221 95.0989 13.6994 93.2768 13.9191 90.8278C14.1987 87.7911 13.1203 86.067 10.2247 84.8719C9.84524 84.7152 9.44584 84.5976 9.04644 84.4605C7.82827 84.0686 6.59014 83.7356 5.41191 83.2458C4.19374 82.7364 3.73443 81.8548 3.93413 80.6989C4.11386 79.6801 5.05245 78.818 6.29059 78.8376C7.32902 78.8376 8.38743 79.0531 9.36596 79.3862C10.1847 79.6605 10.9236 80.2287 11.7424 80.7184C12.2816 79.8956 12.8407 79.0727 13.4199 78.1715M65.3018 76.0556H62.2264V95.5887H65.3018V76.0556Z" fill="#0B0B0B"/>
</g>
<defs>
<clipPath id="clip0_433_47">
<rect width="226" height="96" fill="white"/>
</clipPath>
</defs>
</svg>
