<svg width="360" height="45" viewBox="0 0 360 45" fill="none" xmlns="http://www.w3.org/2000/svg">
<g clip-path="url(#clip0_83_2114)">
<path fill-rule="evenodd" clip-rule="evenodd" d="M21.2994 0L0 44.6897H7.57895L11.1071 36.9801H30.8385L34.3667 44.6897H42.3376L21.9528 0H21.2994ZM28.1682 30.7078L21.1687 14.6352L13.9818 30.7078H28.1682Z" fill="#0B0B0B"/>
<path d="M97.4813 1.43787H72.2617V44.6902H97.7427V37.8952H79.7101V25.2201H94.9986V18.6865H79.7101V8.10212H97.4813V1.43787Z" fill="#0B0B0B"/>
<path d="M149.227 44.6902H141.648V7.97144H127.013V1.43787H163.731V7.97144H149.227V44.6902Z" fill="#0B0B0B"/>
<path d="M202.542 1.43787H194.962V44.6902H202.542V25.3508H223.188V44.6902H230.636V1.43787H223.188V18.6865H202.542V1.43787Z" fill="#0B0B0B"/>
<path d="M266.962 1.43787H292.182V8.10212H274.41V18.6865H289.7V25.2201H274.41V37.8952H292.443V44.6902H266.962V1.43787Z" fill="#0B0B0B"/>
<path fill-rule="evenodd" clip-rule="evenodd" d="M336.872 1.43787H326.81V44.6902H334.258V26.7881H337.916L351.115 44.6902H360L346.017 25.7429C352.029 23.652 355.426 19.3399 355.426 13.721C355.426 10.0622 353.597 6.66473 350.33 4.44331C346.671 1.82987 342.36 1.43787 336.872 1.43787ZM347.848 14.2437C347.848 18.6865 344.45 21.1692 337.786 21.1692H334.258V7.57943H337.133C344.189 7.57943 347.848 9.53951 347.848 14.2437Z" fill="#0B0B0B"/>
</g>
<defs>
<clipPath id="clip0_83_2114">
<rect width="360" height="45" fill="white"/>
</clipPath>
</defs>
</svg>
