<svg width="274" height="190" viewBox="0 0 274 190" fill="none" xmlns="http://www.w3.org/2000/svg">
<g clip-path="url(#clip0_93_2)">
<path d="M61.6336 158.487C57.0937 158.487 52.6117 163.485 49.6289 167.73H41.2645C40.7542 167.462 40.1334 167.325 39.4075 167.325C34.1048 167.325 27.3501 174.984 27.3501 178.625C27.3501 180.187 28.5548 181.16 30.4907 181.16C35.7934 181.16 42.5481 173.501 42.5481 169.861C42.5481 169.466 42.4692 169.103 42.3219 168.787H48.8766L40.5911 180.603C37.9503 184.38 34.957 188.667 31.0536 188.667C30.4854 188.667 30.3276 188.415 30.2434 188.168C30.2119 188.078 30.1908 187.973 30.1698 187.868C30.0804 187.452 29.9278 186.752 29.1598 186.752C28.4759 186.752 27.9393 187.31 27.9393 188.026C27.9393 188.883 28.8389 189.751 30.5486 189.751C34.6519 189.751 38.7131 186.816 42.9584 180.776L51.8226 168.151L51.9593 167.956C54.5686 164.221 57.8144 159.576 61.1286 159.576C61.6968 159.576 61.8546 159.829 61.9388 160.076C61.9703 160.165 61.9914 160.27 62.0124 160.376C62.1018 160.791 62.2544 161.491 63.0224 161.491C63.7063 161.491 64.2482 160.933 64.2482 160.218C64.2482 159.36 63.3486 158.492 61.6389 158.492L61.6336 158.487ZM29.8279 178.625C29.8279 175.6 34.5887 168.482 38.934 168.482C39.5179 168.482 40.1124 168.645 40.1124 169.861C40.1124 172.885 35.3357 180.003 30.9799 180.003C30.3802 180.003 29.8279 179.835 29.8279 178.625Z" fill="#0B0B0B"/>
<path d="M87.0268 159.834L87.274 159.85C89.7834 160.002 89.8307 160.002 89.8307 161.859V176.794L75.4534 158.992L75.3745 158.892H70.7925V159.834L71.0397 159.85C73.549 160.002 73.5964 160.002 73.5964 161.859V177.92C73.5964 179.777 73.549 179.777 71.0397 179.929L70.7925 179.945V180.887H77.505V179.945L77.2578 179.929C74.7485 179.777 74.7011 179.777 74.7011 177.92V161.975L89.8886 180.787L89.9675 180.887H90.9354V161.864C90.9354 160.007 90.9828 160.007 93.4921 159.855L93.7394 159.839V158.897H87.0268V159.839V159.834Z" fill="#0B0B0B"/>
<path d="M112.993 174.201C111.841 179.666 111.005 179.851 103.755 179.851H103.429C101.635 179.851 101.572 179.514 101.572 177.915V169.719H109.347V168.688H101.572V159.923H106.917C110.131 159.923 110.91 161.144 111.762 165.068L111.809 165.273H112.777L111.925 158.887H96.4062V159.829L96.6535 159.844C99.1628 159.997 99.2102 159.997 99.2102 161.854V177.915C99.2102 179.772 99.1628 179.772 96.6535 179.924L96.4062 179.94V180.882H113.088L114.019 173.99H113.051L113.009 174.201H112.993Z" fill="#0B0B0B"/>
<path d="M141.453 159.834L141.7 159.844C142.652 159.892 143.289 159.944 143.468 160.202C143.72 160.576 143.363 161.701 142.705 163.664L137.476 179.225C137.376 179.54 137.25 179.698 137.097 179.698C137.018 179.698 136.881 179.698 136.713 179.193L132.578 167.209L133.815 163.532C135.009 159.955 135.314 159.939 137.313 159.85L137.565 159.839V158.897H125.224V159.839L125.476 159.85C127.444 159.944 127.57 160.039 128.222 161.87L130.569 168.524L126.96 179.225C126.86 179.54 126.734 179.698 126.581 179.698C126.502 179.698 126.365 179.698 126.197 179.193L120.111 161.565C119.863 160.865 119.816 160.444 119.958 160.239C120.168 159.934 120.942 159.881 122.02 159.844L122.273 159.834V158.887H114.703V159.829L114.955 159.839C116.923 159.934 117.049 160.029 117.701 161.859L123.888 179.482C124.277 180.587 125.024 181.171 126.055 181.171C127.086 181.171 127.744 180.592 128.096 179.503L131.211 170.303L134.419 179.477C134.809 180.582 135.556 181.166 136.587 181.166C137.555 181.166 138.239 180.603 138.628 179.498L144.031 163.516C145.251 159.939 145.509 159.923 147.529 159.829L147.782 159.818V158.876H141.474V159.818L141.453 159.834ZM130.495 160.192C130.653 159.971 131.063 159.876 131.868 159.876C132.631 159.876 133.025 159.971 133.188 160.202C133.404 160.507 133.325 161.191 132.931 162.359L131.936 165.358L130.627 161.57C130.379 160.865 130.337 160.418 130.495 160.192Z" fill="#0B0B0B"/>
<path d="M177.152 159.839V158.897H171.123V159.844H171.381C172.022 159.871 172.996 159.902 173.127 160.16C173.306 160.513 172.485 161.754 171.628 163.001L166.893 169.908L161.012 161.591C160.575 160.97 160.265 160.523 160.265 160.265C160.265 159.944 161.375 159.871 162.206 159.844L162.459 159.834V158.887H154.862V159.823L155.11 159.839C156.199 159.913 156.982 160.05 157.866 161.296L165.042 171.402V177.909C165.042 179.766 164.994 179.766 162.485 179.919L162.238 179.935V180.876H170.213V179.935L169.966 179.919C167.456 179.766 167.409 179.766 167.409 177.909V171.071L173.069 162.859C175.063 159.986 175.237 159.908 176.904 159.839L177.157 159.829L177.152 159.839Z" fill="#0B0B0B"/>
<path d="M188.436 158.487C181.665 158.487 176.557 163.364 176.557 169.834C176.557 176.305 181.665 181.181 188.436 181.181C195.206 181.181 200.314 176.305 200.314 169.834C200.314 163.364 195.206 158.487 188.436 158.487ZM188.436 159.518C193.959 159.518 197.668 163.664 197.668 169.834C197.668 176.005 193.959 180.15 188.436 180.15C182.912 180.15 179.203 176.005 179.203 169.834C179.203 163.664 182.912 159.518 188.436 159.518Z" fill="#0B0B0B"/>
<path d="M221.93 177.941C221.51 179.261 220.899 179.929 220.11 179.929C219.521 179.929 218.885 179.761 218.785 177.783C218.774 177.483 218.758 177.168 218.748 176.836C218.711 175.9 218.674 174.842 218.579 173.806C218.364 171.528 217.322 170.129 215.402 169.561C218.285 168.787 219.968 166.925 219.968 164.437C219.968 161.123 216.97 158.897 212.509 158.897H203.129V159.839L203.376 159.855C205.885 160.007 205.933 160.007 205.933 161.864V177.925C205.933 179.782 205.885 179.782 203.376 179.935L203.129 179.951V180.892H211.104V179.951L210.857 179.935C208.347 179.782 208.3 179.782 208.3 177.925V169.955H211.925C214.687 169.955 216.065 171.26 216.259 174.053C216.312 174.774 216.307 175.511 216.307 176.221C216.307 176.841 216.302 177.425 216.338 177.941C216.528 180.85 218.669 181.166 219.579 181.166C220.731 181.166 222.251 180.655 222.914 178.22L222.983 177.962L222.004 177.704L221.93 177.941ZM211.877 168.893L208.305 168.914V159.923H211.804C215.313 159.923 217.322 161.565 217.322 164.432C217.322 167.299 215.339 168.866 211.877 168.893Z" fill="#0B0B0B"/>
<path d="M233.146 169.008L238.975 162.822C241.5 160.144 241.984 159.918 243.594 159.85L243.846 159.839V158.897H237.007V159.844L237.26 159.855C238.638 159.907 239.128 160.055 239.128 160.423C239.128 160.749 238.996 161.175 237.434 162.817L231.778 168.793H229.327V161.859C229.327 160.002 229.374 160.002 231.884 159.85L232.131 159.834V158.892H224.156V159.834L224.403 159.85C226.912 160.002 226.96 160.002 226.96 161.859V177.92C226.96 179.777 226.912 179.777 224.403 179.929L224.156 179.945V180.887H232.131V179.945L231.884 179.929C229.374 179.777 229.327 179.777 229.327 177.92V169.85H230.958C232.331 169.85 232.862 170.344 234.819 172.175L244.088 180.882H247.587L237.754 171.739C236.061 170.16 234.688 169.34 233.151 169.008H233.146Z" fill="#0B0B0B"/>
<path d="M117.496 22.2788L126.334 10.1583H130.701V8.83791H127.281L130.385 4.57153H127.534L124.43 8.83791H120.542V10.1583H123.483L114.671 22.2788H117.496Z" fill="#0B0B0B"/>
<path d="M126.445 22.2788L127.728 20.4902C129.164 18.4753 130.564 16.6815 132.742 14.451C134.009 13.1358 135.193 12.0889 136.256 11.3261C137.602 10.3634 138.744 9.87947 139.644 9.87947C139.975 9.87947 140.217 9.96364 140.375 10.132C140.543 10.3108 140.575 10.5581 140.575 10.7317C140.575 11.1631 140.369 11.6996 139.964 12.3309C139.533 12.999 138.944 13.6724 138.534 14.1195L136.466 16.4132C136.093 16.8182 135.619 17.3653 135.246 17.9808C134.825 18.6752 134.62 19.3065 134.62 19.922C134.62 20.7216 134.983 21.4266 135.64 21.9053C136.219 22.3261 136.992 22.5523 137.829 22.5523C139.202 22.5523 140.533 21.9684 142.158 20.6532C142.516 20.3639 142.895 20.0377 143.326 19.6379C143.426 20.4796 143.789 21.174 144.399 21.6791C145.094 22.2525 146.093 22.5523 147.292 22.5523C151.106 22.5523 154.468 20.1535 158.982 16.0028L159.113 15.8818V14.0775L158.429 14.7245C155.962 17.0392 154.158 18.5069 152.569 19.4906C150.796 20.5901 149.265 21.1004 147.75 21.1004C147.203 21.1004 146.782 20.9426 146.503 20.6322C146.209 20.3113 146.061 19.8221 146.061 19.1855C146.061 18.4648 146.309 17.5547 146.777 16.5499C148.844 16.4027 151.296 15.5452 153.363 14.2458C154.357 13.6198 155.199 12.9306 155.799 12.2573C156.472 11.4945 156.814 10.7896 156.814 10.1478C156.814 9.63748 156.577 9.18506 156.141 8.87469C155.731 8.58009 155.168 8.42753 154.51 8.42753C153.358 8.42753 152.069 8.8326 150.691 9.63222C149.486 10.3266 148.245 11.3104 147.103 12.473C146.014 13.583 145.078 14.7824 144.399 15.9502C144.073 16.5131 143.81 17.0497 143.626 17.5547C142.8 18.3491 142.148 18.9383 141.574 19.4117C140.154 20.5849 139.112 21.1057 138.207 21.1057C137.855 21.1057 137.587 21.011 137.418 20.8268C137.26 20.6532 137.176 20.3955 137.176 20.0693C137.176 19.6116 137.334 19.1277 137.655 18.5963C137.96 18.0913 138.36 17.6284 138.712 17.2391L140.101 15.6977C141.216 14.472 142.006 13.5672 142.505 12.8359C143.037 12.0626 143.263 11.4629 143.263 10.8264C143.263 10.0952 142.926 9.45336 142.316 9.02198C141.764 8.6327 141.011 8.42227 140.154 8.42227C138.833 8.42227 137.36 8.96412 135.777 10.0268C135.451 10.2477 135.119 10.4844 134.788 10.7475L142.589 0H139.717L123.572 22.2788H126.45H126.445ZM147.513 15.1243C148.303 13.8565 149.334 12.6255 150.391 11.6944C151.738 10.5055 153.058 9.85316 154.11 9.85316C154.247 9.85316 154.357 9.88473 154.426 9.94785C154.484 9.9952 154.51 10.0636 154.51 10.153C154.51 10.5686 154.305 11.0736 153.91 11.605C153.5 12.1678 152.906 12.7307 152.19 13.241C150.812 14.2247 149.134 14.8981 147.513 15.1243Z" fill="#0B0B0B"/>
<path d="M32.8893 69.7664C32.8893 65.2265 29.7435 61.865 24.4039 60.6077C29.1911 59.2557 32.0055 56.2256 32.0055 52.3432C32.0055 47.009 26.8449 43.2844 19.4537 43.2844H3.99268V44.5102L4.23993 44.5259C8.41687 44.7784 8.66412 44.7942 8.66412 48.0506V74.8167C8.66412 78.073 8.41161 78.0888 4.23993 78.3413L3.99268 78.3571V79.5828H18.8592C27.2499 79.5828 32.8841 75.6373 32.8841 69.7664H32.8893ZM19.2012 59.9501L12.2676 59.9922V44.6522H19.0749C24.8774 44.6522 27.9443 47.3141 27.9443 52.3432C27.9443 57.3724 24.9195 59.908 19.2012 59.9501ZM28.8281 69.7664C28.8281 75.3322 25.4192 78.1729 18.6961 78.215L12.2676 78.2571V61.36H19.117C25.4718 61.36 28.8281 64.2691 28.8281 69.7664Z" fill="#0B0B0B"/>
<path d="M52.3224 78.3518L52.0751 78.336C47.8982 78.0835 47.651 78.0677 47.651 74.8114V61.3547H53.869C58.5825 61.3547 60.934 63.5747 61.2655 68.3514C61.3549 69.556 61.3496 70.787 61.3444 71.9812C61.3444 73.0123 61.3339 73.9802 61.3917 74.8325C61.6968 79.5355 65.1531 80.0457 66.6208 80.0457C68.4831 80.0457 70.9292 79.2146 72.0077 75.2638L72.0761 75.0061L70.7767 74.6641L70.703 74.9008C69.9771 77.1787 68.8986 78.336 67.5046 78.336C66.3683 78.336 65.2898 77.8836 65.1162 74.5905C65.0952 74.096 65.0742 73.5699 65.0531 73.0175C64.9953 71.4551 64.9321 69.6876 64.7743 67.9673C64.3955 63.9429 62.5333 61.6598 58.9508 60.8655C64.0746 59.7081 67.089 56.5781 67.089 52.3327C67.089 46.9143 62.165 43.2739 54.8317 43.2739H39.376V44.4996L39.6232 44.5154C43.8002 44.7679 44.0474 44.7837 44.0474 48.0401V74.8061C44.0474 78.0625 43.7949 78.0783 39.6232 78.3308L39.376 78.3465V79.5723H52.3171V78.3465L52.3224 78.3518ZM47.651 44.647H53.6586C59.6136 44.647 63.033 47.4509 63.033 52.338C63.033 57.2251 59.661 59.9028 53.7848 59.9449L47.651 59.9869V44.647Z" fill="#0B0B0B"/>
<path d="M94.8336 80.0878C106.018 80.0878 114.456 72.0338 114.456 61.3495C114.456 50.6651 106.018 42.6111 94.8336 42.6111C83.6495 42.6111 75.2114 50.6651 75.2114 61.3495C75.2114 72.0338 83.6495 80.0878 94.8336 80.0878ZM79.2726 61.3495C79.2726 50.9597 85.5275 43.9788 94.8336 43.9788C104.14 43.9788 110.395 50.9597 110.395 61.3495C110.395 71.7392 104.14 78.7201 94.8336 78.7201C85.5275 78.7201 79.2726 71.7392 79.2726 61.3495Z" fill="#0B0B0B"/>
<path d="M163.69 45.1993C164.158 45.8884 163.616 47.6087 162.438 51.1228L153.726 77.0524C153.537 77.6574 153.268 77.9625 152.927 77.9625C152.637 77.9625 152.39 77.7994 152.122 77.0051L145.204 56.9726L147.282 50.7861C149.307 44.7101 149.833 44.689 153.274 44.5259L153.526 44.5154V43.2844H133.304V44.5154L133.557 44.5259C136.913 44.689 137.176 44.8837 138.286 48.0137L142.211 59.1663L136.177 77.0577C135.987 77.6626 135.719 77.9678 135.377 77.9678C135.088 77.9678 134.84 77.8047 134.572 77.0103L124.43 47.635C123.993 46.3935 123.919 45.6622 124.193 45.2677C124.587 44.689 125.866 44.6048 127.77 44.5365L128.023 44.5259V43.2949H115.755V44.5259L116.007 44.5365C119.358 44.6995 119.627 44.8942 120.737 48.0243L131.048 77.3996C131.668 79.1672 132.857 80.1036 134.493 80.1036C136.129 80.1036 137.166 79.183 137.729 77.4417L143.084 61.6282L148.597 77.4049C149.218 79.1725 150.407 80.1088 152.043 80.1088C153.568 80.1088 154.657 79.2145 155.278 77.447L164.284 50.8071C166.352 44.7311 166.878 44.7048 170.276 44.547L170.529 44.5365V43.3055H160.365V44.5365L160.612 44.547C162.301 44.6311 163.348 44.7206 163.695 45.2256L163.69 45.1993ZM141.774 45.1677C142.074 44.7469 142.8 44.5628 144.21 44.5628C145.619 44.5628 146.24 44.7416 146.551 45.1783C146.956 45.7411 146.829 46.8985 146.146 48.9291L144.325 54.4212L141.969 47.6244C141.527 46.3777 141.464 45.5991 141.769 45.1677H141.774Z" fill="#0B0B0B"/>
<path d="M184.785 78.7201C178.945 78.7201 174.658 74.2222 174.358 67.7779L174.348 67.5254H173.069L173.332 79.204H174.605V78.9463C174.658 77.3102 175.121 77.3102 175.316 77.3102C175.836 77.3102 176.457 77.6416 177.241 78.0625C178.751 78.8674 181.029 80.0878 184.869 80.0878C192.692 80.0878 196.916 75.0324 196.916 70.2715C196.916 64.3375 192.06 61.5651 187.505 59.4293L183.969 57.788C179.119 55.5417 177.052 53.185 177.052 49.9023C177.052 46.3619 180.008 43.9788 184.406 43.9788C189.619 43.9788 193.691 47.6087 194.543 53.0166L194.58 53.2533L195.785 53.1797L195.564 43.4528H194.401L194.37 43.6843C194.164 45.2624 193.838 45.2624 193.454 45.2624C193.07 45.2624 192.229 44.8679 191.634 44.5733L191.513 44.5154C189.909 43.7106 187.71 42.6111 184.485 42.6111C178.53 42.6111 174.037 46.304 174.037 51.207C174.037 56.1099 177.341 58.6402 182.307 61.0812L185.632 62.7225C189.856 64.8162 193.649 67.073 193.649 71.6603C193.649 75.0587 190.871 78.7201 184.78 78.7201H184.785Z" fill="#0B0B0B"/>
<path d="M231.957 68.4513H230.684L230.642 68.6617C228.696 77.9046 227.286 78.215 215.076 78.215H214.529C211.52 78.215 211.257 77.6574 211.257 74.8167V60.9812H224.219V59.6134H211.257V44.6522H220.336C225.776 44.6522 227.165 46.8301 228.58 53.3691L228.622 53.5742H229.895L228.522 43.2844H202.987V44.5102L203.234 44.5259C207.411 44.7784 207.658 44.7942 207.658 48.0506V74.8167C207.658 78.073 207.411 78.0888 203.234 78.3413L202.987 78.3571V79.5828H230.458L231.957 68.4513Z" fill="#0B0B0B"/>
<path d="M250.201 78.3519L249.954 78.3362C245.777 78.0836 245.529 78.0679 245.529 74.8115V61.3548H251.748C256.461 61.3548 258.813 63.5748 259.144 68.3515C259.233 69.5562 259.228 70.7871 259.223 71.9813C259.223 73.0124 259.212 73.9803 259.27 74.8326C259.575 79.5356 263.026 80.0459 264.499 80.0459C266.362 80.0459 268.808 79.2147 269.886 75.2639L269.955 75.0062L268.655 74.6642L268.582 74.901C267.856 77.1788 266.777 78.3362 265.383 78.3362C264.247 78.3362 263.168 77.8837 262.995 74.5906C262.974 74.0961 262.953 73.57 262.932 73.0229C262.874 71.4605 262.811 69.6929 262.653 67.9727C262.274 63.9483 260.412 61.6652 256.829 60.8709C261.953 59.7135 264.973 56.5834 264.973 52.3381C264.973 46.9197 260.049 43.2793 252.716 43.2793H237.26V44.505L237.507 44.5208C241.684 44.7733 241.931 44.7891 241.931 48.0454V74.8115C241.931 78.0679 241.684 78.0836 237.507 78.3362L237.26 78.3519V79.5777H250.201V78.3519ZM245.529 59.9871V44.6471H251.537C257.497 44.6471 260.912 47.451 260.912 52.3381C260.912 57.2252 257.54 59.9029 251.663 59.945L245.529 59.9871Z" fill="#0B0B0B"/>
<path d="M34.01 127.597L34.1099 127.334L32.7685 126.929L32.679 127.155C30.2802 133.215 25.8981 136.161 19.2855 136.161C8.82734 136.161 4.06121 127.376 4.06121 119.211C4.06121 108.658 9.65852 101.841 18.3175 101.841C26.9765 101.841 31.9163 107.238 32.9158 112.567L32.9579 112.783H34.1625L33.8522 101.82H32.6001L32.5738 102.056C32.4318 103.382 32.0109 104.05 31.3218 104.05C30.6853 104.05 30.1855 103.787 29.3806 103.366C27.5762 102.43 23.8201 100.473 18.4017 100.473C7.73839 100.473 0 108.353 0 119.211C0 130.069 7.82782 137.95 18.6121 137.95C26.2243 137.95 31.406 134.467 34.01 127.597Z" fill="#0B0B0B"/>
<path d="M58.2984 137.95C69.4825 137.95 77.9206 129.896 77.9206 119.211C77.9206 108.527 69.4825 100.473 58.2984 100.473C47.1143 100.473 38.6763 108.527 38.6763 119.211C38.6763 129.896 47.1143 137.95 58.2984 137.95ZM42.7375 119.211C42.7375 108.822 48.9924 101.841 58.2984 101.841C67.6045 101.841 73.8594 108.822 73.8594 119.211C73.8594 129.601 67.6045 136.582 58.2984 136.582C48.9924 136.582 42.7375 129.601 42.7375 119.211Z" fill="#0B0B0B"/>
<path d="M128.691 102.388L128.938 102.372V101.146H120.763L105.728 132.636L89.4835 101.146H82.1187V102.372L82.3659 102.388C86.5428 102.64 86.7901 102.656 86.7901 105.912V132.678C86.7901 135.935 86.5376 135.951 82.3659 136.203L82.1187 136.219V137.445H92.9555V136.219L92.7083 136.203C88.5314 135.951 88.2841 135.935 88.2841 132.678V106.907L104.15 137.445H105.108L120.669 104.844V132.678C120.669 135.935 120.416 135.951 116.244 136.203L115.997 136.219V137.445H128.938V136.219L128.691 136.203C124.514 135.951 124.267 135.935 124.267 132.678V105.912C124.267 102.656 124.519 102.64 128.691 102.388Z" fill="#0B0B0B"/>
<path d="M160.876 110.21C160.876 104.792 155.952 101.151 148.618 101.151H133.163V102.377L133.41 102.393C137.587 102.645 137.834 102.661 137.834 105.917V132.684C137.834 135.94 137.582 135.956 133.41 136.208L133.163 136.224V137.45H146.104V136.224L145.857 136.208C141.68 135.956 141.432 135.94 141.432 132.684V119.227H148.282C155.815 119.227 160.876 115.602 160.876 110.21ZM141.432 117.859V102.519H147.524C153.516 102.519 156.814 105.249 156.814 110.21C156.814 115.171 153.558 117.775 147.65 117.817L141.432 117.859Z" fill="#0B0B0B"/>
<path d="M184.869 136.208H184.611V137.45H196.879V136.219L196.626 136.208C193.207 136.045 193.107 135.793 191.892 132.715L180.445 103.171C179.75 101.383 178.603 100.478 177.041 100.478C174.784 100.478 174.085 102.356 173.806 103.087L163.621 129.938C161.354 135.893 161.044 136.05 157.624 136.208L157.372 136.219V137.45H167.535V136.224L167.288 136.213C165.599 136.129 164.468 136.029 164.1 135.472C163.637 134.762 164.142 133.094 165.457 129.622L167.33 124.656H184.979L188.199 133.115C188.667 134.367 188.751 135.04 188.488 135.43C188.141 135.94 187.094 136.166 184.864 136.208H184.869ZM184.406 123.204H167.872L175.352 103.487C175.631 102.745 175.836 102.603 176.115 102.603C176.489 102.603 176.625 102.898 176.82 103.382L184.401 123.204H184.406Z" fill="#0B0B0B"/>
<path d="M209.142 136.219L208.894 136.203C204.717 135.951 204.47 135.935 204.47 132.678V105.607L230.095 137.35L230.174 137.45H231.531V105.918C231.531 102.661 231.778 102.646 235.955 102.393L236.202 102.377V101.151H225.365V102.377L225.613 102.393C229.79 102.646 230.037 102.661 230.037 105.918V131.305L205.759 101.246L205.68 101.146H198.305V102.372L198.552 102.388C202.729 102.64 202.976 102.656 202.976 105.912V132.678C202.976 135.935 202.729 135.951 198.552 136.203L198.305 136.219V137.445H209.142V136.219Z" fill="#0B0B0B"/>
<path d="M264.3 101.146V102.382H264.557C266.088 102.435 267.372 102.514 267.619 103.003C267.929 103.619 266.977 105.202 265.104 107.911L257.066 119.637L247.229 105.723L247.129 105.581C246.356 104.476 245.845 103.75 245.845 103.266C245.845 102.719 246.834 102.467 249.254 102.393L249.507 102.382V101.151H237.197V102.377L237.444 102.393C239.254 102.509 240.653 102.761 242.168 104.892L254.157 121.784V132.684C254.157 135.94 253.91 135.956 249.733 136.208L249.486 136.224V137.45H262.427V136.224L262.18 136.208C258.003 135.956 257.755 135.94 257.755 132.684V121.237L267.219 107.501C270.507 102.756 270.812 102.519 273.748 102.393L274 102.382V101.151H264.3V101.146Z" fill="#0B0B0B"/>
</g>
<defs>
<clipPath id="clip0_93_2">
<rect width="274" height="189.746" fill="white"/>
</clipPath>
</defs>
</svg>
