<svg width="444" height="100" viewBox="0 0 444 100" fill="none" xmlns="http://www.w3.org/2000/svg">
<g clip-path="url(#clip0_73_1749)">
<path d="M53.3397 61.8634C42.0418 73.1647 28.142 59.8771 15.2693 66.3839L13.5575 67.3428L14.4476 65.4935C20.9524 52.6168 7.66887 38.7127 18.9667 27.4113C25.3346 21.0415 33.5513 22.4113 38.6182 27.4798C41.0832 30.0141 41.0832 36.5894 38.8236 41.1784L38.6182 41.7264L39.0975 41.4524C43.6851 39.1237 50.8062 39.6716 53.3397 42.1374C58.3382 47.2743 59.7076 55.4935 53.3397 61.8634ZM72.8542 34.8086C68.2666 30.2195 59.7076 25.836 51.2171 30.0826L50.3269 30.6305L50.6693 29.6031C54.9146 21.1784 50.4639 12.5483 45.8763 7.95927C36.5641 -1.3558 21.4317 -3.82155 9.85997 7.82228C-10.8871 28.5757 13.5575 54.0552 1.57486 77.6168L0 80.973L3.14971 79.1922C26.7041 67.2743 52.1757 91.6579 72.9227 70.9045C84.6314 59.2606 82.1664 44.1237 72.8542 34.8086Z" fill="#0B0B0B"/>
<path d="M114.485 68.9179H114.211C111.472 74.3973 106.2 78.2329 99.8318 78.2329C90.4512 78.2329 87.9862 73.3014 87.9862 68.7124V40.3562H81.5498V37.8905C86.4798 38.0959 92.4369 37.685 98.3255 37.4795V67.959C98.3255 72.0001 98.0516 75.0138 103.05 75.0138C106.679 75.0138 114.553 70.9727 114.553 59.1918V40.2877H107.09V37.822C113.047 38.0275 119.072 37.6165 124.961 37.411V74.3288H131.808V76.7946C126.057 76.7946 120.236 76.5206 114.553 77.548L114.485 68.9179Z" fill="#0B0B0B"/>
<path d="M150.502 48.4384C153.651 43.0275 157.075 37.3425 164.196 37.3425C168.03 37.3425 172.07 39.3288 172.07 43.7124C172.07 47.548 169.4 49.1918 165.908 49.1918C163.58 49.1918 161.183 47.1371 161.183 44.6713C161.183 44.2603 161.252 43.7124 161.389 43.2329C161.663 41.6576 161.799 41.0412 160.704 41.0412C158.855 41.0412 157.897 42.0001 156.596 43.3014C152.898 47.0001 150.502 52.3425 150.502 65.1508V74.3288H159.334V76.7946H134.137V74.3288H139.957V40.4247H133.521V37.959C138.587 38.1644 144.613 37.7535 150.57 37.548V48.4384H150.502Z" fill="#0B0B0B"/>
<path d="M169.468 76.7945V74.3288H176.794V13.7123H169.742V11.2466C175.699 11.4521 181.587 10.8356 187.407 9.80823V74.3288H194.529V76.7945H169.468Z" fill="#0B0B0B"/>
<path d="M197.268 76.7945V74.3287H204.457V40.4246H197.268V37.9589C203.088 38.1644 209.045 37.7534 215.002 37.5479V74.3287H222.26V76.7945H197.268ZM208.976 25.3562C205.964 25.3562 203.704 22.3425 203.704 19.4657C203.704 16.7945 206.374 14.1918 208.976 14.1918C211.852 14.1918 214.796 16.5205 214.796 19.4657C214.728 22.8219 212.263 25.3562 208.976 25.3562Z" fill="#0B0B0B"/>
<path d="M242.938 46.7261H243.144C246.293 40.6302 250.676 37.3425 257.728 37.3425C270.738 37.3425 269.711 46.4521 269.711 56.1781V74.3288H275.873V76.7946H253.141V74.3288H259.303V56.6576C259.303 47.548 260.262 40.8357 253.688 40.8357C249.443 40.8357 245.677 45.3562 244.171 48.9864C242.87 52.2055 242.87 56.7261 242.87 61.3151V74.3288H249.032V76.7946H225.82V74.3288H232.462V40.4247H225.82V37.959C230.819 38.1644 236.776 37.7535 242.87 37.548V46.7261H242.938Z" fill="#0B0B0B"/>
<path d="M303.468 71.1096C308.055 71.1096 311.479 70.4247 314.286 74.2603C315.793 76.3151 316.135 78.8493 316.135 81.3151C316.135 93.9863 305.522 99.7397 294.155 99.7397C287.514 99.7397 278.065 96.589 278.065 88.4384C278.065 84.6027 281.009 81.4521 284.364 80.2192C280.461 78.7808 277.996 75.6986 277.996 71.3151C277.996 65.4247 281.625 62.7534 286.829 61.3151C283.131 58.9863 280.256 55.6986 280.256 51.1096C280.256 42.4795 287.103 37.3425 295.183 37.3425C299.702 37.3425 303.057 38.8493 306.344 41.726C308.329 39.3973 310.041 36.9315 313.533 36.9315C315.861 36.9315 317.847 38.5069 317.847 40.9726C317.847 43.3014 316.683 44.5343 314.286 44.5343C311.89 44.5343 311.068 41.1781 310.246 41.1781C309.151 41.1781 308.261 42.548 307.576 43.2329C309.219 45.2192 309.904 47.7534 309.904 50.4932C309.904 54.8767 307.576 59.6028 303.605 61.863C299.565 64.1233 294.566 63.4384 290.458 63.4384C287.582 63.4384 281.077 63.6438 281.077 67.8219C281.077 70.2877 282.858 71.0411 284.98 71.0411H303.468V71.1096ZM288.267 80.2877C284.843 80.2877 284.364 85.0137 284.364 87.6164C284.364 93.7808 288.678 97.2055 294.566 97.2055C302.509 97.2055 309.836 94.8767 312.438 86.3151C314.081 80.6986 310.109 80.2192 304.974 80.2192L288.267 80.2877ZM289.773 56.9315C289.773 60.4932 291.211 61.863 294.977 61.863C299.222 61.863 300.592 60.9726 300.592 56.9315V43.3014C300.592 40.0822 298.743 39.2603 295.388 39.2603C291.28 39.2603 289.773 41.2466 289.773 43.3014V56.9315Z" fill="#0B0B0B"/>
<path d="M327.022 27.7534C330.583 27.7534 334.075 27.3424 337.635 27.137V39.1233H346.947V42.0685H337.635V69.0548C337.635 72.2055 337.704 74.4657 341.47 74.4657C344.619 74.4657 346.468 72 347.427 69.2603L349.412 70.2192C347.358 75.6986 343.113 78.2329 337.43 78.2329C328.528 78.2329 327.022 75.2192 327.022 69.8082V42.0685H320.723V39.1233H327.022V27.7534Z" fill="#0B0B0B"/>
<path d="M371.666 37.3425C382.758 37.3425 392.276 47.0686 392.276 58.0275C392.276 68.9864 382.758 78.2329 371.666 78.2329C360.573 78.2329 351.056 68.9864 351.056 58.0275C351.124 47.0686 360.642 37.3425 371.666 37.3425ZM371.666 39.3288C362.08 39.3288 362.764 47.0001 362.764 58.096C362.764 70.8357 362.97 76.3151 371.666 76.3151C380.362 76.3151 380.567 70.8357 380.567 58.096C380.636 46.9316 381.32 39.3288 371.666 39.3288Z" fill="#0B0B0B"/>
<path d="M410.9 46.7261H411.106C414.255 40.6302 418.638 37.3425 425.69 37.3425C438.7 37.3425 437.673 46.4521 437.673 56.1781V74.3288H443.835V76.7946H421.103V74.3288H427.265V56.6576C427.265 47.548 428.224 40.8357 421.65 40.8357C417.405 40.8357 413.639 45.3562 412.133 48.9864C410.832 52.2055 410.832 56.7261 410.832 61.3151V74.3288H416.994V76.7946H393.782V74.3288H400.424V40.4247H393.782V37.959C398.781 38.1644 404.738 37.7535 410.832 37.548V46.7261H410.9Z" fill="#0B0B0B"/>
</g>
<defs>
<clipPath id="clip0_73_1749">
<rect width="443.836" height="100" fill="white"/>
</clipPath>
</defs>
</svg>
