<svg width="317" height="92" viewBox="0 0 317 92" fill="none" xmlns="http://www.w3.org/2000/svg">
<path d="M45.892 60.375C53.8124 60.375 60.2332 53.9391 60.2332 46C60.2332 38.0609 53.8124 31.625 45.892 31.625C37.9716 31.625 31.5508 38.0609 31.5508 46C31.5508 53.9391 37.9716 60.375 45.892 60.375Z" fill="#0B0B0B"/>
<path d="M71.7315 80.0354C72.9517 81.2585 72.8293 83.283 71.3955 84.2459C64.1012 89.1434 55.3276 91.9995 45.8886 91.9995C36.4496 91.9995 27.676 89.1434 20.3815 84.2459C18.9479 83.283 18.8254 81.2585 20.0455 80.0354L30.5259 69.53C31.4732 68.5809 32.9426 68.4306 34.1349 69.0429C37.6602 70.8533 41.6554 71.8745 45.8886 71.8745C50.1218 71.8745 54.1171 70.8533 57.6426 69.0429C58.8348 68.4306 60.3039 68.5809 61.2513 69.53L71.7315 80.0354Z" fill="#0B0B0B"/>
<path d="M71.3989 7.75386C72.8328 8.71644 72.9552 10.7413 71.7349 11.9643L61.2547 22.4694C60.3073 23.4189 58.8377 23.5688 57.6456 22.9566C54.12 21.1464 50.1251 20.125 45.8919 20.125C31.6351 20.125 20.0777 31.7096 20.0777 46C20.0777 50.2431 21.0966 54.2478 22.9026 57.7816C23.5134 58.9766 23.3638 60.4491 22.4166 61.3988L11.9362 71.9041C10.716 73.1267 8.69594 73.0041 7.73562 71.5673C2.84968 64.2554 0 55.4612 0 46C0 20.5949 20.5465 0 45.8919 0C55.3311 0 64.1046 2.8564 71.3989 7.75386Z" fill="#0B0B0B"/>
<path fill-rule="evenodd" clip-rule="evenodd" d="M149.866 9.34378C149.866 8.9468 150.187 8.625 150.583 8.625H161.339C161.735 8.625 162.056 8.9468 162.056 9.34378V82.6564C162.056 83.053 161.735 83.375 161.339 83.375H150.583C150.187 83.375 149.866 83.053 149.866 82.6564V9.34378ZM134.687 67.8249C134.401 67.5776 133.974 67.596 133.699 67.8556C132.023 69.4416 130.06 70.7107 127.908 71.5954C125.548 72.567 123.011 73.0562 120.451 73.0332C118.29 73.0971 116.139 72.7265 114.129 71.944C112.119 71.1615 110.294 69.9839 108.766 68.4833C105.99 65.6425 104.392 61.5868 104.392 56.7522C104.392 47.0738 110.816 40.454 120.451 40.454C123.036 40.4183 125.596 40.943 127.95 41.99C130.084 42.9396 132 44.2971 133.588 45.981C133.859 46.269 134.31 46.3024 134.609 46.043L141.87 39.745C142.167 39.4877 142.203 39.0385 141.941 38.7455C136.479 32.6277 127.923 29.4688 119.785 29.4688C103.402 29.4688 91.7842 40.5464 91.7842 56.8442C91.7842 64.905 94.6713 71.6925 99.5404 76.4852C104.41 81.2784 111.346 84.0936 119.35 84.0936C129.386 84.0936 137.463 80.2363 142.199 75.2877C142.477 74.9974 142.446 74.5353 142.142 74.2721L134.687 67.8249ZM221.307 60.3397C221.267 60.6996 220.961 60.9689 220.6 60.9689H182.921C182.463 60.9689 182.122 61.3947 182.242 61.8373C184.116 68.8027 189.705 73.0173 197.333 73.0173C199.905 73.0715 202.454 72.541 204.783 71.4671C206.954 70.4669 208.88 69.0194 210.432 67.2254C210.619 67.0087 210.946 66.9765 211.166 67.1605L218.741 73.7712C219.031 74.0242 219.071 74.4622 218.823 74.7561C214.249 80.1642 206.839 84.0936 196.671 84.0936C181.027 84.0936 169.227 73.2351 169.227 56.7379C169.227 48.6441 172.007 41.8571 176.64 37.0647C179.086 34.6003 182.018 32.6554 185.255 31.3499C188.492 30.0444 191.966 29.4059 195.463 29.4736C211.319 29.4736 221.572 40.6509 221.572 56.0842C221.552 57.5061 221.463 58.9265 221.307 60.3397ZM182.468 50.3234C182.335 50.767 182.677 51.199 183.139 51.199H208.192C208.655 51.199 208.997 50.7644 208.869 50.3184C207.161 44.3947 202.829 40.4414 196.1 40.4414C194.121 40.3784 192.152 40.7375 190.327 41.4936C188.502 42.2501 186.863 43.386 185.524 44.8233C184.117 46.4233 183.076 48.2994 182.468 50.3234ZM258.851 29.4766C259.251 29.4723 259.576 29.7953 259.576 30.1954V42.2664C259.576 42.6847 259.221 43.0144 258.805 42.9835C257.643 42.8971 256.544 42.8237 255.823 42.8237C246.441 42.8237 240.933 49.4428 240.933 58.1312V82.6564C240.933 83.053 240.612 83.375 240.215 83.375H229.46C229.064 83.375 228.742 83.053 228.742 82.6564V30.9416C228.742 30.5447 229.064 30.2229 229.46 30.2229H240.215C240.612 30.2229 240.933 30.5447 240.933 30.9416V38.2001C240.933 38.2411 240.966 38.2743 241.007 38.2743C241.03 38.2743 241.052 38.2632 241.066 38.2444C245.271 32.6164 251.476 29.4856 258.032 29.4856L258.851 29.4766ZM287.987 61.0906C288.031 61.043 288.093 61.0164 288.157 61.0164C288.237 61.0164 288.312 61.0578 288.354 61.1263L301.955 83.0361C302.085 83.2467 302.316 83.375 302.563 83.375H314.79C315.353 83.375 315.696 82.7565 315.4 82.2776L296.742 52.1022C296.573 51.8297 296.605 51.4786 296.82 51.2409L314.797 31.3604C315.214 30.8984 314.888 30.1589 314.265 30.1589H301.51C301.309 30.1589 301.117 30.2434 300.981 30.3918L280.182 53.1172C279.74 53.6002 278.937 53.2869 278.937 52.6312V9.34372C278.937 8.9468 278.616 8.625 278.22 8.625H267.464C267.068 8.625 266.747 8.9468 266.747 9.34372V82.6564C266.747 83.053 267.068 83.375 267.464 83.375H278.22C278.616 83.375 278.937 83.053 278.937 82.6564V71.1196C278.937 70.9381 279.006 70.7628 279.129 70.6299L287.987 61.0906Z" fill="#0B0B0B"/>
</svg>
