<svg width="247" height="82" viewBox="0 0 247 82" fill="none" xmlns="http://www.w3.org/2000/svg">
<g clip-path="url(#clip0_69_515)">
<path d="M0 50.061C0 69.7615 13.9267 82 31.546 82C37.7416 82 43.9372 80.5322 48.4532 77.2276V61.8362C44.3358 65.4251 39.0429 67.3907 33.5714 67.363C24.4159 67.363 17.113 60.9424 17.113 50.1061C17.113 39.2739 24.383 32.9722 33.5714 32.9722C39.0708 32.8652 44.4095 34.822 48.5273 38.4539V23.0338C44.0401 19.6513 37.8239 18.3598 31.6284 18.3598C13.9267 18.368 0 30.6024 0 50.061ZM84.3629 18.368C66.4101 18.368 53.8707 31.4265 53.8707 50.0651C53.8707 68.7119 66.3771 82.0041 84.3587 82.0041C102.34 82.0041 114.95 68.8226 114.95 50.0651C114.95 31.3117 102.468 18.368 84.3629 18.368ZM84.3629 67.6664C75.7878 67.6664 71.0166 60.3479 71.0166 50.0979C71.0166 39.8479 75.7878 32.6155 84.3629 32.6155C92.9338 32.6155 97.6885 39.934 97.6885 50.0979C97.6885 60.2618 93.049 67.6664 84.3629 67.6664ZM164.062 24.7804C162.012 22.7229 159.567 21.0972 156.874 19.9998C154.168 18.8969 151.268 18.3422 148.344 18.368C130.243 18.368 120.009 32.7016 120.009 50.0651C120.009 67.6418 130.243 82.0041 148.344 82.0041C151.267 82.0041 154.157 81.4342 156.857 80.3354C159.548 79.2384 161.996 77.6252 164.062 75.5876V80.6142H181.327V0H164.066V24.7722L164.062 24.7804ZM164.062 60.2126C162.938 62.3349 161.247 64.106 159.175 65.3294C157.09 66.5648 154.706 67.2125 152.28 67.2031C142.865 67.2031 137.32 59.8764 137.32 50.0651C137.32 40.2579 142.91 33.0542 152.276 33.0542C154.717 33.057 157.111 33.7232 159.2 34.9812C161.279 36.2358 162.966 38.0357 164.066 40.1718L164.062 60.2126ZM215.878 18.368C207.546 18.368 199.572 20.5902 195.035 23.3864V38.0316C200.111 34.7661 206.023 33.0241 212.066 33.0132C220.876 33.0132 226.005 36.7442 226.005 42.6892V46.0717C223.494 44.3128 217.422 42.4555 212.062 42.4555C198.374 42.4555 188.021 50.3726 188.021 62.0289C188.021 74.6241 198.374 81.7294 211 81.7294C217.776 81.7294 223.971 79.3965 225.96 77.4244V80.688H242.628V41.6765C242.669 26.8755 232.905 18.368 215.878 18.368ZM226.005 64.0502C224.511 67.3179 219.933 69.3064 215.042 69.3064C209.567 69.3064 203.968 67.0842 203.968 61.8444C203.968 56.5964 209.567 54.3865 215.042 54.3865C219.933 54.3865 224.449 56.3627 226.005 59.6345V64.0502Z" fill="#0B0B0B"/>
</g>
<defs>
<clipPath id="clip0_69_515">
<rect width="247" height="82" fill="white"/>
</clipPath>
</defs>
</svg>
