<svg width="426" height="100" viewBox="0 0 426 100" fill="none" xmlns="http://www.w3.org/2000/svg">
<g clip-path="url(#clip0_71_1492)">
<path d="M237.419 21.2903L236.129 22.5806C235.484 26.129 232.903 29.6774 231.936 31.2903C230.968 32.9032 230 33.871 229.677 36.129V36.4516C230 37.0968 230.323 37.0968 230.968 36.7742C235.161 34.1935 240 29.6774 241.936 26.4516L242.581 24.5161L241.936 22.5806C241.936 21.9355 241.29 21.2903 240.645 21.2903H237.097H237.419ZM275.806 25.1613L274.516 26.7742V30.3226C275.484 32.5806 277.742 33.871 280 33.5484C282.581 33.2258 283.871 30.3226 283.871 28.0645V27.0968C283.226 25.8064 282.258 24.8387 280.968 24.5161C279.032 23.871 277.419 24.5161 275.806 25.1613ZM317.742 37.7419L314.516 40.9677C311.29 39.6774 307.742 40.3226 302.903 42.9032C299.934 44.6643 297.423 47.1013 295.573 50.0161C293.723 52.9308 292.587 56.241 292.258 59.6774C292.258 60.6451 292.258 61.2903 291.613 61.9355L289.677 63.8709C289.032 64.5161 288.387 64.5161 287.419 64.5161C286.962 64.5202 286.513 64.4029 286.116 64.1762C285.719 63.9495 285.39 63.6215 285.161 63.2258C284.194 58.7097 284.194 53.871 283.871 48.7097V46.7742L283.548 42.5806C282.903 40 280.645 40.3226 278.71 40.3226H275.484L275.161 40.9677V47.4193L275.806 57.0968C275.806 58.0645 275.806 58.7097 275.161 59.3548C273.871 61.2903 272.581 62.9032 270.645 63.8709C268.71 65.1613 265.484 64.5161 264.194 63.8709C262.581 62.258 261.935 59.6774 261.935 57.0968C261.935 53.2258 263.226 49.0322 263.871 46.7742L264.839 45.4839L265.161 45.1613L266.774 41.9355V40H265.806L262.903 41.6129C260.645 43.2258 258.71 44.5161 256.129 44.8387H254.839V42.5806C254.839 40.9677 254.194 39.3548 253.226 39.0322C251.613 38.7097 249.032 39.0322 247.419 42.2581L246.774 44.8387V45.4839C246.774 47.4193 247.742 49.0322 249.355 49.6774C247.783 53.3502 245.601 56.731 242.903 59.6774C238.71 63.2258 235.161 66.4516 229.355 65.1613C227.097 64.1935 225.484 61.9355 225.161 59.3548V58.7097L225.484 58.0645C229.355 57.0968 233.226 56.129 236.452 53.2258C237.742 51.9355 239.677 50 239.677 48.3871C240.323 47.7419 240.323 46.7742 240.323 45.8064C240.323 45.1613 240.323 44.1935 239.677 43.2258C239.317 42.396 238.786 41.6513 238.119 41.0399C237.452 40.4286 236.664 39.9644 235.806 39.6774C231.29 38.7097 226.452 40.9677 221.936 46.129C219.529 49.2604 217.874 52.9023 217.097 56.7742C213.871 60.3226 211.29 62.5806 207.419 64.8387C206.774 65.1613 206.452 65.8064 206.452 66.129V67.0968C207.097 67.4193 207.742 68.0645 208.387 67.4193C211.613 65.8064 214.516 63.8709 215.806 62.5806L216.129 62.258C216.452 62.258 216.774 62.258 216.774 62.9032L217.097 64.8387C217.539 66.2326 218.291 67.5082 219.296 68.5698C220.302 69.6313 221.535 70.4512 222.903 70.9677C233.226 74.1935 241.613 65.8064 244.839 62.258C248.065 58.0645 250.323 55.1613 252.258 50.9677C253.871 50.9677 255.484 50.3226 256.774 50H257.742V50.6451L257.419 51.2903C255.806 54.5161 254.194 57.7419 254.194 61.9355V63.8709C254.516 67.7419 256.452 70.3226 260 71.2903C262.903 71.9355 265.484 71.2903 267.742 70C269.355 69.0322 272.581 66.7742 275.161 63.5484H275.806V64.1935L276.129 65.8064C277.097 69.3548 279.355 71.2903 282.581 71.6129C285.806 71.6129 289.032 69.3548 292.258 65.1613H292.581C293.548 67.7419 294.839 70.3226 298.065 71.6129C304.194 72.9032 308.71 70 311.29 67.4193H311.935C312.581 70.6451 312.581 72.9032 312.581 75.1613C312.581 80.6451 311.935 84.8387 310.968 86.7742C310 88.7096 309.032 90.9677 307.742 91.9355C306.452 92.9032 305.161 93.2258 303.226 93.2258C302.258 93.2258 300 92.9032 299.032 90.9677L298.387 88.0645V87.7419C298.387 85.4838 299.355 83.5484 301.29 81.6129L301.935 80.6451V80C301.29 79.6774 300.968 79.3548 300.323 79.6774C298.198 80.6478 296.316 82.0767 294.81 83.8616C293.304 85.6464 292.212 87.7428 291.613 90C290.645 93.2258 291.613 96.4516 294.839 98.0645C298.065 100.323 301.613 99.0322 305.484 97.0967C318.387 90 320.323 77.0968 320.323 66.7742C320.49 64.4117 320.598 62.0453 320.645 59.6774L325.484 55.1613L326.452 54.5161L327.097 54.1935V55.1613L328.387 66.129V68.0645C328.387 69.3548 328.71 70 329.032 70.3226C330.323 72.258 336.452 71.2903 336.774 71.2903V70C336.774 64.8387 335.484 50.6451 335.161 48.3871C336.452 46.4516 338.065 45.4839 339.677 45.8064L341.29 46.4516C341.935 46.7742 341.935 47.0968 342.258 47.7419C342.903 49.0322 343.226 50.9677 343.548 53.5484V57.4193L343.871 59.3548C344.194 65.4838 344.839 71.6129 350.323 71.6129C353.548 71.6129 355.806 70.3226 358.387 67.4193L359.032 67.0968L359.355 66.7742C359.677 66.7742 360 66.7742 360 67.4193L361.29 69.0322C363.871 71.9355 368.71 72.258 374.194 70.3226C377.01 68.4532 379.37 65.9756 381.101 63.0724C382.831 60.1692 383.888 56.9145 384.194 53.5484C384.194 52.9032 384.516 52.258 385.161 51.9355H385.806L390 49.3548C390.968 52.5806 391.29 55.8064 391.613 58.0645L392.258 66.129L392.581 67.7419C392.581 69.3548 392.903 70.6451 393.548 70.9677C394.839 71.6129 397.419 71.6129 399.677 71.2903H400.968L399.355 48.0645C400.323 46.4516 401.29 45.4839 403.226 45.8064C404.516 45.8064 405.161 46.7742 405.806 47.7419L407.419 53.5484V54.5161L408.065 59.0322V59.6774C408.387 64.8387 409.032 70.9677 414.516 71.6129C418.71 71.6129 421.935 69.3548 425.161 64.8387V63.5484H423.548C422.739 63.9924 421.87 64.3183 420.968 64.5161C419.677 64.8387 417.742 64.5161 417.097 63.5484C416.452 62.5806 415.806 59.3548 415.161 54.8387V52.9032C414.839 49.0322 414.194 45.1613 411.935 42.5806C411.29 41.6129 410.645 40.9677 409.677 40.6451C405.806 39.0322 403.871 40.6451 400.645 42.9032L399.677 43.5484H399.032L398.387 41.9355C398.387 40.9677 397.742 40.6451 396.774 40.3226H395.806L390.645 40.6451L390.323 43.2258V44.8387C390.323 45.8064 390.323 46.129 389.355 46.7742L385.484 48.3871C384.839 48.3871 384.516 48.3871 384.194 47.7419L383.226 44.5161C382.581 42.5806 381.29 40.9677 379.677 40C377.097 38.7097 374.194 38.7097 370.968 40C365.755 42.9965 361.845 47.8263 360 53.5484C358.942 56.4354 358.502 59.5127 358.71 62.5806L357.097 64.1935C356.129 64.8387 353.871 64.5161 352.903 63.2258C351.935 62.258 351.613 56.4516 351.29 53.5484C351.29 51.6129 351.29 49.0322 350.645 47.0968C350.645 45.1613 349.355 41.9355 345.806 40.6451C342.581 39.3548 339.355 40.9677 335.484 43.5484C335.161 43.871 334.839 43.5484 334.839 43.5484L334.194 41.6129C334.194 40.9677 333.548 40.3226 332.581 40.3226C330.323 40.3226 328.387 40.3226 326.129 40.9677C326.129 43.871 326.129 46.129 326.774 48.7097C326.774 50.3226 326.452 50.3226 325.161 51.2903L320.968 55.1613L320 55.4839L319.677 54.8387L319.355 51.6129V49.6774L318.71 42.5806V38.7097C318.71 38.453 318.608 38.2069 318.426 38.0254C318.245 37.8439 317.999 37.7419 317.742 37.7419ZM230.968 43.5484C231.935 43.5484 232.903 44.1935 233.548 44.8387L233.871 46.7742C233.871 48.0645 233.548 49.6774 232.581 50.9677C230.968 52.9032 228.387 54.1935 225.161 55.1613C225.161 49.6774 226.774 44.5161 230.968 43.5484ZM372.258 43.5484L373.871 44.1935C374.516 44.5161 375.161 44.8387 375.161 45.4839L374.839 47.7419C374.839 48.7097 374.839 50 375.806 50.9677C376.774 52.5806 378.387 53.2258 380.323 52.9032H381.29V53.5484C380.754 56.6977 379.294 59.6168 377.097 61.9355C376.114 62.8478 374.871 63.4313 373.542 63.6047C372.212 63.7782 370.861 63.533 369.677 62.9032C367.419 61.6129 365.806 58.3871 365.806 55.1613V54.5161C366.452 49.0322 368.065 45.8064 371.29 43.871H372.258V43.5484ZM307.419 45.4839H308.387C310 46.129 310.968 48.0645 311.613 50L311.935 57.0968C311.935 60.3226 311.613 63.5484 310 64.5161C308.71 65.4838 306.774 66.4516 305.161 66.129C302.258 64.5161 300.968 61.6129 300.968 57.4193L301.29 52.2581C301.787 49.9592 302.902 47.8399 304.516 46.129L307.419 45.4839ZM199.677 0.322581C195.161 0.322581 179.677 1.29032 168.387 13.2258C160 22.9032 162.903 30.3226 163.871 32.5806C167.097 39.6774 175.161 41.2903 180.645 40.6451C185.161 39.6774 188.065 37.4193 188.71 37.0968L189.032 35.8064L188.065 35.1613L186.129 35.4839C180.968 36.4516 172.581 34.8387 170.645 26.129C170 22.5806 171.29 17.7419 173.871 14.5161C176.129 11.2903 179.032 9.03226 182.903 7.41935C187.419 5.16129 192.903 4.19355 198.065 4.19355C206.452 4.51613 212.903 7.74193 216.129 12.9032C217.541 15.3415 218.117 18.1749 217.767 20.9709C217.418 23.7668 216.163 26.3715 214.194 28.3871C213.695 28.9621 213.156 29.5011 212.581 30L210.968 31.6129C210.968 31.9355 210.645 32.2581 210.968 32.9032L211.935 33.5484C215.806 32.2581 218.387 30.3226 220.968 27.7419C223.783 25.0048 225.504 21.3345 225.806 17.4193C225.806 15.4839 225.484 13.871 224.839 12.5806C221.613 4.83871 212.258 0 200 0L199.677 0.322581Z" fill="#0B0B0B"/>
<path d="M203.226 12.9032C202.258 13.5484 197.42 17.0968 196.774 19.3548L200 42.5807V45.1613C200.261 50.1168 200.045 55.0859 199.355 60L197.42 65.4839C194.194 70.6452 190.645 69.3548 188.71 68.3871C187.789 67.8587 187.013 67.1111 186.45 66.2108C185.887 65.3104 185.556 64.2851 185.484 63.2258C185.484 60.9677 186.774 58.7097 188.71 57.4194C189.355 57.0968 189.355 56.7742 189.355 56.129C188.71 54.8387 187.42 53.871 185.484 53.871C183.871 53.871 180.968 54.8387 179.355 58.0645C178.621 59.4566 178.237 61.0067 178.237 62.5806C178.237 64.1546 178.621 65.7047 179.355 67.0968C180.645 68.7097 181.936 70.3226 184.839 71.6129C187.42 72.9032 190 72.5807 190.968 72.5807C200.645 71.6129 204.839 63.871 206.129 60.9677C207.742 57.7419 208.71 53.2258 208.71 50.3226C209.045 46.6743 209.045 43.0031 208.71 39.3548L204.839 16.7742V15.4839C204.194 14.1936 203.871 13.2258 203.226 13.2258V12.9032ZM90.3228 38.7097C88.7098 38.7097 87.0969 39.3548 85.8066 39.6774C83.3439 41.2201 81.2175 43.2436 79.5547 45.627C77.892 48.0103 76.7269 50.7045 76.1292 53.5484C74.5163 60 75.1615 65.4839 78.7098 69.0323C81.6131 71.9355 86.4518 72.2581 91.6131 70.3226C96.4518 67.0968 99.6776 60.6452 100 53.5484C100 52.9032 100 52.2581 100.968 51.9355C102.635 51.1809 104.251 50.3189 105.807 49.3548L106.129 50.9677L107.742 70.3226L109.032 70.6452C110.968 71.2903 113.871 71.6129 115.484 70.6452L114.516 49.3548C115.484 46.129 118.387 46.129 119.355 46.129C120.323 46.4516 121.29 47.7419 121.936 49.3548C122.903 52.5807 123.226 55.8065 123.226 59.6774L123.871 66.129V67.4194C123.871 68.7097 124.194 70.3226 124.839 70.6452L127.742 70.9677C128.71 71.2903 130.968 71.6129 132.258 70.9677L131.613 62.2581V56.4516C131.613 54.5161 131.613 51.9355 130.968 49.6774C130.968 48.7097 130.968 48.0645 131.613 47.7419L131.936 47.0968L132.903 46.4516C133.461 46.1509 134.095 46.0212 134.726 46.0786C135.357 46.1359 135.957 46.3779 136.452 46.7742C138.387 49.0323 138.71 52.2581 139.032 55.8065V58.3871L139.355 60.3226C140 65.1613 140.968 68.0645 142.581 69.6774C144.194 71.2903 145.807 71.6129 148.71 71.6129C152.258 71.2903 155.161 67.7419 156.774 65.4839V65.1613L157.097 64.5161V63.871H155.484L151.613 64.5161H150C149.032 63.871 148.387 62.5806 148.387 62.5806C147.617 59.958 147.184 57.2481 147.097 54.5161V53.2258C146.452 49.0323 146.129 44.5161 143.871 41.9355C143.226 41.2903 142.581 40.6452 141.936 40.6452C137.42 39.0323 134.516 40.6452 130.645 43.871C130.323 44.5161 130 44.5161 130 44.1936C129.355 43.5484 127.742 41.2903 126.774 40.9677C122.581 38.7097 118.71 40.9677 115.807 43.2258L114.839 43.871L114.194 43.2258C114.194 42.2581 114.194 41.2903 113.226 40.6452C111.613 39.6774 110 40 108.387 40.6452H105.807V44.1936C105.807 44.8387 105.484 45.4839 104.839 45.8065L100.645 48.0645L99.355 47.4194L98.0647 44.1936C97.4195 42.2581 95.8066 40.3226 93.8711 39.6774C92.7611 39.131 91.5565 38.8025 90.3228 38.7097ZM87.0969 43.871H88.7098L90.3228 45.4839L89.6776 47.7419C89.6776 48.7097 90.6453 50 90.9679 50.9677C91.9357 52.5807 93.8711 53.5484 96.1292 53.5484H96.4518V54.5161C96.4518 56.7742 95.484 59.3548 93.226 61.9355C92.2432 62.8478 91.0006 63.4313 89.6709 63.6047C88.3412 63.7782 86.9905 63.533 85.8066 62.9032C83.226 61.2903 81.6131 58.0645 81.2905 54.5161C81.2905 49.0323 82.9034 45.8065 85.8066 43.871H87.0969ZM22.2582 2.58065C17.5608 3.82496 13.1689 6.02087 9.35501 9.03227C6.71706 10.8517 4.53124 13.2517 2.96547 16.0477C1.39971 18.8437 0.495652 21.9614 0.322754 25.1613C0.322754 30 2.25824 34.1936 5.16146 37.4194C8.62607 40.7956 13.2294 42.7521 18.0647 42.9032C20.9995 43.2371 23.96 42.5539 26.4518 40.9677C26.7744 40.6452 26.7744 40 26.4518 39.6774C26.4518 39.0323 26.1292 39.0323 25.484 39.0323H22.5808C18.8697 38.6645 15.4243 36.9418 12.9034 34.1936C10.4723 31.4443 9.20049 27.8603 9.35501 24.1936C9.35501 18.3871 11.6131 13.871 16.4518 10C18.9679 8.1017 21.8105 6.68039 24.8389 5.80646C28.0647 4.51614 30.6453 4.19356 33.8711 4.51614C38.7099 4.51614 41.2905 4.83872 45.8066 6.7742C49.723 8.67866 53.2223 11.3416 56.1018 14.6087C58.9812 17.8757 61.1834 21.6819 62.5808 25.8065C64.1937 30 65.1615 34.5161 65.484 38.7097C65.9883 47.3032 63.3515 55.787 58.0647 62.5806C54.5163 67.0968 50.6453 68.3871 42.9034 68.3871C37.7421 68.3871 34.1937 67.4194 30.0002 65.8065H29.0324L33.5486 61.9355C40.0679 55.2652 44.2547 46.6651 45.484 37.4194C46.6762 30.2775 46.8932 23.0068 46.1292 15.8065L45.8066 14.8387H44.5163C42.5808 15.4839 38.3873 18.0645 37.4195 19.0323V21.2903C37.7448 28.4128 37.3122 35.5496 36.1292 42.5807V43.2258C35.484 46.7742 34.1937 52.5806 31.6131 57.4194C29.355 61.6129 27.0969 63.5484 23.8711 63.871L23.226 63.5484H21.9357C19.0324 64.5161 17.4195 66.7742 16.4518 68.3871C16.4518 69.0323 16.4518 69.6774 17.0969 70L22.2582 71.2903L29.6776 72.2581H30.9679L32.5808 72.5807L37.0969 72.9032C50.6453 72.9032 60.3228 69.3548 67.4195 60.6452C69.355 58.3871 70.6453 55.8065 71.9357 53.2258C73.8711 48.3871 75.1615 43.5484 74.8389 38.3871C74.1937 29.3548 70.3228 20.3226 63.8711 13.5484C58.6137 8.07124 51.9479 4.14965 44.6065 2.21471C37.2651 0.27977 29.5323 0.406391 22.2582 2.58065Z" fill="#0B0B0B"/>
</g>
<defs>
<clipPath id="clip0_71_1492">
<rect width="425.806" height="100" fill="white"/>
</clipPath>
</defs>
</svg>
