<svg width="391" height="90" viewBox="0 0 391 90" fill="none" xmlns="http://www.w3.org/2000/svg">
<g clip-path="url(#clip0_127_2)">
<mask id="mask0_127_2" style="mask-type:luminance" maskUnits="userSpaceOnUse" x="0" y="0" width="391" height="90">
<path d="M391 0H0V90H391V0Z" fill="white"/>
</mask>
<g mask="url(#mask0_127_2)">
<path d="M218.138 33.4051C218.138 37.9051 213.41 42.5851 205.319 47.4525C205.045 47.6325 204.867 47.6325 204.778 47.5425L204.6 47.3625C204.51 47.2725 204.325 47.0851 204.51 46.9051C207.509 43.4176 208.964 40.1101 208.964 37.7251C208.964 35.3401 207.598 34.695 205.691 34.695C201.779 34.695 198.15 38.8276 196.146 47.1825L192.509 62.1524C192.42 62.4301 192.234 62.4301 192.145 62.4301H181.969C181.791 62.4301 181.606 62.4301 181.695 62.0624L189.963 28.5599C190.052 28.2825 190.238 28.2825 190.327 28.2825H201.504C201.683 28.2825 201.779 28.4625 201.683 28.6499L193.956 40.4849C193.778 40.7626 193.867 40.8526 194.045 40.9426L194.223 41.0326C194.402 41.1226 194.498 41.1226 194.765 40.7549L198.038 36.4349C202.492 30.555 205.943 27.3751 211.309 27.3751C216.675 27.3751 218.123 29.9099 218.123 33.4051H218.138ZM128.849 27.3751C115.637 27.3751 106.285 37.6049 106.285 48.4875C106.285 59.3701 112.646 63.3751 121.501 63.3751C130.356 63.3751 134.549 60.9001 139.878 51.2849C139.975 51.1049 139.849 50.9625 139.767 50.9024L139.463 50.6925C139.255 50.5424 139.136 50.5649 139.04 50.6925C137.006 53.2199 132.79 56.8575 126.481 56.8575C120.172 56.8575 117.649 51.7574 118.094 45.6075C118.54 39.2326 122.993 29.4824 128.485 29.4824C133.978 29.4824 132.493 32.5575 132.493 35.8576C132.493 39.1574 132.256 39.3599 131.988 40.6199C131.937 40.8751 131.744 41.0776 131.499 41.1451L120.388 44.3626C120.143 44.4224 120.024 44.5201 119.994 44.7599L119.95 45.135C119.913 45.4124 120.054 45.5326 120.343 45.5326H140.769C141.437 45.5326 141.793 45.2324 141.867 44.9325C142.387 43.2074 142.684 41.4074 142.684 39.6826C142.684 33.0075 138.416 27.3825 128.841 27.3825L128.849 27.3751ZM86.8393 51.5999L85.2807 52.3501C84.9096 52.4999 84.8948 52.8075 84.8354 53.0251C84.4643 54.3751 84.0932 55.7251 83.5737 57.2249C78.1555 73.2751 63.3853 85.05 45.5721 85.05C27.759 85.05 5.7893 67.2001 5.7893 45.1501C5.7893 23.1001 23.5284 5.02499 45.5721 5.02499C67.616 5.02499 76.2258 16.8 81.4953 28.575L49.506 40.3499C49.1348 40.4251 48.7637 40.2001 48.7637 39.7501L46.3143 13.8C46.3143 13.5 46.1659 13.35 45.869 13.35H45.1268C44.8298 13.35 44.6815 13.5 44.6815 13.8L42.2322 39.7501C42.2322 40.2001 41.8611 40.4251 41.49 40.3499L18.4812 33.9001C18.2585 33.8249 18.0359 33.9001 17.9616 34.2L17.6648 34.875C17.5906 35.1749 17.6648 35.325 17.8874 35.4751L36.7397 45.0749C37.0366 45.1501 37.0366 45.5249 36.7397 45.675L18.0359 55.1999C17.8874 55.2751 17.8132 55.5001 17.8874 55.7251L18.1101 56.475C18.2585 56.7749 18.407 56.8501 18.7039 56.7749L41.49 50.4C41.8611 50.3251 42.2322 50.4749 42.2322 51.0001L44.6815 76.95C44.6815 77.2499 44.8298 77.4 45.1268 77.4H45.869C46.1659 77.4 46.3143 77.2499 46.3143 76.95L48.7637 51.0001C48.7637 50.4749 49.1348 50.3251 49.506 50.4L72.5146 56.8501C72.7372 56.925 72.9599 56.8501 73.0341 56.5499L73.331 55.8C73.4052 55.575 73.3311 55.35 73.1083 55.2751L54.3302 45.675C54.0335 45.5249 54.0335 45.1501 54.3302 45.0749L84.3901 30.3001C84.7612 30.15 84.8354 29.7749 84.7612 29.3249C80.8275 14.25 65.4635 0 44.6073 0C23.7509 0 0 20.025 0 45.0749C0 70.1251 19.2234 90 44.6073 90C69.991 90 80.9759 76.1249 86.0229 58.05C86.5426 56.0999 87.2104 53.1 87.2104 51.8249C87.2104 50.5501 87.0621 51.525 86.8393 51.5999ZM183.877 28.2751H173.79C173.612 28.2751 173.426 28.2751 173.337 28.5525L169.248 45.5249C167.429 53.055 163.065 57.1876 158.434 57.1876C153.802 57.1876 154.797 56.0851 154.797 53.9701C154.797 51.8551 154.886 52.3199 155.16 51.03L160.705 28.6351C160.794 28.2674 160.527 28.2674 160.43 28.2674H150.254C150.165 28.2674 149.98 28.2674 149.891 28.5451L144.532 50.2949C144.168 51.6751 143.716 53.5124 143.716 55.44C143.716 59.94 146.625 63.3674 152.533 63.3674C158.441 63.3674 163.622 59.8426 167.437 54.8849L168.981 52.8676C169.255 52.4999 169.344 52.4999 169.522 52.5899L169.701 52.6799C169.879 52.7699 169.975 52.8599 169.79 53.1376L164.431 62.0476C164.342 62.2276 164.431 62.415 164.609 62.415H175.512C175.601 62.415 175.787 62.415 175.876 62.1376L184.144 28.6351C184.233 28.2674 183.966 28.2674 183.869 28.2674L183.877 28.2751ZM254.505 41.625C254.505 53.8499 245.005 63.3751 231.794 63.3751C218.583 63.3751 216.802 58.4251 216.802 49.1249C216.802 39.825 226.376 27.3751 239.513 27.3751C252.651 27.3751 254.505 32.3251 254.505 41.625ZM243.892 36.0749C243.892 31.5 241.888 29.5499 239.069 29.5499C234.987 29.5499 231.87 33.3 229.866 40.8751C228.453 46.2751 227.415 51.0001 227.415 54.675C227.415 58.3499 229.419 61.2 232.241 61.2C236.323 61.2 239.439 57.375 241.444 49.8751C242.927 44.4751 243.892 39.7501 243.892 36.0749ZM384.179 27.3751C378.821 27.3751 375.362 30.555 370.907 36.4349L367.636 40.7549C367.361 41.1226 367.272 41.1226 367.093 41.0326L366.914 40.9426C366.738 40.8526 366.64 40.7626 366.825 40.4849L374.553 28.6499C374.641 28.4699 374.553 28.2825 374.375 28.2825H363.197C363.107 28.2825 362.922 28.2825 362.832 28.5599L354.565 62.0624C354.476 62.4301 354.653 62.4301 354.838 62.4301H365.015C365.105 62.4301 365.29 62.4301 365.379 62.1524L369.015 47.1825C371.012 38.8276 374.65 34.695 378.56 34.695C382.472 34.695 381.833 35.7075 381.833 37.7251C381.833 39.7424 380.378 43.4176 377.38 46.9051C377.203 47.0851 377.38 47.2725 377.469 47.3625L377.648 47.5425C377.737 47.6325 377.923 47.6325 378.189 47.4525C386.279 42.5851 391.007 37.9051 391.007 33.4051C391.007 28.9051 388.462 27.3751 384.194 27.3751H384.179ZM275.362 27.3751C265.047 27.3751 259.479 32.3251 259.479 38.475C259.479 44.6249 261.928 45.45 267.051 47.7749L272.393 50.3251C276.848 52.3501 277.961 53.8499 277.961 55.8749C277.961 58.8751 275.362 61.1251 270.241 61.1251C265.12 61.1251 263.711 59.1001 263.711 56.0999C263.711 53.1 264.682 52.7175 266.086 51.0001C266.226 50.8275 266.166 50.625 265.945 50.625H256.177C255.953 50.625 255.886 50.7449 255.806 50.9249C255.546 51.48 255.249 52.7699 255.249 53.8499C255.249 59.4 260.073 63.3751 269.721 63.3751C279.371 63.3751 287.311 57.8999 287.311 51.4501C287.311 45 285.233 45.1501 279.297 42.3749L273.879 39.8999C270.465 38.3249 269.129 36.7499 269.129 34.65C269.129 32.5501 271.504 29.6251 275.512 29.6251C279.518 29.6251 281.522 32.1001 281.522 35.1749C281.522 38.25 281.1 37.8074 280.416 39.0076C280.313 39.195 280.336 39.4499 280.669 39.4499H289.686C289.983 39.4499 290.059 39.3001 290.059 38.9999C290.504 34.0499 286.272 27.3751 275.362 27.3751ZM354.684 38.1751C354.684 39.6749 354.528 41.1599 354.016 43.2L349.205 62.1225C349.132 62.4224 348.908 62.4224 348.835 62.4224H337.925C337.775 62.4224 337.701 62.1974 337.775 62.0476L343.119 53.1C343.253 52.8824 343.238 52.7249 343.046 52.65L342.822 52.5751C342.592 52.4999 342.407 52.5449 342.23 52.8001L340.744 54.8251C336.886 59.7751 332.321 63.3751 326.011 63.3751C319.702 63.3751 317.105 59.9249 317.105 55.2751C317.105 48.2249 324.045 44.7001 330.353 43.8001C335.141 43.1174 340.729 42.2476 343.106 41.9326C343.477 41.8799 343.787 41.6176 343.899 41.2576C344.583 39.0449 345.273 36.7949 345.273 34.7326C345.273 31.8076 343.937 29.6325 339.558 29.6325C335.179 29.6325 333.174 31.7324 333.174 36.3076C333.174 40.8825 333.248 38.1076 333.472 39.1574C333.472 39.3075 333.396 39.4576 333.174 39.4576H322.486C322.412 39.4576 322.278 39.4049 322.262 39.2326C321.603 32.76 327.68 27.3825 340.002 27.3825C352.322 27.3825 354.684 33.0149 354.684 38.1825V38.1751ZM342.681 44.2575C334.184 45.7801 328.134 48.4949 328.134 52.9126C328.134 57.33 330.397 56.8501 332.699 56.8501C337.375 56.8501 340.469 52.3575 343.017 44.64C343.119 44.3324 342.896 44.2199 342.681 44.2575ZM314.469 53.2424L314.196 53.0624C314.018 52.9499 313.922 52.9724 313.743 53.1524C312.288 54.6226 309.29 56.8276 306.566 56.8276C303.841 56.8276 303.293 55.5451 303.293 53.6101C303.293 51.6751 303.47 51.5925 303.834 50.3926L309.379 31.2901H318.924C319.101 31.2901 319.286 31.2901 319.375 31.0124L320.015 28.6425C320.104 28.2751 319.836 28.2751 319.74 28.2751H310.105L313.014 18.8925C313.104 18.615 312.925 18.525 312.74 18.525H312.103C311.924 18.525 311.739 18.525 311.56 18.8025C307.286 25.2299 301.926 28.4474 293.57 29.8199L293.027 29.9099C292.3 29.9999 292.3 30.0899 292.211 30.3676L292.122 30.825C292.032 31.2824 292.397 31.2824 292.486 31.2824H298.208L292.752 50.1975C292.115 52.4025 291.751 54.2401 291.751 55.8C291.751 60.6674 295.478 63.36 300.295 63.36C308.11 63.36 313.289 55.5226 314.558 53.685C314.686 53.4976 314.677 53.3626 314.469 53.2276V53.2424Z" fill="#0B0B0B"/>
</g>
</g>
<defs>
<clipPath id="clip0_127_2">
<rect width="391" height="90" fill="white"/>
</clipPath>
</defs>
</svg>
