<svg width="300" height="67" viewBox="0 0 300 67" fill="none" xmlns="http://www.w3.org/2000/svg">
<g clip-path="url(#clip0_253_127)">
<mask id="mask0_253_127" style="mask-type:luminance" maskUnits="userSpaceOnUse" x="0" y="6" width="299" height="61">
<path d="M298.45 6.66696H0.354492V66.667H298.45V6.66696Z" fill="white"/>
</mask>
<g mask="url(#mask0_253_127)">
<path fill-rule="evenodd" clip-rule="evenodd" d="M42.9026 60.246H11.3619C5.29373 60.246 0.354492 55.3067 0.354492 49.2149V17.6743C0.354492 11.6062 5.29373 6.66696 11.3619 6.66696H42.9026C48.9942 6.66696 53.91 11.6062 53.91 17.6743V49.2149C53.9335 55.3067 48.9942 60.246 42.9026 60.246ZM16.7208 49.8274V44.6294C16.7208 44.206 16.3915 43.8767 15.9682 43.8767H10.7702C10.3469 43.8767 10.0176 44.206 10.0176 44.6294V49.8274C10.0176 50.2508 10.3469 50.58 10.7702 50.58H15.9682C16.3915 50.58 16.7208 50.2508 16.7208 49.8274ZM44.2688 19.744V45.3575C44.2688 45.8749 44.0805 46.1806 43.7749 46.51L38.6239 51.6373C38.2475 52.0136 37.6831 51.7549 37.6831 51.1904V28.023L23.3122 42.3939C23.077 42.6526 22.8183 42.7702 22.3715 42.7702H18.5846C18.1378 42.7702 17.832 42.4644 17.832 42.0176V38.2308C17.832 37.8074 17.9496 37.5487 18.2083 37.29L32.5793 22.9192H9.41181C8.84731 22.9192 8.58859 22.3546 8.96492 21.9783L14.0688 16.8274C14.3981 16.4982 14.7038 16.31 15.2212 16.31H40.8347C42.74 16.31 44.2688 17.8388 44.2688 19.744Z" fill="#0B0B0B"/>
<path d="M122.025 38.7484L132.515 24.26C132.821 23.8131 132.586 23.3661 132.068 23.3661H126.353C126.047 23.3661 125.647 23.4838 125.459 23.8131L118.544 33.9033L111.464 23.8131C111.276 23.5072 110.9 23.3661 110.571 23.3661H104.479C104.173 23.3661 103.961 23.6248 103.961 23.8836C103.961 24.0013 103.961 24.1423 104.079 24.26L114.593 38.7955L102.997 54.7421C102.691 55.1889 102.927 55.6359 103.373 55.6359H109.136C109.442 55.6359 109.842 55.5183 110.03 55.1889L118.05 43.6406L126.188 55.1889C126.376 55.5183 126.752 55.6359 127.082 55.6359H133.221C133.526 55.6359 133.738 55.3772 133.738 55.1184C133.738 55.0009 133.667 54.8597 133.62 54.7421L122.025 38.7484Z" fill="#0B0B0B"/>
<path d="M98.5989 11.2533C99.0458 11.2533 99.3515 11.5591 99.3515 12.006V16.3102C99.3515 16.757 99.0458 17.0628 98.5989 17.0628H78.1128V29.8577H96.5057C96.9525 29.8577 97.2583 30.1636 97.2583 30.6105V34.8911C97.2583 35.338 96.9525 35.6437 96.5057 35.6437H78.1128V49.6619H98.5989C99.0458 49.6619 99.3515 49.9675 99.3515 50.4145V54.8597C99.3515 55.3067 99.0458 55.6123 98.5989 55.6123H74.6318C72.7973 55.6123 71.4097 54.2247 71.4097 52.3901V14.4756C71.4097 12.641 72.7973 11.2533 74.6318 11.2533H98.5989Z" fill="#0B0B0B"/>
<path d="M155.328 22.355C149.119 22.355 145.825 25.0833 143.921 27.6236V24.119C143.921 23.6721 143.616 23.3664 143.169 23.3664H138.158C137.712 23.3664 137.406 23.6956 137.406 24.119V65.8908C137.406 66.3377 137.712 66.6436 138.158 66.6436H143.238C143.685 66.6436 143.991 66.3377 143.991 65.8908V51.4965C145.825 54.0366 149.119 56.5769 155.328 56.5769C165.418 56.5769 171.298 48.9799 171.298 39.4542C171.298 29.9285 165.418 22.355 155.328 22.355ZM154.199 51.1201C147.99 51.1201 143.733 46.9336 143.733 39.5247C143.733 32.1159 147.99 27.7881 154.199 27.7881C160.408 27.7881 164.596 32.0923 164.596 39.5247C164.596 46.9336 160.408 51.1201 154.199 51.1201Z" fill="#0B0B0B"/>
<path d="M191.29 22.355C182.471 22.355 175.438 28.7054 175.438 39.219C175.438 49.9912 181.647 56.6004 192.113 56.6004C198.134 56.6004 203.144 53.9426 206.249 50.2499C206.437 50.0617 206.507 49.8736 206.507 49.6854C206.507 49.4973 206.437 49.3091 206.249 49.121L203.333 46.2515C203.144 46.0633 202.956 45.9928 202.768 45.9928C202.58 45.9928 202.391 46.1104 202.204 46.2986C199.804 48.9092 196.676 51.1201 192.184 51.1201C185.621 51.1201 182.471 47.0748 181.976 41.2417H206.319C206.766 41.2417 207.072 40.9123 207.072 40.4891V39.219C207.072 29.5756 201.239 22.355 191.29 22.355ZM182.211 36.3024C182.964 31.0104 185.739 27.5529 191.244 27.5529C196.888 27.5529 199.875 30.7752 200.298 36.3024H182.211Z" fill="#0B0B0B"/>
<path d="M297.719 23.3657H292.709C292.262 23.3657 291.956 23.6715 291.956 24.1183V27.6699C290.051 25.1297 286.759 22.4014 280.408 22.4014C270.459 22.4014 264.556 29.9984 264.556 39.5241C264.556 49.0498 270.459 56.6468 280.408 56.6468C286.759 56.6468 290.051 53.9184 291.956 51.3783V54.8593C291.956 55.3061 292.262 55.6119 292.709 55.6119H297.719C298.166 55.6119 298.472 55.3061 298.472 54.8593V24.1183C298.495 23.6715 298.166 23.3657 297.719 23.3657ZM281.678 51.1901C275.469 51.1901 271.282 46.886 271.282 39.4535C271.282 32.0447 275.469 27.858 281.678 27.858C287.888 27.858 292.144 32.0447 292.144 39.4535C292.144 46.886 287.888 51.1901 281.678 51.1901Z" fill="#0B0B0B"/>
<path d="M244.356 11.2533H239.275C238.828 11.2533 238.523 11.5591 238.523 12.006V27.6704C236.617 25.1302 233.396 22.4019 227.045 22.4019C217.096 22.4019 211.193 29.9989 211.193 39.5245C211.193 49.0502 217.096 56.6472 227.045 56.6472C233.396 56.6472 236.688 53.919 238.593 51.3787V54.8597C238.593 55.3067 238.899 55.6123 239.346 55.6123H244.356C244.803 55.6123 245.108 55.3067 245.108 54.8597V12.006C245.108 11.5591 244.803 11.2533 244.356 11.2533ZM228.315 51.1906C222.106 51.1906 217.919 46.8864 217.919 39.4541C217.919 32.0451 222.106 27.8586 228.315 27.8586C234.525 27.8586 238.782 32.0451 238.782 39.4541C238.782 46.8864 234.525 51.1906 228.315 51.1906Z" fill="#0B0B0B"/>
<path d="M258.161 11.2533C258.608 11.2533 258.913 11.5591 258.913 12.006V17.204C258.913 17.6508 258.608 17.9566 258.161 17.9566H252.963C252.516 17.9566 252.211 17.6508 252.211 17.204V12.006C252.211 11.5591 252.516 11.2533 252.963 11.2533H258.161Z" fill="#0B0B0B"/>
<path d="M258.11 23.3661C258.557 23.3661 258.862 23.6719 258.862 24.1189V54.8597C258.862 55.3065 258.557 55.6123 258.11 55.6123H253.03C252.583 55.6123 252.276 55.3065 252.276 54.8597V24.1189C252.276 23.6719 252.583 23.3661 253.03 23.3661H258.11Z" fill="#0B0B0B"/>
</g>
</g>
<defs>
<clipPath id="clip0_253_127">
<rect width="300" height="66.6667" fill="white"/>
</clipPath>
</defs>
</svg>
