<svg width="316" height="68" viewBox="0 0 316 68" fill="none" xmlns="http://www.w3.org/2000/svg">
<g clip-path="url(#clip0_106_2)">
<path d="M14.7081 26.0884C19.2463 23.9938 24.0404 22.7139 28.7414 22.1553C29.2534 22.0855 29.4628 22.4346 29.4163 22.8302C28.8112 26.4374 28.4156 30.1145 28.2527 33.7915C28.2061 34.2104 27.9967 34.4897 27.5079 34.5828C24.9014 35.0948 22.3648 35.886 19.5488 37.166C22.0622 41.5412 25.1342 45.5673 28.4854 48.9186C28.881 49.3142 29.0905 49.7331 29.2068 50.4313C30.0912 56.0632 31.6039 61.7417 33.6519 67.1176C33.7682 67.4201 33.7682 67.6296 33.6053 67.7925C33.4191 67.9787 33.1166 67.9787 32.8373 67.7925C12.474 55.4581 0.209451 33.2562 0 9.96058C0 9.40204 0.186179 8.98314 0.674899 8.72714C11.4733 2.65305 23.6215 -0.256001 35.8162 -4.25894e-06C36.3515 -4.25894e-06 36.5609 0.488716 36.3515 0.930892C34.6758 4.42175 33.2562 7.98243 32.1624 11.5431C32.0461 11.962 31.7668 12.1715 31.3246 12.1947C24.8084 12.5205 18.455 14.01 12.6369 16.4303C13.0558 19.735 13.7772 22.9931 14.7314 26.1116L14.7081 26.0884ZM37.2358 12.218C36.8402 12.1715 36.5609 11.8224 36.6773 11.4035C37.9572 7.67989 39.4234 4.18903 41.099 0.930892C41.2852 0.535261 41.6343 0.395626 42.0765 0.442171C51.2691 1.46616 59.9496 4.37521 67.6993 8.70387C68.1648 8.95987 68.3742 9.37877 68.3742 9.93731C68.2113 31.9995 57.1802 53.0843 38.5856 65.8609C38.2365 66.1169 37.7711 65.9772 37.6314 65.5583C36.2816 61.9278 35.1878 58.2508 34.3966 54.6901C34.2802 54.2247 34.3966 53.8523 34.7689 53.573C46.0328 44.7063 53.8988 31.4643 55.8072 16.407C50.0822 14.0333 43.8684 12.5671 37.2824 12.218H37.2358ZM84.8744 17.0121C84.8744 16.663 85.1071 16.4303 85.4562 16.4303H112.196C112.522 16.4303 112.778 16.7794 112.662 17.0819L110.265 23.7146C110.125 24.0869 109.869 24.2498 109.473 24.2498H93.1128V31.4177H106.75C107.076 31.4177 107.332 31.7668 107.216 32.0694L104.865 38.5624C104.726 38.958 104.47 39.1209 104.074 39.1209H93.1128V51.1527C93.1128 51.5018 92.8801 51.7345 92.531 51.7345H85.4562C85.1071 51.7345 84.8744 51.5018 84.8744 51.1527V17.0121ZM120.784 16.9656C120.923 16.5932 121.179 16.4303 121.575 16.4303H131.047C131.442 16.4303 131.698 16.5932 131.838 16.9656L144.242 51.1062C144.359 51.4087 144.103 51.7578 143.777 51.7578H136.283C135.887 51.7578 135.655 51.5716 135.515 51.1993L133.141 44.3106H119.434L117.06 51.1993C116.944 51.5716 116.688 51.7578 116.292 51.7578H108.891C108.566 51.7578 108.31 51.4087 108.426 51.1062L120.83 16.9656H120.784ZM130.488 36.6075L126.276 24.3895L122.064 36.6075H130.512H130.488ZM147.71 17.0121C147.71 16.663 147.943 16.4303 148.292 16.4303H156.507C156.926 16.4303 157.182 16.5699 157.391 16.9423L169.702 37.8642V17.0121C169.702 16.663 169.935 16.4303 170.284 16.4303H177.219C177.568 16.4303 177.801 16.663 177.801 17.0121V51.176C177.801 51.5251 177.568 51.7578 177.219 51.7578H169.097C168.678 51.7578 168.422 51.6182 168.213 51.2458L155.809 30.161V51.176C155.809 51.5251 155.576 51.7578 155.227 51.7578H148.292C147.943 51.7578 147.71 51.5251 147.71 51.176V17.0121ZM197.955 43.9383C203.563 43.9383 207.799 39.7027 207.799 34.0941C207.799 28.4854 203.563 24.2498 197.955 24.2498H185.388C185.039 24.2498 184.806 24.0171 184.806 23.668V17.0121C184.806 16.663 185.039 16.4303 185.388 16.4303H197.955C208.311 16.4303 216.061 24.0171 216.061 34.0941C216.061 44.171 208.311 51.7578 197.955 51.7578H185.388C185.039 51.7578 184.806 51.5251 184.806 51.176V34.6526C184.806 32.4417 185.504 30.7196 186.761 29.4628C187.901 28.3225 189.67 27.5778 191.229 27.5778H192.463C192.812 27.5778 193.044 27.8105 193.044 28.1596V43.915H197.955V43.9383ZM221.134 37.8176V17.0121C221.134 16.663 221.367 16.4303 221.716 16.4303H228.791C229.14 16.4303 229.373 16.663 229.373 17.0121V37.8176C229.373 41.8205 232.165 44.6132 236.168 44.6132C240.171 44.6132 242.964 41.8438 242.964 37.8176V17.0121C242.964 16.663 243.196 16.4303 243.545 16.4303H250.62C250.969 16.4303 251.202 16.663 251.202 17.0121V37.8176C251.202 46.4982 245.081 52.4327 236.168 52.4327C227.255 52.4327 221.134 46.4982 221.134 37.8176ZM282.061 30.0912C282.41 30.0912 282.643 30.3239 282.643 30.673V37.2126C282.643 37.5616 282.41 37.7944 282.061 37.7944H266.445V43.915H283.015C283.364 43.915 283.597 44.1477 283.597 44.4968V51.1527C283.597 51.5018 283.364 51.7345 283.015 51.7345H258.789C258.44 51.7345 258.207 51.5018 258.207 51.1527V17.0121C258.207 16.663 258.44 16.4303 258.789 16.4303H283.015C283.364 16.4303 283.597 16.663 283.597 17.0121V23.668C283.597 24.0171 283.364 24.2498 283.015 24.2498H266.445V30.0912H282.061ZM298.747 43.9383H315.038C315.387 43.9383 315.62 44.171 315.62 44.5201V51.176C315.62 51.5251 315.387 51.7578 315.038 51.7578H291.091C290.742 51.7578 290.509 51.5251 290.509 51.176V17.0121C290.509 16.663 290.742 16.4303 291.091 16.4303H298.166C298.515 16.4303 298.747 16.663 298.747 17.0121V43.9383Z" fill="#0B0B0B"/>
</g>
<defs>
<clipPath id="clip0_106_2">
<rect width="315.62" height="67.9554" fill="white"/>
</clipPath>
</defs>
</svg>
