<svg width="390" height="57" viewBox="0 0 390 57" fill="none" xmlns="http://www.w3.org/2000/svg">
<path d="M41.6192 0C37.5915 0 33.7876 0.222431 29.9837 0.444862C19.6908 1.11216 9.8454 3.11404 0 5.33835L8.50285 15.3478C15.2156 14.0132 21.7046 12.6786 28.1936 12.2337C25.061 24.4675 18.3482 35.1442 8.50285 42.4844V56.4976C25.061 47.1554 36.9202 30.6955 40.5004 11.7889C41.3954 8.00753 41.6192 4.00376 41.6192 0Z" fill="#0B0B0B"/>
<path d="M87.9375 5.56077C77.8684 2.89159 68.2468 1.33457 57.9538 0.667274C54.1499 0.444843 50.1223 0.222412 46.3184 0.222412C46.3184 4.22618 46.5421 8.00751 47.2134 11.7888C50.7935 30.6955 62.429 46.933 79.2109 56.4975V42.4844C69.1418 35.1441 62.429 24.4674 59.5202 12.4561C66.2329 12.901 72.7219 14.0132 79.2109 15.5702L87.9375 5.56077Z" fill="#0B0B0B"/>
<path d="M38.4863 56.72L49.2268 44.7087V31.5852H38.4863V56.72Z" fill="#0B0B0B"/>
<path d="M100.692 1.77942V54.9405H113.894V34.2544H134.48V22.688H113.894V12.901H142.088V1.77942H100.692Z" fill="#0B0B0B"/>
<path d="M186.617 14.2355C187.959 15.1252 188.407 16.6822 188.407 18.9065V54.9404H201.832V14.9027C201.832 10.0093 200.266 6.45036 196.909 4.22604C194.448 2.66902 191.539 1.7793 187.735 1.7793H150.591V54.9404H164.017V12.9009H181.246C183.708 12.9009 185.498 13.3457 186.617 14.2355Z" fill="#0B0B0B"/>
<path d="M248.822 54.9404H262.247V1.7793H224.208C215.258 1.7793 211.006 5.56063 211.006 13.5682V54.9404H224.432V41.5945H249.045L248.822 54.9404ZM224.208 29.3608V18.6841C224.208 14.9027 225.998 12.9009 229.355 12.9009H248.598V29.3608H224.208Z" fill="#0B0B0B"/>
<path d="M318.41 1.7793H273.435L269.854 12.9009H287.308V54.9404H300.733V12.9009H314.159L318.41 1.7793Z" fill="#0B0B0B"/>
<path d="M324.675 1.7793H338.101V54.9404H324.675V1.7793Z" fill="#0B0B0B"/>
<path fill-rule="evenodd" clip-rule="evenodd" d="M349.065 5.78294C347.723 7.56239 346.828 10.2316 346.828 13.568V41.8168C346.828 46.2654 348.394 49.6019 351.303 51.8262C353.988 53.8281 357.121 54.9403 360.924 54.9403H389.789V44.486H365.176C362.938 44.486 360.253 43.5963 360.253 38.7028V17.7942C360.253 16.4596 360.701 15.3475 361.596 14.4578C362.491 13.568 363.61 13.1232 365.176 13.1232H385.09L389.118 2.00161H361.148C355.107 1.77917 351.079 3.11376 349.065 5.78294Z" fill="#0B0B0B"/>
</svg>
