<svg width="400" height="57" viewBox="0 0 400 57" fill="none" xmlns="http://www.w3.org/2000/svg">
<g clip-path="url(#clip0_69_686)">
<path d="M45.1 38.7C44 43.4 42.2 47.1 39.7 49.8C37.3 52.5 33.9 53.8 29.6 53.8H16.6V3.20002H25V1.40002H0V3.30002H8.3V53.9H0V55.7H46.7V38.4H45.2L45.1 38.7Z" fill="#0B0B0B"/>
<path d="M96.5 38.7C96.3 40.2 95.9 41.6 95.5 43C94.9 44.8 94.1 46.4 93 48C91.8 49.6 90.3 51 88.6 52.1C86.6 53.3 84.3 53.9 81.9 53.8H68.1V27.5H73.8C75.3 27.4 76.7 27.7 78 28.4C79 29 79.9 29.8 80.6 30.8C81.3 31.9 81.8 33.1 82.1 34.3C82.5 35.6 82.8 37.1 83.2 38.5L83.3 38.8H84.8V14.6H83.3L83.2 14.9C82.8 16.8 82.2 18.6 81.5 20.4C81 21.6 80.4 22.7 79.5 23.6C78.7 24.4 77.8 24.9 76.7 25.2C75.4 25.5 74 25.7 72.6 25.6H68.1V3.20002H80.1C81.8 3.20002 83.6 3.40002 85.2 3.90002C86.5 4.40002 87.8 5.10002 88.8 6.10002C89.9 7.20002 90.8 8.40002 91.4 9.70002C92.2 11.3 92.9 13 93.5 14.8L93.6 15.1H95.1V1.40002H51.5V3.30002H59.8V53.9H51.5V55.7H98.1V38.4H96.5V38.7Z" fill="#0B0B0B"/>
<path d="M141.6 28C140.3 27 138.8 26.2 137.2 25.7C135.7 25.2 134.5 24.8 133.6 24.5L124.5 21.7C123.2 21.3 121.9 20.8 120.7 20.3C119.5 19.8 118.4 19.2 117.3 18.4C116.3 17.7 115.5 16.7 114.9 15.7C114.3 14.5 113.9 13.2 114 11.8C113.9 10.1 114.3 8.5 115.2 7.1C116 5.9 117 4.8 118.2 4.1C119.4 3.3 120.7 2.8 122.1 2.5C123.4 2.2 124.7 2 126 2C127.9 2 129.8 2.3 131.5 3.1C133 3.8 134.4 4.8 135.5 6.1C136.6 7.4 137.6 8.8 138.2 10.4C138.9 12 139.4 13.7 139.7 15.5L139.8 15.8H141.4V1.4H139.7L139.6 1.6C139.4 2 139.1 2.4 138.8 2.8C138.5 3 138.1 3 137.7 3C137 3 136.4 2.9 135.8 2.6L133.5 1.6C132.5 1.2 131.4 0.8 130.4 0.6C129 0.1 127.5 0 126 0C123.7 0 121.4 0.4 119.2 1.2C117.2 2 115.4 3.1 113.8 4.6C112.3 6.1 111.1 7.8 110.3 9.7C109.5 11.7 109 13.9 109.1 16.1C109.1 19.6 110.2 22.5 112.3 24.6C114.4 26.7 117.6 28.4 121.7 29.7L130.3 32.3C131.4 32.6 132.5 33 133.6 33.6C134.8 34.1 135.8 34.8 136.8 35.7C137.8 36.6 138.6 37.6 139.2 38.8C139.9 40.1 140.2 41.6 140.1 43.1C140.1 44.4 139.9 45.7 139.5 46.9C139.1 48.3 138.4 49.6 137.5 50.7C136.4 52 135.1 53 133.6 53.6C131.6 54.4 129.4 54.8 127.2 54.8C126.3 54.8 125.2 54.8 124.2 54.7C123.1 54.6 122 54.5 120.9 54.2C119.7 53.9 118.6 53.4 117.5 52.8C116.3 52.1 115.2 51.2 114.3 50.1C113.2 48.7 112.2 47.2 111.5 45.6C110.5 43.4 109.8 41.2 109.4 38.9L109.3 38.6H107.7V55.6H109.5L109.6 55.4C109.7 55 110 54.6 110.2 54.3C110.3 54.2 110.7 54 111.4 54C112.4 54 113.4 54.2 114.3 54.6C115.4 55 116.5 55.3 117.5 55.7C118.3 55.9 119.1 56.1 119.9 56.3C120.6 56.4 121.3 56.5 122 56.6C122.7 56.7 123.5 56.8 124.3 56.8C125.1 56.8 126 56.8 127.1 56.8C129.9 56.8 132.6 56.3 135.2 55.3C137.5 54.4 139.6 53 141.3 51.3C142.9 49.7 144.2 47.7 145.1 45.6C146 43.4 146.5 41.1 146.4 38.7C146.5 36.4 146 34.2 144.9 32.2C144.3 30.5 143 29.1 141.6 28Z" fill="#0B0B0B"/>
<path d="M225.1 12.9C223.6 10.6 221.7 8.6 219.5 7C217.1 5.2 214.4 3.8 211.5 2.9C210.4 2.5 209.4 2.2 208.5 2C207.5 1.8 206.5 1.6 205.5 1.5C204.5 1.4 203.3 1.3 202.2 1.2C200.4 1.1 198.2 1.1 196 1.2C195.3 1.2 194.6 1.2 193.9 1.2C193.2 1.2 192.5 1.3 191.8 1.3C191.1 1.3 190.4 1.3 189.7 1.3H175.3V3.2H183.6V53.8H175.3V55.6H188.5C189.2 55.6 190 55.6 190.9 55.6C191.8 55.6 192.6 55.7 193.4 55.7C194.3 55.8 195.1 55.8 196 55.8C196.9 55.8 197.7 55.8 198.4 55.8C200.1 55.8 201.7 55.8 203.1 55.7C204.5 55.6 205.7 55.5 206.9 55.4C208 55.3 209.2 55 210.3 54.7C211.5 54.4 212.6 53.9 213.7 53.4C215.9 52.5 218 51.3 219.8 49.8C221.7 48.3 223.4 46.5 224.8 44.5C226.3 42.3 227.4 39.9 228.2 37.4C229 34.5 229.5 31.4 229.4 28.4C229.4 25.6 229.1 22.8 228.4 20.1C227.7 17.6 226.6 15.1 225.1 12.9ZM219.9 28.8C219.9 31.9 219.6 35 219 38C218.3 40.9 217.2 43.6 215.7 46.2C214.8 47.8 213.6 49.2 212.2 50.3C210.9 51.3 209.5 52.1 208 52.7C206.5 53.3 204.9 53.6 203.3 53.8C201.6 54 200 54.1 198.3 54.1C196.9 54.1 195.7 54.1 194.6 54C193.6 54 192.8 53.9 192 53.8V3.2L194.6 3.1C195.6 3 196.8 3 198 3C201.6 2.9 205.1 3.5 208.4 4.8C211 5.9 213.4 7.7 215.1 10C216.9 12.4 218.1 15.2 218.7 18.1C219.6 21.6 220 25.2 219.9 28.8Z" fill="#0B0B0B"/>
<path d="M281.6 38.7C281.4 40.2 281 41.6 280.6 43C280 44.8 279.2 46.4 278.1 48C276.9 49.6 275.4 51 273.7 52.1C271.7 53.3 269.4 53.9 267 53.8H253.2V27.5H258.9C260.4 27.4 261.8 27.7 263.1 28.4C264.1 29 265 29.8 265.7 30.8C266.4 31.9 266.9 33.1 267.2 34.3C267.6 35.6 267.9 37.1 268.3 38.5L268.4 38.8H269.9V14.6H268.4L268.3 14.9C267.9 16.8 267.3 18.6 266.6 20.4C266.1 21.6 265.5 22.7 264.6 23.6C263.8 24.4 262.9 24.9 261.8 25.2C260.5 25.5 259.1 25.7 257.7 25.6H253.2V3.20002H265.2C266.9 3.20002 268.7 3.40002 270.3 3.90002C271.7 4.40002 272.9 5.10002 273.9 6.10002C275 7.20002 275.9 8.40002 276.5 9.80002C277.3 11.4 278 13.1 278.6 14.9L278.7 15.2H280.2V1.40002H236.5V3.30002H244.8V53.9H236.5V55.7H283.1V38.4H281.5L281.6 38.7Z" fill="#0B0B0B"/>
<path d="M324.9 3.20002H333.3V37.7C333.3 39.2 333.2 40.7 333.1 42.2C333 43.2 332.8 44.3 332.5 45.3C332.3 46.1 332 46.8 331.6 47.5C331.2 48.2 330.8 48.8 330.3 49.4C329 51.3 327.1 52.8 324.9 53.7C322.6 54.5 320.1 55 317.6 54.9C315.8 54.9 314.1 54.7 312.4 54.1C310.9 53.6 309.6 52.7 308.7 51.5C307.6 50.1 306.8 48.4 306.4 46.6C305.8 44.1 305.6 41.6 305.6 39.1V3.20002H313.9V1.40002H288.9V3.30002H297.2V38.4C297.2 44.6 298.8 49.3 302.1 52.3C305.4 55.3 310.1 56.8 316.2 56.8C320.2 56.8 323.4 56.2 325.9 55.1C328.2 54.1 330.2 52.6 331.7 50.6C333 49 334 47.1 334.6 45.1C335.1 43.2 335.3 41.2 335.3 39.2V3.20002H343.6V1.40002H325V3.20002H324.9Z" fill="#0B0B0B"/>
<path d="M393.6 53.8L375.1 23.6L387.4 3.20002H394.8V1.40002H378.4V3.20002H385.3L374 21.8L362.7 3.20002H369.6V1.40002H346.4V3.20002H352.8L368.6 29.1L353.8 53.8H346.4V55.7H362.9V53.8H356L369.6 30.9L383.6 53.8H376.7V55.7H400V53.8H393.6Z" fill="#0B0B0B"/>
</g>
<defs>
<clipPath id="clip0_69_686">
<rect width="400" height="56.8" fill="white"/>
</clipPath>
</defs>
</svg>
