<svg width="347" height="104" viewBox="0 0 347 104" fill="none" xmlns="http://www.w3.org/2000/svg">
<g clip-path="url(#clip0_69_415)">
<path d="M45.9553 0.132004L2.72729 23.6333L45.9553 48.682L62.4577 39.0876L55.4904 35.0573L45.953 40.6214L16.9263 23.7744L45.953 8.02645L48.8238 9.60579L75.0094 23.829L82.1613 27.7273L89.2198 23.6333L45.9507 0.132004H45.9553Z" fill="#0B0B0B"/>
<path d="M0.022784 76.8212L43.768 103.884V52.4711L27.0583 42.7902V50.8485L36.8235 56.5105V91.3584L6.96734 72.8455V31.1363L0 27.0969L0.0205056 76.8235L0.022784 76.8212Z" fill="#0B0B0B"/>
<path d="M86.6133 30.1668L48.1221 52.5029V72.1059L55.078 68.0756V56.5423L84.9341 39.2264V72.9866L55.078 91.4995L48.1221 95.7801V103.97L91.8696 76.9077V27.0946L86.6133 30.1668Z" fill="#0B0B0B"/>
<path d="M142.124 51.0078H162.662V51.3787C162.662 59.8831 160.124 66.824 155.268 71.5233C150.115 76.5208 143.99 77.8657 138.31 77.8657C131.067 77.8657 125.913 75.7789 121.352 71.0796C116.497 66.0798 113.959 59.4393 113.959 52.2799C113.959 44.5197 117.096 37.8041 121.202 33.7033C125.458 29.3749 132.259 26.2412 139.951 26.2412C144.435 26.2412 149.062 27.2107 152.947 29.3749C157.052 31.6893 159.59 34.5999 161.017 36.8392L154.965 41.088C153.468 39.0011 151.231 36.7596 148.841 35.4214C146.075 33.7829 143.088 33.255 140.03 33.255C133.53 33.255 129.352 35.9403 126.884 38.4049C123.599 41.6865 121.58 46.9821 121.58 52.3573C121.58 57.357 123.448 62.3545 126.734 65.8659C130.17 69.5184 134.426 70.8634 139.208 70.8634C143.541 70.8634 147.128 69.5958 150.336 66.4621C153.102 63.7768 154.22 60.8662 154.521 58.0306H142.124V51.0078Z" fill="#0B0B0B"/>
<path d="M198.161 64.8828H176.874L171.422 76.8963H163.204L188.004 24.2272L211.608 76.8963H203.39L198.159 64.8828H198.164H198.161ZM195.097 57.7189L187.703 40.8604L180.012 57.7189H195.097Z" fill="#0B0B0B"/>
<path d="M215.505 76.8963L225.962 23.4011L243.292 62.0473L260.772 23.4011L270.182 76.8963H262.412L257.334 46.9047L242.841 79.2084L228.498 46.8319L223.267 76.9008H215.498L215.502 76.8963H215.505Z" fill="#0B0B0B"/>
<path d="M307.076 34.295H287.201V46.9047H306.474V54.0686H287.201V69.7392H307.076V76.9031H279.587V27.1356H307.076V34.2972V34.295Z" fill="#0B0B0B"/>
<path d="M339.477 38.1751C339.025 37.0577 338.356 36.0109 337.237 35.0414C335.669 33.7738 334.024 33.2481 331.862 33.2481C327.23 33.2481 324.84 36.0109 324.84 39.2151C324.84 40.7102 325.366 43.3159 330.217 45.2593L335.22 47.2734C344.409 51.0055 346.947 56.2237 346.947 61.8971C346.947 71.3754 340.224 77.8612 330.887 77.8612C325.134 77.8612 321.698 75.697 319.16 72.8637C316.472 69.8803 315.275 66.5987 314.981 63.1646L322.523 61.5261C322.523 63.9907 323.421 66.3051 324.615 67.8708C326.034 69.6641 328.121 70.8543 331.115 70.8543C335.749 70.8543 339.333 67.4999 339.333 62.4956C339.333 57.4913 335.448 55.3316 332.161 53.9913L327.378 51.9772C323.27 50.2614 317.219 46.8273 317.219 39.3675C317.219 32.6542 322.443 26.2367 331.782 26.2367C337.157 26.2367 340.222 28.253 341.789 29.5911C343.136 30.7858 344.555 32.504 345.603 34.5908L339.479 38.1705H339.474L339.477 38.1751Z" fill="#0B0B0B"/>
</g>
<defs>
<clipPath id="clip0_69_415">
<rect width="347" height="104" fill="white"/>
</clipPath>
</defs>
</svg>
