<svg width="241" height="36" viewBox="0 0 241 36" fill="none" xmlns="http://www.w3.org/2000/svg">
<g clip-path="url(#clip0_433_37)">
<path d="M206.243 18.0046H223.615V0.593018C233.218 0.593018 240.999 8.38495 240.999 18.0046H223.615V35.407C214.016 35.407 206.243 27.6151 206.243 18.0046ZM146.014 34.4082C144.646 33.5701 143.954 32.2 143.91 30.2207V30.1527H148.743V30.2115C148.743 31.0077 148.871 31.5659 149.14 31.9215C149.435 32.353 149.978 32.5805 150.696 32.5805C151.801 32.5805 152.419 31.5829 152.419 29.7722V26.4816C151.701 27.7327 150.375 28.4439 148.751 28.4439C147.197 28.4439 146.048 28.0465 145.221 27.2176C143.623 25.6096 143.623 22.6915 143.633 20.1186V19.6375C143.633 15.9742 143.633 10.9565 148.785 10.9565C150.584 10.9565 151.989 11.7854 152.654 13.2497V11.2952H157.352V29.4676C157.352 30.0938 157.352 31.5829 156.524 32.9112C155.485 34.5611 153.542 35.407 150.727 35.407C148.652 35.407 147.103 35.0762 146.014 34.4082ZM148.474 20.5252C148.474 20.652 148.464 20.788 148.464 20.9396C148.456 22.1659 148.43 24.0276 149.276 24.8827C149.589 25.1951 149.994 25.3559 150.492 25.3559C152.14 25.3559 152.419 23.6812 152.419 19.9421C152.419 16.2789 152.284 14.0537 150.526 14.0537C148.819 14.0537 148.474 15.1362 148.474 20.5252ZM240.965 19.0021C240.467 27.8177 233.422 34.8736 224.62 35.373C226.265 26.4646 232.08 20.652 240.965 19.0021ZM185.419 27.4124C184.513 26.4554 184.126 25.0435 184.244 23.0798V23.0301H189.077V23.0889C189.033 24.0368 189.111 24.6879 189.312 25.1441C189.584 25.6854 190.098 25.9312 190.994 25.9312C191.848 25.9312 192.717 25.3978 192.717 24.2133C192.717 22.6065 191.069 21.8953 189.161 21.0756C186.855 20.0768 184.244 18.9433 184.244 15.8723C184.244 14.1544 185.004 12.8522 186.508 11.9972C187.675 11.3213 189.312 10.9565 191.096 10.9565C193.208 10.9565 194.957 11.5828 196.012 12.7254C196.866 13.6471 197.245 14.8564 197.135 16.3207V16.3717H192.304V16.3115C192.304 15.0944 192.161 14.425 191.848 14.1374C191.526 13.8171 191.088 13.7739 190.657 13.7739C189.633 13.7739 189.077 14.408 189.077 15.5676C189.077 16.6501 190.513 17.2934 192.177 18.0294C194.568 19.0871 197.55 20.4062 197.55 23.706C197.55 26.8869 194.931 29.0283 191.028 29.0283C188.205 29.0283 186.474 28.5289 185.419 27.4124ZM167.979 23.4615C167.979 17.9706 172.113 17.513 175.99 17.513C176.277 17.513 176.572 17.513 176.867 17.5222V16.2449C176.867 14.8996 176.724 13.7739 174.974 13.7739C173.363 13.7739 173.228 14.9924 173.228 16.3455V16.4135H168.394V16.3455C168.394 14.3322 168.984 12.9372 170.193 12.09C171.217 11.3291 172.703 10.9565 174.739 10.9565C181.16 10.9565 181.701 13.9687 181.701 16.794V25.4069C181.701 26.2698 181.795 27.1666 181.878 28.0295C181.894 28.2321 181.92 28.4269 181.938 28.6217L181.946 28.6897H177.351L177.147 26.4214C176.1 28.1982 174.664 29.0283 172.619 29.0283C170.885 29.0283 167.979 28.308 167.979 23.4615ZM176.369 20.3644C174.233 20.4324 172.82 20.4834 172.82 23.2576C172.82 25.6527 173.794 25.9312 174.536 25.9312C175.152 25.9312 175.651 25.7455 176.024 25.3651C176.954 24.4081 176.909 22.4209 176.875 20.9736C176.867 20.7448 176.867 20.5422 176.867 20.3474C176.7 20.3474 176.531 20.3565 176.369 20.3644ZM128.687 28.0295C127.825 27.3353 127.368 26.3548 127.368 25.2043V11.2952H132.303V23.3256C132.303 25.4919 133.003 25.9312 134.053 25.9312C135.505 25.9312 135.81 24.8905 135.81 23.3256V11.2952H140.743V25.2043C140.743 26.2358 140.792 27.3614 140.912 28.6217L140.92 28.6897H135.81V26.981C135.311 27.7419 134.753 28.2583 134.11 28.5459C133.452 28.8754 132.692 29.0283 131.729 29.0283C130.562 29.0283 129.473 28.6727 128.687 28.0295ZM111.545 26.4214C110.498 24.6879 110.354 22.1999 110.354 19.7721C110.354 15.3049 110.903 10.9565 117.451 10.9565C123.997 10.9565 124.548 15.3049 124.548 19.7721C124.548 22.1999 124.405 24.6879 123.347 26.4214C122.274 28.1982 120.399 29.0283 117.451 29.0283C114.493 29.0283 112.618 28.1982 111.545 26.4214ZM115.287 19.4937C115.287 24.6447 115.694 25.8292 117.451 25.8292C119.209 25.8292 119.605 24.6447 119.605 19.4937C119.605 15.7794 119.402 14.1544 117.451 14.1544C115.49 14.1544 115.287 15.7794 115.287 19.4937ZM64.0066 26.4306C62.9491 24.6879 62.8055 22.1999 62.8055 19.7721C62.8055 15.314 63.3565 10.9565 69.9026 10.9565C72.31 10.9565 74.0412 11.5318 75.1823 12.7084C76.95 14.527 77.0936 17.6568 76.9996 20.7618V20.822H67.7745C67.7745 22.6065 67.798 25.8292 69.9026 25.8292C71.2212 25.8292 71.8975 24.8147 71.8975 22.8183V22.7503H76.9056L76.8978 22.8183C76.8299 24.7219 76.1875 26.2868 75.0387 27.3353C73.8558 28.4439 72.0828 29.0283 69.9026 29.0283C66.9546 29.0283 65.0798 28.1982 64.0066 26.4306ZM68.0434 15.4578C67.7745 16.2619 67.7745 17.2685 67.7745 17.9954V18.0046H72.0646V17.9196C72.0646 16.76 72.0646 15.314 71.3126 14.561C70.9757 14.2224 70.5109 14.0537 69.9026 14.0537C68.973 14.0537 68.3646 14.51 68.0434 15.4578ZM21.3068 28.0295C20.4451 27.3353 19.9882 26.3548 19.9882 25.2043V11.2952H24.9232V23.3256C24.9232 25.4919 25.6256 25.9312 26.6727 25.9312C28.1245 25.9312 28.4221 24.8905 28.4221 23.3256V11.2952H33.3624V25.2043C33.3624 26.2358 33.4146 27.3614 33.5321 28.6217L33.54 28.6897H28.4221V26.981C27.9313 27.7419 27.3725 28.2583 26.7301 28.5459C26.0721 28.8754 25.3123 29.0283 24.3488 29.0283C23.1738 29.0283 22.0928 28.6727 21.3068 28.0295ZM53.8937 24.9663V14.3923H51.951V11.2952H53.8937V8.57975L53.9277 8.57059L58.8261 6.3716V11.2952H61.3198V14.3923H58.8261V23.6472C58.8261 24.2564 58.8261 24.7807 59.0115 25.1271C59.2074 25.4997 59.6121 25.6605 60.304 25.6605C60.6017 25.6605 60.9124 25.6605 61.1422 25.5926L61.2179 25.5756V28.6806L61.1683 28.6897C61.056 28.6976 60.9568 28.7067 60.8472 28.7237C60.2805 28.7825 59.646 28.8584 58.6669 28.8584C54.1209 28.8584 53.8937 25.6187 53.8937 24.9663ZM160.639 28.6897V3.87583H165.582V28.6897H160.639ZM91.4287 28.6897V3.87583H100.098C106.866 3.87583 108.192 8.3771 108.192 16.1429C108.192 16.3547 108.192 16.5743 108.192 16.811C108.208 19.5107 108.25 24.0198 105.672 26.6254C104.312 27.9955 102.369 28.6897 99.894 28.6897H91.4287ZM96.7084 24.7728H99.142C102.328 24.7728 102.842 22.2679 102.842 16.2789C102.842 11.7266 102.842 7.79271 99.3117 7.79271H96.7084V24.7728ZM79.77 28.6897V11.2952H84.4674V13.4523C85.2717 11.7527 86.6973 10.9565 88.9534 10.9565H89.0134V15.3898L88.9455 15.382C88.734 15.3728 88.5225 15.365 88.3293 15.365C86.7417 15.365 85.7182 15.7964 85.1777 16.6841C84.705 17.4712 84.705 18.487 84.705 19.2231V28.6897H79.77ZM45.0994 28.6897V16.7273C45.0994 15.1192 44.8018 14.0537 43.35 14.0537C41.9034 14.0537 41.6005 15.1192 41.6005 16.7273V28.6897H36.6655V11.2952H41.6005V13.0039C42.0575 12.2848 42.6241 11.7606 43.2899 11.439C43.9401 11.1174 44.726 10.9565 45.6739 10.9565C46.8463 10.9565 47.9273 11.3122 48.7237 11.9554C49.5854 12.6483 50.0397 13.6301 50.0397 14.7806V28.6897H45.0994ZM11.0686 28.6897V17.6738H5.2797V28.6897H0V3.87583H5.2797V13.7569H11.0686V3.87583H16.3483V28.6897H11.0686ZM222.617 0.627009C220.969 9.53543 215.165 15.348 206.269 16.9979C206.768 8.19015 213.823 1.12642 222.617 0.627009Z" fill="#0B0B0B"/>
</g>
<defs>
<clipPath id="clip0_433_37">
<rect width="241" height="36" fill="white"/>
</clipPath>
</defs>
</svg>
