<svg width="294" height="100" viewBox="0 0 294 100" fill="none" xmlns="http://www.w3.org/2000/svg">
<path fill-rule="evenodd" clip-rule="evenodd" d="M198.469 84.9624C185.337 86.261 174.695 75.819 174.695 61.6398C174.695 47.4595 184.732 36.1393 197.114 36.358C209.494 36.5733 220.14 47.0153 220.889 59.6806C221.638 72.3436 211.6 83.6627 198.469 84.9624ZM126.1 58.3842C126.85 45.7201 137.494 35.2792 149.875 35.0616C162.256 34.8452 172.293 46.1654 172.293 60.3446C172.293 74.5249 161.65 84.9669 148.518 83.6683C135.387 82.3697 125.351 71.0495 126.1 58.3842ZM0 16.4314L15.3437 12.5198L15.3061 43.5331L41.2136 18.6932L54.5396 23.7833L35.7088 44.5484L48.1981 89.7761H34.6487L24.6548 55.1253L15.216 64.3129L15.3437 89.7761L0 89.231V16.4314ZM125.513 84.8627H112.04L111.157 64.2483L109.906 49.5876C109.592 39.3087 100.267 41.9184 97.445 43.1592L98.1905 84.8627L85.3159 84.4196L83.223 3.70947L96.3358 0.22728L96.6322 32.8792C110.892 28.3522 118.527 28.4009 120.445 49.2204L125.513 84.8627ZM270.652 94.1874L274.457 85.282H283.296L286.641 95.0543L278.705 99.7728L270.652 94.1874ZM220.676 45.0096L218.47 29.8616L229.918 30.2582L229.932 8.98658L240.167 13.2042L239.989 32.0871L254.701 33.0514V42.2198L240.327 43.0186L241.532 70.9237C241.532 70.9237 241.562 73.1062 246.061 73.1062C250.559 73.1062 254.701 70.6473 254.701 70.6473V84.8786C254.897 89.2038 248.749 91.035 248.749 91.035C229.096 94.0016 230.539 81.0394 230.539 81.0394L229.9 45.0096H220.676ZM290.821 13.3844L280.354 80.2281L263.701 8.1911L290.821 13.3844ZM54.8748 42.7875L51.2817 33.3619C51.2817 33.3619 77.5096 21.7074 80.6319 42.6198L80.2534 87.5539L60.3431 87.5517C60.3431 87.5517 51.6043 87.886 48.9163 78.1952C48.9163 78.1952 42.1963 53.5037 68.7514 48.8238L68.8209 42.8079C68.8209 42.8079 63.7858 37.4061 54.8748 42.7875ZM188.241 62.5543C188.801 69.1141 192.889 72.6903 195.575 73.0053C202.384 73.8042 208.179 67.6138 207.792 59.7338C207.403 51.8527 204.235 46.9269 197.812 46.7921C191.393 46.6572 187.508 53.9853 188.241 62.5543ZM68.7229 78.9567L69.0854 58.8386C58.2342 57.2715 58.0313 71.8699 58.0313 71.8699C59.0914 81.3023 68.7229 78.9567 68.7229 78.9567ZM151.413 71.7113C154.099 71.3963 158.187 67.82 158.747 61.2602C159.481 52.6913 155.597 45.3631 149.177 45.498C142.753 45.6317 139.584 50.5587 139.198 58.4398C138.808 66.3186 144.603 72.5102 151.413 71.7113Z" fill="#0B0B0B"/>
</svg>
