<svg width="319" height="155" viewBox="0 0 319 155" fill="none" xmlns="http://www.w3.org/2000/svg">
<path d="M316.885 26.321C309.986 20.3889 295.063 18.8816 283.707 24.0071C277.865 26.6443 275.108 28.7719 267.936 34.1775C264.187 37.0014 259.753 40.5821 254.131 45.287C237.818 39.513 228.365 40.6607 223.694 42.9702C223.398 43.1042 223.121 43.2689 222.847 43.4455C222.84 43.4491 222.835 43.4517 222.829 43.4556C222.81 43.468 222.797 43.4781 222.781 43.4897C222.68 43.5572 222.575 43.6195 222.477 43.6938C221.193 44.6697 220.274 46.1167 220.083 47.7333C220.044 48.0441 220.044 48.3465 220.06 48.6419C220.205 51.113 222.176 53.0128 224.823 53.0322C227.786 53.0558 230.47 50.6788 230.817 47.7228C231.041 45.8281 230.242 44.1705 228.858 43.2368C235.137 41.9599 246.486 45.2701 251.634 47.3937C243.86 54.0008 235.531 61.6052 226.851 70.0237C226.847 70.0285 226.841 70.0338 226.837 70.0386C220.777 75.5209 209.674 85.7752 199.046 94.1818C187.048 103.005 176.77 103.651 172.272 100.599C171.724 100.225 171.064 100.864 171.516 101.337C176.194 106.209 189.099 108.289 204.785 96.7698C204.785 96.7692 204.787 96.7692 204.787 96.7692C204.827 96.7393 204.867 96.7098 204.906 96.6799C205.123 96.5192 205.337 96.3643 205.558 96.1993L205.556 96.1939C223.177 82.893 236.226 68.0623 256.459 49.4827C260.1 51.1251 263.581 52.1199 268.204 52.9674C252.397 66.9078 233.532 82.9516 235.412 88.9313C235.862 90.3913 236.701 91.401 237.825 92.0489C237.823 92.0517 237.821 92.0551 237.819 92.0585C237.846 92.074 237.881 92.0847 237.908 92.0996C238.106 92.2063 238.312 92.3032 238.528 92.3885C238.573 92.4065 238.61 92.4262 238.657 92.4425C241.726 93.6029 246.45 92.6332 251.695 90.38C251.878 90.3026 252.06 90.2181 252.243 90.1376C252.504 90.0216 252.767 89.9058 253.032 89.7848C253.456 89.588 253.882 89.3852 254.313 89.174C254.33 89.1659 254.348 89.1571 254.365 89.149C255.456 88.614 256.559 88.0379 257.664 87.4179C257.689 87.4058 257.702 87.3861 257.722 87.3717C258.142 87.0586 257.839 86.3716 257.318 86.5611C244.054 91.3576 241.21 89.5083 241.203 87.2123C241.2 87.2081 241.204 87.2027 241.203 87.1988C241.203 87.1515 241.203 87.1048 241.205 87.0575C241.208 86.9817 241.212 86.9074 241.223 86.8322C241.223 86.8322 241.223 86.8316 241.223 86.8322C241.662 83.3055 248.852 75.4721 273.813 54.6284L274.711 53.9096C291.895 56.0816 299.886 53.0708 302.589 50.6045C302.888 50.3429 302.64 49.8358 302.277 49.9675C297.242 51.8042 289.277 52.293 277.332 51.2746C280.247 48.3355 285.512 44.1981 285.743 44.0162C291.115 39.9241 296.381 37.8495 298.532 37.0859C298.887 36.958 298.881 36.4199 298.526 36.3355C293.759 35.6327 288.933 37.7276 285.605 39.3804C283.164 40.5869 278.343 44.2299 271.346 50.2367C266.377 49.5058 261.973 48.6895 258.517 47.305C260.924 44.9564 263.066 42.8992 265.014 41.0772C269.893 36.7789 277.192 30.9881 285.819 26.5638C286.681 26.1983 287.576 25.835 288.516 25.4665C293.129 23.6579 297.093 22.798 300.43 22.6212C306.596 22.2892 310.609 24.2951 312.537 26.7755C312.751 27.0523 313.199 27.7948 313.672 28.711C313.94 29.2263 314.21 29.794 314.455 30.3664C316.277 34.6238 321.5 30.8406 316.885 26.321ZM191.963 153.619C188.447 153.417 178.456 152.387 172.233 147.149C165.727 141.673 163.257 134.337 162.663 132.265C162.609 132.076 162.349 132.064 162.279 132.248C161.383 134.55 158.691 143.615 168.502 150.41C177.768 156.826 188.429 154.925 192 154.021C192.227 153.963 192.197 153.632 191.963 153.619ZM155.57 124.088C159.671 128.493 163.707 129.873 154.794 114.503C154.676 114.301 154.376 114.311 154.283 114.525C153.647 115.989 152.164 120.427 155.57 124.088ZM158.428 133.114C158.39 132.908 158.153 132.81 157.982 132.932C157.522 133.259 156.702 133.852 156.3 134.205C155.719 134.718 155.375 137.433 153.01 139.299C150.639 141.168 157.697 150.949 158.235 142.877C158.235 142.877 158.832 135.331 158.428 133.114ZM145.513 126.86C145.513 126.86 150.16 123.517 150.386 122.702C150.397 122.664 150.391 122.628 150.382 122.589C150.255 122.023 149.262 117.241 150.923 113.678C151.479 112.494 150.268 111.701 149.315 112.906C145.639 117.568 137.713 132.424 145.513 126.86ZM150.459 109.1C150.459 109.1 151.149 102.049 147.979 104.207C144.807 106.37 135.857 116.142 150.405 109.249L150.459 109.1ZM146.802 130.828C146.826 130.665 146.712 130.512 146.549 130.497C145.713 130.42 143.295 130.674 141.821 135.774C140.013 142.014 137.859 160.083 146.684 146.045C146.684 146.045 149.553 141.339 148.728 140.624C147.902 139.917 145.455 140.033 146.802 130.828ZM138.856 129.237C138.906 128.966 138.597 128.778 138.392 128.96C137.179 130.035 134.508 132.154 131.605 132.854C131.52 132.874 131.452 132.927 131.416 133.008C130.571 134.915 120.401 158.255 139.893 134.34C139.981 134.232 139.983 134.077 139.891 133.973C139.461 133.48 138.363 131.919 138.856 129.237ZM140.024 124.587C140.112 124.558 140.177 124.497 140.204 124.409C140.515 123.407 142.505 117.161 144.332 115.267C146.32 113.207 144.298 113.999 144.298 113.999C144.298 113.999 139.315 115.529 138.69 113.973C138.624 113.809 138.446 113.726 138.298 113.823C136.837 114.775 130.959 119.126 130.142 127.967C129.627 133.576 136.061 125.853 140.024 124.587ZM127.87 123.585C120.729 129.684 116.918 129.587 116.065 129.465C115.948 129.448 115.835 129.509 115.778 129.612C104.3 150.29 125.271 132.42 127.264 130.697C127.356 130.618 127.379 130.495 127.338 130.381C126.747 128.726 127.728 125.548 128.326 123.892C128.425 123.617 128.092 123.394 127.87 123.585ZM138.722 109.146C137.046 109.655 133.715 110.463 132.165 109.424C130.566 108.347 109.763 126.051 118.058 125.11C125.211 124.302 136.141 112.77 139.015 109.609C139.21 109.395 138.999 109.062 138.722 109.146ZM144.751 99.4143C141.158 98.5344 141.621 98.4572 141.045 98.4918C140.14 98.5473 129.798 107.842 136.95 106.503C143.89 105.201 146.062 102.913 146.835 101.968C146.881 101.912 146.902 101.846 146.897 101.774C146.866 101.352 146.625 99.8727 144.751 99.4143ZM104.078 110.918C104.02 110.834 103.916 110.793 103.816 110.807C102.151 111.051 88.0504 112.989 89.0494 108.697C89.0908 108.518 88.9517 108.348 88.7687 108.364C84.6794 108.708 50.2281 111.492 38.3485 108.786C38.1717 108.746 38.007 108.883 38.0197 109.065C38.1193 110.57 39.5483 116.336 55.5462 116.39C73.7659 116.451 107.17 115.451 104.078 110.918ZM106.098 119.356C106.238 119.177 106.097 118.914 105.87 118.907C104.384 118.862 100.028 118.591 100.587 116.948C100.661 116.735 100.49 116.519 100.27 116.565C98.1386 117.013 91.039 118.38 85.9735 117.916C79.9487 117.368 63.0839 124.867 74.5312 125.197C85.5106 125.511 103.417 122.788 106.098 119.356ZM115.863 119.356C116.049 119.116 115.781 118.799 115.508 118.929C110.281 121.414 108.661 117.369 99.674 128.317C90.4702 139.528 110.945 128.145 113.113 126.923C113.223 126.861 113.271 126.736 113.242 126.612C112.64 124.028 114.601 120.983 115.863 119.356ZM118.963 105.35C118.903 105.338 118.844 105.346 118.789 105.373C117.351 106.105 97.975 116.057 107.445 116.186C117.282 116.321 127.271 109.845 129.59 108.575C131.914 107.299 130.158 106.516 132.182 103.984C134.131 101.54 131.312 102.991 131.111 103.096C131.103 103.1 131.098 103.102 131.089 103.106C130.768 103.234 123.294 106.184 118.963 105.35ZM134.93 96.5738C134.879 96.5529 134.822 96.5462 134.768 96.5555C134.098 96.6754 129.369 97.4576 125.457 96.3674C125.366 96.3418 125.269 96.3634 125.197 96.4262C123.923 97.5525 112.897 107.615 134.851 99.7474C134.851 99.7474 138.917 98.188 134.93 96.5738ZM111.559 92.8767C111.468 92.79 111.34 92.7672 111.23 92.8294C109.947 93.548 102.502 97.8696 107.761 98.5797C113.504 99.354 121.872 97.9121 119.789 95.5311C119.789 95.5311 113.859 95.0907 111.559 92.8767ZM96.2073 108.801C105.87 109.067 115.902 105.919 117.002 103.03C117.901 100.673 117.066 99.9518 116.73 99.7671C116.659 99.728 116.582 99.7184 116.506 99.7429C115.558 100.044 107.969 102.35 103.614 100.366C103.538 100.332 103.455 100.331 103.379 100.368C101.904 101.095 87.017 108.55 96.2073 108.801ZM91.5377 92.2471C90.1363 91.1862 79.0305 98.5845 84.5555 99.0496C90.0861 99.512 103.99 99.7989 104.589 93.5801C104.589 93.5801 92.9348 93.3075 91.5377 92.2471ZM87.9245 106.173C89.38 106.225 92.9621 105.099 94.6499 103.161C96.3373 101.226 95.4129 101.214 94.475 101.394C93.536 101.576 94.2807 101.384 94.2807 101.384C94.2807 101.384 80.5707 103.292 78.0177 100.32C77.9734 100.268 77.9185 100.235 77.851 100.228C77.2523 100.158 74.052 99.813 69.8495 99.7961C65.272 99.7747 30.4701 101.146 25.8135 98.9227C25.6659 98.852 25.4953 98.9246 25.4424 99.0795C24.9803 100.452 23.9855 106.073 38.4268 106.614C54.8895 107.23 86.4682 106.126 87.9245 106.173ZM79.8946 96.663C81.1259 94.9435 83.6688 93.3075 84.5772 92.8342C85.4864 92.3595 84.596 91.8594 84.596 91.8594C84.596 91.8594 20.1561 92.1753 13.0002 88.5419C12.8156 88.4479 12.5979 88.567 12.594 88.7736C12.5637 90.4617 13.2627 96.1945 24.081 96.8773C36.7819 97.6767 77.8115 97.9377 77.8115 97.9377C77.8115 97.9377 78.6579 98.3874 79.8946 96.663ZM16.804 87.0262C34.0928 88.4287 68.4495 90.8269 66.1772 88.431C66.1772 88.431 62.9552 86.808 61.745 83.7707C61.7042 83.6673 61.6087 83.5983 61.4978 83.5983C58.138 83.6133 9.01799 83.731 0.421091 77.917C0.221625 77.7816 -0.034663 77.9503 0.00388429 78.1893C0.3175 80.115 2.45889 85.8639 16.804 87.0262ZM75.4573 88.2322C88.5426 89.6814 104.65 91.0682 107.969 90.4265C108.217 90.3783 108.277 90.0517 108.058 89.9241C107.211 89.4297 105.514 88.1677 104.781 85.6738C104.335 84.1601 103.349 84.2088 101.336 84.0722C99.3513 83.9413 71.6147 83.91 64.3951 79.0017C64.2358 78.893 64.0198 78.9679 63.975 79.1557C63.5983 80.7432 62.9912 86.8511 75.4573 88.2322ZM185.61 83.087L185.631 83.0884C189 78.6103 199.421 69.5929 217.001 56.9736C217.001 56.9736 218.189 56.1906 218.178 55.7888C218.174 55.6801 218.089 55.5987 217.865 55.5683C217.865 55.5683 212.587 54.8421 206.823 58.2537C205.985 58.749 204.804 59.5523 203.409 60.5938C202.033 61.6731 200.667 62.7586 199.324 63.844C187.968 73.0289 176.9 83.4927 178.246 88.0075C178.698 89.5223 179.539 90.5971 180.671 91.3157L180.691 91.3292C184.699 93.849 192.441 91.798 200.399 87.8802C200.908 87.6296 200.599 86.8584 200.055 87.0203C186.165 91.1636 183.758 88.9001 184.047 86.436C184.072 85.9146 184.276 85.2793 184.703 84.5064C185.134 83.6828 185.61 83.087 185.61 83.087ZM213.815 139.31C191.685 144.881 178.813 142.571 169.685 120.92C162.899 104.824 152.545 95.4193 148.869 92.4372C148.379 92.0388 148.571 91.3295 149.155 91.0907C159.252 86.9612 173.435 71.569 205.344 42.2156C237.846 12.3189 248.55 4.91967 261.173 2.52672C273.799 0.135235 282.088 5.88985 281.942 12.1563C281.818 17.5613 287.393 14.1947 284.535 8.37783C281.671 2.55952 270.042 -2.66872 256.145 1.5054C242.237 5.68338 220.853 16.9067 190.277 46.2542C156.212 78.951 145.678 89.0746 138.374 86.7691C131.079 84.4664 114.328 77.553 109.771 82.6089C105.208 87.6654 125.801 93.7079 136.644 92.1849C142.856 91.3106 153.205 95.6437 167.313 129.593C179.076 157.899 204.439 146.594 214.399 140.728C215.166 140.275 214.68 139.093 213.815 139.31ZM152.473 134.224C146.809 139.886 149.104 132.293 149.318 129.089C149.495 126.442 151.691 125.328 152.451 125.021C152.594 124.963 152.747 125.029 152.816 125.167C153.694 126.959 156.297 128.34 156.297 128.34C156.297 128.34 158.145 128.557 152.473 134.224Z" fill="#0B0B0B"/>
</svg>
