<svg width="357" height="58" viewBox="0 0 357 58" fill="none" xmlns="http://www.w3.org/2000/svg">
<path d="M31.3913 11.9148L30.4677 2.96383C30.2652 -0.986795 35.9959 -0.989092 35.7957 2.96383L34.8721 11.9148C34.6241 14.0118 31.6279 13.9957 31.3913 11.9148ZM20.7238 15.7689L15.4913 8.48322C13.3574 5.16883 18.326 2.27017 20.105 5.79588L23.7405 14.0118C24.5663 15.9527 21.9614 17.4525 20.7261 15.7689M13.3938 24.4924L5.2561 20.8243C1.76398 19.0305 4.63048 14.0118 7.92013 16.1663L15.1364 21.4491C16.8131 22.7124 15.298 25.3239 13.3938 24.4924ZM11.799 35.8964L2.9356 36.829C-0.977397 37.0311 -0.979672 31.2475 2.9356 31.4497L11.799 32.3822C13.8784 32.6303 13.8624 35.6553 11.799 35.8964ZM54.5622 32.2811L63.4256 31.3486C67.3386 31.1442 67.3431 36.93 63.4256 36.7279L54.5622 35.7954C52.4828 35.545 52.501 32.52 54.5622 32.2811ZM51.177 21.3618L58.391 16.079C61.6738 13.9245 64.5471 18.9386 61.055 20.737L52.9174 24.4029C50.995 25.2366 49.5094 22.609 51.177 21.3595M42.5365 13.9613L46.172 5.74305C47.9465 2.22194 52.9196 5.116 50.7857 8.43499L45.5532 15.7184C44.3019 17.4112 41.7107 15.8838 42.5365 13.9613ZM52.9742 41.6547C49.7779 43.7885 46.2948 44.4569 42.764 43.9585C46.0651 40.0193 47.5029 35.7931 48.0716 33.5835C48.6475 31.4167 48.6192 29.1315 47.9897 26.98C46.784 22.9949 43.8151 20.6153 40.0522 20.6153C36.9514 20.6153 34.5922 22.1841 33.2045 25.1631C31.8122 22.1841 29.4576 20.6153 26.3545 20.6153C22.5939 20.6153 19.625 22.9949 18.417 26.9777C17.7868 29.0609 17.7572 31.3463 18.3351 33.5835C18.781 35.3107 19.6546 37.9177 21.3176 40.6877C17.6184 41.5247 14.2241 43.3877 11.5169 46.067C11.252 46.3274 11.096 46.6805 11.0812 47.0536C11.0664 47.4266 11.1938 47.7911 11.4373 48.0722C11.6732 48.3607 12.0101 48.5467 12.378 48.5916C12.746 48.6365 13.117 48.5369 13.4143 48.3133C16.349 46.1726 19.6569 44.8336 22.9897 44.5602C26.9232 44.2387 30.6792 44.6705 35.2474 46.7882C37.4474 47.8103 40.2206 48.9656 43.7332 48.9656C48.2877 48.9656 52.4487 47.0546 54.9444 43.7104C55.1486 43.4362 55.248 43.0968 55.2242 42.7546C55.2003 42.4123 55.0549 42.0903 54.8147 41.8476C54.5829 41.5972 54.2694 41.4395 53.9317 41.4037C53.594 41.3678 53.2549 41.4561 52.9765 41.6524M44.0085 30.9949C44.0085 32.4925 43.0097 37.6926 37.8705 42.4218C36.3576 41.8361 31.8531 39.8241 26.309 40.0951C23.4652 36.744 22.4005 32.7704 22.3891 30.9995C22.3618 27.1132 24.7187 25.8315 26.7116 25.8315C28.7864 25.8315 30.3357 27.1568 30.8544 29.3756C31.1183 30.4919 32.0806 31.2705 33.2159 31.2705C34.3534 31.2705 35.2952 30.4896 35.5568 29.3756C36.0778 27.1568 37.6271 25.8338 39.6973 25.8338C42.3318 25.8338 44.0085 27.9217 44.0085 30.9972" fill="#0B0B0B"/>
<path fill-rule="evenodd" clip-rule="evenodd" d="M241.99 9.87283C239.772 9.87283 238.084 11.313 238.084 13.6053C238.084 15.8998 239.772 17.2826 241.99 17.2826C244.206 17.2826 245.844 15.8975 245.844 13.6076C245.844 11.3176 244.156 9.87283 241.99 9.87283ZM181.73 20.6957C178.613 20.6957 175.656 22.0279 173.968 25.1195V12.0939C173.968 11.8586 173.875 11.6328 173.711 11.4662C173.546 11.2995 173.323 11.2056 173.09 11.205H168.986C168.87 11.205 168.756 11.228 168.649 11.2727C168.542 11.3174 168.445 11.3829 168.364 11.4655C168.282 11.5481 168.218 11.6461 168.174 11.7539C168.13 11.8618 168.107 11.9773 168.107 12.0939V47.6358C168.107 48.125 168.501 48.5223 168.986 48.5223H173.09C173.322 48.5217 173.545 48.4281 173.71 48.262C173.874 48.0959 173.967 47.8707 173.968 47.6358V32.4213C173.968 28.3696 176.557 25.9188 180.199 25.9188C183.368 25.9188 185.636 28.2616 185.636 32.1548V47.6358C185.636 48.125 186.03 48.5223 186.514 48.5223H190.619C190.851 48.5217 191.074 48.4281 191.239 48.262C191.403 48.0959 191.496 47.8707 191.497 47.6358V31.197C191.497 24.8531 187.379 20.6957 181.73 20.6957ZM100.453 20.6957C92.5342 20.6957 86.6715 26.5068 86.6715 34.8743C86.6715 43.2418 92.5319 49.108 100.453 49.108C108.375 49.108 114.233 43.297 114.233 34.8743C114.233 26.4517 108.373 20.6957 100.453 20.6957ZM100.453 43.8321C95.9649 43.8321 92.6911 40.5246 92.6911 34.8743C92.6911 29.224 95.9649 26.0268 100.453 26.0268C104.942 26.0268 108.266 29.2791 108.266 34.8766C108.266 40.4741 104.94 43.8321 100.453 43.8321ZM126.789 40.3087L119.925 21.8533C119.861 21.6854 119.749 21.5409 119.602 21.4384C119.456 21.336 119.282 21.2805 119.104 21.2791H114.618C114.474 21.2788 114.332 21.3141 114.205 21.382C114.078 21.4499 113.969 21.5483 113.889 21.6685C113.808 21.7887 113.758 21.9271 113.742 22.0714C113.727 22.2158 113.747 22.3617 113.801 22.4965L123.872 47.9619C123.939 48.1253 124.051 48.2652 124.196 48.3641C124.341 48.463 124.512 48.5165 124.687 48.5178H128.986C129.348 48.5178 129.669 48.2973 129.803 47.9573L139.775 22.4919C139.827 22.3574 139.847 22.2119 139.831 22.0682C139.815 21.9245 139.765 21.7868 139.684 21.6672C139.604 21.5476 139.495 21.4497 139.369 21.3821C139.242 21.3144 139.101 21.2791 138.958 21.2791H134.631C134.264 21.2791 133.935 21.5088 133.807 21.8533L126.789 40.3087ZM139.456 34.872C139.456 26.3437 144.893 20.6934 152.499 20.6934C159.838 20.6934 165.063 26.3437 165.063 34.7135L165.061 35.3429C165.056 35.5744 164.962 35.7947 164.797 35.9563C164.633 36.1179 164.412 36.2078 164.183 36.2065H145.371C145.792 41.4847 148.645 43.9906 152.551 43.9906C155.704 43.9906 158.166 42.6906 159.726 39.2751C159.82 39.0704 159.987 38.9086 160.193 38.8215C160.4 38.7344 160.631 38.7283 160.841 38.8043L164.176 40.0951C164.64 40.272 164.87 40.8071 164.672 41.2665C162.288 46.7836 157.736 49.1058 152.658 49.1058C144.946 49.1058 139.456 43.4003 139.456 34.872ZM152.446 25.5972C148.749 25.5972 146.32 27.7816 145.53 31.994H159.048C158.307 27.6231 155.827 25.5972 152.446 25.5972ZM194.529 34.872C194.529 26.5022 200.392 20.6934 208.311 20.6934C216.233 20.6934 222.093 26.4471 222.093 34.872C222.093 43.297 216.233 49.1058 208.311 49.1058C200.39 49.1058 194.529 43.2418 194.529 34.872ZM200.549 34.872C200.549 40.5223 203.823 43.8298 208.311 43.8298C212.8 43.8298 216.126 40.4718 216.126 34.872C216.126 29.2768 212.8 26.0245 208.311 26.0245C203.823 26.0245 200.549 29.224 200.549 34.8743M243.963 21.2814H239.856C239.624 21.2814 239.401 21.3745 239.236 21.5403C239.072 21.706 238.979 21.931 238.978 22.1657V47.6381C238.978 48.1273 239.372 48.5246 239.859 48.5246H243.963C244.196 48.5246 244.419 48.4312 244.584 48.265C244.748 48.0987 244.841 47.8732 244.841 47.6381V22.1657C244.841 21.9306 244.748 21.7051 244.584 21.5388C244.419 21.3725 244.196 21.2791 243.963 21.2791M273.742 11.2027H269.691C269.575 11.2027 269.461 11.2257 269.354 11.2704C269.247 11.3151 269.15 11.3806 269.069 11.4632C268.987 11.5458 268.923 11.6438 268.879 11.7516C268.835 11.8595 268.812 11.975 268.813 12.0916V25.758C267.07 22.8272 264.217 20.6934 259.995 20.6934C252.972 20.6934 247.744 26.6653 247.744 34.872C247.744 43.0788 252.972 49.1058 259.995 49.1058C264.219 49.1058 267.07 46.9743 268.813 44.0411V47.6335C268.813 48.1227 269.206 48.5201 269.691 48.5201H273.742C273.975 48.5201 274.199 48.4266 274.363 48.2604C274.528 48.0941 274.621 47.8686 274.621 47.6335V12.0939C274.621 11.9773 274.598 11.8618 274.554 11.7539C274.51 11.6461 274.446 11.5481 274.364 11.4655C274.283 11.3829 274.186 11.3174 274.079 11.2727C273.972 11.228 273.858 11.205 273.742 11.205M261.316 43.8321C256.828 43.8321 253.661 40.5246 253.661 34.8743C253.661 29.224 256.83 26.0268 261.316 26.0268C265.803 26.0268 268.919 29.2791 268.919 34.8766C268.919 40.4741 265.753 43.8321 261.316 43.8321ZM328.097 21.2791H332.597C333.241 21.2791 333.664 21.9544 333.393 22.5424L317.475 56.9105C317.403 57.0621 317.291 57.1903 317.15 57.2805C317.01 57.3707 316.847 57.4192 316.681 57.4204H312.231C312.083 57.4201 311.938 57.3821 311.809 57.3102C311.679 57.2383 311.57 57.1346 311.49 57.0088C311.411 56.8829 311.364 56.739 311.355 56.5902C311.345 56.4413 311.372 56.2924 311.435 56.1572L317.291 43.506L307.287 22.5493C307.223 22.414 307.193 22.2644 307.201 22.1144C307.209 21.9644 307.255 21.819 307.334 21.6918C307.413 21.5646 307.523 21.4598 307.654 21.3872C307.784 21.3146 307.93 21.2766 308.079 21.2768H312.763C313.109 21.2768 313.423 21.4835 313.564 21.8028L320.303 37.0035L327.301 21.7913C327.372 21.6389 327.485 21.51 327.626 21.4194C327.766 21.3288 327.93 21.2802 328.097 21.2791ZM348.306 32.7405L345.612 32.0997C342.391 31.3004 340.172 30.5539 340.172 28.5303C340.172 26.8238 342.074 25.6501 344.977 25.6501C347.88 25.6501 350.415 26.8261 351.284 29.8809C351.416 30.3403 351.88 30.6159 352.339 30.5011L355.59 29.688C355.814 29.6303 356.006 29.487 356.127 29.2885C356.247 29.0899 356.287 28.8518 356.236 28.6245C355.151 23.5232 350.635 20.7462 344.977 20.7462C338.641 20.7462 334.524 23.9435 334.524 28.6337C334.524 32.7382 337.058 35.4049 343.13 36.8956L345.769 37.5892C349.411 38.4437 351.049 39.2958 351.049 41.108C351.049 42.9226 348.938 44.2548 345.557 44.2548C342.179 44.2548 339.574 42.7526 338.503 39.5025C338.43 39.2809 338.273 39.0973 338.067 38.9915C337.861 38.8857 337.622 38.8663 337.402 38.9375L334.319 39.9435C334.1 40.0173 333.918 40.1744 333.811 40.3816C333.705 40.5888 333.683 40.8296 333.75 41.0529C335.463 46.6825 340.225 49.1035 345.612 49.1035C352.319 49.1035 356.698 45.6926 356.698 40.8944C356.698 36.7899 353.957 34.1784 348.306 32.7405ZM80.9772 39.5301C80.9772 42.7411 82.7539 43.1775 85.1222 43.0902C85.2403 43.0859 85.358 43.1056 85.4684 43.1482C85.5788 43.1908 85.6795 43.2554 85.7646 43.3381C85.8498 43.4209 85.9175 43.5201 85.9639 43.6298C86.0102 43.7395 86.0343 43.8575 86.0345 43.9768V47.4704C86.0342 47.6884 85.9546 47.8988 85.8107 48.0614C85.6668 48.224 85.4687 48.3276 85.2542 48.3524C79.1299 49.0414 75.458 46.1175 75.458 39.5301V12.1398C75.458 11.6506 75.8516 11.2533 76.3362 11.2533H80.099C80.5836 11.2533 80.9772 11.6506 80.9772 12.1398V39.5301ZM234.794 43.0902C232.426 43.1775 230.649 42.7411 230.649 39.5301V12.1398C230.649 11.9047 230.557 11.6792 230.392 11.5129C230.228 11.3467 230.004 11.2533 229.771 11.2533H226.008C225.776 11.2539 225.553 11.3475 225.389 11.5137C225.225 11.6799 225.133 11.9051 225.133 12.1398V39.5301C225.133 46.1175 228.804 49.0414 234.929 48.3547C235.143 48.3299 235.341 48.2263 235.485 48.0637C235.629 47.9011 235.709 47.6907 235.709 47.4727V43.9768C235.709 43.8574 235.685 43.7393 235.638 43.6296C235.592 43.5198 235.524 43.4206 235.438 43.3381C235.353 43.2555 235.252 43.1912 235.141 43.149C235.031 43.1068 234.913 43.0853 234.794 43.0902ZM304.535 41.6363C304.944 42.8743 305.859 43.3521 307.055 43.4968C307.267 43.5253 307.463 43.6306 307.602 43.7929C307.742 43.9553 307.819 44.1636 307.817 44.3788V48.1112C307.817 48.3462 307.725 48.5716 307.561 48.7381C307.397 48.9047 307.174 48.9989 306.942 49.0001C302.792 48.9955 300.005 47.0707 299.05 43.212L299.034 43.1591C298.781 43.6645 298.579 44.0457 298.579 44.0457C296.836 46.9788 293.985 49.1103 289.761 49.1103C282.738 49.1103 277.51 43.0856 277.51 34.8766C277.51 26.6676 282.74 20.698 289.761 20.698C293.983 20.698 296.836 22.8318 298.579 25.7626V22.1657C298.579 21.6765 298.972 21.2791 299.457 21.2791H303.509C303.995 21.2791 304.387 21.6765 304.387 22.1657V40.5637C304.387 40.9266 304.423 41.2872 304.535 41.6317M283.425 34.872C283.425 40.5223 286.592 43.8298 291.08 43.8298C295.517 43.8298 298.686 40.4695 298.686 34.872C298.686 29.2745 295.567 26.0222 291.08 26.0222C286.594 26.0222 283.425 29.2194 283.425 34.872Z" fill="#0B0B0B"/>
</svg>
