<svg width="360" height="65" viewBox="0 0 360 65" fill="none" xmlns="http://www.w3.org/2000/svg">
<g clip-path="url(#clip0_63_412)">
<path fill-rule="evenodd" clip-rule="evenodd" d="M90.7317 1.46057L90.7384 54.1434H125.854V46.7939H98.7V31.6821H121.941V24.5856H98.7V8.90109H125.854V1.46057H90.7317Z" fill="#0B0B0B"/>
<path fill-rule="evenodd" clip-rule="evenodd" d="M351.22 57.0703H360V1.46057H351.22V57.0703Z" fill="#0B0B0B"/>
<path fill-rule="evenodd" clip-rule="evenodd" d="M248.055 2.70679H240.217V33.4517C240.217 42.1423 234.364 48.2117 225.981 48.2117C217.697 48.2117 211.912 42.0764 211.912 33.2916V2.70679H204.072V33.8623C204.072 46.2384 213.492 55.5697 225.981 55.5697C238.564 55.5697 248.055 46.2384 248.055 33.8623V2.70679Z" fill="#0B0B0B"/>
<path fill-rule="evenodd" clip-rule="evenodd" d="M287.242 9.82116H300.152C306.109 9.82116 310.598 13.6977 310.598 18.8387C310.598 25.0597 305.342 28.3129 300.152 28.3129H287.242V9.82116ZM308.956 54.7531H318.413L305.986 34.0004L306.425 33.8272C314.116 30.7584 318.354 25.3758 318.354 18.6741C318.354 9.57092 310.812 2.70679 300.811 2.70679H279.404V54.7531H287.076V34.5296H298.004L308.956 54.7531Z" fill="#0B0B0B"/>
<path fill-rule="evenodd" clip-rule="evenodd" d="M54.6307 36.8699V43.4792C54.6307 55.087 58.2884 61.0996 66.4812 62.928L68.3444 60.1577C63.3108 57.6313 62.5686 51.8406 62.5554 45.9094L62.551 45.7578L62.4357 2.6632H56.618L31.2489 40.6981L6.91226 2.66101H0V54.7996H7.5636L7.50609 18.8391L29.6382 51.2172H32.4342L54.6395 18.8456V36.8807L54.6307 36.8699Z" fill="#0B0B0B"/>
<path fill-rule="evenodd" clip-rule="evenodd" d="M146.701 48.9012C148.507 51.0305 152.989 55.3636 159.551 55.3636C169.603 55.3636 176.101 48.4753 176.101 37.8135V2.60388H168.307V37.9013C168.307 45.3076 163.909 48.6223 159.551 48.6223C156.443 48.6223 152.692 45.725 151.128 44.1202L150.404 44.8206L147.442 48.0012L146.701 48.9012Z" fill="#0B0B0B"/>
</g>
<defs>
<clipPath id="clip0_63_412">
<rect width="360" height="64.3902" fill="white"/>
</clipPath>
</defs>
</svg>
