<svg width="276" height="126" viewBox="0 0 276 126" fill="none" xmlns="http://www.w3.org/2000/svg">
<g clip-path="url(#clip0_69_236)">
<path d="M98.24 81.69H93.2V90.43H87.58V95.38H93.2V115.13C93.2 121.4 96.66 124.85 102.74 124.85H108.66V119.92H103.22C99.67 119.92 98.24 118.55 98.24 114.84V95.38H108.66V90.43H98.24V81.69ZM203.49 89.91C193.53 89.91 186.02 97.58 186.02 107.73C186.02 117.89 193.53 125.38 203.49 125.38C213.44 125.38 220.95 117.95 220.95 107.73C220.95 97.51 213.45 89.91 203.49 89.91ZM203.49 120.37C196.36 120.37 191.19 115.06 191.19 107.73C191.19 100.4 196.37 94.91 203.49 94.91C210.61 94.91 215.78 100.3 215.78 107.73C215.78 115.16 210.72 120.37 203.48 120.37H203.49ZM140.55 124.84H145.52V90.44H140.55V95.76C138.11 92.18 133.5 89.92 128.22 89.92C118.26 89.92 110.75 97.59 110.75 107.74C110.75 117.9 118.26 125.39 128.22 125.39C133.65 125.39 137.95 123.47 140.55 119.72V124.86V124.84ZM128.22 120.37C121.09 120.37 115.92 115.06 115.92 107.73C115.92 100.4 121.1 94.91 128.22 94.91C135.34 94.91 140.51 100.3 140.51 107.73C140.51 115.16 135.46 120.37 128.21 120.37H128.22ZM242.77 90.43H239.41C235.36 90.43 232.14 92.23 230.21 95.23V90.43H225.29V124.84H230.33V104.8C230.33 99.53 233.99 95.37 239.73 95.37H242.77V90.43ZM70.2 89.9C60.33 89.9 53.16 97.37 53.16 107.66C53.16 117.95 60.18 125.36 69.86 125.36C77.83 125.36 84.49 120.38 86.01 113.42H80.62C79.29 117.57 75 120.36 69.91 120.36C63.87 120.36 58.99 115.76 58.47 109.29H86.27C86.32 108.84 86.39 108.21 86.39 107.54C86.39 97 79.9 89.9 70.2 89.9ZM58.53 104.74C59.51 98.74 64.06 94.8 70.15 94.8C76.25 94.8 80.35 98.75 81.11 104.74H58.53ZM259.81 89.9C249.93 89.9 242.76 97.37 242.76 107.66C242.76 117.95 249.78 125.36 259.46 125.36C267.44 125.36 274.1 120.38 275.62 113.42H270.23C268.9 117.57 264.6 120.36 259.52 120.36C253.48 120.36 248.59 115.76 248.08 109.29H275.88C275.93 108.84 275.99 108.21 275.99 107.54C275.99 96.99 269.51 89.9 259.81 89.9ZM248.13 104.74C249.1 98.74 253.66 94.8 259.75 94.8C265.85 94.8 269.95 98.75 270.7 104.74H248.13ZM36.16 89.9C31.68 89.9 27.17 92.19 24.95 95.8C22.8 91.96 19.18 89.9 14.59 89.9C11.06 89.9 7.19 91.36 5.03 94.1V90.42H0V124.84H5.04V105.58C5.02 98.96 8.04 94.85 13.71 94.85C19.83 94.85 21.91 99.02 21.91 104.87V124.84H26.95V105.58C26.93 98.88 29.87 94.85 35.62 94.85C41.74 94.85 43.82 99.23 43.79 105.07V124.83H48.83V104.27C48.83 95.61 44.75 89.9 36.15 89.9H36.16ZM167.16 94.9C172.15 94.9 176.2 97.63 177.52 101.85H182.91C181.46 94.78 174.97 89.9 167.16 89.9C157.25 89.9 150.04 97.32 150.04 107.6C150.04 117.9 157.24 125.37 167.16 125.37C174.96 125.37 181.46 120.5 182.91 113.42H177.51C176.21 117.65 172.15 120.37 167.16 120.37C160.13 120.37 155.22 115.12 155.22 107.6C155.22 100.09 160.12 94.9 167.16 94.9ZM158.4 35.46C160.777 35.5399 163.146 35.1406 165.366 34.2861C167.585 33.4315 169.61 32.1391 171.32 30.4858C173.03 28.8324 174.39 26.852 175.318 24.6623C176.247 22.4726 176.725 20.1185 176.725 17.74C176.725 15.3616 176.247 13.0074 175.318 10.8177C174.39 8.62804 173.03 6.64758 171.32 4.99424C169.61 3.34089 167.585 2.04847 165.366 1.19392C163.146 0.339359 160.777 -0.0598667 158.4 0.0200052C153.803 0.174453 149.447 2.10903 146.25 5.41531C143.053 8.72158 141.265 13.1408 141.265 17.74C141.265 22.3392 143.053 26.7584 146.25 30.0647C149.447 33.371 153.803 35.3056 158.4 35.46ZM117.62 35.46C119.983 35.5161 122.334 35.0992 124.533 34.2336C126.733 33.3681 128.737 32.0715 130.428 30.42C132.119 28.7685 133.463 26.7956 134.381 24.6171C135.298 22.4387 135.771 20.0988 135.771 17.735C135.771 15.3712 135.298 13.0313 134.381 10.8529C133.463 8.67446 132.119 6.70149 130.428 5.05001C128.737 3.39854 126.733 2.10191 124.533 1.23637C122.334 0.370835 119.983 -0.0461281 117.62 0.0100052C112.992 0.119941 108.59 2.03565 105.356 5.34776C102.122 8.65986 100.311 13.1056 100.311 17.735C100.311 22.3644 102.122 26.8102 105.356 30.1223C108.59 33.4344 112.992 35.3501 117.62 35.46ZM178.78 72.7C183.484 72.7 187.995 70.8315 191.321 67.5055C194.646 64.1796 196.515 59.6686 196.515 54.965C196.515 50.2614 194.646 45.7504 191.321 42.4245C187.995 39.0985 183.484 37.23 178.78 37.23C174.078 37.23 169.568 39.098 166.243 42.423C162.918 45.748 161.05 50.2577 161.05 54.96C161.05 59.6623 162.918 64.172 166.243 67.497C169.568 70.822 174.078 72.69 178.78 72.69V72.7ZM155.5 57.8C155.887 55.496 155.815 53.1383 155.288 50.8622C154.761 48.5862 153.789 46.4368 152.429 44.5375C151.068 42.6382 149.346 41.0265 147.361 39.795C145.375 38.5636 143.166 37.7367 140.86 37.3618C138.554 36.9869 136.197 37.0714 133.924 37.6106C131.65 38.1497 129.506 39.1328 127.614 40.5033C125.722 41.8738 124.12 43.6048 122.899 45.5967C121.678 47.5885 120.863 49.8021 120.5 52.11C119.773 56.7392 120.907 61.4681 123.656 65.263C126.405 69.058 130.545 71.6103 135.17 72.3623C139.795 73.1142 144.53 72.0045 148.34 69.2758C152.149 66.5471 154.723 62.4212 155.5 57.8ZM97.22 72.7C101.922 72.7 106.432 70.832 109.757 67.507C113.082 64.182 114.95 59.6723 114.95 54.97C114.95 50.2677 113.082 45.758 109.757 42.433C106.432 39.108 101.922 37.24 97.22 37.24C92.5919 37.3499 88.1904 39.2657 84.956 42.5778C81.7217 45.8899 79.911 50.3356 79.911 54.965C79.911 59.5944 81.7217 64.0402 84.956 67.3523C88.1904 70.6644 92.5919 72.5801 97.22 72.69V72.7Z" fill="#0B0B0B"/>
</g>
<defs>
<clipPath id="clip0_69_236">
<rect width="276" height="126" fill="white"/>
</clipPath>
</defs>
</svg>
