<svg width="383" height="48" viewBox="0 0 383 48" fill="none" xmlns="http://www.w3.org/2000/svg">
<g clip-path="url(#clip0_433_24)">
<path d="M362.498 27.983L382.932 0.27234V46.8426H375.984V21.7872L362.43 39.8298L349.012 21.7872V46.8426H342.064V0.204255L362.498 27.983ZM203.726 34.7234C203.59 32.3404 202.5 27.5745 196.302 22.6043L190.853 17.8383C188.537 16 187.447 14.0255 187.379 11.7106C187.379 9.05532 189.15 7.21702 191.807 7.08085C191.875 7.08085 195.212 6.67234 197.256 9.53191L197.324 9.66809L202.841 5.9234L202.773 5.78723C201.819 4.28936 197.528 0.204255 191.738 0.476596C188.469 0.612766 185.54 1.90638 183.497 3.94894C181.385 6.12766 180.364 8.98723 180.568 12.3234C180.772 16.2043 183.02 19.8128 187.72 23.6255L192.828 28.1191C195.689 30.434 196.915 32.4085 197.051 34.7234C197.187 36.4255 196.574 38.0596 195.485 39.2851C194.531 40.3745 193.441 40.8511 191.943 40.9872H191.602C187.311 40.9872 185.54 37.9234 184.518 36.0851L184.246 35.6085L178.32 38.4681C178.865 39.966 182.066 47.5234 191.466 47.5234H191.602C195.008 47.3191 198.141 45.9574 200.389 43.6426C202.705 41.3277 203.931 38.1277 203.726 34.7234ZM67.3639 0C54.1499 0 43.3881 10.7574 43.3881 23.966C43.3881 37.1745 54.1499 47.9319 67.3639 47.9319C80.5778 47.9319 91.3397 37.1745 91.3397 23.966C91.4078 10.7574 80.6459 0 67.3639 0ZM67.3639 41.0553C57.9643 41.0553 50.3356 33.4298 50.3356 24.034C50.3356 14.6383 57.9643 7.01277 67.3639 7.01277C76.7635 7.01277 84.3922 14.6383 84.3922 24.034C84.4603 33.3617 76.7635 41.0553 67.3639 41.0553ZM309.097 0C295.883 0 285.121 10.7574 285.121 23.966C285.121 37.1745 295.883 47.9319 309.097 47.9319C322.311 47.9319 333.073 37.1745 333.073 23.966C333.073 10.7574 322.311 0 309.097 0ZM309.097 41.0553C299.698 41.0553 292.069 33.4298 292.069 24.034C292.069 14.6383 299.698 7.01277 309.097 7.01277C318.497 7.01277 326.126 14.6383 326.126 24.034C326.126 33.3617 318.497 41.0553 309.097 41.0553ZM34.2609 48V1.15745H27.3134V30.2298L0 0.204255V46.7745H6.94754V18.1787L7.21999 18.4511L34.2609 48ZM238.805 1.15745H209.652V7.55745H220.618V46.7745H227.838V7.55745H238.805V1.15745ZM269.251 29.617L269.387 29.5489C270.137 29.2085 270.886 28.7319 271.499 28.2553C275.245 25.4638 277.493 20.9021 277.493 15.9319C277.493 7.7617 271.431 1.08936 264.006 1.08936H247.932V46.7064H254.879V30.7064H255.015C255.015 30.7064 258.762 30.7064 261.554 30.7064H261.622L261.691 30.7745L272.248 46.7064H280.626L269.251 29.617ZM263.257 23.8298H254.947V7.96596H263.257C267.276 7.96596 270.477 11.5064 270.477 15.8638C270.477 20.2894 267.276 23.8298 263.257 23.8298ZM153.05 1.15745H141.743V46.7745H153.05C164.084 46.7745 172.803 36.5617 172.803 23.966C172.803 11.4383 164.016 1.15745 153.05 1.15745ZM152.846 40.2383H148.623V7.7617H152.846C160.338 7.7617 165.992 15.0468 165.992 24.034C165.992 32.9532 160.338 40.2383 152.846 40.2383ZM121.718 29.617L121.854 29.5489C122.604 29.2085 123.353 28.7319 123.966 28.2553C127.712 25.4638 129.96 20.9021 129.96 15.9319C129.96 7.7617 123.898 1.08936 116.473 1.08936H100.399V46.7064H107.346V30.7064H107.482C107.482 30.7064 111.229 30.7064 114.021 30.7064H114.089L114.158 30.7745L124.715 46.7064H133.025L121.718 29.617ZM115.724 23.8298H107.414V7.96596H115.724C119.743 7.96596 122.944 11.5064 122.944 15.8638C122.944 20.2894 119.743 23.8298 115.724 23.8298Z" fill="#0B0B0B"/>
</g>
<defs>
<clipPath id="clip0_433_24">
<rect width="383" height="48" fill="white"/>
</clipPath>
</defs>
</svg>
