<svg width="400" height="96" viewBox="0 0 400 96" fill="none" xmlns="http://www.w3.org/2000/svg">
<g clip-path="url(#clip0_69_242)">
<mask id="mask0_69_242" style="mask-type:luminance" maskUnits="userSpaceOnUse" x="0" y="0" width="400" height="96">
<path d="M400 0H0V95.687H400V0Z" fill="white"/>
</mask>
<g mask="url(#mask0_69_242)">
<path d="M190.952 69.3061C189.561 70.4737 187.859 71.3555 185.859 71.9393C183.86 72.5231 181.748 72.8211 179.525 72.8211C173.936 72.8211 169.626 71.3307 166.583 68.3373C163.54 65.3439 162.012 60.9969 162.012 55.2835V11.6132H173.911V23.0525H187.524V33.1999H173.911V54.9977C173.911 57.5315 174.532 59.4691 175.774 60.7981C177.004 62.1271 178.743 62.7979 180.966 62.7979C183.624 62.7979 185.847 62.0899 187.623 60.6615L190.952 69.3309V69.3061Z" fill="#0B0B0B"/>
<path d="M25.139 22.9032C19.8727 22.9032 13.7618 26.145 11.3274 28.9892V23.0398H0V92.1968H11.3771V64.8968L11.9112 65.729C15.302 70.5604 20.68 73.119 27.1386 73.119C38.6152 73.119 50.663 64.8222 50.663 48.539C50.663 33.3986 40.1428 22.9032 25.139 22.9032ZM25.2384 62.425C16.9166 62.425 11.3771 56.4508 11.3771 48.067C11.3771 39.6832 16.9166 33.6966 25.2384 33.6966C33.56 33.6966 39.1988 39.6708 39.1988 48.067C39.1988 56.4632 33.56 62.425 25.2384 62.425Z" fill="#0B0B0B"/>
<path d="M93.6378 23.0398V28.331C90.2718 25.1886 83.925 22.9902 79.2176 22.9902C64.2138 22.9902 54.3022 33.411 54.3022 48.5514C54.3022 64.8594 66.35 73.1564 77.8142 73.1564C85.2664 73.1564 90.632 69.9518 94.5444 65.9028V72.2744H104.965V23.0398H93.6378ZM79.7268 62.45C71.4052 62.45 65.7664 56.4632 65.7664 48.0794C65.7664 39.6956 71.4052 33.709 79.7268 33.709C88.0486 33.709 93.588 39.6956 93.588 48.0794C93.588 56.4632 88.0486 62.45 79.7268 62.45Z" fill="#0B0B0B"/>
<path d="M110.778 78.7332H122.043C123.931 83.3162 127.632 85.4154 133.309 85.4154C140.972 85.4154 145.332 80.5714 145.332 70.9952V67.4678C145.332 67.3064 145.12 67.3312 145.033 67.4926C142.686 70.4114 137.445 73.0818 131.421 73.0818C120.627 73.0818 110.405 65.704 110.405 48.1416V23.04H121.671V48.1416C121.671 57.519 126.403 62.0028 133.507 62.0028C140.612 62.0028 145.332 57.3202 145.332 48.1416V23.04H156.597V70.697C156.597 87.8498 146.275 95.6994 133.309 95.6994C122.428 95.6994 113.436 90.4084 110.778 78.7456" fill="#0B0B0B"/>
<path d="M225.89 48.0174C225.89 33.5476 236.41 22.9282 251.316 22.9282C266.22 22.9282 276.74 33.5352 276.74 48.0174C276.74 62.4996 266.22 73.1066 251.316 73.1066C236.41 73.1066 225.89 62.4996 225.89 48.0174ZM265.176 48.0174C265.176 39.6212 259.636 33.647 251.316 33.647C242.994 33.647 237.354 39.6336 237.354 48.0174C237.354 56.4012 242.994 62.3878 251.316 62.3878C259.636 62.3878 265.176 56.4012 265.176 48.0174Z" fill="#0B0B0B"/>
<path d="M331.464 7.71308C331.464 3.279 334.618 0 339.016 0C343.412 0 346.568 3.279 346.568 7.71308C346.568 12.1472 343.412 15.3392 339.016 15.3392C334.618 15.3392 331.464 12.1596 331.464 7.71308ZM333.278 23.0274H344.654V72.2744H333.278V23.0398V23.0274Z" fill="#0B0B0B"/>
<path d="M365.88 47.0858L349.25 23.04H363.012L374.388 40.7888L385.766 23.04H399.242L382.412 47.0858L400 72.2744H386.238L374.004 53.1718L361.87 72.2744H348.48L365.88 47.0858Z" fill="#0B0B0B"/>
<path d="M321.888 28.567C325.564 32.1068 327.416 37.3606 327.416 44.3286V72.2744H316.1V45.7692C316.1 41.5712 315.106 38.404 313.12 36.2676C311.132 34.1438 308.288 33.0756 304.612 33.0756C300.45 33.0756 298.116 34.3176 295.706 36.8142C293.296 39.3106 292.092 42.8878 292.092 47.5826V72.287H280.776V23.0398H291.544V28.4552C293.346 26.6542 295.544 25.3626 298.414 24.3192C301.258 23.2884 303.828 23.0026 307.394 23.0026C313.492 23.0026 318.224 25.0396 321.9 28.5794" fill="#0B0B0B"/>
<path d="M223.568 37.075L228.586 27.2008C225.444 25.2384 221.282 24.2572 217.32 24.2572C212.8 24.2572 207.694 25.6234 205.222 28.5422V22.9902H194.255V72.3242H205.222V48.6012C205.222 37.5346 211.794 34.7896 215.594 34.7896C218.4 34.7896 220.836 35.7956 223.418 37.311L223.568 37.075Z" fill="#0B0B0B"/>
</g>
</g>
<defs>
<clipPath id="clip0_69_242">
<rect width="400" height="96" fill="white"/>
</clipPath>
</defs>
</svg>
