<svg width="397" height="70" viewBox="0 0 397 70" fill="none" xmlns="http://www.w3.org/2000/svg">
<g clip-path="url(#clip0_69_262)">
<mask id="mask0_69_262" style="mask-type:luminance" maskUnits="userSpaceOnUse" x="0" y="0" width="397" height="70">
<path d="M0 0H396.667V70H0V0Z" fill="white"/>
</mask>
<g mask="url(#mask0_69_262)">
<path fill-rule="evenodd" clip-rule="evenodd" d="M12.0943 56.9723H-0.0390625V-0.0388319H25.3165C32.0054 -0.0388319 37.4887 1.86672 40.9109 5.28895C44.1387 8.55561 46.122 12.9112 46.122 18.2001C46.122 28.9723 38.8498 36.2834 26.7165 36.2834H11.9776V56.8945L12.0943 56.9723ZM24.3832 9.9945H12.0554V26.8723H24.1498C30.2943 26.8723 33.522 23.4889 33.522 18.3167C33.522 13.1056 30.0998 9.91672 24.2665 9.91672L24.3832 9.9945ZM386.167 51.4501C383.717 55.3389 379.672 58.139 373.878 58.139V58.1001C363.417 58.1001 356.3 49.2334 356.3 36.4389C356.3 23.6445 363.65 14.7778 373.994 14.7778C379.789 14.7778 383.833 17.5389 386.089 20.9612V-0.233276H396.511V56.739H386.05V51.2556L386.167 51.4501ZM367.461 36.5167C367.461 44.4112 370.611 49.0389 376.25 49.0389C382.783 49.0389 386.167 44.5667 386.167 36.7112C386.167 28.8556 383.561 23.6056 376.522 23.6056C370.455 23.6056 367.383 28.5445 367.383 36.4389L367.461 36.5167ZM286.222 56.8556H312.822V56.8167C318.966 56.8167 323.944 55.2223 327.25 52.3834C330.633 49.5056 332.305 45.8112 332.305 40.4834C332.305 33.4445 327.911 28.1556 321.533 26.3278V26.0556C326.939 24.1889 330.555 20.4556 330.555 14.6223C330.555 10.1501 329.078 6.68895 325.928 3.92783C322.933 1.28339 318.15 -0.233276 311.928 -0.233276H286.028V56.7001L286.222 56.8556ZM297.772 31.4223H311.111C316.439 31.4223 320.483 34.1834 320.483 39.6278C320.483 44.2167 317.061 47.3667 311.422 47.3667H297.733V31.3834L297.772 31.4223ZM297.772 22.8667V9.2945H310.839C316.011 9.2945 318.966 11.7445 318.966 15.9834C318.966 20.4167 315.661 22.8278 310.566 22.8278H297.694L297.772 22.8667ZM243.172 69.8056H249.161C257.561 69.8056 261.022 66.9278 264.172 57.8278L278.639 15.8278H267.128L261.294 34.2223C259.972 37.9556 258.533 42.6223 258.533 42.6223C258.533 42.6223 257.289 37.9167 255.966 34.1834L249.783 15.7501H238.194L249.316 44.8389C251.65 51.0612 252.466 53.6667 252.466 55.9223C252.466 59.2667 250.328 61.0945 246.283 61.0945H242.822V69.6112L243.172 69.8056ZM211.089 15.8667H221.666V22.4778H221.9C224.389 17.8501 227.228 15.4389 232.05 15.4389C233.255 15.4389 234.111 15.5945 234.889 15.7889V25.2778L234.383 25.2001C227.189 24.4612 221.978 28.2334 221.978 36.8278V56.6612H210.972V15.7112L211.089 15.8667ZM205.1 56.7778H194.444C193.783 55.9612 193.355 54.1723 193.122 52.3445H192.928C190.789 55.4556 187.833 57.8278 180.716 57.8278C172.2 57.8278 166.211 53.4334 166.211 45.2667C166.211 36.2445 173.639 33.3667 182.855 32.0834C189.7 31.1112 192.85 30.5667 192.85 27.4556C192.85 24.3445 190.478 22.5556 185.889 22.5556C180.678 22.5556 178.189 24.3834 177.878 28.2723H168.078C168.389 21.0778 173.794 14.7778 185.928 14.7778C198.022 14.7778 203.389 20.2612 203.389 29.8278V50.6334C203.389 53.7445 203.894 55.4945 204.866 56.1945V56.5445H204.828L205.1 56.7778ZM176.983 45.0723C176.983 48.8834 179.55 50.2445 183.439 50.2445C189.739 50.2445 193.2 46.3945 193.2 42.3889V36.2445C191.372 37.2556 188.689 37.8778 186.083 38.4612L185.772 38.5001C185.694 38.5001 185.655 38.5001 185.616 38.5001H185.539H185.461H185.383C179.628 39.7445 176.789 41.0278 176.789 44.8778L176.983 45.0723ZM110.094 56.739H99.6332V56.7001V15.7501H110.211V21.3501H110.444C112.7 17.5778 116.744 14.7001 122.461 14.7001C127.711 14.7001 131.911 17.5389 133.933 21.8556H134.089C136.889 17.3834 141.283 14.6612 146.533 14.6612C155.244 14.6612 160.689 20.2223 160.689 29.1667V56.5445H150.228V30.9556C150.228 26.3278 147.155 23.9167 143.111 23.9167C138.483 23.9167 135.294 27.4167 135.294 32.8223V56.4667H124.794V30.8778C124.794 26.2501 121.528 23.8389 117.483 23.8389C113.011 23.8389 109.822 27.3389 109.822 32.7445V56.389L110.094 56.739ZM61.5609 15.7889H50.9443V56.7001H61.9109V36.8278C61.9109 28.1945 67.0832 24.4612 74.2776 25.1612L74.7443 25.2001V15.6723C73.9665 15.4778 73.1109 15.2834 71.8665 15.2834C67.0054 15.2834 64.1665 17.6556 61.6776 22.2834H61.4054V15.6334L61.5609 15.7889ZM339.228 56.7001H349.65V15.8667H339.189V56.6612L339.228 56.7001ZM346.578 0.544501H338.761V8.16672C338.761 9.56672 339.889 10.6945 341.328 10.6945H346.5C347.9 10.6945 349.066 9.52783 349.066 8.12783V3.03339C349.066 1.5945 347.9 0.466724 346.461 0.466724L346.578 0.544501ZM91.6609 56.6612H81.1998V15.7112H91.622V56.6223L91.6609 56.6612ZM89.1332 0.505613H81.3165V8.12783C81.3165 9.52783 82.4443 10.6556 83.8832 10.6556H89.0554C90.4554 10.6556 91.622 9.48895 91.622 8.08895V2.9945C91.622 1.55561 90.4554 0.427835 89.0165 0.427835L89.1332 0.505613Z" fill="#0B0B0B"/>
</g>
</g>
<defs>
<clipPath id="clip0_69_262">
<rect width="396.667" height="70" fill="white"/>
</clipPath>
</defs>
</svg>
