<svg width="170" height="54" viewBox="0 0 170 54" fill="none" xmlns="http://www.w3.org/2000/svg">
<g clip-path="url(#clip0_383_3)">
<path fill-rule="evenodd" clip-rule="evenodd" d="M150.58 27.626C150.58 21.69 154.98 18.246 160.474 18.246C164.578 18.246 168.242 20.226 170 25.134C169.486 27.624 166.41 30.41 165.09 30.85C163.99 28.504 162.746 27.112 161.574 27.112C160.108 27.112 160.034 28.138 160.034 29.456C160.034 30.39 160.302 31.766 160.624 33.422C161.11 35.922 161.72 39.062 161.72 42.282C161.72 48.142 157.616 52.466 151.314 52.466C145.544 52.466 142.354 48.682 140.934 42.64C137.164 49.394 131.652 52.466 127.426 52.466C120.822 52.466 119.266 47.584 119.426 42.632C116.77 47.322 111.662 52.466 106.764 52.466C101.762 52.466 99.996 48.112 100.4 43.042C97.404 48.624 91.984 52.466 86.76 52.466C81.088 52.466 78.282 47.962 79.19 42.378C75.376 47.066 68.274 52.466 60.892 52.466C52.474 52.466 48.812 47.926 48.376 42.238C44.314 48.75 38.836 52.686 32.316 52.686C22.898 52.686 19.53 44.312 19.04 37.464C15.1829 42.6148 11.1038 47.5955 6.814 52.392C6.302 52.906 5.862 53.198 5.35 53.198C3.664 53.2 0.22 45.724 0 42.94C1.446 40.698 10.562 30.68 17.9 22.618C20.48 19.784 22.842 17.19 24.572 15.26C20.078 16.616 15.444 19.32 9.6 23.524C8.574 24.256 5.716 17.588 5.788 12.458C12.53 7.478 22.788 4.326 31.068 4.326C42.648 4.326 49.314 10.774 49.314 19.714C49.314 27.188 43.086 35.394 34 35.688C29.276 35.81 26.248 33.158 24.7 29.884C24.884 34.948 27.518 41.184 34.586 41.184C42.292 41.184 45.994 36.532 51.512 29.594C51.8707 29.142 52.2373 28.682 52.612 28.214C57.302 22.424 62.724 17.294 70.638 17.294C75.474 17.294 78.772 20.3 78.772 24.842C78.772 30.338 72.324 37.958 63.312 37.958C61.772 37.958 60.368 37.756 59.184 37.356C59.152 37.5867 59.1353 37.812 59.134 38.032C59.134 40.596 60.086 42.136 64.264 42.136C70.418 42.136 76.206 38.472 83.242 29.898C90.13 21.472 95.332 17.808 100.828 17.808C104.538 17.808 107.352 19.818 108.594 23.204C115.96 12.566 122.208 5.028 127.5 0C132.702 2.2 136.44 6.52 135.414 7.4C131.53 10.92 118.56 25.06 113.432 33.488C112.112 35.686 110.866 38.104 110.866 39.276C110.866 40.376 111.526 40.742 112.258 40.742C115.778 40.742 122.836 32.43 128.93 25.25C131.206 22.57 133.348 20.046 135.12 18.172C139.224 19.858 143.4 23.448 142.374 24.694C136.954 31.142 132.85 36.418 132.85 39.422C132.85 40.228 133.142 40.742 134.242 40.742C136.294 40.742 138.198 38.91 141.35 35.026C142.01 34.22 142.814 34.22 143.328 35.466C144.72 38.836 146.772 40.668 148.384 40.668C150.288 40.668 151.242 38.982 151.242 36.418C151.242 34.666 151.028 32.628 150.842 30.874C150.704 29.546 150.58 28.382 150.58 27.626ZM32.39 26.672C36.274 26.672 40.524 24.548 40.524 20.224C40.524 17.6 38.896 15.182 34.544 14.444L33.86 15.514C31.648 18.972 29.562 22.232 27.46 25.42C28.72 26.128 30.314 26.672 32.39 26.672ZM71.666 27.992C71.666 26.818 70.932 26.012 69.76 26.012C66.82 26.012 62.386 30.138 60.3 34.122C61.07 34.422 61.974 34.586 62.946 34.586C68.148 34.586 71.666 30.63 71.666 27.992ZM90.938 38.616C90.938 39.936 91.67 40.816 93.208 40.816C97.972 40.816 103.908 32.168 103.908 28.65C103.908 27.186 103.102 26.306 101.782 26.306C97.458 26.306 90.938 34.512 90.938 38.616ZM152.12 12.164C150.434 14.948 147.87 18.1 146.918 19.052C142.52 17.22 138.418 13.556 139.004 12.532C140.616 9.672 143.254 6.596 144.206 5.642C148.602 7.474 152.706 11.212 152.12 12.164Z" fill="#0B0B0B"/>
</g>
<defs>
<clipPath id="clip0_383_3">
<rect width="170" height="54" fill="white"/>
</clipPath>
</defs>
</svg>
