<svg width="321" height="63" viewBox="0 0 321 63" fill="none" xmlns="http://www.w3.org/2000/svg">
<g clip-path="url(#clip0_232_62)">
<path d="M136.776 61.537H125.112L99.622 35.481H94.87V61.537H86.23V0.739014H115.175C127.358 0.739014 134.616 7.25301 134.616 18.11C134.616 28.967 127.358 35.48 115.175 35.48H110.855L136.776 61.537ZM125.976 18.11C125.976 11.944 122.519 8.12201 115.175 8.12201H94.87V28.098H115.175C122.519 28.098 125.976 24.277 125.976 18.11ZM158.899 62.84C145.074 62.84 136.433 52.504 136.433 38.955C136.433 25.406 145.074 15.07 158.467 15.07C169.267 15.07 175.748 21.15 178.599 30.183C179.636 33.57 180.068 37.304 180.068 41.126V41.995H144.728C144.987 49.29 150.345 56.325 158.899 56.325C166.243 56.325 169.613 52.07 170.304 48.943H179.204C177.13 56.326 170.218 62.84 158.899 62.84ZM144.728 35.48H171.773C171.341 27.664 167.194 21.584 158.467 21.584C149.74 21.584 144.987 28.097 144.728 35.48ZM180.495 23.322V16.374H191.296V5.95001H199.591V16.373H211.255V23.321H199.591V50.68C199.591 53.72 200.455 54.762 203.479 54.762H211.255V61.537H201.751C193.888 61.537 191.296 57.628 191.296 50.68V23.32L180.495 23.322ZM235.104 15.07C248.929 15.07 258.001 25.406 258.001 38.955C258.001 52.504 248.929 62.84 235.104 62.84C221.279 62.84 212.206 52.504 212.206 38.955C212.206 25.406 221.279 15.07 235.104 15.07ZM235.104 22.018C225.686 22.018 220.501 29.835 220.501 38.955C220.501 48.075 225.686 55.891 235.104 55.891C244.522 55.891 249.706 48.074 249.706 38.955C249.706 29.836 244.522 22.018 235.104 22.018ZM284.562 15.07C298.387 15.07 307.459 25.406 307.459 38.955C307.459 52.504 298.387 62.84 284.562 62.84C270.737 62.84 261.665 52.504 261.665 38.955C261.665 25.406 270.737 15.07 284.562 15.07ZM284.562 22.018C275.144 22.018 269.959 29.835 269.959 38.955C269.959 48.075 275.144 55.891 284.562 55.891C293.98 55.891 299.165 48.074 299.165 38.955C299.165 29.836 293.98 22.018 284.562 22.018ZM320.554 0.740014V61.537H312.259V0.739014L320.554 0.740014ZM38.496 3.58901C38.496 3.21475 38.4223 2.84414 38.2791 2.49837C38.1358 2.15259 37.9259 1.83841 37.6613 1.57376C37.3966 1.30911 37.0824 1.09918 36.7366 0.955957C36.3909 0.812731 36.0203 0.739014 35.646 0.739014H3.35C2.97565 0.739014 2.60496 0.812764 2.25912 0.956053C1.91328 1.09934 1.59905 1.30936 1.33439 1.57411C1.06973 1.83887 0.859824 2.15317 0.716656 2.49906C0.573489 2.84495 0.499869 3.21566 0.5 3.59001V16.889C0.5 17.6449 0.800267 18.3698 1.33475 18.9043C1.86922 19.4387 2.59413 19.739 3.35 19.739H35.647C36.0213 19.739 36.3919 19.8127 36.7376 19.956C37.0834 20.0992 37.3976 20.3091 37.6623 20.5738C37.9269 20.8384 38.1368 21.1526 38.2801 21.4984C38.4233 21.8441 38.497 22.2147 38.497 22.589V26.388C38.497 27.1439 38.1967 27.8688 37.6623 28.4033C37.1278 28.9377 36.4029 29.238 35.647 29.238H14.749C13.9931 29.238 13.2682 29.5383 12.7337 30.0728C12.1993 30.6072 11.899 31.3321 11.899 32.088V45.386C11.899 46.1419 12.1993 46.8668 12.7337 47.4013C13.2682 47.9357 13.9931 48.236 14.749 48.236H35.647C36.4029 48.236 37.1278 48.5363 37.6623 49.0708C38.1967 49.6052 38.497 50.3301 38.497 51.086V58.685C38.497 59.4407 38.7971 60.1655 39.3314 60.6999C39.8657 61.2344 40.5903 61.5347 41.346 61.535H54.645C55.0193 61.535 55.3899 61.4613 55.7356 61.3181C56.0814 61.1748 56.3956 60.9649 56.6603 60.7003C56.9249 60.4356 57.1348 60.1214 57.2781 59.7757C57.4213 59.4299 57.495 59.0593 57.495 58.685V45.385C57.495 45.0107 57.4213 44.6401 57.2781 44.2944C57.1348 43.9486 56.9249 43.6344 56.6603 43.3698C56.3956 43.1051 56.0814 42.8952 55.7356 42.752C55.3899 42.6087 55.0193 42.535 54.645 42.535H41.346C40.5901 42.535 39.8652 42.2347 39.3307 41.7003C38.7963 41.1658 38.496 40.4409 38.496 39.685V35.885C38.4963 35.1293 38.7966 34.4047 39.3311 33.8704C39.8656 33.3361 40.5903 33.036 41.346 33.036H54.645C55.4009 33.036 56.1258 32.7357 56.6603 32.2013C57.1947 31.6668 57.495 30.9419 57.495 30.186V16.888C57.495 16.1321 57.1947 15.4072 56.6603 14.8728C56.1258 14.3383 55.4009 14.038 54.645 14.038H41.346C40.5901 14.038 39.8652 13.7377 39.3307 13.2033C38.7963 12.6688 38.496 11.9439 38.496 11.188V3.58901Z" fill="#0B0B0B"/>
</g>
<defs>
<clipPath id="clip0_232_62">
<rect width="321" height="63" fill="white"/>
</clipPath>
</defs>
</svg>
