<svg width="155" height="32" viewBox="0 0 155 32" fill="none" xmlns="http://www.w3.org/2000/svg">
<path d="M58.9607 15.9973C58.9607 10.7947 57.7458 7.41457 53.4906 7.41457C49.2356 7.41457 48.0149 10.7947 48.0149 15.9973C48.0149 21.1999 49.2356 24.58 53.4906 24.58C57.7458 24.58 58.9607 21.1999 58.9607 15.9973ZM34.53 15.9973C34.53 12.5036 35.0885 8.82609 37.5183 5.74345C40.0173 2.55264 44.566 0 53.4906 0C62.4154 0 66.9584 2.55264 69.4572 5.74345C71.8929 8.82609 72.4455 12.5036 72.4455 15.9973C72.4455 19.4909 71.8929 23.1739 69.4572 26.262C66.9584 29.4473 62.4095 32 53.4906 32C44.5717 32 40.0173 29.4473 37.5183 26.262C35.0828 23.1739 34.53 19.4909 34.53 15.9973ZM25.1331 18.3715L35.7852 30.9671H20.9068L12.6961 19.7343V30.9671H0V1.04377L13.2143 1.03296L19.6114 1.06541C28.7721 1.08704 32.4686 5.93273 32.4686 10.1457C32.4686 13.9963 28.2597 16.5976 25.1274 18.3715H25.1331ZM12.6904 7.62548V15.6404C12.6904 15.6404 15.3562 14.4073 16.6172 13.7529C17.9243 13.0877 19.5019 12.2062 19.5019 10.7514C19.5019 9.2966 18.2295 7.63089 15.0742 7.62008H12.6904V7.62548ZM100.429 30.9671H99.83L88.3892 15.8729V30.9671H75.7506V1.03296H88.3086L99.7839 16.2623V1.03296H112.423V30.9671H100.429ZM140.648 1.03296L153.931 30.9671H150.2L138.823 5.34325L138.08 7.01977L148.709 30.9671H144.984L136.22 11.2273L135.466 12.9147L143.481 30.9724H139.755L133.6 17.1113L127.451 30.9724H113.28L126.581 1.03836H140.648V1.03296Z" fill="#0B0B0B"/>
</svg>
