<svg width="325" height="50" viewBox="0 0 325 50" fill="none" xmlns="http://www.w3.org/2000/svg">
<path d="M0 36.4094V32.8469H12.4813V37.3781C12.4716 37.9734 12.5896 38.5639 12.8272 39.1098C13.0649 39.6558 13.4167 40.1444 13.8591 40.5429C14.3015 40.9415 14.824 41.2406 15.3917 41.4203C15.9594 41.5999 16.5589 41.6559 17.15 41.5844C18.1598 41.7214 19.1841 41.4739 20.02 40.891C20.8558 40.3081 21.4421 39.4324 21.6625 38.4375C21.9967 37.2977 21.9683 36.0823 21.5813 34.9594C19.1656 28.8844 2.65938 26.1344 0.5625 16.6656C0.135596 14.5855 0.109081 12.4431 0.484375 10.3531C1.77188 2.75 8.45313 0 16.7469 0C23.35 0 32.45 1.5375 32.45 11.7312V15.05H20.8563V12.1375C20.8913 11.5634 20.8016 10.9886 20.5933 10.4525C20.3851 9.91635 20.0633 9.43167 19.65 9.03172C19.2367 8.63177 18.7417 8.32605 18.199 8.13554C17.6563 7.94504 17.0789 7.87428 16.5063 7.92812C15.5285 7.82046 14.546 8.08568 13.7553 8.67079C12.9645 9.2559 12.4236 10.1178 12.2406 11.0844C12.1103 11.8914 12.1379 12.716 12.3219 13.5125C13.6875 18.9312 31.325 21.8469 33.2594 31.6375C33.7428 34.1749 33.7693 36.7783 33.3375 39.325C32.2094 47.0875 25.2844 50 16.9125 50C8.125 50 0 46.8438 0 36.4094ZM151.225 36.25V32.6875H163.547V37.1375C163.528 37.7275 163.636 38.3147 163.864 38.859C164.093 39.4032 164.436 39.8918 164.871 40.2911C165.305 40.6905 165.821 40.9913 166.383 41.173C166.945 41.3547 167.539 41.4129 168.125 41.3438C169.126 41.493 170.146 41.2592 170.982 40.6892C171.818 40.1192 172.408 39.2548 172.634 38.2687C172.968 37.1557 172.941 35.9653 172.556 34.8688C170.219 28.8844 153.872 26.1188 151.781 16.6656C151.354 14.6131 151.326 12.4973 151.7 10.4344C152.997 2.9125 159.688 0.1625 167.813 0.1625C174.338 0.1625 183.353 1.78125 183.353 11.8125V15.05H171.841V12.2188C171.877 11.6517 171.792 11.0835 171.589 10.5525C171.387 10.0215 171.073 9.54021 170.669 9.14127C170.264 8.74232 169.778 8.43505 169.245 8.24029C168.711 8.04553 168.141 7.96785 167.575 8.0125C166.615 7.8852 165.643 8.13421 164.863 8.70738C164.082 9.28054 163.553 10.1334 163.388 11.0875C163.256 11.8943 163.282 12.719 163.466 13.5156C164.753 18.9344 182.216 21.7687 184.163 31.475C184.645 33.9851 184.672 36.5617 184.241 39.0812C183.113 46.85 176.269 49.6812 167.991 49.6812C159.281 49.6875 151.225 46.5219 151.225 36.25ZM195.353 37.9531C195.241 36.9311 195.215 35.9014 195.275 34.875V1.375H207.031V35.9219C207.016 36.5167 207.042 37.1119 207.109 37.7031C207.372 38.6773 207.948 39.5378 208.749 40.1515C209.549 40.7651 210.53 41.0977 211.539 41.0977C212.548 41.0977 213.529 40.7651 214.329 40.1515C215.13 39.5378 215.706 38.6773 215.969 37.7031C216.039 37.1121 216.066 36.5168 216.05 35.9219V1.375H227.813V34.8688C227.813 35.7594 227.731 37.4594 227.731 37.9469C226.928 46.6969 220.081 49.5094 211.547 49.5094C203.013 49.5094 196.159 46.6812 195.353 37.9469V37.9531ZM292.147 37.4656C292.027 36.4399 291.973 35.4076 291.984 34.375V14.725C291.984 13.9156 292.063 12.4594 292.144 11.6469C293.191 2.9125 300.197 0.1625 308.491 0.1625C316.706 0.1625 323.95 2.9125 324.759 11.65C324.856 12.673 324.882 13.7015 324.838 14.7281V16.25H313.081V13.675C313.083 13.0776 313.03 12.4813 312.922 11.8938C312.613 10.9073 311.997 10.0453 311.164 9.43332C310.331 8.82131 309.324 8.49126 308.291 8.49126C307.257 8.49126 306.25 8.82131 305.417 9.43332C304.584 10.0453 303.968 10.9073 303.659 11.8938C303.523 12.6145 303.47 13.3484 303.5 14.0813V35.4375C303.486 36.0324 303.514 36.6276 303.581 37.2188C303.86 38.2781 304.508 39.2031 305.408 39.8275C306.308 40.452 307.401 40.7347 308.491 40.625C309.561 40.739 310.636 40.456 311.512 39.8299C312.387 39.2037 313.002 38.2779 313.241 37.2281C313.349 36.6409 313.376 36.0415 313.322 35.4469V28.6406H308.572V21.8438H325V34.375C325.012 35.4024 324.958 36.4295 324.838 37.45C324.034 45.9438 316.713 48.9375 308.491 48.9375C300.269 48.9375 292.95 45.9531 292.147 37.4594V37.4656ZM128.278 48.0563L127.966 4.85313L119.903 48.0563H108.147L100.172 4.85313L99.8594 48.0563H88.2563L89.2219 1.45625H108.147L114.025 37.8656L119.903 1.45625H138.825L139.872 48.0563H128.278ZM66.4344 48.0563L60.1531 4.85313L53.7094 48.0563H41.15L49.6875 1.45625H70.3844L78.9219 48.0563H66.4344ZM263.238 47.5719L251.563 8.81875L252.206 47.5687H240.769V1.45625H258L268.938 38.9969L268.309 1.45625H279.825V47.575L263.238 47.5719Z" fill="#0B0B0B"/>
</svg>
