<svg width="378" height="72" viewBox="0 0 378 72" fill="none" xmlns="http://www.w3.org/2000/svg">
<path fill-rule="evenodd" clip-rule="evenodd" d="M0.732934 30.0103C-0.282916 28.8466 -0.237762 27.106 0.837097 25.9954L12.2809 14.1718C13.4623 12.9512 15.4296 12.9512 16.611 14.1718L25.3572 23.2083C26.5386 24.4289 28.506 24.4289 29.6874 23.2083L38.1831 14.4306C39.3646 13.2099 41.332 13.2099 42.5134 14.4306L53.9166 26.2123C54.9909 27.3223 55.0366 29.0617 54.022 30.2257L29.7574 58.064C28.5607 59.4369 26.4154 59.4377 25.2177 58.0654L0.732934 30.0103ZM66.8137 49.248L71.3754 42.2557C73.7646 44.5111 77.4574 45.8646 81.0051 45.8646C83.5394 45.8646 85.4943 44.5866 85.4943 42.782C85.4943 37.2931 68.4791 39.248 68.4791 27.5189C68.4791 20.5263 74.9954 16.1654 81.9466 16.1654C86.508 16.1654 91.504 17.97 93.8209 19.8497L89.4043 26.9174C87.594 25.564 85.2049 24.436 82.6706 24.436C80.064 24.436 77.8917 25.4889 77.8917 27.3683C77.8917 32.1051 94.9071 30.2254 94.9071 42.8571C94.9071 49.8497 88.3183 54.1354 80.9329 54.1354C76.0817 54.1354 70.9409 52.406 66.8137 49.248ZM128.213 40.3009L135.454 45.9397C131.327 51.654 126.114 54.1354 119.525 54.1354C108.664 54.1354 100.699 45.7143 100.699 35.188C100.699 24.5866 108.881 16.1654 119.597 16.1654C125.679 16.1654 131.11 19.0977 134.368 23.4586L127.707 29.5489C125.824 26.9926 123 25.188 119.597 25.188C114.167 25.188 110.112 29.624 110.112 35.188C110.112 40.9023 114.095 45.1129 119.815 45.1129C123.652 45.1129 126.693 42.7069 128.213 40.3009ZM166.95 40.6014V29.6991C164.995 26.9926 161.882 25.188 158.262 25.188C152.759 25.188 149.211 29.9249 149.211 35.188C149.211 40.9023 153.193 45.1129 158.479 45.1129C162.027 45.1129 165.14 43.3083 166.95 40.6014ZM176.363 16.9174V53.3834H167.312V50.4511C164.416 53.0074 161.085 54.1354 157.538 54.1354C152.324 54.1354 147.401 51.7294 144.287 47.97C141.536 44.6617 139.798 40.1503 139.798 35.188C139.798 24.436 147.473 16.1654 157.031 16.1654C161.013 16.1654 164.561 17.5189 167.312 19.8497V16.9174H176.363ZM196.637 0V53.3834H187.224V0H196.637ZM231.753 40.6014V29.6991C229.798 26.9926 226.685 25.188 223.064 25.188C217.562 25.188 214.014 29.9249 214.014 35.188C214.014 40.9023 217.996 45.1129 223.282 45.1129C226.829 45.1129 229.943 43.3083 231.753 40.6014ZM241.166 16.9174V53.3834H232.115V50.4511C229.219 53.0074 225.888 54.1354 222.34 54.1354C217.127 54.1354 212.204 51.7294 209.09 47.97C206.339 44.6617 204.601 40.1503 204.601 35.188C204.601 24.436 212.276 16.1654 221.833 16.1654C225.816 16.1654 229.364 17.5189 232.115 19.8497V16.9174H241.166ZM252.027 71.4286V16.9174H261.077V19.8497C263.829 17.5189 267.376 16.1654 271.359 16.1654C280.916 16.1654 288.591 24.436 288.591 35.188C288.591 40.1503 286.926 44.6617 284.175 47.97C281.061 51.7294 276.065 54.1354 270.852 54.1354C267.304 54.1354 264.263 53.0826 261.439 50.8271V71.4286H252.027ZM261.439 29.6991V40.6014C263.249 43.3083 266.363 45.1129 269.911 45.1129C275.196 45.1129 279.179 40.9023 279.179 35.188C279.179 29.9249 275.631 25.188 270.128 25.188C266.507 25.188 263.394 26.9926 261.439 29.6991ZM321.534 40.6014V29.6991C319.58 26.9926 316.469 25.188 312.846 25.188C307.343 25.188 303.797 29.9249 303.797 35.188C303.797 40.9023 307.78 45.1129 313.063 45.1129C316.611 45.1129 319.726 43.3083 321.534 40.6014ZM330.949 16.9174V53.3834H321.897V50.4511C319 53.0074 315.671 54.1354 312.123 54.1354C306.909 54.1354 301.986 51.7294 298.871 47.97C296.12 44.6617 294.383 40.1503 294.383 35.188C294.383 24.436 302.057 16.1654 311.617 16.1654C315.597 16.1654 319.146 17.5189 321.897 19.8497V16.9174H330.949ZM352.96 71.4286H343.111L352.814 49.6991L337.103 16.9174H347.457L357.737 38.7969L367.223 16.9174H377.143L352.96 71.4286Z" fill="#0B0B0B"/>
</svg>
