<svg width="321" height="52" viewBox="0 0 321 52" fill="none" xmlns="http://www.w3.org/2000/svg">
<g clip-path="url(#clip0_69_454)">
<mask id="mask0_69_454" style="mask-type:luminance" maskUnits="userSpaceOnUse" x="0" y="0" width="321" height="52">
<path d="M321 0H0V52H321V0Z" fill="white"/>
</mask>
<g mask="url(#mask0_69_454)">
<path fill-rule="evenodd" clip-rule="evenodd" d="M0.996974 50.1915V40.2843C6.49311 42.0665 11.3502 42.9314 15.5937 42.9314C21.4222 42.9314 24.3619 41.3589 24.3619 38.1875C24.3619 37.0081 23.9274 36.0121 23.0838 35.1996C22.2146 34.3347 19.9906 33.1814 16.3862 31.6613C9.94417 28.9617 5.75177 26.629 3.80895 24.7157C1.27817 22.1996 0 19.002 0 15.1492C0 10.2218 1.84057 6.44758 5.5217 3.85282C9.17727 1.28427 13.9065 0 19.7605 0C22.9815 0 27.6596 0.602823 33.7437 1.83468V11.3488C29.1934 9.4879 25.001 8.57056 21.0898 8.57056C15.5937 8.57056 12.8584 10.1169 12.8584 13.2097C12.8584 14.3629 13.4208 15.3065 14.52 16.0403C15.4403 16.6431 17.9711 17.875 22.1124 19.7883C28.0686 22.5141 32.0565 24.873 34.0249 26.8649C36.3768 29.25 37.5527 32.3165 37.5527 36.1169C37.5527 41.5423 35.252 45.6835 30.6506 48.5403C26.9183 50.8468 22.0868 52 16.1305 52C11.1201 52 6.05853 51.3972 0.97141 50.1653" fill="#0B0B0B"/>
<path fill-rule="evenodd" clip-rule="evenodd" d="M45.2729 0.864868H58.9494V51.004H45.2729V0.864868Z" fill="#0B0B0B"/>
<path fill-rule="evenodd" clip-rule="evenodd" d="M71.4497 51.004V0.864868H106.472V9.93342H84.6149V21.256H103.66V29.5383H84.6149V41.4112H107.034V51.004H71.4497Z" fill="#0B0B0B"/>
<path fill-rule="evenodd" clip-rule="evenodd" d="M115.956 51.004V0.864868H133.671L145.967 32.8931L158.57 0.864868H175.391V51.004H162.455V15.5161L148.114 51.502H139.653L125.593 15.5161V51.004H115.956Z" fill="#0B0B0B"/>
<path fill-rule="evenodd" clip-rule="evenodd" d="M187.917 51.004V0.864868H222.939V9.93342H201.082V21.256H220.101V29.5383H201.082V41.4112H223.501V51.004H187.917Z" fill="#0B0B0B"/>
<path fill-rule="evenodd" clip-rule="evenodd" d="M232.5 51.004V0.864868H248.323L265.118 34.4133V0.864868H274.73V51.004H259.341L242.111 16.9838V51.004H232.5Z" fill="#0B0B0B"/>
<path fill-rule="evenodd" clip-rule="evenodd" d="M284.419 50.1915V40.2842C289.864 42.0665 294.721 42.9314 299.015 42.9314C304.844 42.9314 307.758 41.3588 307.758 38.1875C307.758 37.008 307.349 36.0121 306.531 35.1996C305.662 34.3346 303.412 33.1814 299.808 31.6613C293.391 28.9617 289.199 26.6552 287.231 24.7157C284.7 22.2258 283.447 19.0282 283.447 15.1229C283.447 10.1955 285.288 6.42134 288.969 3.82658C292.599 1.25803 297.354 -0.0262451 303.208 -0.0262451C306.505 -0.0262451 310.749 0.524158 315.99 1.57255L317.191 1.78222V11.2963C312.641 9.43545 308.423 8.51811 304.512 8.51811C299.041 8.51811 296.331 10.0645 296.331 13.1572C296.331 14.3104 296.894 15.254 297.993 15.9879C298.862 16.5645 301.418 17.7963 305.636 19.7359C311.567 22.4617 315.529 24.8205 317.523 26.8125C319.875 29.1975 321.051 32.2641 321.051 36.0645C321.051 41.4899 318.75 45.631 314.175 48.4879C310.417 50.7943 305.585 51.9475 299.629 51.9475C294.593 51.9475 289.557 51.3447 284.47 50.1129" fill="#0B0B0B"/>
</g>
</g>
<defs>
<clipPath id="clip0_69_454">
<rect width="321" height="52" fill="white"/>
</clipPath>
</defs>
</svg>
