<svg width="197" height="32" viewBox="0 0 197 32" fill="none" xmlns="http://www.w3.org/2000/svg">
<g clip-path="url(#clip0_433_31)">
<path d="M65.4363 2.67132C64.3461 1.96987 63.0595 1.46705 61.5806 1.16702C60.1018 0.86699 57.7086 0.71594 54.4031 0.71594H36.6997C36.6568 0.858713 36.6589 0.848367 36.6159 0.991141C38.017 1.97814 38.5672 3.76592 38.5672 6.05652V25.7986C38.5672 28.0251 38.1418 29.8811 36.5872 31.013L36.6731 31.2882H46.4136C46.4565 31.1455 46.4546 31.1537 46.4975 31.011C44.9736 29.937 44.544 28.0479 44.5419 25.7986V20.5036H54.4522C59.5434 20.5036 63.3316 19.6469 65.8189 17.9337C68.3061 16.2203 69.5497 13.6505 69.5497 10.2218C69.5497 8.59955 69.1938 7.15318 68.4841 5.88271C67.7722 4.61222 66.7577 3.54245 65.4342 2.67339L65.4363 2.67132ZM60.9854 14.6395C59.5392 15.4921 57.1625 15.9183 53.859 15.9183H44.5419V5.30334H53.9572C57.3445 5.30334 59.7254 5.69855 61.0979 6.48484C62.4704 7.27319 63.1556 8.60783 63.1556 10.4887C63.1556 12.3696 62.4315 13.785 60.9854 14.6374V14.6395ZM106.014 26.6201L94.7518 3.07689C94.3099 2.15817 94.2281 1.52292 94.6025 0.94355L94.4756 0.711801H84.5552C84.4959 0.811123 84.4795 0.838021 84.4222 0.935273C84.7638 1.53947 84.7147 2.18713 84.3875 2.91548L72.4931 26.7297C71.6218 28.3355 70.6992 29.8604 69.5395 31.0234L69.6458 31.282H78.9956C79.0468 31.1578 79.0509 31.1474 79.104 31.0254C78.0159 29.8273 78.0281 28.1017 78.6602 26.6946L80.7158 22.3058H97.7341L99.8122 26.6201C100.508 28.0582 100.847 29.5873 99.5258 31.0254L99.6342 31.282H108.951C109.002 31.1578 109.007 31.1474 109.058 31.0234C107.669 29.5852 106.695 28.0354 106.02 26.6181L106.014 26.6201ZM82.8635 17.7184L89.1064 4.39495L95.5229 17.7184H82.8635ZM27.9534 17.7412C28.8206 19.0199 29.2543 20.4788 29.2543 22.1175C29.2543 25.1778 27.9349 27.5884 25.3005 29.3535C22.6638 31.1185 19.0249 32 14.3797 32C13.537 32 12.6145 31.9669 11.6163 31.8986C10.6161 31.8324 9.53813 31.7227 8.38041 31.5717C5.9504 31.3047 4.49609 31.0481 4.01746 31.0481C3.80267 31.0481 3.57972 31.0772 3.34858 31.1351C3.16041 31.1826 2.95177 31.2613 2.72063 31.3689L2.51405 31.2655L0.889951 24.3522C0.986086 24.2716 1.0004 24.2592 1.09654 24.1785C3.30563 25.1654 5.55155 26.0469 7.83631 26.6078C9.0104 26.8746 10.1661 27.0753 11.3074 27.2098C12.4468 27.3444 13.6291 27.4106 14.8522 27.4106C17.2822 27.4106 19.2234 26.9967 20.6777 26.169C22.132 25.3413 22.8602 24.2508 22.8602 22.8956C22.8602 21.5403 22.1995 20.3959 20.8761 19.6097C19.5547 18.8234 16.7974 18.1716 13.3263 17.6543C9.22723 17.0522 5.81745 16.0155 3.81904 14.5444C1.81859 13.0752 0.818359 11.1695 0.818359 8.82716C0.818359 6.23653 2.07835 4.11562 4.59835 2.47061C7.12041 0.823537 10.479 0 14.6763 0C16.329 0 18.6629 0.146912 21.2013 0.438668C23.7376 0.730423 25.82 1.23323 26.6259 1.24151C27.1924 1.24772 27.9145 1.1215 28.297 1.04701L28.4667 1.24772L26.2618 7.27734L26.0552 7.3601C24.4393 6.54692 22.3652 5.71717 20.4895 5.31161C18.5566 4.89362 16.1797 4.56256 14.0811 4.56256C11.9825 4.56256 10.205 4.88949 8.94904 5.54129C7.69313 6.19308 7.06517 7.08076 7.06517 8.2002C7.06517 9.11892 7.58063 9.93418 8.61563 10.646C9.64858 11.3578 11.0906 11.8792 12.9418 12.2144L15.607 12.591C19.4586 13.16 22.5615 13.8409 24.1979 14.6353C25.8342 15.4299 27.0861 16.4666 27.9534 17.7454V17.7412ZM147.747 0.71387L147.833 0.989072C146.696 1.79191 145.998 2.52027 145.998 6.66071V28.4513C145.998 29.5563 146.112 30.3467 146.539 31.0544L146.412 31.2862H137.025L136.898 31.0565C137.222 30.5329 137.132 30.0466 136.759 29.4756H136.761L121.007 4.98468L121.394 25.7945L121.408 26.5374C121.506 29.1259 122.142 30.1046 123.372 31.013L123.284 31.2862H114.026L113.94 31.011C115.347 30.0053 115.902 28.2113 115.902 25.7925V6.23239C115.902 3.45761 115.417 2.03609 113.926 0.991141L114.012 0.71594H125.426L125.554 0.94355C125.347 1.27876 125.43 1.74225 125.763 2.29887L140.713 26.287L140.627 6.66486C140.627 3.02516 139.83 1.79813 138.672 0.99528C138.715 0.852506 138.712 0.860783 138.755 0.718009H147.746L147.747 0.71387ZM190.764 31.0068C190.721 31.1516 190.724 31.1392 190.681 31.2841H190.082H179.73L179.63 31.015C181.005 29.8625 179.881 28.0975 178.046 25.9766L172.081 19.1049L165.769 25.9766C163.736 28.1927 162.659 29.9329 164.045 31.013C163.998 31.1495 164.001 31.1474 163.954 31.2841H153.244C153.203 31.1371 153.207 31.1516 153.166 31.0047C155.303 29.6908 157.431 27.814 158.893 26.2436L168.91 15.4548L160.253 5.48748C158.412 3.35622 156.337 1.78778 154.561 1.00356L154.62 0.71387H166.112C166.158 0.846298 166.161 0.848367 166.208 0.980795C164.989 2.05471 165.741 3.1969 167.715 5.47508L172.764 11.2998L178.658 4.9495C179.959 3.5528 180.806 1.93055 179.792 0.972518L179.896 0.711801H189.276C189.321 0.852506 189.319 0.846298 189.364 0.984934C188.116 1.8871 186.8 3.1162 185.435 4.56256L175.911 14.9333L184.635 24.9979H184.64C186.904 27.6257 189.031 29.8708 190.764 31.0047V31.0068ZM191.521 3.32725C191.521 1.59328 192.77 0.436598 194.352 0.436598C195.932 0.436598 197.182 1.59328 197.182 3.32725C197.182 5.06123 195.92 6.19102 194.352 6.19102C192.782 6.19102 191.521 5.06123 191.521 3.32725ZM194.352 5.74821C195.64 5.74821 196.717 4.84811 196.717 3.32725C196.717 1.8064 195.641 0.879406 194.352 0.879406C193.06 0.879406 191.998 1.8064 191.998 3.32725C191.998 4.84811 193.048 5.74821 194.352 5.74821ZM193.462 1.94297H194.51C194.989 1.94297 195.415 2.19748 195.415 2.72305C195.415 3.08516 195.202 3.35415 194.871 3.43486L195.508 4.51083H194.951L194.38 3.46175H193.916V4.51083H193.463V1.94297H193.462ZM194.484 3.09964C194.708 3.09964 194.909 3.00654 194.909 2.73754C194.909 2.46854 194.711 2.36095 194.484 2.36095H193.913V3.09964H194.484Z" fill="#0B0B0B"/>
</g>
<defs>
<clipPath id="clip0_433_31">
<rect width="197" height="32" fill="white"/>
</clipPath>
</defs>
</svg>
