<svg width="372" height="50" viewBox="0 0 372 50" fill="none" xmlns="http://www.w3.org/2000/svg">
<g clip-path="url(#clip0_69_625)">
<path d="M0 33.9839L7.69142 32.61C7.69662 33.8478 7.92384 35.0745 8.36224 36.2317C8.83483 37.4828 9.50446 38.6498 10.3456 39.6883C11.3248 40.8581 12.5709 41.7741 13.9782 42.3585C15.6483 43.0751 17.4509 43.4292 19.2673 43.3974C22.3139 43.3974 24.8615 42.6822 26.9103 41.2516C28.9591 39.821 29.9835 37.8532 29.9835 35.3481C29.9968 34.4468 29.8542 33.5499 29.5621 32.6974C29.3072 31.954 28.8883 31.2778 28.3367 30.719C27.2347 29.5984 25.8465 28.8031 24.3239 28.4203C23.516 28.1987 22.6972 28.0197 21.8707 27.8838C21.0989 27.7608 20.2312 27.6661 19.2673 27.5998C7.34431 26.4443 1.382 21.9633 1.38039 14.1567C1.36056 12.3516 1.71517 10.5619 2.42173 8.90137C3.05818 7.39182 4.00271 6.03247 5.19462 4.91069C6.39023 3.81413 7.74077 2.90048 9.20259 2.19927C10.6994 1.46798 12.2807 0.924978 13.9104 0.582604C15.5347 0.244341 17.1894 0.075142 18.8484 0.0777006C21.0299 0.0723781 23.1996 0.39978 25.2829 1.04867C27.285 1.66207 29.1779 2.58863 30.8916 3.79408C32.544 4.97238 33.9166 6.50159 34.9117 8.27267C35.9392 10.0909 36.5125 12.1314 36.5827 14.2199L29.1601 15.4336C29.0579 14.0256 28.6628 12.6546 28.0001 11.4089C27.4213 10.313 26.5913 9.37041 25.5783 8.65863C24.6153 7.99137 23.5527 7.48173 22.4301 7.14878C21.2683 6.80852 20.0635 6.63846 18.8532 6.64387C17.654 6.6403 16.4588 6.78129 15.2932 7.06382C14.1867 7.33029 13.1258 7.75976 12.145 8.33821C11.1793 8.91044 10.3802 9.72649 9.82739 10.7049C9.23223 11.7569 8.93027 12.95 8.95315 14.1592C8.95315 18.0074 12.5365 20.3329 19.7032 21.1356C21.0142 21.2861 22.1702 21.4422 23.1711 21.6041C24.1721 21.7659 25.3354 22.0175 26.6609 22.359C27.8389 22.658 28.99 23.0551 30.1021 23.546C31.1399 24.0236 32.1286 24.6016 33.0542 25.2719C34.0082 25.9411 34.8405 26.7696 35.5147 27.7212C36.2051 28.7406 36.7344 29.8606 37.084 31.0419C37.504 32.4454 37.7089 33.9047 37.6919 35.37C37.6919 39.7231 35.9894 43.2478 32.5844 45.9438C29.1795 48.6399 24.7461 49.983 19.2843 49.9733C16.8543 49.9974 14.4335 49.6703 12.0966 49.0024C9.92346 48.355 8.11523 47.5046 6.67188 46.4511C5.25681 45.4205 4.01498 44.17 2.99326 42.7469C2.03521 41.4351 1.28757 39.9814 0.777376 38.4382C0.309866 36.9977 0.048144 35.498 0 33.9839Z" fill="#0B0B0B"/>
<path d="M40.8013 19.9752V14.4188H46.7805V4.25281H54.2031V14.4188H61.4248V19.9752H54.2031V39.8242C54.2031 41.1981 54.438 42.1448 54.9079 42.6643C55.3777 43.1838 56.2172 43.4427 57.4265 43.4411C57.7639 43.4411 58.3015 43.4192 59.0393 43.3755C59.7772 43.3318 60.3479 43.3092 60.7515 43.3076V49.3009L56.3197 49.5703H55.4576C52.2997 49.5703 50.066 48.7369 48.7567 47.0701C47.4473 45.4032 46.7886 42.8213 46.7805 39.3242V19.9752H40.8013Z" fill="#0B0B0B"/>
<path d="M65.273 31.8599C65.273 26.4516 66.7341 22.075 69.6563 18.73C72.5785 15.385 76.4581 13.7125 81.2951 13.7125C86.1386 13.7125 89.9674 15.2386 92.7814 18.2906C95.5955 21.3427 97.0065 25.4952 97.0146 30.7482C97.0282 31.8502 96.983 32.9522 96.879 34.0495H72.9644C72.9793 36.5293 73.8786 38.922 75.4999 40.7953C76.2449 41.696 77.1828 42.4169 78.244 42.9044C79.3051 43.3919 80.4623 43.6334 81.6293 43.6111C83.5406 43.6351 85.4169 43.0957 87.025 42.0599C88.6281 41.0291 89.8439 39.3914 90.6721 37.1468C91.2097 37.2812 93.4829 37.9366 97.4917 39.1131C97.0587 40.4775 96.4367 41.7743 95.6439 42.9654C94.7794 44.2495 93.7456 45.4106 92.5707 46.4172C91.1854 47.5788 89.587 48.4578 87.8653 49.0048C85.8538 49.6688 83.747 49.9968 81.6293 49.9758C76.8391 49.9758 72.9151 48.2976 69.8573 44.9413C66.7994 41.585 65.2713 37.2245 65.273 31.8599ZM73.3349 28.4931H89.0883C88.9736 25.8423 88.2681 23.7774 86.9717 22.2983C85.6752 20.8192 83.7831 20.0788 81.2951 20.0772C78.9444 20.0772 77.0579 20.9066 75.6355 22.5653C74.214 24.2189 73.4019 26.3114 73.3349 28.4931Z" fill="#0B0B0B"/>
<path d="M103.786 49.301V14.4189H110.47L111.196 18.1474C113.164 15.1908 115.84 13.7125 119.224 13.7125C120.336 13.7046 121.447 13.7711 122.549 13.9116V20.2787H118.631C116.101 20.2787 114.231 21.1218 113.022 22.8081C111.813 24.4943 111.208 27.0836 111.208 30.5758V49.301H103.786Z" fill="#0B0B0B"/>
<path d="M124.494 31.8599C124.494 26.4516 125.955 22.075 128.877 18.73C131.8 15.385 135.679 13.7125 140.516 13.7125C145.36 13.7125 149.189 15.2386 152.005 18.2906C154.821 21.3427 156.231 25.4952 156.236 30.7482C156.25 31.8502 156.206 32.9522 156.103 34.0494H132.186C132.2 36.5298 133.101 38.9228 134.724 40.7952C135.469 41.696 136.406 42.4169 137.468 42.9044C138.529 43.3919 139.686 43.6334 140.853 43.6111C142.764 43.6352 144.639 43.0958 146.246 42.0599C147.849 41.0291 149.069 39.389 149.905 37.1396C150.443 37.2739 152.715 37.9293 156.723 39.1058C156.287 40.4733 155.662 41.7726 154.865 42.9654C154.002 44.2506 152.968 45.4119 151.792 46.4172C150.408 47.5788 148.81 48.4578 147.089 49.0048C145.077 49.6686 142.971 49.9966 140.853 49.9758C136.061 49.9758 132.136 48.2976 129.078 44.9413C126.021 41.585 124.493 37.2245 124.494 31.8599ZM132.556 28.4931H148.297C148.186 25.8423 147.48 23.7774 146.181 22.2983C144.881 20.8192 142.989 20.0788 140.504 20.0772C138.152 20.0772 136.265 20.9066 134.845 22.5653C133.428 24.221 132.621 26.3131 132.556 28.4931Z" fill="#0B0B0B"/>
<path d="M160.924 31.7992C160.924 26.3618 162.377 21.9859 165.283 18.6717C168.189 15.3575 172.145 13.7011 177.15 13.7028C182.103 13.7028 186.042 15.3704 188.968 18.7057C191.893 22.0409 193.349 26.4054 193.336 31.7992C193.336 37.2463 191.879 41.6359 188.965 44.9679C186.051 48.3 182.106 49.9652 177.13 49.9636C172.125 49.9636 168.17 48.2984 165.264 44.9679C162.358 41.6375 160.911 37.2479 160.924 31.7992ZM168.347 31.7992C168.347 35.5552 169.129 38.4608 170.693 40.516C172.258 42.5713 174.403 43.5997 177.13 43.6013C179.836 43.6013 181.976 42.5729 183.55 40.516C185.124 38.4592 185.912 35.5536 185.914 31.7992C185.914 28.0901 185.12 25.2071 183.533 23.1503C181.946 21.0934 179.812 20.0658 177.13 20.0675C174.403 20.0675 172.258 21.0894 170.693 23.1333C169.129 25.1772 168.347 28.0658 168.347 31.7992Z" fill="#0B0B0B"/>
<path d="M199.101 49.301V0.750122H206.792V42.7445H228.994V49.2985L199.101 49.301Z" fill="#0B0B0B"/>
<path d="M231.467 38.8799C231.467 36.0107 232.738 33.5623 235.279 31.5346C237.82 29.5069 241.274 28.493 245.641 28.493H254.575V26.4054C254.578 25.8356 254.528 25.2667 254.425 24.7062C254.299 24.1127 254.077 23.5437 253.769 23.0216C253.441 22.4368 253.001 21.9222 252.476 21.5069C251.825 21.031 251.09 20.6826 250.311 20.4801C249.26 20.1941 248.174 20.0584 247.085 20.0771C244.912 20.0771 243.217 20.6152 241.999 21.6914C240.782 22.7675 240.136 24.3389 240.062 26.4054C239.301 26.2727 238.098 26.0429 236.451 25.716C234.804 25.3891 233.556 25.1585 232.707 25.0242C232.954 22.5337 233.769 20.4226 235.151 18.6911C236.493 16.9962 238.261 15.6887 240.273 14.9019C242.445 14.0795 244.753 13.6743 247.075 13.7076C252.001 13.7076 255.714 14.9083 258.215 17.3099C260.716 19.7114 261.97 23.2918 261.976 28.0512V40.1883C261.976 41.2612 262.117 42.0663 262.397 42.6036C262.678 43.1409 263.163 43.4087 263.851 43.4071C264.455 43.4293 265.059 43.3387 265.63 43.1401V49.2304C264.192 49.5952 262.714 49.7771 261.23 49.7718C259.527 49.7718 258.167 49.3203 257.15 48.4173C256.105 47.4678 255.412 46.1909 255.186 44.7956C254.199 46.0368 252.782 47.193 250.935 48.2643C249.088 49.3356 246.877 49.902 244.302 49.9635C240.316 49.9635 237.175 48.9521 234.879 46.9293C232.584 44.9064 231.446 42.2233 231.467 38.8799ZM239.023 38.8799C239.015 39.5208 239.144 40.1559 239.402 40.7423C239.661 41.3286 240.042 41.8525 240.52 42.2783C241.516 43.2056 243.066 43.6692 245.169 43.6692C248.037 43.6692 250.321 42.8698 252.023 41.2709C253.724 39.6721 254.575 37.8434 254.575 35.785V34.0421H246.38C245.13 34.0161 243.883 34.1856 242.685 34.5446C241.656 34.8795 240.895 35.31 240.401 35.8359C239.96 36.284 239.602 36.8067 239.343 37.3798C239.136 37.853 239.028 38.3634 239.025 38.8799H239.023Z" fill="#0B0B0B"/>
<path d="M270.212 49.301V0.750122H277.635V18.6281C278.442 17.4613 279.8 16.3503 281.708 15.2952C283.557 14.2555 285.642 13.7105 287.762 13.7125C292.383 13.7125 296.026 15.3689 298.691 18.6815C301.357 21.9941 302.691 26.3667 302.692 31.7993C302.692 37.1574 301.292 41.5267 298.493 44.9073C295.693 48.2879 292.117 49.9758 287.765 49.9709C285.59 49.9956 283.45 49.4284 281.572 48.33C279.709 47.2344 278.397 46.083 277.635 44.8758L277.031 49.2985L270.212 49.301ZM277.635 31.7993C277.635 35.5763 278.397 38.4892 279.923 40.538C281.449 42.5867 283.581 43.6095 286.319 43.6062C289.034 43.6062 291.205 42.5721 292.831 40.504C294.457 38.4358 295.27 35.5342 295.27 31.7993C295.27 28.0902 294.457 25.2072 292.831 23.1504C291.205 21.0935 289.034 20.0659 286.319 20.0675C283.574 20.0675 281.442 21.0838 279.923 23.1164C278.404 25.1489 277.641 28.0432 277.635 31.7993Z" fill="#0B0B0B"/>
<path d="M306.642 38.9503C311.456 38.0328 313.886 37.5748 313.932 37.5764C314.624 41.5979 317.199 43.6094 321.657 43.611C322.237 43.6027 322.815 43.5467 323.386 43.4435C324.193 43.298 324.99 43.0985 325.771 42.8464C326.67 42.5802 327.474 42.0622 328.089 41.3535C328.704 40.6465 329.033 39.7349 329.012 38.7974C329.038 38.0144 328.78 37.2485 328.285 36.6419C327.761 36.0372 327.08 35.5888 326.319 35.3456C325.394 35.0368 324.443 34.8125 323.478 34.6757L320.102 34.1708L316.562 33.6391C315.409 33.4701 314.282 33.1603 313.205 32.7167C312.182 32.3026 311.226 31.7399 310.367 31.0467C309.486 30.3019 308.809 29.3445 308.4 28.2648C307.89 26.9369 307.644 25.522 307.674 24.0994C307.674 21.1638 308.965 18.6992 311.549 16.7055C314.132 14.7117 317.289 13.7141 321.02 13.7125C322.815 13.6984 324.604 13.9071 326.348 14.3339C327.934 14.7254 329.448 15.3669 330.833 16.2345C332.194 17.0972 333.337 18.2647 334.172 19.6451C335.082 21.1578 335.66 22.8476 335.868 24.6019C335.033 24.7362 332.582 25.1942 328.515 25.9758C328.092 22.0434 325.663 20.0772 321.228 20.0772C319.452 20.0772 317.991 20.4744 316.845 21.269C315.699 22.0636 315.121 23.0111 315.113 24.1115C315.113 25.4337 315.668 26.3755 316.777 26.937C317.886 27.4986 319.581 27.891 321.863 28.1143L326.391 28.8256C327.737 29.0438 329.056 29.4026 330.327 29.8961C331.515 30.3191 332.621 30.9467 333.594 31.7506C334.48 32.5441 335.18 33.5249 335.642 34.6223C336.195 35.9261 336.467 37.3324 336.439 38.7489C336.439 42.322 335.056 45.0861 332.291 47.0409C329.525 48.9958 325.981 49.9733 321.659 49.9733C317.336 49.9733 313.881 48.9618 311.297 46.939C308.756 44.9945 307.083 42.1238 306.642 38.9503Z" fill="#0B0B0B"/>
<path fill-rule="evenodd" clip-rule="evenodd" d="M363.243 16.2759C363.3 16.6405 363.329 17.0089 363.33 17.3779C363.329 17.747 363.3 18.1154 363.243 18.48L372 23.546L369.503 27.8814L360.744 22.8154C360.171 23.2835 359.528 23.6572 358.838 23.9223V34.0543H353.844V23.9247C353.154 23.6596 352.509 23.2859 351.936 22.8178L343.176 27.879L340.68 23.546L349.437 18.4824C349.32 17.7515 349.32 17.0068 349.437 16.2759L340.68 11.2099L343.176 6.87692L351.936 11.9429C352.509 11.4748 353.154 11.1012 353.844 10.836V0.706421H358.838V10.836C359.528 11.1012 360.171 11.4748 360.744 11.9429L369.503 6.87692L372 11.2099L363.243 16.2759ZM359.501 17.3779C359.501 19.1275 358.086 20.5457 356.341 20.5457C354.596 20.5457 353.181 19.1275 353.181 17.3779C353.181 15.6284 354.596 14.2102 356.341 14.2102C358.086 14.2102 359.501 15.6284 359.501 17.3779Z" fill="#0B0B0B"/>
</g>
<defs>
<clipPath id="clip0_69_625">
<rect width="372" height="50" fill="white"/>
</clipPath>
</defs>
</svg>
