<svg width="332" height="100" viewBox="0 0 332 100" fill="none" xmlns="http://www.w3.org/2000/svg">
<g clip-path="url(#clip0_69_375)">
<path fill-rule="evenodd" clip-rule="evenodd" d="M0 0H331.034V99.1379H0V0ZM50.0229 17.7702C53.9654 17.7702 56.5516 19.6783 58.3217 22.7013V22.6898L65.1723 14.5633C62.1263 10.5059 55.0688 7.87368 49.678 7.87368C39.4596 7.87368 30.701 15.9311 29.1033 25.8852C27.6206 35.207 32.701 39.1151 39.9999 42.299C40.2904 42.4183 40.5854 42.5374 40.8828 42.6574L40.885 42.6583L40.8858 42.6586C45.1418 44.3761 49.8891 46.2919 48.9654 52.0921C48.2183 56.7128 44.8389 60.7817 39.77 60.7817C34.701 60.7817 31.1033 56.6323 30.2297 52.0116L21.4137 59.4254C24.4826 66.3564 29.8389 71.138 38.1953 71.138C50.5746 71.138 59.5056 62.6208 61.4251 50.5863C63.309 38.7853 55.619 35.3412 49.2428 32.4854C44.7258 30.4624 40.8681 28.7346 41.5401 24.5403C42.1608 20.6323 46.0803 17.7702 50.0229 17.7702ZM78.8393 30.4255L75.4599 51.6209C74.7358 56.0807 74.6094 61.4255 80.322 61.4255C86.0347 61.4255 87.6094 56.0807 88.322 51.6209L91.7128 30.4255H102.977L99.299 53.46C97.4829 64.8508 90.5634 70.8393 78.8278 70.8393C67.0921 70.8393 62.0806 64.8508 63.9082 53.46L67.5864 30.4255H78.8393ZM114.356 49.9427C113.517 55.207 116.138 60.9427 121.931 60.9427C127.724 60.9427 132.184 55.207 133.023 49.9427C133.862 44.6783 131.23 39.0346 125.437 39.0346C119.644 39.0346 115.195 44.6783 114.356 49.9427ZM107.356 30.4254H118.609H118.621L118.046 34.0116C121.103 30.9886 125.575 29.1496 129.759 29.1496C140.931 29.1496 146.115 39.5059 144.471 49.7932C142.77 60.4599 134.517 70.8277 122.851 70.8277C118.828 70.8277 114.85 69.0691 113.103 65.8737H112.942L109.023 90.4139H97.7584L107.356 30.4254ZM160.908 34.5059H161.069C163.874 31.0691 167.552 29.1611 171.736 29.1611C173.345 29.1611 174.897 29.5748 176.253 30.1151L173.219 40.4829C172 39.5289 170.472 39.0461 168.793 39.0461C160.989 39.0461 159.081 45.8967 158.115 51.9427L155.299 69.5404H144.046L150.299 30.4254H161.552L160.897 34.5059H160.908ZM193.77 36.9541C189.276 36.9541 186.161 40.7817 184.943 44.8507H199.977C200.058 40.8622 198.265 36.9541 193.77 36.9541ZM209.713 50.4139L209.483 51.7702H209.472H183.495C182.724 56.7013 183.759 62.2875 189.621 62.2875C193.322 62.2875 196.012 60.0576 198.035 56.9426L208.15 58.6208C204.173 66.4254 196.552 70.8162 188.276 70.8162C176.046 70.8162 169.943 62.207 171.839 50.3334C173.736 38.4599 181.437 29.138 194.38 29.138C207.322 29.138 211.598 38.6208 209.713 50.4139ZM225.805 33.9427H225.966C228.644 30.8277 232.771 29.1496 236.391 29.1496C241.299 29.1496 244.84 31.1381 246.748 35.2875C249.771 31.4599 254.644 29.1496 259.23 29.1496C269.276 29.1496 270.575 36.6438 269.207 45.1725L265.311 69.5404H254.046L257.334 48.9886C257.35 48.8884 257.366 48.786 257.383 48.6815L257.41 48.512C258.043 44.6024 259.099 38.0691 253.771 38.0691C247.726 38.0691 246.45 46.1186 245.801 50.215L245.782 50.3335L242.702 69.5289H231.449L234.61 49.7013C234.65 49.4555 234.694 49.1933 234.741 48.9178C235.421 44.9035 236.578 38.0691 231.092 38.0691C225.106 38.0691 223.941 45.4632 223.268 49.7366L223.266 49.7458C223.234 49.9492 223.203 50.1454 223.173 50.3335L220.104 69.5289H208.84L215.104 30.4139H226.357L225.794 33.9312L225.805 33.9427ZM293.104 36.9541C288.609 36.9541 285.494 40.7817 284.288 44.8507H299.322C299.402 40.8622 297.598 36.9541 293.104 36.9541ZM309.046 50.4139L308.828 51.7702H282.851C282.069 56.7013 283.104 62.2875 288.966 62.2875C292.667 62.2875 295.357 60.0576 297.391 56.9426L307.494 58.6208C303.517 66.4254 295.897 70.8162 287.609 70.8162C275.38 70.8162 269.276 62.207 271.173 50.3334C273.081 38.4599 280.782 29.138 293.724 29.138C306.667 29.138 310.943 38.6208 309.046 50.4139Z" fill="#0B0B0B"/>
</g>
<defs>
<clipPath id="clip0_69_375">
<rect width="331.034" height="100" fill="white"/>
</clipPath>
</defs>
</svg>
