<svg width="305" height="112" viewBox="0 0 305 112" fill="none" xmlns="http://www.w3.org/2000/svg">
<g clip-path="url(#clip0_383_6)">
<path d="M125.506 60.9V29.1666H138.828V61.3666C138.828 66.7333 141.632 70.2333 148.176 70.2333C154.253 70.2333 157.291 66.5 157.291 61.1333V29.1666H170.613V60.9C170.613 73.2666 163.134 80.7333 148.176 80.7333C132.985 80.9666 125.506 73.5 125.506 60.9ZM176.69 41.3H188.609V46.6666H188.843C191.648 42.4666 195.387 40.3666 200.763 40.3666C209.176 40.3666 214.084 46.4333 214.084 55.0666V80.0333H201.697V57.4C201.697 53.4333 199.594 50.6333 195.621 50.6333C191.648 50.6333 188.843 54.1333 188.843 58.8V80.0333H176.456V41.3H176.69ZM220.395 26.1333H232.782V36.1666H220.395V26.1333ZM220.395 41.3H232.782V79.8H220.395V41.3ZM242.364 69.7666V51.3333H237.222V41.3H242.364V29.1666H254.284V41.3H261.295V51.3333H254.284V67.2C254.284 70.2333 255.92 70.9333 258.491 70.9333H261.295V79.8C260.127 80.0333 257.789 80.5 254.517 80.5C247.506 80.5 242.364 78.1666 242.364 69.7666ZM269.008 83.0666H273.215C276.72 83.0666 278.356 81.6666 278.356 79.1C278.356 77.4666 277.655 75.1333 276.019 71.1666L264.567 41.5333H277.422L282.563 57.8666C283.732 61.6 284.9 66.7333 284.9 66.7333H285.134C285.134 66.7333 286.303 61.6 287.471 57.8666L292.613 41.5333H305L291.678 80.5C288.64 89.6 284.9 92.6333 277.188 92.6333H269.241L269.008 83.0666Z" fill="#0B0B0B"/>
<path d="M99.3295 78.4V26.1333L53.9885 0V20.0667L71.751 30.3333C72.4521 30.8 72.4521 31.7333 71.751 31.9667L50.7165 44.1C50.0153 44.5667 49.3142 44.3333 48.8467 44.1L27.8123 31.9667C27.1111 31.7333 27.1111 30.5667 27.8123 30.3333L45.5747 20.0667V0L0 26.1333V78.4L17.295 68.3667V47.8333C17.295 47.1333 18.2299 46.6667 18.6973 46.9L39.7318 59.0333C40.433 59.5 40.6667 59.9667 40.6667 60.6667V84.9333C40.6667 85.6333 39.7318 86.1 39.2644 85.8667L21.5019 75.6L4.2069 85.6333L49.5479 112L94.8889 85.8667L77.5939 75.8333L59.8314 86.1C59.1303 86.5667 58.4291 86.1 58.4291 85.1667V60.9C58.4291 60.2 58.8966 59.5 59.364 59.2667L80.3985 47.1333C81.0996 46.6667 81.8008 47.1333 81.8008 48.0667V68.6L99.3295 78.4Z" fill="#0B0B0B"/>
<path d="M49.5479 112L94.8888 85.8666L77.5938 75.8333L59.8314 86.1C59.1302 86.5666 58.4291 86.1 58.4291 85.1666V60.9C58.4291 60.2 58.8965 59.5 59.3639 59.2666L80.3984 47.1333C81.0996 46.6666 81.8007 47.1333 81.8007 48.0666V68.6L99.0957 78.6333V26.1333L49.5479 54.8333V112Z" fill="#0B0B0B"/>
<path d="M53.9885 0V20.0667L71.751 30.3333C72.4521 30.8 72.4521 31.7333 71.751 31.9667L50.7165 44.1C50.0153 44.5667 49.3142 44.3333 48.8467 44.1L27.8123 31.9667C27.1111 31.7333 27.1111 30.5667 27.8123 30.3333L45.5747 20.0667V0L0 26.1333L49.5479 54.8333L99.0958 26.1333L53.9885 0Z" fill="#0B0B0B"/>
<path d="M39.4981 86.1L21.7356 75.8333L4.44061 85.8666L49.7816 112V54.8333L0 26.1333V78.4L17.295 68.3666V47.8333C17.295 47.1333 18.2299 46.6666 18.6973 46.9L39.7318 59.0333C40.433 59.5 40.6667 59.9666 40.6667 60.6666V84.9333C40.9004 85.8666 40.1992 86.5666 39.4981 86.1Z" fill="#0B0B0B"/>
</g>
<defs>
<clipPath id="clip0_383_6">
<rect width="305" height="112" fill="white"/>
</clipPath>
</defs>
</svg>
