<svg width="371" height="55" viewBox="0 0 371 55" fill="none" xmlns="http://www.w3.org/2000/svg">
<g clip-path="url(#clip0_69_504)">
<path d="M76.1382 2.2124C73.3412 5.19401 72.4812 6.79498 70.4738 11.3031L51.9073 54.572L38.769 24.2471L25.7874 54.572L7.06762 11.3031C5.13042 6.79498 4.27691 5.33984 1.3999 2.2124H25.1416C24.2656 2.92699 23.5638 3.83675 23.091 4.87096C22.6179 5.90517 22.3866 7.03601 22.4149 8.17561C22.4149 9.92243 22.7026 11.1572 23.6359 13.4129L30.7358 30.5895L35.972 17.7913L33.0471 10.8655C31.3272 6.86629 30.106 4.38378 28.3863 2.2124H52.128C49.8327 3.73885 48.6851 5.70281 48.6851 8.17561C48.6851 9.92243 48.9696 11.1572 49.9031 13.4129L57.1469 30.5895L64.3201 13.429C65.2535 11.1604 65.5988 9.93864 65.5988 8.26311C65.5988 6.08201 64.0931 3.46662 62.3701 2.2286L76.1382 2.2124Z" fill="#0B0B0B"/>
<path d="M100.816 40.7526C98.5211 50.8609 93.0004 54.2054 84.9672 54.2054C75.7863 54.2054 67.1777 47.4451 67.1777 34.7181C67.1777 22.5001 74.7794 13.8469 84.7595 13.8469C91.287 13.8469 100.468 17.266 100.468 31.6718H78.7913C80.2968 39.3785 85.2453 43.3777 92.131 43.3777C95.6473 43.3713 98.0864 42.7167 100.816 40.7526ZM78.3597 26.6451V27.5785H87.8283C87.8283 20.3059 86.2491 18.0536 83.2378 18.0536C80.1529 18.0665 78.3597 21.1907 78.3597 26.6451Z" fill="#0B0B0B"/>
<path d="M144.291 15.3735C138.335 9.6307 132.463 6.6491 127.937 6.6491V38.7337C127.937 45.2156 129.586 49.1337 133.962 53.1329H106.835C111.212 49.1337 112.861 45.2058 112.861 38.7337V6.6491C108.341 6.6491 102.175 9.6307 96.5068 15.3735L99.3775 0.03125C101.311 1.5577 104.898 2.21236 108.916 2.21236H131.869C135.887 2.21236 139.47 1.56418 141.407 0.03125L144.291 15.3735Z" fill="#0B0B0B"/>
<path d="M160.773 53.1169H137.965C140.762 49.7724 141.98 47.5912 141.98 42.2827V30.4956C141.98 26.3506 141.408 24.3865 138.681 21.8393L137.102 20.3873L154.319 13.8408V22.9379C155.968 17.7007 158.548 13.8473 162.781 13.8473C166.223 13.8473 168.448 16.3201 168.448 19.9564C168.448 23.8097 166.079 26.4996 162.781 26.4996C162.064 24.8274 160.341 24.0301 158.766 24.0301C157.487 24.0301 156.253 24.3931 155.607 25.0478V41.8387C155.607 47.4454 156.541 48.9685 160.773 53.1169Z" fill="#0B0B0B"/>
<path d="M207.905 46.4274C207.046 51.0067 203.315 54.2054 198.222 54.2054C193.919 54.2054 190.62 51.5901 189.618 48.6086C187.446 52.5333 183.438 54.2054 179.135 54.2054C173.18 54.2054 169.165 50.2062 169.165 44.7518C169.165 38.3544 173.685 33.9175 184.084 31.3735L188.879 30.21V23.6636C188.879 19.5931 187.516 17.9207 185.078 17.9207C182.782 17.9207 181.277 19.4472 181.277 21.5569C181.277 23.3751 182.136 24.5386 183.641 25.9904C183.641 28.3175 180.056 30.7188 176.328 30.7188C175.504 30.7369 174.684 30.5858 173.919 30.2742C173.154 29.9627 172.459 29.4975 171.876 28.9063C171.293 28.3153 170.834 27.6106 170.527 26.835C170.22 26.0593 170.071 25.2284 170.088 24.3928C170.088 18.2124 176.83 13.8469 186.711 13.8469C197.039 13.8469 202.492 18.2837 202.492 28.1716V43.8088C202.492 45.7727 203.64 47.0789 205.434 47.0789C206.533 47.0789 207.322 46.8617 207.905 46.4274ZM188.898 45.3352V33.6259L187.967 33.9175C184.882 34.8639 182.801 36.8993 182.801 40.973C182.801 44.4633 184.163 46.57 186.389 46.57C187.526 46.57 188.459 46.207 188.888 45.3352H188.898Z" fill="#0B0B0B"/>
<path d="M227.334 53.1169H208.04C210.047 51.1529 211.339 48.2557 211.339 42.2827V30.4956C211.339 26.4932 210.837 24.4579 208.462 22.2055L206.812 20.6758L224.599 13.8408V19.5123C226.679 16.0219 231.056 13.8408 235.428 13.8408C242.314 13.8408 246.118 17.6229 246.118 24.3865V44.7555C246.118 48.9006 247.193 51.448 248.915 53.1201H230.132C231.996 51.3021 232.496 48.8293 232.496 46.8652V26.0655C232.496 23.0092 231.494 21.4827 228.695 21.4827C228.011 21.4641 227.329 21.5831 226.688 21.8328C226.048 22.0826 225.461 22.4582 224.966 22.9379V46.862C224.966 48.8261 225.468 51.2372 227.334 53.1169Z" fill="#0B0B0B"/>
<path d="M252.438 51.0068V38.5716C257.6 45.4065 262.987 49.1886 268.002 49.1886C270.438 49.1886 271.586 47.8923 271.586 46.0612C271.586 44.3175 270.655 43.3 269.007 42.6453L260.694 39.5178C254.301 37.1164 251.424 33.1172 251.424 27.154C251.424 19.4472 257.665 13.8469 266.56 13.8469C271.355 13.8469 276.675 15.2308 279.328 17.1915V27.8086C276.029 21.9199 270.65 18.6467 265.414 18.6467C262.759 18.6467 261.394 19.5184 261.394 21.1907C261.394 22.8631 262.399 23.5178 264.623 24.4639L274.456 28.5508C279.405 30.586 281.629 34.8768 281.629 40.0396C281.629 48.547 275.534 54.2184 266.35 54.2184C261.536 54.1994 256.785 53.1026 252.438 51.0068Z" fill="#0B0B0B"/>
<path d="M283.062 18.5755L287.217 12.0938C292.53 3.95919 296.772 0.03125 303.936 0.03125C309.531 0.03125 313.117 2.50404 313.117 6.21159C313.117 9.41358 310.534 11.7405 305.084 11.7405C305.084 7.22923 302.571 5.55693 300.062 5.55693C297.552 5.55693 295.615 7.37507 295.615 10.3567C295.615 12.3919 296.69 14.4304 299.988 14.9393H307.961L305.084 18.5755H300.205V40.1726C300.205 44.2431 300.846 47.8795 305 51.5902L306.724 53.1168H281.984C284.861 50.2 286.575 46.6349 286.575 41.4074V18.5755H283.062Z" fill="#0B0B0B"/>
<path d="M339.288 40.7526C336.994 50.8609 331.469 54.2054 323.437 54.2054C314.255 54.2054 305.65 47.4451 305.65 34.7181C305.65 22.5001 313.252 13.8469 323.232 13.8469C329.76 13.8469 338.94 17.266 338.94 31.6718H317.277C318.782 39.3785 323.731 43.3777 330.615 43.3777C334.133 43.3713 336.571 42.7167 339.288 40.7526ZM316.845 26.6451V27.5785H326.314C326.314 20.3059 324.734 18.0536 321.724 18.0536C318.638 18.0665 316.845 21.1907 316.845 26.6451Z" fill="#0B0B0B"/>
<path d="M363.325 53.1166H340.513C343.31 49.7719 344.531 47.5909 344.531 42.2823V30.4953C344.531 26.3503 343.956 24.3862 341.233 21.8388L339.652 20.387L356.871 13.8469V22.9376C358.519 17.7003 361.102 13.8469 365.335 13.8469C368.778 13.8469 371 16.3197 371 19.9559C371 23.8094 368.634 26.4993 365.335 26.4993C364.616 24.8269 362.896 24.0298 361.317 24.0298C360.038 24.0298 358.808 24.3928 358.162 25.0473V41.8382C358.15 47.4451 359.109 48.9682 363.325 53.1166Z" fill="#0B0B0B"/>
</g>
<defs>
<clipPath id="clip0_69_504">
<rect width="371" height="55" fill="white"/>
</clipPath>
</defs>
</svg>
